%FSTAX23Y23*%
%MOIN*%
%SFA1B1*%

%IPPOS*%
%AMD135*
4,1,8,-0.035400,0.031500,-0.035400,-0.031500,-0.015700,-0.051200,0.015700,-0.051200,0.035400,-0.031500,0.035400,0.031500,0.015700,0.051200,-0.015700,0.051200,-0.035400,0.031500,0.0*
1,1,0.039400,-0.015700,0.031500*
1,1,0.039400,-0.015700,-0.031500*
1,1,0.039400,0.015700,-0.031500*
1,1,0.039400,0.015700,0.031500*
%
%ADD71C,0.051200*%
%ADD72C,0.039400*%
%ADD73C,0.059100*%
%ADD76C,0.019700*%
%ADD80C,0.022000*%
%ADD81C,0.027600*%
%ADD82C,0.040000*%
%ADD83C,0.028000*%
%ADD125O,0.086600X0.070900*%
%ADD126O,0.086600X0.066900*%
%ADD127C,0.070900*%
%ADD128C,0.047200*%
%ADD129C,0.066900*%
%ADD130R,0.066900X0.086600*%
%ADD131C,0.067900*%
%ADD132C,0.027600*%
%ADD133R,0.066900X0.066900*%
%ADD134R,0.066900X0.066900*%
G04~CAMADD=135~8~0.0~0.0~1024.0~709.0~197.0~0.0~15~0.0~0.0~0.0~0.0~0~0.0~0.0~0.0~0.0~0~0.0~0.0~0.0~90.0~708.0~1023.0*
%ADD135D135*%
%LNshank2.0_pcb-1*%
%LPD*%
G54D71*
X-00663Y02418D03*
X-00515Y0191D03*
G54D72*
X00872Y02719D03*
G54D73*
X0117Y02206D03*
X0127Y02203D03*
X00594Y02633D03*
X00665Y02563D03*
X00236Y03199D03*
Y03099D03*
X-00236D03*
Y03199D03*
X-00665Y02563D03*
X-00594Y02633D03*
X-01231Y02203D03*
X-01131Y02206D03*
G54D76*
X00578Y02305D03*
X00314Y01941D03*
G54D80*
X00018Y02149D03*
X-00505Y02353D03*
X00304Y02211D03*
X0003Y0187D03*
X-00072Y01876D03*
X-00479Y02282D03*
X-00663Y0168D03*
X00822Y02836D03*
X-00117Y01488D03*
X00346Y02608D03*
X00278Y02236D03*
X00438Y00846D03*
X00351Y00839D03*
X-00481Y00316D03*
X-00624Y00319D03*
X-0042Y00316D03*
X-00528Y0032D03*
X00127Y02307D03*
X-00245Y02767D03*
X-0029Y02839D03*
X00098Y01683D03*
X00078Y01648D03*
X-00535Y01682D03*
X-00562Y01719D03*
X-00684D03*
X-00365Y01842D03*
X00393Y02663D03*
X-00454Y02352D03*
X00324Y02074D03*
X00396Y02411D03*
X00213Y01566D03*
X00181Y01697D03*
X00119Y00712D03*
X00021Y02023D03*
X00019Y02089D03*
X00143Y02068D03*
X-00352Y01593D03*
X-00355Y01664D03*
X-00081Y02032D03*
X00653Y02319D03*
X-00296Y02419D03*
X00184Y02305D03*
X-00155Y02317D03*
X-00209Y02372D03*
X-00388Y02128D03*
X00315Y00488D03*
X00316Y00444D03*
G54D81*
X-00038Y00309D03*
G54D82*
X-00119Y00906D03*
X-00187Y00879D03*
G54D83*
X-00531Y02579D03*
X-00337Y02236D03*
X-01192Y02514D03*
X-00866Y02442D03*
X00129Y00537D03*
X00169Y00577D03*
Y00537D03*
X00129Y00577D03*
G54D125*
X00657Y02193D03*
X-00496Y00685D03*
X-00187Y00682D03*
G54D126*
X00657Y01937D03*
X-00496Y0043D03*
X-00187Y00427D03*
G54D127*
X01175Y02285D03*
X01275Y02282D03*
X00652Y02689D03*
X00723Y02618D03*
X00316Y03198D03*
Y03098D03*
X-00317Y031D03*
Y032D03*
X-00722Y02617D03*
X-00651Y02688D03*
X-01231Y02281D03*
X-01131Y02284D03*
G54D128*
X00804Y00599D03*
Y00549D03*
Y00499D03*
Y00449D03*
X-00799Y00453D03*
Y00503D03*
Y00553D03*
Y00603D03*
G54D129*
X-00042Y01459D03*
X00058D03*
X00158D03*
X00358D03*
X00283Y00154D03*
X00204D03*
X00567Y00294D03*
X00791Y00313D03*
X-00372Y02678D03*
X0015Y02572D03*
X0005Y02672D03*
Y02572D03*
X-0005Y02672D03*
Y02572D03*
X-0015Y02672D03*
Y02572D03*
X00789Y00088D03*
X-00729Y01652D03*
X00706Y01642D03*
X0079Y00182D03*
G54D130*
X00441Y00154D03*
X00126D03*
G54D131*
X00362Y00154D03*
G54D132*
X-00608Y02064D03*
Y02025D03*
X-00648Y02064D03*
Y02025D03*
G54D133*
X00567Y00194D03*
X-00372Y02578D03*
X-00729Y01552D03*
X00706Y01542D03*
G54D134*
X00691Y00313D03*
X0015Y02672D03*
X0069Y00182D03*
G54D135*
X-00681Y0008D03*
X-0028D03*
Y00225D03*
X-00681D03*
M02*