%FSTAX23Y23*%
%MOIN*%
%SFA1B1*%

%IPPOS*%
%AMD10*
4,1,8,-0.029900,-0.024600,0.028100,-0.026600,0.034700,-0.020400,0.036000,0.018000,0.029900,0.024600,-0.028100,0.026600,-0.034700,0.020400,-0.036000,-0.018000,-0.029900,-0.024600,0.0*
1,1,0.012800,-0.029700,-0.018200*
1,1,0.012800,0.028300,-0.020200*
1,1,0.012800,0.029700,0.018200*
1,1,0.012800,-0.028300,0.020200*
%
%AMD11*
4,1,8,-0.038600,0.002400,0.002400,-0.038600,0.011500,-0.038600,0.038600,-0.011500,0.038600,-0.002400,-0.002400,0.038600,-0.011500,0.038600,-0.038600,0.011500,-0.038600,0.002400,0.0*
1,1,0.012800,-0.034100,0.006900*
1,1,0.012800,0.006900,-0.034100*
1,1,0.012800,0.034100,-0.006900*
1,1,0.012800,-0.006900,0.034100*
%
%AMD12*
4,1,8,-0.015700,0.021700,-0.015700,-0.021700,-0.011800,-0.025600,0.011800,-0.025600,0.015700,-0.021700,0.015700,0.021700,0.011800,0.025600,-0.011800,0.025600,-0.015700,0.021700,0.0*
1,1,0.007800,-0.011800,0.021700*
1,1,0.007800,-0.011800,-0.021700*
1,1,0.007800,0.011800,-0.021700*
1,1,0.007800,0.011800,0.021700*
%
%AMD13*
4,1,8,0.019700,-0.022600,0.019700,0.022600,0.014800,0.027500,-0.014800,0.027500,-0.019700,0.022600,-0.019700,-0.022600,-0.014800,-0.027500,0.014800,-0.027500,0.019700,-0.022600,0.0*
1,1,0.009800,0.014800,-0.022600*
1,1,0.009800,0.014800,0.022600*
1,1,0.009800,-0.014800,0.022600*
1,1,0.009800,-0.014800,-0.022600*
%
%AMD14*
4,1,8,0.021700,0.015700,-0.021700,0.015700,-0.025600,0.011800,-0.025600,-0.011800,-0.021700,-0.015700,0.021700,-0.015700,0.025600,-0.011800,0.025600,0.011800,0.021700,0.015700,0.0*
1,1,0.007800,0.021700,0.011800*
1,1,0.007800,-0.021700,0.011800*
1,1,0.007800,-0.021700,-0.011800*
1,1,0.007800,0.021700,-0.011800*
%
%AMD18*
4,1,8,0.029700,0.022600,-0.029700,0.022600,-0.035400,0.016900,-0.035400,-0.016900,-0.029700,-0.022600,0.029700,-0.022600,0.035400,-0.016900,0.035400,0.016900,0.029700,0.022600,0.0*
1,1,0.011400,0.029700,0.016900*
1,1,0.011400,-0.029700,0.016900*
1,1,0.011400,-0.029700,-0.016900*
1,1,0.011400,0.029700,-0.016900*
%
%AMD21*
4,1,8,-0.025600,0.029000,-0.025600,-0.029000,-0.019200,-0.035400,0.019200,-0.035400,0.025600,-0.029000,0.025600,0.029000,0.019200,0.035400,-0.019200,0.035400,-0.025600,0.029000,0.0*
1,1,0.012800,-0.019200,0.029000*
1,1,0.012800,-0.019200,-0.029000*
1,1,0.012800,0.019200,-0.029000*
1,1,0.012800,0.019200,0.029000*
%
%AMD22*
4,1,8,0.002400,0.038600,-0.038600,-0.002400,-0.038600,-0.011500,-0.011500,-0.038600,-0.002400,-0.038600,0.038600,0.002400,0.038600,0.011500,0.011500,0.038600,0.002400,0.038600,0.0*
1,1,0.012800,0.006900,0.034100*
1,1,0.012800,-0.034100,-0.006900*
1,1,0.012800,-0.006900,-0.034100*
1,1,0.012800,0.034100,0.006900*
%
%AMD23*
4,1,8,0.028100,0.026600,-0.029900,0.024600,-0.036000,0.018000,-0.034700,-0.020400,-0.028100,-0.026600,0.029900,-0.024600,0.036000,-0.018000,0.034700,0.020400,0.028100,0.026600,0.0*
1,1,0.012800,0.028300,0.020200*
1,1,0.012800,-0.029700,0.018200*
1,1,0.012800,-0.028300,-0.020200*
1,1,0.012800,0.029700,-0.018200*
%
%AMD28*
4,1,8,0.022600,0.019700,-0.022600,0.019700,-0.027500,0.014800,-0.027500,-0.014800,-0.022600,-0.019700,0.022600,-0.019700,0.027500,-0.014800,0.027500,0.014800,0.022600,0.019700,0.0*
1,1,0.009800,0.022600,0.014800*
1,1,0.009800,-0.022600,0.014800*
1,1,0.009800,-0.022600,-0.014800*
1,1,0.009800,0.022600,-0.014800*
%
%AMD29*
4,1,8,-0.006900,0.028100,-0.006900,-0.028100,-0.005500,-0.029500,0.005500,-0.029500,0.006900,-0.028100,0.006900,0.028100,0.005500,0.029500,-0.005500,0.029500,-0.006900,0.028100,0.0*
1,1,0.002800,-0.005500,0.028100*
1,1,0.002800,-0.005500,-0.028100*
1,1,0.002800,0.005500,-0.028100*
1,1,0.002800,0.005500,0.028100*
%
%AMD30*
4,1,8,-0.023600,0.024800,-0.023600,-0.024800,-0.018900,-0.029500,0.018900,-0.029500,0.023600,-0.024800,0.023600,0.024800,0.018900,0.029500,-0.018900,0.029500,-0.023600,0.024800,0.0*
1,1,0.009400,-0.018900,0.024800*
1,1,0.009400,-0.018900,-0.024800*
1,1,0.009400,0.018900,-0.024800*
1,1,0.009400,0.018900,0.024800*
%
%AMD31*
4,1,8,-0.025000,0.018700,-0.025000,-0.018700,-0.018700,-0.025000,0.018700,-0.025000,0.025000,-0.018700,0.025000,0.018700,0.018700,0.025000,-0.018700,0.025000,-0.025000,0.018700,0.0*
1,1,0.012600,-0.018700,0.018700*
1,1,0.012600,-0.018700,-0.018700*
1,1,0.012600,0.018700,-0.018700*
1,1,0.012600,0.018700,0.018700*
%
%AMD34*
4,1,8,0.023300,0.018900,-0.021900,0.020500,-0.027000,0.015800,-0.028000,-0.013800,-0.023300,-0.018900,0.021900,-0.020500,0.027000,-0.015800,0.028000,0.013800,0.023300,0.018900,0.0*
1,1,0.009800,0.023100,0.014000*
1,1,0.009800,-0.022100,0.015600*
1,1,0.009800,-0.023100,-0.014000*
1,1,0.009800,0.022100,-0.015600*
%
%AMD35*
4,1,8,0.029900,-0.002100,-0.002100,0.029900,-0.009000,0.029900,-0.029900,0.009000,-0.029900,0.002100,0.002100,-0.029900,0.009000,-0.029900,0.029900,-0.009000,0.029900,-0.002100,0.0*
1,1,0.009800,0.026400,-0.005500*
1,1,0.009800,-0.005500,0.026400*
1,1,0.009800,-0.026400,0.005500*
1,1,0.009800,0.005500,-0.026400*
%
%AMD36*
4,1,8,0.002100,0.029900,-0.029900,-0.002100,-0.029900,-0.009000,-0.009000,-0.029900,-0.002100,-0.029900,0.029900,0.002100,0.029900,0.009000,0.009000,0.029900,0.002100,0.029900,0.0*
1,1,0.009800,0.005500,0.026400*
1,1,0.009800,-0.026400,-0.005500*
1,1,0.009800,-0.005500,-0.026400*
1,1,0.009800,0.026400,0.005500*
%
%AMD37*
4,1,8,-0.021900,-0.020500,0.023300,-0.018900,0.028000,-0.013800,0.027000,0.015800,0.021900,0.020500,-0.023300,0.018900,-0.028000,0.013800,-0.027000,-0.015800,-0.021900,-0.020500,0.0*
1,1,0.009800,-0.022100,-0.015600*
1,1,0.009800,0.023100,-0.014000*
1,1,0.009800,0.022100,0.015600*
1,1,0.009800,-0.023100,0.014000*
%
%AMD38*
4,1,8,0.022200,0.014900,-0.021100,0.016400,-0.025200,0.012700,-0.026000,-0.010900,-0.022200,-0.014900,0.021100,-0.016400,0.025200,-0.012700,0.026000,0.010900,0.022200,0.014900,0.0*
1,1,0.007800,0.022100,0.011000*
1,1,0.007800,-0.021300,0.012600*
1,1,0.007800,-0.022100,-0.011000*
1,1,0.007800,0.021300,-0.012600*
%
%AMD39*
4,1,8,-0.026400,0.004200,0.004200,-0.026400,0.009800,-0.026400,0.026400,-0.009800,0.026400,-0.004200,-0.004200,0.026400,-0.009800,0.026400,-0.026400,0.009800,-0.026400,0.004200,0.0*
1,1,0.007800,-0.023700,0.007000*
1,1,0.007800,0.007000,-0.023700*
1,1,0.007800,0.023700,-0.007000*
1,1,0.007800,-0.007000,0.023700*
%
%AMD40*
4,1,8,-0.004200,-0.026400,0.026400,0.004200,0.026400,0.009800,0.009800,0.026400,0.004200,0.026400,-0.026400,-0.004200,-0.026400,-0.009800,-0.009800,-0.026400,-0.004200,-0.026400,0.0*
1,1,0.007800,-0.007000,-0.023700*
1,1,0.007800,0.023700,0.007000*
1,1,0.007800,0.007000,0.023700*
1,1,0.007800,-0.023700,-0.007000*
%
%AMD41*
4,1,8,-0.021100,-0.016400,0.022200,-0.014900,0.026000,-0.010900,0.025200,0.012700,0.021100,0.016400,-0.022200,0.014900,-0.026000,0.010900,-0.025200,-0.012700,-0.021100,-0.016400,0.0*
1,1,0.007800,-0.021300,-0.012600*
1,1,0.007800,0.022100,-0.011000*
1,1,0.007800,0.021300,0.012600*
1,1,0.007800,-0.022100,0.011000*
%
%AMD42*
4,1,8,-0.024600,0.023600,-0.024600,-0.023600,-0.019700,-0.028500,0.019700,-0.028500,0.024600,-0.023600,0.024600,0.023600,0.019700,0.028500,-0.019700,0.028500,-0.024600,0.023600,0.0*
1,1,0.009800,-0.019700,0.023600*
1,1,0.009800,-0.019700,-0.023600*
1,1,0.009800,0.019700,-0.023600*
1,1,0.009800,0.019700,0.023600*
%
%AMD79*
4,1,8,-0.031500,0.031500,-0.031500,-0.031500,-0.015800,-0.047200,0.015800,-0.047200,0.031500,-0.031500,0.031500,0.031500,0.015800,0.047200,-0.015800,0.047200,-0.031500,0.031500,0.0*
1,1,0.031400,-0.015800,0.031500*
1,1,0.031400,-0.015800,-0.031500*
1,1,0.031400,0.015800,-0.031500*
1,1,0.031400,0.015800,0.031500*
%
G04~CAMADD=10~8~0.0~0.0~709.0~512.0~64.0~0.0~15~0.0~0.0~0.0~0.0~0~0.0~0.0~0.0~0.0~0~0.0~0.0~0.0~178.0~722.0~530.0*
%ADD10D10*%
G04~CAMADD=11~8~0.0~0.0~709.0~512.0~64.0~0.0~15~0.0~0.0~0.0~0.0~0~0.0~0.0~0.0~0.0~0~0.0~0.0~0.0~135.0~810.0~808.0*
%ADD11D11*%
G04~CAMADD=12~8~0.0~0.0~512.0~315.0~39.0~0.0~15~0.0~0.0~0.0~0.0~0~0.0~0.0~0.0~0.0~0~0.0~0.0~0.0~90.0~314.0~512.0*
%ADD12D12*%
G04~CAMADD=13~8~0.0~0.0~551.0~394.0~49.0~0.0~15~0.0~0.0~0.0~0.0~0~0.0~0.0~0.0~0.0~0~0.0~0.0~0.0~270.0~394.0~550.0*
%ADD13D13*%
G04~CAMADD=14~8~0.0~0.0~512.0~315.0~39.0~0.0~15~0.0~0.0~0.0~0.0~0~0.0~0.0~0.0~0.0~0~0.0~0.0~0.0~0.0~512.0~315.0*
%ADD14D14*%
%ADD15O,0.015700X0.059100*%
%ADD16R,0.086600X0.094500*%
%ADD17R,0.045300X0.055100*%
G04~CAMADD=18~8~0.0~0.0~709.0~453.0~57.0~0.0~15~0.0~0.0~0.0~0.0~0~0.0~0.0~0.0~0.0~0~0.0~0.0~0.0~0.0~709.0~453.0*
%ADD18D18*%
%ADD19O,0.011800X0.070900*%
%ADD20O,0.070900X0.011800*%
G04~CAMADD=21~8~0.0~0.0~709.0~512.0~64.0~0.0~15~0.0~0.0~0.0~0.0~0~0.0~0.0~0.0~0.0~0~0.0~0.0~0.0~90.0~512.0~708.0*
%ADD21D21*%
G04~CAMADD=22~8~0.0~0.0~709.0~512.0~64.0~0.0~15~0.0~0.0~0.0~0.0~0~0.0~0.0~0.0~0.0~0~0.0~0.0~0.0~45.0~808.0~809.0*
%ADD22D22*%
G04~CAMADD=23~8~0.0~0.0~709.0~512.0~64.0~0.0~15~0.0~0.0~0.0~0.0~0~0.0~0.0~0.0~0.0~0~0.0~0.0~0.0~2.0~720.0~531.0*
%ADD23D23*%
%ADD24R,0.094500X0.086600*%
%ADD25R,0.009800X0.027600*%
%ADD26R,0.027600X0.009800*%
%ADD27R,0.066100X0.066100*%
G04~CAMADD=28~8~0.0~0.0~551.0~394.0~49.0~0.0~15~0.0~0.0~0.0~0.0~0~0.0~0.0~0.0~0.0~0~0.0~0.0~0.0~0.0~551.0~394.0*
%ADD28D28*%
G04~CAMADD=29~8~0.0~0.0~591.0~138.0~14.0~0.0~15~0.0~0.0~0.0~0.0~0~0.0~0.0~0.0~0.0~0~0.0~0.0~0.0~90.0~138.0~590.0*
%ADD29D29*%
G04~CAMADD=30~8~0.0~0.0~591.0~472.0~47.0~0.0~15~0.0~0.0~0.0~0.0~0~0.0~0.0~0.0~0.0~0~0.0~0.0~0.0~90.0~472.0~590.0*
%ADD30D30*%
G04~CAMADD=31~8~0.0~0.0~500.0~500.0~63.0~0.0~15~0.0~0.0~0.0~0.0~0~0.0~0.0~0.0~0.0~0~0.0~0.0~0.0~90.0~500.0~500.0*
%ADD31D31*%
%ADD32R,0.096800X0.100800*%
%ADD33R,0.055100X0.013800*%
G04~CAMADD=34~8~0.0~0.0~551.0~394.0~49.0~0.0~15~0.0~0.0~0.0~0.0~0~0.0~0.0~0.0~0.0~0~0.0~0.0~0.0~358.0~560.0~408.0*
%ADD34D34*%
G04~CAMADD=35~8~0.0~0.0~551.0~394.0~49.0~0.0~15~0.0~0.0~0.0~0.0~0~0.0~0.0~0.0~0.0~0~0.0~0.0~0.0~315.0~628.0~626.0*
%ADD35D35*%
G04~CAMADD=36~8~0.0~0.0~551.0~394.0~49.0~0.0~15~0.0~0.0~0.0~0.0~0~0.0~0.0~0.0~0.0~0~0.0~0.0~0.0~45.0~626.0~627.0*
%ADD36D36*%
G04~CAMADD=37~8~0.0~0.0~551.0~394.0~49.0~0.0~15~0.0~0.0~0.0~0.0~0~0.0~0.0~0.0~0.0~0~0.0~0.0~0.0~182.0~560.0~409.0*
%ADD37D37*%
G04~CAMADD=38~8~0.0~0.0~512.0~315.0~39.0~0.0~15~0.0~0.0~0.0~0.0~0~0.0~0.0~0.0~0.0~0~0.0~0.0~0.0~358.0~520.0~329.0*
%ADD38D38*%
G04~CAMADD=39~8~0.0~0.0~512.0~315.0~39.0~0.0~15~0.0~0.0~0.0~0.0~0~0.0~0.0~0.0~0.0~0~0.0~0.0~0.0~135.0~552.0~551.0*
%ADD39D39*%
G04~CAMADD=40~8~0.0~0.0~512.0~315.0~39.0~0.0~15~0.0~0.0~0.0~0.0~0~0.0~0.0~0.0~0.0~0~0.0~0.0~0.0~225.0~552.0~552.0*
%ADD40D40*%
G04~CAMADD=41~8~0.0~0.0~512.0~315.0~39.0~0.0~15~0.0~0.0~0.0~0.0~0~0.0~0.0~0.0~0.0~0~0.0~0.0~0.0~182.0~518.0~329.0*
%ADD41D41*%
G04~CAMADD=42~8~0.0~0.0~571.0~492.0~49.0~0.0~15~0.0~0.0~0.0~0.0~0~0.0~0.0~0.0~0.0~0~0.0~0.0~0.0~90.0~492.0~570.0*
%ADD42D42*%
%ADD43C,0.010000*%
%ADD44C,0.008000*%
%ADD45C,0.009800*%
%ADD46C,0.014000*%
%ADD47C,0.019700*%
%ADD48C,0.009000*%
%ADD49C,0.016000*%
%ADD50C,0.011800*%
%ADD51C,0.050000*%
%ADD52C,0.020000*%
%ADD53C,0.039400*%
%ADD54C,0.011000*%
%ADD55C,0.015700*%
%ADD56C,0.027600*%
%ADD57C,0.045000*%
%ADD58C,0.040000*%
%ADD59C,0.047200*%
%ADD60C,0.030000*%
%ADD61C,0.012000*%
%ADD62C,0.023600*%
%ADD63C,0.059100*%
%ADD64C,0.009500*%
%ADD65C,0.018000*%
%ADD66C,0.008900*%
%ADD67C,0.118100*%
%ADD68O,0.078700X0.063000*%
%ADD69O,0.078700X0.059100*%
%ADD70C,0.063000*%
%ADD71C,0.051200*%
%ADD72C,0.039400*%
%ADD73C,0.059100*%
%ADD74R,0.059100X0.078700*%
%ADD75C,0.060000*%
%ADD76C,0.019700*%
%ADD77R,0.059100X0.059100*%
%ADD78R,0.059100X0.059100*%
G04~CAMADD=79~8~0.0~0.0~945.0~630.0~157.0~0.0~15~0.0~0.0~0.0~0.0~0~0.0~0.0~0.0~0.0~0~0.0~0.0~0.0~90.0~630.0~944.0*
%ADD79D79*%
%ADD80C,0.022000*%
%ADD81C,0.027600*%
%ADD82C,0.040000*%
%ADD83C,0.028000*%
%LNshank2.0_pcb-1*%
%LPD*%
G36*
X00238Y03398D02*
X00432Y03358D01*
X00681Y03262*
X00936Y03098*
X01163Y02885*
X01301Y02689*
X01363Y02591*
X01405Y02495*
X01471Y02344*
X01524Y02109*
X01516Y021*
X01094*
X01104Y00013*
X01096Y00005*
X-00298*
X-00306Y00016*
X-00304Y00021*
X-00303Y00021*
X-00303Y00021*
X-00296Y0002*
X-00264*
X-00257Y00021*
X-0025Y00024*
X-00244Y00028*
X-0024Y00034*
X-00237Y00041*
X-00236Y00048*
Y00111*
X-00237Y00118*
X-0024Y00125*
X-00244Y00131*
X-0025Y00135*
X-00257Y00138*
X-00264Y00139*
X-00296*
X-00303Y00138*
X-00303Y00138*
X-00315Y00145*
Y0016*
X-00305Y00167*
X-00305*
X-00303Y00167*
X-00303Y00167*
X-00296Y00166*
X-00264*
X-00257Y00167*
X-0025Y0017*
X-00244Y00174*
X-0024Y0018*
X-00237Y00187*
X-00236Y00194*
Y00257*
X-00237Y00264*
X-0024Y00271*
X-00244Y00276*
X-0025Y00281*
X-00257Y00284*
X-00264Y00285*
X-00296*
X-00303Y00284*
X-00309Y00281*
X-00315Y00276*
X-0032Y00271*
X-00322Y00264*
X-00323Y00257*
Y00209*
X-00335Y00203*
X-00335Y00203*
X-00337Y00204*
X-00338Y00205*
X-00346Y00208*
X-00347Y00208*
X-00349Y00209*
X-0035Y00209*
X-00352Y00212*
Y00262*
X-00354Y00268*
X-00357Y00274*
X-00363Y00277*
X-00369Y00279*
X-00407*
X-00409Y0028*
X-00409Y00294*
X-00406Y00296*
X-00405Y00298*
X-00403Y003*
X-00398Y00307*
X-00396Y00316*
X-00398Y00325*
X-00403Y00332*
X-00411Y00338*
X-0042Y00339*
X-00428Y00338*
X-00436Y00332*
X-00441Y00325*
X-00443Y00316*
X-00442Y0031*
X-00442*
X-00445Y00304*
X-00447Y00298*
X-00446Y00297*
Y00281*
X-00449Y00279*
X-0046*
X-00463Y00281*
Y003*
X-00459Y00307*
X-00457Y00316*
X-00459Y00324*
X-00464Y00332*
X-00472Y00337*
X-00481Y00339*
X-00489Y00337*
X-00496Y00333*
X-00497Y00332*
X-0051Y00334*
X-00511Y00336*
X-00519Y00341*
X-00528Y00343*
X-00536Y00341*
X-00544Y00336*
X-00549Y00328*
X-00551Y0032*
X-00561Y0031*
X-0059*
X-00601Y0032*
X-00602Y00327*
X-00607Y00335*
X-00615Y0034*
X-00624Y00342*
X-00632Y0034*
X-0064Y00335*
X-00645Y00327*
X-00647Y00319*
X-00645Y0031*
X-0064Y00302*
X-00632Y00297*
X-00628Y00296*
X-0061Y00279*
X-00608Y00268*
X-00609Y00262*
Y00212*
X-00615Y00208*
X-00623Y00205*
X-00624Y00204*
X-00626Y00203*
X-00626Y00203*
X-00638Y00209*
Y00257*
X-00639Y00264*
X-00642Y00271*
X-00646Y00276*
X-00652Y00281*
X-00658Y00284*
X-00666Y00285*
X-00697*
X-00704Y00284*
X-00711Y00281*
X-00717Y00276*
X-00721Y00271*
X-00724Y00264*
X-00725Y00257*
Y00194*
X-00724Y00187*
X-00721Y0018*
X-00717Y00174*
X-00711Y0017*
X-00704Y00167*
X-00697Y00166*
X-00666*
X-00658Y00167*
X-00658Y00167*
X-00658*
X-00646Y0016*
Y00145*
X-00658Y00138*
X-00658Y00138*
X-00666Y00139*
X-00697*
X-00704Y00138*
X-00711Y00135*
X-00717Y00131*
X-00721Y00125*
X-00724Y00118*
X-00725Y00111*
Y00048*
X-00724Y00041*
X-00721Y00034*
X-00717Y00028*
X-00711Y00024*
X-00704Y00021*
X-00697Y0002*
X-00666*
X-00658Y00021*
X-00655Y00016*
X-0066Y00005*
X-01102*
Y021*
X-01512*
X-01519Y02109*
X-01404Y02514*
X-01163Y02885*
X-00861Y03153*
X-00553Y03312*
X-00297Y03388*
X-00059Y03411*
X00238Y03398*
G37*
%LNshank2.0_pcb-2*%
%LPC*%
G36*
X00984Y02039D02*
X0097Y02038D01*
X00957Y02034*
X00944Y02027*
X00933Y02018*
X00925Y02008*
X00918Y01995*
X00914Y01982*
X00913Y01968*
X00914Y01954*
X00918Y01941*
X00925Y01928*
X00933Y01918*
X00944Y01909*
X00957Y01902*
X0097Y01898*
X00984Y01897*
X00998Y01898*
X01011Y01902*
X01023Y01909*
X01034Y01918*
X01043Y01928*
X0105Y01941*
X01054Y01954*
X01055Y01968*
X01054Y01982*
X0105Y01995*
X01043Y02008*
X01034Y02018*
X01023Y02027*
X01011Y02034*
X00998Y02038*
X00984Y02039*
G37*
G36*
X00804Y0063D02*
X00795Y00629D01*
X00788Y00626*
X00781Y00621*
X00776Y00614*
X00773Y00607*
X00772Y00599*
X00773Y0059*
X00776Y00583*
X00781Y00576*
Y00571*
X00776Y00564*
X00773Y00557*
X00772Y00549*
X00773Y0054*
X00776Y00533*
X00781Y00526*
Y00521*
X00776Y00514*
X00773Y00507*
X00772Y00499*
X00773Y0049*
X00776Y00483*
X00781Y00476*
X00788Y00471*
X00795Y00468*
X00804Y00467*
X00812Y00468*
X00819Y00471*
X00826Y00476*
X00831Y00483*
X00834Y0049*
X00835Y00499*
X00834Y00507*
X00831Y00514*
X00826Y00521*
Y00526*
X00831Y00533*
X00834Y0054*
X00835Y00549*
X00834Y00557*
X00831Y00564*
X00826Y00571*
Y00576*
X00831Y00583*
X00834Y0059*
X00835Y00599*
X00834Y00607*
X00831Y00614*
X00826Y00621*
X00819Y00626*
X00812Y00629*
X00804Y0063*
G37*
G36*
X-00984Y02039D02*
X-00998Y02038D01*
X-01011Y02034*
X-01023Y02027*
X-01034Y02018*
X-01043Y02008*
X-0105Y01995*
X-01054Y01982*
X-01055Y01968*
X-01054Y01954*
X-0105Y01941*
X-01043Y01928*
X-01034Y01918*
X-01023Y01909*
X-01011Y01902*
X-00998Y01898*
X-00984Y01897*
X-0097Y01898*
X-00957Y01902*
X-00944Y01909*
X-00933Y01918*
X-00925Y01928*
X-00918Y01941*
X-00914Y01954*
X-00913Y01968*
X-00914Y01982*
X-00918Y01995*
X-00925Y02008*
X-00933Y02018*
X-00944Y02027*
X-00957Y02034*
X-0097Y02038*
X-00984Y02039*
G37*
G36*
Y00189D02*
X-00998Y00188D01*
X-01011Y00183*
X-01023Y00177*
X-01034Y00168*
X-01043Y00157*
X-0105Y00145*
X-01054Y00132*
X-01055Y00118*
X-01054Y00104*
X-0105Y0009*
X-01043Y00078*
X-01034Y00067*
X-01023Y00058*
X-01011Y00052*
X-00998Y00048*
X-00984Y00046*
X-0097Y00048*
X-00957Y00052*
X-00944Y00058*
X-00933Y00067*
X-00925Y00078*
X-00918Y0009*
X-00914Y00104*
X-00913Y00118*
X-00914Y00132*
X-00918Y00145*
X-00925Y00157*
X-00933Y00168*
X-00944Y00177*
X-00957Y00183*
X-0097Y00188*
X-00984Y00189*
G37*
G36*
X00984D02*
X0097Y00188D01*
X00957Y00183*
X00944Y00177*
X00933Y00168*
X00925Y00157*
X00918Y00145*
X00914Y00132*
X00913Y00118*
X00914Y00104*
X00918Y0009*
X00925Y00078*
X00933Y00067*
X00944Y00058*
X00957Y00052*
X0097Y00048*
X00984Y00046*
X00998Y00048*
X01011Y00052*
X01023Y00058*
X01034Y00067*
X01043Y00078*
X0105Y0009*
X01054Y00104*
X01055Y00118*
X01054Y00132*
X0105Y00145*
X01043Y00157*
X01034Y00168*
X01023Y00177*
X01011Y00183*
X00998Y00188*
X00984Y00189*
G37*
G36*
X00394Y03329D02*
D01*
X00069*
X00062Y03328*
X00055Y03324*
X-00002Y03266*
X-00018Y03265*
X-00072Y03319*
X-00078Y03323*
X-00085Y03324*
X-00327*
X-00327*
X-00334Y03323*
X-0034Y03319*
X-00867Y02792*
X-00979*
X-00986Y0279*
X-00992Y02786*
X-01088Y0269*
X-01092Y02684*
X-01094Y02677*
Y02441*
X-01194Y02341*
X-01198Y02335*
X-012Y02328*
Y02327*
X-01206Y02322*
X-01212Y0232*
X-01221Y02323*
X-01232Y02324*
X-01243Y02323*
X-01245Y02322*
X-01259Y02336*
X-01265Y0234*
X-01271Y02343*
X-01275Y02343*
X-01278Y02344*
X-01319*
X-01319Y02344*
X-01324Y0235*
X-0133Y02354*
X-01337Y02355*
X-01395Y02353*
X-01402Y02352*
X-01408Y02347*
X-01412Y02341*
X-01413Y02334*
X-01412Y02302*
X-01442Y02272*
X-01446Y02266*
X-01449Y0226*
X-01449Y02256*
X-0145Y02253*
Y02163*
X-01449Y02159*
X-01449Y02156*
X-01446Y02149*
X-01442Y02143*
X-01428Y02129*
X-01422Y02125*
X-01416Y02122*
X-01409Y02122*
X-01108*
X-01104Y02122*
X-01101Y02122*
X-01094Y02125*
X-01089Y02129*
X-01021Y02197*
X-01017Y02193*
X-00962Y02195*
X-00954Y02198*
X-00948Y02194*
X-00942Y02191*
X-00935Y02191*
X-00788*
Y0216*
X-00791Y02155*
X-00792Y02149*
Y02125*
X-00791Y02119*
X-00788Y02114*
X-00782Y02111*
X-00776Y02109*
X-00733*
X-00727Y02111*
X-00722Y02114*
X-0072Y02117*
X-0071Y02118*
X-00706Y02117*
X-00678Y02089*
X-00674Y02086*
Y02076*
X-00641*
X-00635*
X-00596*
Y02057*
X-00545*
Y02062*
X-00453*
X-00452Y02061*
X-00431*
X-0039Y0202*
X-00393Y02013*
X-00401Y02005*
Y0195*
X-00393Y01942*
X-00371*
X-00368Y01939*
X-00367Y01936*
X-00371Y01924*
X-00372Y01923*
X-00376Y01917*
X-00377Y01911*
Y01861*
X-00381Y01858*
X-00386Y0185*
X-00388Y01842*
X-00386Y01833*
X-00383Y01827*
X-00385Y01819*
X-00388Y01816*
X-00429*
X-00436Y01814*
X-00441Y01811*
X-00516Y01736*
X-00546*
X-00553Y0174*
X-00562Y01742*
X-0057Y0174*
X-00575Y01737*
X-00584Y0174*
X-00587Y01742*
Y018*
X-00574Y01813*
X-00569Y0182*
X-00566Y01827*
X-00565Y01836*
X-00565Y01838*
X-0055Y01951*
X-00544Y0199*
X-00544Y01991*
X-00544Y01992*
Y02022*
X-00544Y02026*
X-00545Y02027*
Y02031*
X-00549*
X-00551Y02033*
X-00556Y02034*
X-00586*
X-0059Y02033*
X-00592Y02031*
X-00596*
Y02027*
X-00597Y02026*
X-00598Y02022*
Y02013*
X-00638*
X-00643Y02014*
X-00647Y02013*
X-00659*
Y02051*
X-00683*
X-00685Y02052*
X-00707*
X-00727Y02071*
Y02074*
X-00728Y02081*
X-00732Y02086*
X-00737Y0209*
X-00744Y02091*
X-00789*
X-00795Y0209*
X-00801Y02086*
X-00805Y02081*
X-00806Y02074*
Y02044*
X-00805Y02038*
X-00802Y02033*
Y02014*
X-00805Y0201*
X-00806Y02003*
Y01974*
X-00805Y01967*
X-00801Y01962*
X-00795Y01958*
X-00789Y01957*
X-0078*
X-00771Y01946*
Y01916*
X-0077Y0191*
X-00767Y01905*
Y01877*
X-00759Y01869*
X-00704*
X-00696Y01877*
Y01905*
X-00693Y0191*
X-00692Y01916*
Y01946*
X-00693Y01952*
X-00695Y01956*
X-00686Y01965*
X-00674Y01962*
X-0065*
X-00641Y01952*
X-00645Y01941*
X-00651*
X-00659Y01933*
Y01878*
X-00651Y0187*
X-00624*
Y01853*
X-00641Y01836*
X-00646Y01829*
X-0065Y01821*
X-00651Y01813*
Y01735*
X-00662Y01728*
X-00663Y01728*
X-00667Y01735*
X-00675Y0174*
X-00684Y01742*
X-00692Y0174*
X-00699Y01736*
X-00793*
X-00799Y01734*
X-00805Y01731*
X-00819Y01717*
X-00822Y01711*
X-00824Y01705*
Y00656*
X-00849Y00631*
X-00852Y00625*
X-00854Y00619*
Y00561*
X-00852Y00554*
X-00849Y00548*
X-00841Y0054*
X-00835Y00537*
X-00829Y00535*
X-00827*
X-00823Y0053*
X-00821Y00525*
X-00826Y00518*
X-00829Y00511*
X-0083Y00503*
X-00829Y00494*
X-00826Y00487*
X-00821Y0048*
Y00475*
X-00826Y00468*
X-00829Y00461*
X-0083Y00453*
X-00829Y00444*
X-00826Y00437*
X-00821Y0043*
X-00814Y00425*
X-00807Y00422*
X-00803Y00421*
X-00787Y00405*
X-00779Y004*
X-00771Y00398*
X-00533*
X-00526Y00393*
X-00516Y00389*
X-00505Y00388*
X-00486*
X-00475Y00389*
X-00465Y00393*
X-00459Y00398*
X-00227*
X-00226Y00397*
X-00217Y0039*
X-00207Y00386*
X-00196Y00385*
X-00177*
X-00166Y00386*
X-00156Y0039*
X-00151Y00394*
X-00064Y00307*
X-00063Y00302*
X-0006Y00296*
X-00056Y0029*
X-00051Y00286*
X-00047Y00285*
X-00008Y00245*
Y0023*
X-00013Y00229*
X-00019Y00226*
X-00022Y0022*
X-00023Y00214*
Y00191*
X-00022Y00184*
X-00019Y0018*
Y00146*
X-00019Y00146*
X-00041*
Y00147*
X-00043Y00154*
X-00047Y0016*
X-00049Y00161*
Y00181*
X-00109*
Y00161*
X-0011Y0016*
X-00114Y00154*
X-00116Y00147*
Y00109*
X-00114Y00102*
X-0011Y00096*
X-00104Y00092*
X-00097Y00091*
X-0006*
X-00053Y00092*
X-00047Y00096*
X-00043Y00101*
X-00019*
X-00019Y001*
X-00013Y00097*
X-00007Y00096*
X00035*
X00041Y00097*
X00047Y001*
X0005Y00106*
X00051Y00112*
Y00135*
X0005Y00142*
X00047Y00146*
Y0018*
X0005Y00184*
X00051Y00191*
Y00214*
X0005Y0022*
X00047Y00226*
X00041Y00229*
X00036Y0023*
Y00255*
X00034Y00263*
X00029Y0027*
X-00012Y00313*
X-00013Y00317*
X-00015Y0032*
X-00016Y00321*
X-0002Y00327*
X-00023Y00329*
X-00032Y00339*
X-00032Y0034*
X-00027Y0035*
X00095*
X00103Y00351*
X00111Y00354*
X00118Y0036*
X00121Y00363*
X00132Y00359*
Y00266*
X00175*
X00239Y00203*
X00238Y00194*
X00226Y00189*
X00225Y0019*
X00215Y00194*
X00204Y00195*
X00193Y00194*
X00183Y0019*
X00179Y00186*
X00167Y00191*
Y00205*
X00084*
Y00102*
X00167*
Y00116*
X00179Y00121*
X00183Y00117*
X00193Y00113*
X00204Y00112*
X00215Y00113*
X00225Y00117*
X00234Y00124*
X00237Y00128*
X00237Y00128*
X0025*
X00251Y00128*
X00254Y00124*
X00262Y00117*
X00272Y00113*
X00283Y00112*
X00294Y00113*
X00304Y00117*
X00313Y00124*
X00315Y00127*
X00316Y00128*
X00329Y00128*
X00329Y00127*
X0033Y00127*
Y0008*
X00331Y00072*
X00331Y00071*
X00331Y0007*
X00332Y00059*
X00336Y00049*
X00343Y0004*
X00352Y00033*
X00362Y00029*
X00373Y00028*
X00771*
X00781Y00029*
X00791Y00033*
X008Y0004*
X00818Y00058*
X00818Y00059*
X00819Y00059*
X00826Y00068*
X0083Y00078*
X00831Y00089*
Y00182*
X0083Y00192*
X00826Y00202*
X00819Y00211*
X0081Y00218*
X008Y00222*
X0079Y00223*
X00779Y00222*
X00769Y00218*
X0076Y00211*
X00753Y00202*
X00749Y00192*
X00748Y00182*
Y00111*
X00482*
Y00172*
X00493Y00177*
X00501Y00168*
X00509Y00163*
X00517Y00159*
X00525Y00158*
Y00152*
X00608*
Y00235*
X00536*
X00491Y0028*
X00483Y00286*
X00475Y00289*
X00465Y0029*
X00453*
X00431Y00313*
Y00377*
X00329*
X00273Y00433*
X00276Y00445*
X00282Y00448*
X00293Y00442*
X00294Y00435*
X00299Y00427*
X00307Y00422*
X00316Y0042*
X00317Y00421*
X0033Y00416*
X00334Y0041*
X00339Y00407*
X00346Y00405*
X00391*
X00398Y00407*
X00403Y0041*
X00407Y00416*
X00408Y00422*
Y00431*
X00431Y00454*
X00435Y0046*
X00437Y00468*
Y00526*
X00478Y00567*
X00506*
X00511Y00563*
Y00323*
X0051Y00315*
X00511Y00305*
X00515Y00297*
X0052Y00289*
X00526Y00283*
X00526Y00283*
X0053Y00273*
X00537Y00264*
X00546Y00257*
X00556Y00253*
X00567Y00252*
X00577Y00253*
X00587Y00257*
X00596Y00264*
X00603Y00273*
X00607Y00283*
X00608Y00294*
X00607Y00304*
X00603Y00314*
X00596Y00323*
X00587Y0033*
X0058Y00333*
Y00362*
X00585Y00371*
X00592*
X00685*
X00698Y00358*
X00705Y00353*
X00712Y0035*
X00721Y00349*
X00732*
X00752Y00329*
X0075Y00323*
X00749Y00313*
X0075Y00302*
X00754Y00292*
X00761Y00283*
X0077Y00276*
X0078Y00272*
X00791Y00271*
X00801Y00272*
X00811Y00276*
X0082Y00283*
X00827Y00292*
X00831Y00302*
X00832Y00313*
X00831Y00323*
X00827Y00333*
X00822Y0034*
X00821Y00344*
X00818Y00351*
X00813Y00358*
X00768Y00403*
X00761Y00408*
X00754Y00411*
X00746Y00412*
X00734*
X007Y00446*
X00696Y00449*
Y00489*
X00592*
X00585*
X0058Y00499*
Y00542*
X00585Y00552*
X00696*
Y0067*
X00585*
Y0064*
X00479*
X00469Y00639*
X00464Y00637*
X00446*
X00439Y00635*
X00434Y00632*
X0043Y00626*
X00428Y00619*
Y00592*
X0042Y00586*
X0041Y0059*
Y00605*
X00408Y00612*
X00405Y00616*
Y00645*
X00397Y00653*
X00342*
X00337Y00648*
X00326Y00652*
Y00686*
X0045Y0081*
X00453Y00816*
X00455Y00823*
Y0083*
X00459Y00837*
X00461Y00846*
X00459Y00854*
X00454Y00862*
X00446Y00867*
X00438Y00869*
X00429Y00867*
X00421Y00862*
X00416Y00854*
X00414Y00846*
X00416Y00837*
X0042Y0083*
Y0083*
X00379Y00788*
X00368Y00792*
Y00823*
X00372Y0083*
X00374Y00839*
X00372Y00847*
X00367Y00855*
X00359Y0086*
X00351Y00862*
X00342Y0086*
X00334Y00855*
X00329Y00847*
X00327Y00839*
X00329Y0083*
X00333Y00823*
Y00775*
X00253Y00694*
X00249Y00688*
X00248Y00682*
Y00665*
X00225*
Y00627*
Y00602*
Y00576*
X00304*
Y00578*
X00318*
X0032Y00575*
X00313Y00563*
X00265*
X00262Y00562*
X00225*
Y00525*
Y00499*
Y00474*
Y00448*
X00214*
X0013*
X00121Y00447*
X00114Y00444*
X00107Y00439*
X00082Y00414*
X-00018*
X-00172Y00568*
X-00179Y00573*
X-00186Y00576*
X-00195Y00577*
X-00583*
X-00587Y00581*
Y00721*
X-00575Y00726*
X-00546Y00696*
X-00547Y00685*
X-00546Y00674*
X-00541Y00664*
X-00534Y00655*
X-00525Y00648*
X-00515Y00643*
X-00503Y00642*
X-00488*
X-00476Y00643*
X-00466Y00648*
X-00457Y00655*
X-0045Y00664*
X-00445Y00674*
X-00444Y00685*
X-00445Y00697*
X-0045Y00707*
X-00457Y00716*
X-00466Y00723*
X-00476Y00728*
X-00488Y00729*
X-00503*
X-00515Y00728*
X-00545Y00759*
Y01433*
X-00544Y01434*
X-00493*
X-00485Y01442*
Y01471*
X-00482Y01474*
X-0047Y01469*
Y01441*
X-00462Y01433*
X-00411*
X-00401Y01427*
Y01344*
X-00458Y01286*
X-00463Y01279*
X-00465Y01271*
Y00787*
X-00463Y00779*
X-00458Y00772*
X-00353Y00667*
X-00346Y00662*
X-00338Y0066*
X-00232*
X-00225Y00652*
X-00216Y00645*
X-00206Y0064*
X-00194Y00639*
X-00179*
X-00167Y0064*
X-00157Y00645*
X-00153Y00647*
X-00142Y00641*
Y00575*
X-0014Y00565*
X-00135Y00558*
X-00053Y00476*
X-00045Y0047*
X-00036Y00468*
X-00026Y0047*
X-00022Y00473*
X-00006*
Y00448*
X00072*
Y00474*
Y00511*
X00053*
X0005Y00512*
X-00009*
X-0001Y00513*
X-00004Y00525*
X00052*
X00054Y00525*
X00072*
Y00569*
X00072Y00569*
X00072Y0057*
Y00588*
X00055*
X00053Y00589*
X00009*
X00008Y0059*
X00014Y00601*
X00051*
X00054Y00602*
X00072*
Y00629*
X00103*
X0011Y0063*
X00115Y00634*
X00131Y00649*
X00134Y00655*
X00136Y00662*
Y00696*
X0014Y00703*
X00142Y00712*
X0014Y0072*
X00135Y00728*
X00127Y00733*
X00119Y00735*
X0011Y00733*
X00102Y00728*
X00097Y0072*
X00095Y00712*
X00097Y00703*
X00101Y00696*
Y00669*
X00096Y00663*
X00072*
Y00665*
X00008*
Y00821*
X00687Y015*
X00747*
Y01583*
X007*
X00695Y01594*
X00701Y01601*
X00706Y016*
X00716Y01601*
X00726Y01605*
X00735Y01612*
X00742Y01621*
X00746Y01631*
X00747Y01642*
X00746Y01652*
X00742Y01662*
X00735Y01671*
X00726Y01678*
X00716Y01682*
X00706Y01683*
X00695Y01682*
X00685Y01678*
X00676Y01671*
X00669Y01662*
X00665Y01652*
X00664Y01642*
X00665Y01635*
X-00067Y00902*
X-00071Y00901*
X-00076Y00901*
X-00086Y00906*
X-00088Y00914*
X-00091Y00922*
X-00096Y00928*
X-00103Y00933*
X-0011Y00937*
X-00119Y00938*
X-00127Y00937*
X-00135Y00933*
X-00141Y00928*
X-00146Y00922*
X-0015Y00914*
X-00151Y00906*
X-0015Y00903*
X-00162Y00898*
X-00164Y00901*
X-00171Y00906*
X-00178Y0091*
X-00187Y00911*
X-00195Y0091*
X-00203Y00906*
X-00209Y00901*
X-00214Y00895*
X-00218Y00887*
X-00219Y00879*
X-00218Y0087*
X-00214Y00863*
X-00209Y00856*
X-00203Y00851*
X-00195Y00848*
X-00187Y00846*
X-00185Y00847*
X-00142Y00804*
Y00724*
X-00153Y00718*
X-00157Y0072*
X-00167Y00725*
X-00179Y00726*
X-00194*
X-00206Y00725*
X-00216Y0072*
X-00225Y00713*
X-00232Y00705*
X-00328*
X-0042Y00797*
Y01261*
X-00363Y01319*
X-00358Y01326*
X-00356Y01335*
Y01487*
X-00358Y01495*
X-00363Y01502*
X-00377Y01517*
X-00384Y01521*
X-00393Y01523*
X-00403*
X-00404Y01524*
X-00409Y01528*
X-00415Y01529*
X-00419*
Y01664*
X-00389Y01695*
X-0037*
X-00367Y01683*
X-00371Y0168*
X-00376Y01672*
X-00378Y01664*
X-00376Y01655*
X-00371Y01647*
X-00363Y01642*
X-00355Y0164*
X-00346Y01642*
X-00338Y01647*
X-00333Y01655*
X-00331Y01664*
X-00331Y01664*
X-00322Y01674*
X-00297*
X-00292Y01663*
X-00342Y01613*
X-00343Y01614*
X-00352Y01616*
X-0036Y01614*
X-00368Y01609*
X-00373Y01601*
X-00375Y01593*
X-00373Y01584*
X-00368Y01576*
X-0036Y01571*
X-00352Y01569*
X-00351Y01569*
X-00346Y01568*
X-00339Y0157*
X-00333Y01573*
X-0026Y01647*
X-00256Y01646*
X-00256Y01646*
X-00247Y01635*
Y01605*
X-00246Y01599*
X-00243Y01594*
Y01566*
X-00235Y01558*
X-0018*
X-00172Y01566*
Y01594*
X-00169Y01599*
X-00168Y01605*
Y01634*
X-00114*
X-00111Y01632*
Y01611*
X-00131Y01591*
X-00135Y01585*
X-00137Y01577*
Y01498*
X-00138Y01496*
X-0014Y01488*
X-00138Y01479*
X-00133Y01471*
X-00125Y01466*
X-00117Y01464*
X-00108Y01466*
X-00101Y01471*
X-001Y01471*
X-00098Y01472*
X-00092Y01472*
X-00083Y01461*
X-00083Y01459*
X-00082Y01448*
X-00078Y01438*
X-00071Y01429*
X-00062Y01422*
X-00052Y01418*
X-00042Y01417*
X-00031Y01418*
X-00021Y01422*
X-00012Y01429*
X-00005Y01438*
X-00001Y01448*
X0Y01459*
X-00001Y01469*
X-00002Y01471*
X00007Y01477*
X00017Y01468*
X00016Y01459*
X00017Y01448*
X00021Y01438*
X00028Y01429*
X00037Y01422*
X00047Y01418*
X00058Y01417*
X00068Y01418*
X00078Y01422*
X00087Y01429*
X00094Y01438*
X00098Y01448*
X00099Y01459*
X00098Y01469*
X00094Y01479*
X00087Y01488*
X00078Y01495*
X00068Y01499*
X00058Y015*
X00056Y015*
X0005Y01504*
X0005Y01505*
X00052Y01518*
X00055Y01523*
X00056Y01529*
Y01537*
X00063Y01541*
X00068Y01542*
X00073Y01539*
X00081Y01537*
X00145*
X00238Y01444*
X00245Y0144*
X00253Y01438*
X00321*
X00321Y01438*
X00328Y01429*
X00337Y01422*
X00347Y01418*
X00358Y01417*
X00368Y01418*
X00378Y01422*
X00387Y01429*
X00394Y01438*
X00398Y01448*
X00399Y01459*
X00398Y01469*
X00394Y01479*
X00387Y01488*
X00378Y01495*
X00368Y01499*
X00358Y015*
X00347Y01499*
X00337Y01495*
X00328Y01488*
X00321Y01479*
X00321Y01479*
X00261*
X00209Y01531*
X00211Y01538*
X00214Y01543*
X00221Y01544*
X00229Y01549*
X00234Y01557*
X00236Y01566*
X00234Y01574*
X00229Y01582*
X00229Y01582*
Y01609*
X00227Y01615*
X00224Y0162*
X00182Y01662*
X00186Y01674*
X00189Y01675*
X00197Y0168*
X00202Y01688*
X00204Y01697*
X00202Y01705*
X00197Y01713*
X00189Y01718*
X00181Y0172*
X00179Y01719*
X00173Y01721*
X00164*
X00161Y01723*
X00155Y01732*
X00156Y01736*
X0016Y01739*
X00164Y01745*
X00165Y01752*
Y01811*
X00164Y01817*
X0016Y01823*
X00154Y01827*
X00147Y01829*
X0014Y01827*
X00137Y01825*
X00134Y01827*
X00128Y01829*
X00121Y01827*
X00118Y01825*
X00115Y01827*
X00108Y01829*
X00101Y01827*
X00098Y01825*
X00095Y01827*
X00088Y01829*
X00081Y01827*
X00078Y01825*
X00075Y01827*
X00068Y01829*
X00062Y01827*
X00058Y01825*
X0005Y01827*
X00046Y0183*
Y01853*
X00046Y01853*
X00051Y01861*
X00053Y0187*
X00051Y01879*
X0005Y01881*
Y01926*
X00074*
X00081Y01927*
X00086Y01931*
X00154Y01999*
X00168Y01997*
X00171Y01992*
X0017Y0199*
X00172Y01983*
X00176Y01977*
Y0197*
Y01963*
Y01963*
X00172Y01957*
X0017Y0195*
X00172Y01943*
X00174Y0194*
X00172Y01938*
X0017Y01931*
X00172Y01924*
X00174Y01921*
X00172Y01918*
X0017Y01911*
X00172Y01904*
X00176Y01898*
Y01898*
Y01891*
Y01884*
X00172Y01879*
X0017Y01872*
X00172Y01865*
X00174Y01862*
X00172Y01859*
X0017Y01852*
X00172Y01845*
X00176Y01839*
X00182Y01835*
X00189Y01834*
X00248*
X00254Y01835*
X0026Y01839*
X00264Y01845*
X00266Y01852*
X00264Y01859*
X00262Y01862*
X00264Y01865*
X00266Y01872*
X00264Y01879*
X0026Y01884*
Y01891*
Y01898*
Y01898*
X00264Y01904*
X00266Y01911*
X00264Y01918*
X00262Y01921*
X00264Y01924*
X00266Y01931*
X00268Y01933*
X00294*
X00294Y01932*
X00299Y01925*
X00306Y0192*
X00314Y01919*
X00323Y0192*
X0033Y01925*
X00335Y01932*
X00336Y01941*
X00335Y01949*
X00331Y01955*
X00333Y01963*
X00334Y01968*
X00337Y01968*
X00356Y01948*
X00362Y01945*
X00369Y01943*
X00423*
X0043Y01937*
Y0186*
X00452*
Y01829*
X00448Y01828*
X00443Y01825*
X00415*
X00407Y01817*
Y01762*
X00415Y01754*
X00443*
X00448Y01751*
X00454Y0175*
X00484*
X0049Y01751*
X00496Y01755*
X005Y0176*
X00501Y01767*
Y01812*
X005Y01819*
X00496Y01824*
X0049Y01828*
X00486Y01829*
Y0186*
X00499*
Y01939*
X00476*
X00443Y01973*
X00436Y01978*
Y02057*
X00427*
Y0207*
X00432Y02071*
X00437Y02074*
X00465*
X00473Y02082*
Y02137*
X00465Y02145*
X00437*
X00432Y02148*
X00426Y02149*
X0042Y02161*
Y02161*
X00421Y02167*
Y02197*
X0042Y02203*
X00417Y02208*
Y02236*
X00409Y02244*
X00354*
X00351Y02245*
Y02585*
X00354Y02586*
X00362Y02591*
X00366Y02597*
X00375Y02596*
X00377Y02595*
Y02425*
X00374Y02419*
X00372Y02411*
X00374Y02402*
X00379Y02394*
X00387Y02389*
X00396Y02387*
X00404Y02389*
X00412Y02394*
X00417Y02402*
X00419Y02411*
X00417Y02419*
X00414Y02425*
Y02618*
X00412Y02624*
X00411Y02627*
Y02649*
X00414Y02654*
X00416Y02663*
X00414Y02671*
X00409Y02679*
X00401Y02684*
X00393Y02686*
X00384Y02684*
X00376Y02679*
X00371Y02671*
X00369Y02663*
X00371Y02654*
X00374Y02649*
Y02627*
X00363Y02623*
X00362Y02624*
X00354Y02629*
X00346Y02631*
X00337Y02629*
X00329Y02624*
X00325Y02618*
X00323Y02616*
X0032Y02611*
X00318Y02605*
Y02249*
X00307Y02241*
X003Y02243*
X00299Y02244*
X00294Y02252*
X00286Y02257*
X00278Y02259*
X00269Y02257*
X00261Y02252*
X00256Y02244*
X00254Y02236*
X00256Y02227*
X0026Y0222*
Y02174*
X00251Y02164*
X00248Y02165*
X00189*
X00182Y02164*
X00176Y0216*
X00172Y02154*
X0017Y02147*
X00172Y0214*
X00174Y02137*
X00172Y02134*
X0017Y02128*
X00172Y02121*
X00174Y02118*
X00172Y02115*
X0017Y02108*
X00172Y02101*
X00174Y02098*
X00172Y02095*
X0017Y02088*
X00168Y02086*
X00157*
X00151Y02089*
X00143Y02091*
X00134Y02089*
X00126Y02084*
X00121Y02076*
X00119Y02068*
X00121Y02059*
X00126Y02051*
X00134Y02046*
X00138Y02045*
X00142Y02033*
X00068Y01958*
X00042*
X00012Y01989*
X00017Y02*
X00021Y01999*
X00029Y02001*
X00037Y02006*
X00042Y02014*
X00044Y02023*
X00043Y02027*
X00121Y02105*
X00125Y02111*
X00126Y02118*
X00125Y02125*
X00124Y02125*
Y02168*
X00128Y0217*
X00134Y02172*
X00137Y02174*
X0014Y02172*
X00147Y0217*
X00154Y02172*
X0016Y02176*
X00164Y02182*
X00165Y02189*
Y02248*
X00164Y02253*
Y02261*
X00185Y02282*
X00192Y02283*
X002Y02288*
X00205Y02296*
X00207Y02305*
X00205Y02313*
X002Y02321*
X00192Y02326*
X00184Y02328*
X00175Y02326*
X00167Y02321*
X00162Y02313*
X00161Y02313*
X00148Y02315*
X00143Y02323*
X00141Y02338*
X00142Y02338*
X00146Y02341*
X00248Y02443*
X00249Y02444*
X00253Y0245*
X00255Y02457*
Y02698*
X00253Y02705*
X00249Y02711*
X00082Y02878*
X00086Y02891*
X00087Y02891*
X00094Y02896*
X00098Y02902*
X001Y0291*
Y02953*
X00098Y02961*
X00094Y02967*
X00087Y02972*
X0008Y02973*
X00072Y02972*
X00067Y02968*
X00062Y02972*
X00054Y02973*
X00046Y02972*
X00041Y02968*
X00036Y02972*
X00028Y02973*
X00021Y02972*
X00016Y02968*
X00011Y02972*
X00003Y02973*
X-00004Y02972*
X-00009Y02968*
X-00014Y02972*
X-00022Y02973*
X-0003Y02972*
X-00035Y02968*
X-0004Y02972*
X-00047Y02973*
X-00055Y02972*
X-0006Y02968*
X-00065Y02972*
X-00073Y02973*
X-00081Y02972*
X-00087Y02967*
X-00092Y02961*
X-00093Y02953*
Y0291*
X-00092Y02902*
X-0009Y029*
Y02877*
X-00211Y02756*
X-00222Y02762*
X-00221Y02767*
X-00223Y02775*
X-00228Y02783*
X-00232Y02786*
X-00267Y02821*
Y02833*
X-00266Y02839*
X-00268Y02847*
X-00273Y02855*
X-0028Y0286*
X-00281Y0286*
X-00284Y02873*
X-00236Y0292*
X-00234Y02923*
X-00231Y02924*
X-00226Y02927*
X-00189*
X-00181Y02935*
Y02986*
X-00189Y02994*
X-0021*
X-00215Y03005*
X-00168Y03052*
X-00164Y03058*
X-00162Y03065*
Y03125*
X-00164Y03131*
X-00168Y03137*
X-00191Y0316*
X-00197Y03164*
X-002Y03165*
X-00205Y03173*
X-00205Y03177*
X-00203Y0318*
X-00199Y03189*
X-00198Y03199*
X-00199Y03209*
X-00179Y03228*
X-00113*
X-00092Y03207*
Y03186*
X-00093Y03181*
Y03138*
X-00092Y0313*
X-00087Y03124*
X-00081Y0312*
X-00073Y03118*
X-00065Y0312*
X-0006Y03123*
X-00055Y0312*
X-00047Y03118*
X-0004Y0312*
X-00035Y03123*
X-0003Y0312*
X-00022Y03118*
X-00014Y0312*
X-00009Y03123*
X-00004Y0312*
X00003Y03118*
X00011Y0312*
X00016Y03123*
X00021Y0312*
X00028Y03118*
X00036Y0312*
X00041Y03123*
X00046Y0312*
X00054Y03118*
X00062Y0312*
X00067Y03123*
X00072Y0312*
X0008Y03118*
X00087Y0312*
X00092Y03123*
X00098Y0312*
X00105Y03118*
X00113Y0312*
X00119Y03124*
X00124Y0313*
X00125Y03138*
Y03181*
X00124Y03189*
X00119Y03196*
X00113Y032*
X00105Y03201*
X00098Y032*
X00094Y03203*
X00094Y03217*
X00102Y03226*
X00131*
X00161Y03196*
Y03154*
X00163Y03147*
X00167Y03141*
X00199Y03109*
X00198Y03099*
X00199Y03089*
X00203Y0308*
X00209Y03072*
X00217Y03066*
X00226Y03063*
X00236Y03061*
X00246Y03063*
X00251Y03065*
X00258Y03055*
X00199Y02996*
X00186*
X00179Y02995*
X00174Y02992*
X00171Y02986*
X0017Y0298*
Y02937*
X00171Y02931*
X00174Y02926*
X00179Y02922*
X00186Y02921*
X00209*
X00215Y02922*
X0022Y02925*
X00257*
X00265Y02933*
Y02984*
X00257Y02992*
Y02992*
X0032Y03054*
X00327Y03055*
X00337Y0306*
X00346Y03067*
X00353Y03076*
X00358Y03086*
X00359Y03098*
X00358Y03109*
X00353Y03119*
X00346Y03128*
X00337Y03135*
X00327Y0314*
X00316Y03141*
X00304Y0314*
X00294Y03135*
X00285Y03128*
X0028Y03122*
X00277Y03121*
X00271Y03121*
X00266Y03121*
X00262Y03126*
X00255Y03132*
X00246Y03136*
X00236Y03137*
X00226Y03136*
X00206Y03156*
X00206Y03158*
X00206Y0316*
X0021Y03163*
X0022Y03165*
X00226Y03163*
X00236Y03161*
X00246Y03163*
X00255Y03166*
X00262Y03172*
X00265Y03176*
X00274*
X00278Y03175*
X00278Y03175*
X00285Y03167*
X00294Y0316*
X00304Y03155*
X00316Y03154*
X00327Y03155*
X00337Y0316*
X00346Y03166*
X00416Y03095*
Y02996*
X0039*
X00383Y02995*
X00379Y02992*
X0035*
X00343Y02984*
Y02929*
X0035Y02921*
X00379*
X00383Y02918*
X0039Y02917*
X00419*
X00426Y02918*
X00429Y02921*
X00432Y02921*
X00438Y0292*
X00444Y02919*
X00445Y02916*
X00451Y02912*
X00458Y02911*
X00497*
X00504Y02912*
X00507Y02915*
X00547Y02875*
X00551Y02872*
X00553Y0287*
X00554Y02863*
Y02859*
X0053Y02835*
X00526Y02829*
X00525Y02822*
X00526Y02815*
X0053Y02809*
X00571Y02768*
X00577Y02764*
X00584Y02762*
X00591Y02764*
X00598Y02768*
X00618Y02788*
X0063Y02783*
Y02726*
X00621Y0272*
X00614Y02711*
X0061Y027*
X00609Y02689*
X0061Y0268*
X00608Y02677*
X00606Y02674*
X006Y0267*
X00594Y02671*
X00593Y02671*
X00546Y02718*
X00548Y0272*
X00549Y02727*
X00548Y02734*
X00544Y0274*
X00503Y02781*
X00497Y02785*
X0049Y02787*
X00483Y02785*
X00477Y02781*
X00449Y02754*
X00445Y02748*
X00444Y02741*
X00445Y02734*
X00449Y02728*
X00491Y02687*
X00497Y02683*
X00504Y02681*
X00511Y02683*
X00515Y02686*
X00557Y02644*
X00558Y02642*
X00556Y02633*
X00558Y02624*
X00561Y02614*
X00567Y02607*
X00575Y02601*
X00583Y02598*
X00585Y02591*
X00586Y02585*
X00585Y02583*
X0058Y02576*
X00578Y02568*
Y02499*
X0058Y0249*
X00585Y02483*
X00639Y02429*
X00646Y02424*
X00655Y02422*
X00909*
X00973Y02359*
X0098Y02354*
X00989Y02352*
X01001*
X01002Y02351*
X01003Y0235*
X01004Y02337*
X01004Y02335*
X01003Y02334*
X00996Y02333*
X0099Y02329*
X00985Y02323*
X00984Y02316*
X00983Y02305*
X00958*
X00949Y02303*
X00942Y02298*
X00916Y02272*
X00904Y02276*
Y023*
X00902Y02307*
X00898Y02313*
X00897Y02314*
Y02334*
X00837*
Y02314*
X00835Y02313*
X00831Y02307*
X00829Y023*
Y02288*
X00808*
X00808Y02289*
Y02322*
X00811Y02327*
X00812Y02333*
Y02357*
X00811Y02363*
X00808Y02368*
X00802Y02372*
X00796Y02373*
X00753*
X00747Y02372*
X00742Y02368*
X00738Y02363*
X00737Y02359*
X00734Y02357*
X00713Y02336*
X00668*
X00661Y0234*
X00653Y02342*
X00644Y0234*
X00636Y02335*
X00631Y02327*
X00629Y02319*
X00631Y0231*
X00636Y02302*
X00644Y02297*
X00653Y02295*
X00661Y02297*
X00668Y02301*
X0072*
X00726Y02303*
X00729Y02305*
X00741Y02301*
Y02289*
X00738Y02284*
X00737Y02278*
Y02266*
X00725Y02261*
X0071Y02276*
X00704Y0228*
X00697Y02281*
X0062*
X00613Y0228*
X0061Y02278*
X00599Y02279*
X00596Y0228*
X00593Y02287*
X00593Y02289*
X00598Y02296*
X006Y02305*
X00598Y02313*
X00593Y0232*
X00592Y02331*
X00593Y02337*
Y02383*
X00592Y02389*
X00588Y02395*
X00583Y02398*
X00576Y024*
X00547*
X0054Y02398*
X00536Y02395*
X00507*
X00499Y02388*
Y02332*
X00507Y02325*
X00536*
X0054Y02322*
X00543Y02321*
X00545Y02314*
X00549Y02308*
X00554Y02303*
X00551Y02297*
X00549Y0229*
Y0228*
X00545Y02277*
X00511*
X00507Y0228*
X00501Y02281*
X00477*
X00471Y0228*
X00466Y02277*
X00462Y02272*
X00461Y02265*
Y02222*
X00462Y02216*
X00466Y02211*
X00471Y02207*
X00471*
X00472Y02201*
X00476Y02195*
X00489Y02182*
X00495Y02178*
X00502Y02177*
X00609*
X00611Y02171*
X00618Y02162*
X00627Y02155*
X00638Y02151*
X00649Y0215*
X00665*
X00676Y02151*
X00687Y02155*
X00696Y02162*
X00703Y02171*
X00707Y02182*
X00708Y02193*
X00707Y02205*
X00703Y02215*
X007Y02218*
X00709Y02226*
X0075Y02185*
X00756Y02181*
X00763Y02179*
X00819*
Y02176*
X0082Y0217*
X00824Y02164*
X00829Y02161*
X00835Y0216*
X00859*
X00865Y02161*
X00869Y02164*
X00903*
X00908Y02161*
X00914Y0216*
X00937*
X00943Y02161*
X00949Y02164*
X00952Y0217*
X00953Y02176*
Y02219*
X00952Y02225*
X00949Y0223*
X00949Y02242*
X00967Y0226*
X00994*
X01Y02259*
X01058Y02257*
X01065Y02258*
X01072Y02262*
X01076Y02268*
X01077Y02275*
X01079Y02313*
X01078Y0232*
X01074Y02326*
X01068Y02331*
X01061Y02332*
X01062Y02344*
X01065Y02345*
X0107Y02348*
X01081*
X01132Y02296*
X01131Y02287*
X01132Y02275*
X01136Y02265*
X01143Y02256*
X01149Y02251*
X0115Y02248*
Y02241*
X01149Y02237*
X01144Y02234*
X0114Y02228*
X01121*
X01113Y02226*
X01105Y02222*
X01092Y02208*
X01072*
X0107Y02212*
X01064Y02217*
X01057Y02218*
X00999Y0222*
X00992Y02219*
X00986Y02215*
X00981Y02209*
X0098Y02202*
X00978Y02164*
X00979Y02157*
X00983Y02151*
X00989Y02146*
X00996Y02145*
X01054Y02143*
X01061Y02144*
X01068Y02148*
X01072Y02154*
X01073Y02161*
X01074Y02164*
X01101*
X0111Y02166*
X01117Y02171*
X01129Y02183*
X01141Y02182*
X01142Y0218*
X0115Y02174*
X01159Y0217*
X01169Y02168*
X01179Y02169*
X01188Y02173*
X01196Y02178*
X01202Y02186*
X01206Y02195*
X01208Y02205*
X01207Y02215*
X01203Y02224*
X01203Y02225*
X01204Y02238*
X01208Y0224*
X01212Y02233*
X01234Y02212*
X01232Y02204*
X01233Y02194*
X01237Y02185*
X01242Y02177*
X0125Y02171*
X01259Y02166*
X01269Y02165*
X01278Y02166*
X01288Y02169*
X01296Y02175*
X01302Y02183*
X01306Y02191*
X01308Y02201*
X01307Y02211*
X01303Y0222*
X01298Y02228*
X01295Y02231*
X01295Y02239*
X01296Y02244*
X01304Y0225*
X01308Y02249*
X01375*
X01383Y0224*
X01382Y02213*
X01382Y02212*
X0139Y02204*
X01391Y02204*
X01441Y02202*
X01449Y0221*
X01451Y02247*
X01454Y02252*
X01455Y02258*
X01456Y02281*
X01455Y02288*
X01452Y02293*
X01447Y02297*
X01441Y02298*
X01397Y023*
X01391Y02298*
X01386Y02295*
X01384Y02293*
X01317*
X01313Y02302*
X01306Y02312*
X01298Y02319*
X01287Y02324*
X01276Y02325*
X01265Y02324*
X01257Y02321*
X01249Y02325*
X01245Y02328*
Y02374*
X01246Y02379*
X01244Y02386*
X0124Y02392*
X00965Y02667*
Y02732*
X00963Y02739*
X00959Y02745*
X00877Y02827*
Y02876*
X00875Y02883*
X00871Y02889*
X00709Y03051*
X00703Y03055*
X00696Y03057*
X00674*
X00408Y03324*
X00401Y03328*
X004Y03328*
X00394Y03329*
G37*
%LNshank2.0_pcb-3*%
%LPD*%
G36*
X-00647Y00553D02*
X-00646Y00552D01*
X-00641Y00546*
X-00619Y00523*
X-00612Y00518*
X-00605Y00515*
X-00597Y00514*
X-00208*
X-00174Y0048*
X-00175Y00473*
X-00179Y00468*
X-00196*
X-00207Y00467*
X-00217Y00463*
X-00226Y00456*
X-00233Y00447*
X-00234Y00443*
X-00446*
X-0045Y0045*
X-00456Y00459*
X-00465Y00466*
X-00475Y0047*
X-00486Y00471*
X-00505*
X-00516Y0047*
X-00526Y00466*
X-00535Y00459*
X-00542Y0045*
X-00545Y00443*
X-00758*
X-00767Y00452*
Y00453*
X-00768Y00461*
X-00771Y00468*
X-00765Y0048*
X-00743*
X-00737Y00481*
X-00731Y00485*
X-00661Y00555*
X-00647Y00553*
G37*
G36*
X-00745Y0169D02*
X-00749Y01688D01*
X-00758Y01681*
X-00765Y01672*
X-00769Y01662*
X-0077Y01652*
X-00769Y01641*
X-00765Y01631*
X-00758Y01622*
X-00749Y01615*
X-00739Y01611*
X-00729Y0161*
X-00718Y01611*
X-00708Y01615*
X-00699Y01622*
X-00692Y01631*
X-00691Y01633*
X-0068Y01631*
Y01602*
X-00687Y01593*
X-00691*
X-0077*
Y0151*
X-00691*
X-00687*
X-0068Y01502*
Y00585*
X-0075Y00514*
X-00769*
X-00771Y00518*
X-00776Y00525*
Y0053*
X-00771Y00537*
X-00768Y00544*
X-00767Y00553*
X-00768Y00561*
X-00771Y00568*
X-00776Y00575*
X-00783Y0058*
X-0079Y00583*
X-00799Y00584*
X-00807Y00583*
X-00808Y00583*
X-00819Y0059*
Y00611*
X-00794Y00636*
X-00791Y00642*
X-00789Y00649*
Y01697*
X-00785Y01701*
X-00747*
X-00745Y0169*
G37*
G36*
X-00556Y01992D02*
X-00562Y01953D01*
X-00578Y01833*
X-00602Y01928*
X-00606Y01932*
Y01933*
X-00614Y01941*
X-00614*
X-00642Y01971*
X-00643Y01972*
Y02002*
X-00642Y02001*
X-00586*
Y02022*
X-00556*
Y01992*
G37*
G36*
X-00312Y02828D02*
Y02812D01*
X-0031Y02803*
X-00305Y02796*
X-00264Y02754*
X-00261Y0275*
X-00253Y02745*
X-00245Y02743*
X-0024Y02744*
X-00234Y02733*
X-0026Y02707*
X-00264Y02701*
X-00266Y02695*
Y02479*
X-00264Y02472*
X-0026Y02466*
X-00255Y02462*
X-00198Y02405*
X-00203Y02394*
X-00209Y02395*
X-00217Y02393*
X-00225Y02388*
X-0023Y0238*
X-00232Y02372*
X-0023Y02363*
X-00226Y02356*
Y02333*
X-00237Y02329*
X-00278Y02371*
Y02403*
X-00274Y0241*
X-00272Y02419*
X-00274Y02427*
X-00279Y02435*
X-00287Y0244*
X-00296Y02442*
X-00304Y0244*
X-00312Y02435*
X-00317Y02427*
X-00319Y02419*
X-00317Y0241*
X-00313Y02403*
Y02367*
X-00323Y02362*
X-00324Y02362*
X-00354Y02393*
Y02536*
X-0033*
Y02619*
X-00391*
X-00395Y0263*
X-00386Y02639*
X-00382Y02637*
X-00372Y02636*
X-00361Y02637*
X-00351Y02641*
X-00342Y02648*
X-00335Y02657*
X-00331Y02667*
X-0033Y02678*
X-00331Y02688*
X-00335Y02698*
X-00342Y02707*
X-00351Y02714*
X-00361Y02718*
X-00372Y02719*
X-00382Y02718*
X-00392Y02714*
X-00401Y02707*
X-00408Y02698*
X-00412Y02688*
X-00413Y02678*
X-00412Y02667*
X-0041Y02663*
X-00445Y02629*
X-00455Y02633*
Y02701*
X-00324Y02833*
X-00323*
X-00312Y02828*
G37*
G36*
X00219Y0269D02*
Y02464D01*
X00121Y02366*
X00118Y02362*
X00105Y02349*
X00094Y02353*
Y02355*
X00093Y02361*
X0009Y02366*
Y02394*
X00082Y02402*
X00027*
X00019Y02394*
Y02375*
X00018Y02374*
X00006Y02379*
Y02427*
X0011Y02531*
X00113Y02536*
X00115Y02543*
Y0263*
X00191*
Y02701*
X00203Y02706*
X00219Y0269*
G37*
G36*
X-00359Y03192D02*
X-00359Y03188D01*
X-00354Y03178*
X-00347Y03169*
X-00338Y03162*
X-00328Y03157*
X-00317Y03156*
X-00305Y03157*
X-00301Y03159*
X-00291Y03149*
X-00298Y03139*
X-00305Y03142*
X-00317Y03143*
X-00328Y03142*
X-00338Y03137*
X-00347Y0313*
X-00354Y03121*
X-00359Y03111*
X-0036Y031*
X-00359Y03089*
X-00435Y03012*
X-0044*
X-00447Y03011*
X-00453Y03007*
X-00456Y03001*
X-0046Y03002*
X-0049*
X-00496Y03001*
X-00501Y02998*
X-00529*
X-00537Y0299*
Y02935*
X-00529Y02927*
X-00501*
X-00496Y02924*
X-0049Y02923*
X-0046*
X-00454Y02924*
X-00453Y02922*
X-00447Y02918*
X-0044Y02917*
X-00401*
X-00394Y02918*
X-00388Y02922*
X-00384Y02928*
X-00383Y02936*
Y02994*
X-00384Y03*
X-00329Y03056*
X-00318Y03054*
X-00314Y03044*
X-00322Y03035*
X-00327Y03028*
X-00329Y0302*
X-00333Y03011*
X-00339Y03007*
X-00343Y03001*
X-00344Y02994*
Y02936*
X-00343Y02928*
X-00339Y02922*
X-00333Y02918*
X-00326Y02917*
X-00306*
X-00302Y02906*
X-00486Y02721*
X-0049Y02715*
X-00492Y02709*
Y0243*
X-00503Y02426*
X-00567Y0249*
X-00573Y02493*
X-0058Y02495*
X-00706*
X-00712Y02493*
X-00715Y02491*
X-00725Y02493*
X-00728Y02495*
X-00728Y02496*
X-00732Y02501*
X-00742Y02512*
X-00731Y02523*
X-00682*
X-00673Y02525*
X-00672Y02526*
X-00665Y02525*
X-00655Y02526*
X-00646Y0253*
X-00638Y02536*
X-00632Y02544*
X-00628Y02553*
X-00627Y02563*
X-00628Y02572*
X-00632Y02581*
X-00638Y02589*
X-00646Y02595*
X-00655Y02599*
X-00665Y026*
X-00669Y02604*
X-00659Y02614*
X-00627*
X-00621Y02607*
X-00613Y02601*
X-00604Y02597*
X-00594Y02596*
X-00584Y02597*
X-00575Y02601*
X-00567Y02607*
X-00561Y02614*
X-00558Y02624*
X-00556Y02633*
X-00558Y02643*
X-00561Y02652*
X-00567Y0266*
X-00575Y02666*
X-00584Y0267*
X-00594Y02671*
X-00599Y0267*
X-00602Y02672*
X-00608Y02679*
X-00608Y02681*
X-00608Y02688*
X-00608Y0269*
X-00555Y02743*
X-00554Y02743*
X-00548Y02744*
X-00542Y02748*
X-00512Y02778*
X-00508Y02784*
X-00507Y0279*
X-00508Y02796*
X-00512Y02801*
X-00528Y02818*
X-00534Y02821*
X-00539Y02822*
X-00565Y02848*
X-00566Y02849*
X-00577*
X-00577Y02848*
X-00613Y02813*
Y02802*
X-00586Y02775*
X-00586Y02774*
X-00633Y02727*
X-0064Y0273*
X-00651Y02732*
X-00662Y0273*
X-00673Y02726*
X-00675Y02725*
X-00686Y0273*
Y02882*
X-00372Y03196*
X-00359Y03192*
G37*
G36*
X-00725Y02865D02*
Y02673D01*
Y02672*
X-00732Y0266*
X-00733Y02659*
X-00744Y02655*
X-00753Y02648*
X-00759Y02639*
X-00804*
X-00813Y02638*
X-0082Y02633*
X-00842Y02611*
X-00846Y02613*
X-00853Y02615*
X-0086Y02613*
X-00866Y02609*
X-00873*
X-00887Y02624*
X-00887Y02624*
X-00883Y0263*
X-00882Y02636*
X-00883Y02643*
X-00887Y02648*
X-00908Y02669*
X-00913Y02673*
X-00919Y02674*
X-00938Y02693*
X-00939Y02694*
X-0095*
X-0095Y02693*
X-00989Y02655*
Y02644*
X-00969Y02624*
X-00968Y02618*
X-00964Y02613*
X-00943Y02592*
X-00938Y02588*
X-00931Y02587*
X-00925Y02588*
X-00919Y02592*
X-00919Y02592*
X-00907Y0258*
Y02568*
X-00907Y02568*
X-00911Y02562*
X-00913Y02555*
X-00911Y02548*
X-00907Y02542*
X-0088Y02515*
X-00874Y02511*
X-00867Y02509*
X-0086Y02511*
X-00854Y02515*
X-00832Y02536*
X-00832Y02537*
X-00831Y02537*
X-00813Y02556*
X-00809Y02562*
X-00807Y02569*
X-00809Y02576*
X-00811Y02579*
X-00795Y02595*
X-00759*
X-00753Y02586*
X-00744Y02579*
X-00743Y02579*
X-00744Y02567*
X-00748Y02566*
X-00756Y02561*
X-00807Y02509*
X-00812Y02502*
X-00812Y02501*
X-00826Y02487*
X-0083Y02481*
X-00832Y02474*
X-0083Y02467*
X-00826Y02461*
X-00799Y02434*
X-00793Y0243*
X-00793Y0243*
X-00786Y02421*
X-00786Y02417*
X-00787Y02414*
Y02388*
X-00791*
X-00797Y02387*
X-00803Y02383*
X-00806Y02378*
X-00807Y02372*
Y02348*
X-00806Y02342*
X-00803Y02337*
Y02307*
X-00829*
X-0083Y02311*
X-00834Y02317*
X-00836Y02318*
Y02337*
X-00896*
Y02318*
X-00897Y02317*
X-00901Y02311*
X-00903Y02304*
Y02266*
X-00901Y02259*
X-009Y02256*
X-00904Y02246*
X-00905Y02245*
X-00923*
X-00953Y02274*
X-00954Y02279*
X-00958Y02284*
X-00964Y02287*
X-0097Y02289*
X-01016Y02287*
X-01022Y02285*
X-01027Y02282*
X-01031Y02276*
X-01032Y02269*
X-01032Y02263*
X-01082Y02213*
X-01095Y02217*
X-01095Y02217*
X-01099Y02226*
X-01105Y02234*
X-01106Y02235*
X-01107Y02241*
X-01106Y02249*
X-01099Y02255*
X-01092Y02264*
X-01088Y02274*
X-01087Y02286*
X-01087Y02287*
X-01055Y02319*
X-01027*
X-01025Y02317*
X-0102Y02314*
X-01014Y02313*
X-00971Y02314*
X-00964Y02316*
X-00959Y02319*
X-00956Y02325*
X-00955Y02331*
X-00956Y02354*
X-00957Y0236*
X-00961Y02365*
X-00962Y02402*
X-0097Y0241*
X-0102Y02408*
X-01021Y02408*
X-01029Y024*
X-01029Y02399*
X-01028Y02372*
X-01036Y02363*
X-01064*
X-01072Y02362*
X-0108Y02357*
X-01113Y02324*
X-01121Y02327*
X-01132Y02328*
X-01137Y02327*
X-01143Y02338*
X-01061Y0242*
X-01057Y02426*
X-01055Y02434*
Y02669*
X-00971Y02753*
X-0086*
X-00852Y02755*
X-00846Y02759*
X-00736Y02869*
X-00725Y02865*
G37*
G36*
X-00601Y02165D02*
X-00594Y02158D01*
Y02088*
X-00594Y02087*
X-00596Y02088*
X-00626*
Y02101*
Y02142*
X-00627Y02143*
X-00651Y02167*
Y02177*
Y02231*
X-00645Y02237*
X-00601*
Y02165*
G37*
G36*
X-00511Y02236D02*
X-0051Y02236D01*
X-00509Y02235*
X-00508Y02234*
X-00507Y02234*
X-00506Y02233*
X-00505Y02233*
X-00502Y02233*
X-00502Y02232*
X-00501Y02232*
X-005Y02231*
X-00499Y02231*
X-00498*
X-00496Y02231*
X-00455*
X-00446Y02222*
Y0222*
Y02081*
X-00448Y02079*
X-00453Y02074*
X-00453Y02074*
X-00545*
X-0055Y02073*
X-00554Y0207*
X-00555Y02069*
X-00584*
Y02076*
X-00585Y0208*
X-00586Y02081*
X-00555Y02147*
X-00546Y02165*
Y02237*
X-00511*
X-00511Y02236*
G37*
G36*
X00642Y02992D02*
D01*
X0068*
X00802Y0287*
Y02848*
X008Y02844*
X00798Y02836*
X008Y02827*
X00805Y02819*
X00813Y02814*
X00822Y02812*
X00828Y02814*
X0083Y02814*
X00843Y02808*
X00844Y02806*
X00926Y02724*
Y0266*
X00928Y02652*
X00932Y02646*
X01206Y02372*
Y02329*
X01195Y02324*
X01187Y02327*
X01176Y02329*
X01165Y02328*
X01164Y02328*
X01106Y02385*
X01099Y0239*
X0109Y02392*
X01082*
X01074Y02402*
X01075Y02428*
X01075Y02429*
X01067Y02437*
X01066*
X01012Y02439*
X01004Y02431*
X01003Y02409*
X00993Y02404*
X0099Y02405*
X00934Y0246*
X00927Y02465*
X00919Y02467*
X00837*
X00837Y02467*
X00833Y02479*
X00847Y02492*
X0085Y02498*
X00851Y02503*
X00878Y0253*
Y02541*
X00842Y02577*
X00831*
X00804Y0255*
X00803Y0255*
X00759Y02594*
X00761Y02596*
X00765Y02607*
X00767Y02618*
X00765Y0263*
X00761Y0264*
X00754Y02649*
X00745Y02656*
X00734Y0266*
X00723Y02662*
X00712Y0266*
X00701Y02656*
X00692Y02649*
X0068Y02653*
X0068Y02655*
X00683Y02658*
X0069Y02667*
X00694Y02678*
X00696Y02689*
X00694Y027*
X0069Y02711*
X00683Y0272*
X00674Y02726*
Y028*
X00677Y02804*
X00678Y02812*
X00677Y02821*
X00673Y02826*
X00671Y02831*
X0067Y02839*
X00691Y0286*
X00695Y02865*
X00696Y02871*
X00715Y0289*
X00716Y02891*
Y02902*
X00715Y02902*
X00677Y02941*
X00666*
X00646Y02921*
X0064Y0292*
X00638Y02918*
X00629Y02926*
X00629Y0293*
Y02984*
X0063Y02984*
X00637Y02991*
X0064Y02993*
X00642Y02992*
G37*
G36*
X-00526Y02361D02*
X-00528Y02353D01*
X-00526Y02344*
X-00521Y02336*
X-00513Y02331*
X-00505Y02329*
X-00496Y02331*
X-00488Y02336*
X-00486Y02339*
X-00484Y0234*
X-00473Y02339*
X-0047Y02335*
X-00462Y0233*
X-00454Y02328*
X-00445Y0233*
X-00437Y02335*
X-00435Y02338*
X-00421Y02341*
X-00392Y02311*
Y0228*
X-00403Y02275*
X-0042Y02293*
X-00425Y02296*
X-00432Y02298*
X-00462*
X-00462Y02298*
X-0047Y02303*
X-00479Y02305*
X-00487Y02303*
X-00495Y02298*
X-005Y0229*
X-00502Y02282*
X-005Y02273*
X-00495Y02265*
X-00487Y0226*
X-00479Y02258*
X-0047Y0226*
X-00462Y02265*
X-00462Y02265*
X-00438*
X-00416Y02243*
Y02189*
X-00414Y02183*
X-00411Y02178*
X-00395Y02161*
X-00396Y02155*
X-00398Y02148*
X-00404Y02144*
X-00409Y02136*
X-00411Y02128*
X-00409Y02119*
X-00404Y02111*
X-00396Y02106*
X-00388Y02104*
X-00379Y02106*
X-00349Y02076*
Y02047*
X-0036Y02042*
X-00406Y02088*
X-00407Y02092*
X-00412Y02099*
X-00419Y02104*
X-00428Y02106*
X-00429*
Y02221*
X-00431Y02229*
X-00436Y02236*
X-00443Y02241*
X-00452Y02243*
X-00496*
X-00498Y02244*
X-00502Y02245*
X-00625Y02368*
Y02413*
X-00625Y02418*
X-00625Y02422*
X-00617Y02431*
X-00596*
X-00526Y02361*
G37*
G54D10*
X01027Y02181D03*
X01031Y02296D03*
G54D11*
X00497Y02734D03*
X00577Y02815D03*
G54D12*
X00489Y02244D03*
X00567D03*
X00926Y02197D03*
X00847D03*
X00197Y02959D03*
X00276D03*
X-00249Y02961D03*
X-0017D03*
G54D13*
X00491Y0236D03*
X00562D03*
X-00339Y01978D03*
X-0041D03*
X00334Y02957D03*
X00405D03*
X-00546Y02963D03*
X-00475D03*
X00398Y0179D03*
X00469D03*
X00482Y0211D03*
X00411D03*
X-00668Y01906D03*
X-00597D03*
G54D14*
X-00074Y0162D03*
Y01541D03*
X00019Y0162D03*
Y01541D03*
X00775Y02345D03*
Y02266D03*
X-0077Y0236D03*
Y02281D03*
X-00755Y02216D03*
Y02137D03*
X00014Y00202D03*
Y00124D03*
X-00437Y01422D03*
Y01501D03*
X-00519Y01502D03*
Y01423D03*
G54D15*
X00105Y02931D03*
X00054D03*
X0008D03*
X00054Y0316D03*
X0008D03*
X00105D03*
X00028D03*
X00003D03*
X-00022D03*
X-00047D03*
X00003Y02931D03*
X-00022D03*
X-00047D03*
X-00073D03*
Y0316D03*
X00028Y02931D03*
G54D16*
X00641Y0043D03*
Y00611D03*
G54D17*
X00465Y02018D03*
X00402D03*
Y019D03*
X00465D03*
G54D18*
X00476Y00602D03*
Y00484D03*
X-00483Y02099D03*
Y0198D03*
G54D19*
X-00068Y02218D03*
X-00049D03*
X-00029D03*
X-00009D03*
X00009D03*
X00029D03*
X00049D03*
X00068D03*
X00088D03*
X00108D03*
X00128D03*
X00147D03*
X00068Y01781D03*
X00049D03*
X00029D03*
X00009D03*
X-00009D03*
X-00029D03*
X-00049D03*
X-00068D03*
X-00088D03*
X-00108D03*
X-00128D03*
X-00147D03*
X00088D03*
X00108D03*
X00128D03*
X00147D03*
X-00088Y02218D03*
X-00108D03*
X-00128D03*
X-00147D03*
G54D20*
X00218Y02068D03*
Y02049D03*
Y02029D03*
Y02009D03*
Y0199D03*
Y0197D03*
Y0195D03*
Y01931D03*
Y01911D03*
Y01891D03*
Y01872D03*
Y01852D03*
X-00218Y01931D03*
Y0195D03*
Y0197D03*
Y0199D03*
Y02009D03*
Y02029D03*
Y02049D03*
Y02068D03*
Y02088D03*
Y02108D03*
Y02128D03*
Y02147D03*
Y01911D03*
Y01891D03*
Y01872D03*
Y01852D03*
X00218Y02088D03*
Y02108D03*
Y02128D03*
Y02147D03*
G54D21*
X00477Y02959D03*
X00592D03*
X-00421Y02965D03*
X-00306D03*
G54D22*
X-0086Y02562D03*
X-00779Y02481D03*
G54D23*
X-01365Y02317D03*
X-01361Y02202D03*
G54D24*
X00191Y00322D03*
X00372D03*
G54D25*
X-00657Y02101D03*
X-00638D03*
X-00618D03*
X-00598D03*
X-00657Y01987D03*
X-00598D03*
X-00618D03*
X-00638D03*
G54D26*
X-00685Y02015D03*
Y02034D03*
Y02054D03*
Y02074D03*
X-00571Y02015D03*
Y02034D03*
Y02074D03*
Y02054D03*
G54D27*
X-00628Y02044D03*
G54D28*
X-00208Y01549D03*
Y0162D03*
X00382Y02182D03*
Y02253D03*
X00055Y0234D03*
Y02411D03*
X00369Y00508D03*
Y00437D03*
X0037Y00591D03*
Y00661D03*
X-00732Y01931D03*
Y0186D03*
X-00766Y02059D03*
Y01988D03*
G54D29*
X-00429Y00237D03*
X-00455D03*
X-00481D03*
X-00506D03*
X-00532D03*
G54D30*
X-00388Y00237D03*
X-00573D03*
G54D31*
X00867Y02281D03*
Y02356D03*
X-00866Y02285D03*
Y0236D03*
X-00079Y00203D03*
Y00128D03*
G54D32*
X00149Y00557D03*
G54D33*
X00265Y00646D03*
Y00621D03*
Y00595D03*
Y00569D03*
Y00544D03*
Y00518D03*
Y00493D03*
Y00467D03*
X00032D03*
Y00493D03*
Y00518D03*
Y00544D03*
Y00569D03*
Y00595D03*
Y00621D03*
Y00646D03*
G54D34*
X0104Y02447D03*
X01037Y02376D03*
G54D35*
X00703Y02928D03*
X00652Y02877D03*
G54D36*
X-00976Y02681D03*
X-00925Y0263D03*
G54D37*
X-00989Y02185D03*
X-00992Y02256D03*
G54D38*
X01418Y02271D03*
X01415Y02192D03*
G54D39*
X00812Y02511D03*
X00867Y02566D03*
G54D40*
X-00547Y02783D03*
X-00602Y02838D03*
G54D41*
X-00993Y02341D03*
X-00996Y0242D03*
G54D42*
X-00524Y02205D03*
X-00623D03*
G54D43*
X00161Y0197D02*
X00218D01*
X-00638Y02054D02*
Y02101D01*
Y02054D02*
X-00628Y02044D01*
X-00403Y01929D02*
X-00402Y01931D01*
X00012Y02294D02*
Y0241D01*
Y02294D02*
X00029Y02277D01*
Y02218D02*
Y02277D01*
X-00402Y01931D02*
X-00218D01*
X00218Y01891D02*
X00266D01*
X00049Y01781D02*
Y01829D01*
X00218Y0195D02*
X00305D01*
X00054Y0288D02*
Y02931D01*
X00218Y02049D02*
X00299D01*
X00143Y02068D02*
X00201D01*
X-00748Y01927D02*
X-00688Y01987D01*
X-00337Y02236D02*
X-00274Y02173D01*
Y02116D02*
Y02173D01*
Y02116D02*
X-00266Y02108D01*
X-00218*
X-0114Y02206D02*
X-01131D01*
X-00073Y02869D02*
Y02931D01*
X-00711Y02015D02*
X-00685D01*
X-00726Y02D02*
X-00711Y02015D01*
X-00714Y02034D02*
X-00685D01*
X-00751Y02071D02*
X-00714Y02034D01*
X-00666Y02101D02*
X-00657D01*
X-00702Y02137D02*
X-00666Y02101D01*
X-00755Y02137D02*
X-00702D01*
X-00618Y02101D02*
Y02129D01*
X-00609Y02166D02*
Y0219D01*
Y02166D02*
X-00598Y02156D01*
Y02101D02*
Y02156D01*
X-00642Y02153D02*
X-00618Y02129D01*
X-00642Y02153D02*
Y02185D01*
X-00688Y01987D02*
X-00657D01*
G54D44*
X-00292Y0195D02*
X-00218D01*
X-00306Y01964D02*
X-00292Y0195D01*
X-00334Y01964D02*
X-00306D01*
X00148Y01705D02*
X00173D01*
X00128Y01725D02*
X00148Y01705D01*
X00128Y01725D02*
Y01781D01*
X00018Y02149D02*
X00049Y0218D01*
X-00168Y0195D02*
Y02128D01*
X-00218D02*
X-00168D01*
X00304Y02211D02*
X00304Y0221D01*
X0003Y01942D02*
X00074D01*
X00161Y02029*
X00029Y01781D02*
Y01823D01*
X00161Y02029D02*
X00218D01*
X-00316Y02052D02*
Y02105D01*
X-004Y02189D02*
X-00316Y02105D01*
X-004Y02189D02*
Y0225D01*
X00335Y02128D02*
Y02605D01*
X00295Y02088D02*
X00335Y02128D01*
X00218Y02088D02*
X00295D01*
X00306Y00493D02*
X00313Y00486D01*
X00361Y02148D02*
X0039Y02177D01*
X00389Y02178D02*
X0039Y02177D01*
X-00299Y02062D02*
Y02132D01*
X-00374Y02207D02*
X-00299Y02132D01*
Y02062D02*
X-00266Y02029D01*
X-00432Y02282D02*
X-004Y0225D01*
X-00479Y02282D02*
X-00432D01*
X-00049Y02218D02*
Y02385D01*
X-00099Y02435D02*
X-00049Y02385D01*
X-00099Y02435D02*
Y02724D01*
X00049Y0218D02*
Y02218D01*
X00361Y02052D02*
Y02148D01*
X00338Y02029D02*
X00361Y02052D01*
X00338Y02608D02*
X00346D01*
X00335Y02605D02*
X00338Y02608D01*
X00304Y02139D02*
Y0221D01*
X-00187Y00427D02*
X-00152D01*
X-00193Y00421D02*
X-00187Y00427D01*
X00099Y02543D02*
Y02717D01*
X-00009Y02434D02*
X00099Y02543D01*
X-00009Y02218D02*
Y02434D01*
X00088Y01692D02*
Y01781D01*
Y01692D02*
X00098Y01683D01*
X00068Y02218D02*
Y02288D01*
Y01657D02*
X00078Y01648D01*
X00068Y01657D02*
Y01781D01*
X00213Y01566D02*
Y01609D01*
X00108Y01713D02*
X00213Y01609D01*
X00108Y01713D02*
Y01781D01*
X00218Y02029D02*
X00338D01*
X00219Y02128D02*
X00293D01*
X00218Y02128D02*
X00219Y02128D01*
X00293D02*
X00304Y02139D01*
X00265Y00493D02*
X00306D01*
X-00218Y0195D02*
X-00168D01*
X00088Y02163D02*
Y02218D01*
X-00273Y02009D02*
X-00218D01*
X-00284Y0199D02*
X-00218D01*
X00049Y02218D02*
Y0233D01*
X00028Y02787D02*
Y02931D01*
Y02787D02*
X00099Y02717D01*
X0Y02486D02*
Y02843D01*
X-00029Y02456D02*
X0Y02486D01*
X-00029Y02218D02*
Y02456D01*
X00003Y02931D02*
X00004Y02931D01*
Y02847D02*
Y02931D01*
X0Y02843D02*
X00004Y02847D01*
X-00022Y028D02*
Y02931D01*
X-00099Y02724D02*
X-00022Y028D01*
X-00047Y02858D02*
Y02931D01*
X-00206Y027D02*
X-00047Y02858D01*
X-00206Y02502D02*
Y027D01*
Y02502D02*
X-00068Y02364D01*
Y02218D02*
Y02364D01*
X-00088Y02218D02*
Y02319D01*
X-00266Y02029D02*
X-00218D01*
X-00282Y02018D02*
X-00273Y02009D01*
X-00282Y02018D02*
Y02019D01*
X-00294Y02032D02*
X-00282Y02019D01*
X-00296Y02032D02*
X-00294D01*
X-00316Y02052D02*
X-00296Y02032D01*
X-00333Y02039D02*
X-00284Y0199D01*
X-00388Y02128D02*
X-00378D01*
X-00333Y02083*
Y02039D02*
Y02083D01*
X00313Y00486D02*
X00315Y00488D01*
X00271Y00469D02*
X00291D01*
X00316Y00444*
G54D45*
X00308Y00693D02*
X00438Y00823D01*
X00308Y00632D02*
Y00693D01*
X00297Y00621D02*
X00308Y00632D01*
X-00044Y01672D02*
X-00009Y01709D01*
X-0026Y01672D02*
X-00044D01*
X-00009Y01709D02*
Y01781D01*
X-00064Y01691D02*
X-00029Y01726D01*
X-00068Y01712D02*
X-00049Y01731D01*
X-00396Y01712D02*
X-00068D01*
X-00437Y01672D02*
X-00396Y01712D01*
X-00029Y01726D02*
Y01781D01*
X-00079Y01691D02*
X-00064D01*
X-00049Y01731D02*
Y01781D01*
X-00068Y01737D02*
Y01781D01*
X-00076Y0173D02*
X-00068Y01737D01*
X-00426Y0173D02*
X-00076D01*
X-00329Y01691D02*
X-00079D01*
X-00035Y01652D02*
X00009Y01696D01*
X-00445Y02431D02*
X-00147Y02133D01*
X-00445Y02431D02*
Y02605D01*
X-00372Y02386D02*
Y02578D01*
Y02386D02*
X-00128Y02142D01*
X-00079Y01691D02*
X-00079Y01691D01*
X-00053Y02132D02*
X-00035D01*
X-00053Y01987D02*
Y02132D01*
Y01987D02*
X-00011Y01945D01*
X-00035Y02132D02*
X00009Y02177D01*
Y02218*
X-00128Y01781D02*
Y02142D01*
X00316Y03082D02*
Y03098D01*
X00653Y02319D02*
X0072D01*
X00746Y02345*
X00775*
X00127Y02307D02*
X00128Y02306D01*
Y02218D02*
Y02306D01*
X00147Y02268D02*
X00184Y02305D01*
X00147Y02218D02*
Y02268D01*
X-00011Y01868D02*
X00009Y01847D01*
X-00011Y01868D02*
Y01945D01*
X-00074Y01846D02*
Y01878D01*
X-00088Y01831D02*
X-00074Y01846D01*
Y01878D02*
X-00072Y01876D01*
X-00346Y01586D02*
X-0026Y01672D01*
X00358Y00501D02*
Y00513D01*
X-0036Y01837D02*
Y01911D01*
X-00663Y00578D02*
Y0168D01*
X-0058Y02478D02*
X-00454Y02352D01*
X-00706Y02478D02*
X-0058D01*
X-0077Y02414D02*
X-00706Y02478D01*
X-00108Y01781D02*
Y02004D01*
X00258Y02147D02*
X00278Y02167D01*
Y02236*
X-0042Y0031D02*
Y00316D01*
Y0031D02*
X-00419Y00309D01*
X-0043Y00298D02*
X-00419Y00309D01*
X00009Y01781D02*
Y01847D01*
X-00519Y01637D02*
X-00426Y0173D01*
X-00176Y01652D02*
X-00035D01*
X-00208Y0162D02*
X-00176Y01652D01*
X-00283Y01872D02*
X-00218D01*
X-00293Y01862D02*
X-00283Y01872D01*
X-00293Y01811D02*
Y01862D01*
X-00342Y01762D02*
X-00293Y01811D01*
X-00431Y01762D02*
X-00342D01*
X-00511Y01682D02*
X-00431Y01762D01*
X-00535Y01682D02*
X-00511D01*
X-00312Y01891D02*
X-00218D01*
X-00325Y01879D02*
X-00312Y01891D01*
X-00325Y01824D02*
Y01879D01*
X-0035Y01799D02*
X-00325Y01824D01*
X-00429Y01799D02*
X-0035D01*
X-00509Y01719D02*
X-00429Y01799D01*
X-00562Y01719D02*
X-00509D01*
X-00519Y01502D02*
Y01637D01*
X-00807Y01705D02*
X-00793Y01719D01*
X-00684*
X-00807Y00649D02*
Y01705D01*
X-00837Y00619D02*
X-00807Y00649D01*
X-00837Y00561D02*
Y00619D01*
Y00561D02*
X-00829Y00553D01*
X-00365Y01842D02*
X-0036Y01837D01*
X00465Y019D02*
X00469Y01895D01*
Y0179D02*
Y01895D01*
X-0077Y0236D02*
Y02414D01*
X00103Y00646D02*
X00119Y00662D01*
X00032Y00646D02*
X00103D01*
X00119Y00662D02*
Y00712D01*
X-0036Y01911D02*
X-00218D01*
X-00481Y00237D02*
Y00316D01*
X-00429Y00237D02*
Y00297D01*
X00009Y01696D02*
Y01781D01*
X-00348Y01673D02*
X-00329Y01691D01*
X-00108Y02004D02*
X-00081Y02032D01*
X-00088Y01781D02*
Y01831D01*
X-00437Y01501D02*
Y01672D01*
X-00445Y02605D02*
X-00372Y02678D01*
X-00522Y01499D02*
X-00519Y01502D01*
X-00296Y02364D02*
X-00188Y02256D01*
X-00296Y02364D02*
Y02419D01*
X00218Y02147D02*
X00258D01*
X-00148Y02218D02*
Y02256D01*
X-00188D02*
X-00148D01*
X-00128Y02218D02*
Y02275D01*
X-00129Y02276D02*
X-00128Y02275D01*
X-00168Y02276D02*
X-00129D01*
X-00209Y02317D02*
X-00168Y02276D01*
X-00209Y02317D02*
Y02372D01*
X-00108Y02218D02*
Y02294D01*
X-00131Y02317D02*
X-00108Y02294D01*
X-00155Y02317D02*
X-00131D01*
X00265Y00595D02*
X00353D01*
X-00651Y02688D02*
X-00642D01*
X00218Y0199D02*
X00339D01*
X00369Y01961*
X00431*
X00465Y01927*
Y019D02*
Y01927D01*
X-01131Y02284D02*
X-01121D01*
X01297Y02282D02*
X01308Y02271D01*
X01275Y02282D02*
X01297D01*
X00723Y026D02*
Y02618D01*
X00265Y00518D02*
X00353D01*
X00358Y00513*
X00265Y00646D02*
Y00682D01*
X00351Y00768*
Y00839*
X00438Y00823D02*
Y00846D01*
X00265Y00621D02*
X00297D01*
X-00829Y00553D02*
X-00799D01*
X-00743Y00497D02*
X-00663Y00578D01*
X-00799Y00503D02*
X-00793Y00497D01*
X-00743*
G54D46*
X-00047Y0316D02*
Y0323D01*
X-00095Y03278D02*
X-00047Y0323D01*
X-00317Y03278D02*
X-00095D01*
X-00706Y0289D02*
X-00317Y03278D01*
X-00085Y03305D02*
X-00022Y03242D01*
X-00327Y03305D02*
X-00085D01*
X-0086Y02773D02*
X-00327Y03305D01*
X00666Y03038D02*
X00696D01*
X00394Y0331D02*
X00666Y03038D01*
X00069Y0331D02*
X00394D01*
X00369Y03284D02*
X00642Y03012D01*
X00083Y03284D02*
X00369D01*
X00028Y03229D02*
X00083Y03284D01*
X00003Y03244D02*
X00069Y0331D01*
X00003Y0316D02*
Y03244D01*
X00369Y00437D02*
X00387D01*
X00418Y00468*
Y00544*
X00028Y0316D02*
Y03229D01*
X00181Y03154D02*
Y03203D01*
X00139Y03245D02*
X00181Y03203D01*
X00094Y03245D02*
X00139D01*
X00054Y03205D02*
X00094Y03245D01*
X00054Y0316D02*
Y03205D01*
X00265Y00544D02*
X00418D01*
X00476Y00602D02*
X00479Y00605D01*
X00696Y03038D02*
X00858Y02876D01*
Y0282D02*
Y02876D01*
Y0282D02*
X00946Y02732D01*
X00642Y03012D02*
X00688D01*
X00946Y0266D02*
Y02732D01*
X00822Y02836D02*
Y02878D01*
X00688Y03012D02*
X00822Y02878D01*
X00181Y03154D02*
X00236Y03099D01*
X-00979Y02773D02*
X-0086D01*
X-00106Y03248D02*
X-00073Y03215D01*
X-00187Y03248D02*
X-00106D01*
X-00236Y03199D02*
X-00187Y03248D01*
X-00073Y0316D02*
Y03215D01*
X-00036Y00493D02*
X0005D01*
X-00016Y00621D02*
X00051D01*
X-00012Y00569D02*
X00053D01*
X-00038Y00544D02*
X00052D01*
X01226Y02247D02*
X0127Y02203D01*
X01226Y02247D02*
Y02378D01*
X01227Y02379*
X00946Y0266D02*
X01227Y02379D01*
X-01181Y02247D02*
X-0114Y02206D01*
X-01181Y02247D02*
Y02328D01*
X-01075Y02434*
Y02677*
X-00979Y02773*
X-00022Y0316D02*
Y03242D01*
X-00706Y02673D02*
Y0289D01*
X-00666Y02633D02*
X-00594D01*
X-00706Y02673D02*
X-00666Y02633D01*
X-0078Y02D02*
X-00726D01*
G54D47*
X00361Y03252D02*
X00574Y03039D01*
X00256Y03252D02*
X00361D01*
X0024Y03236D02*
X00256Y03252D01*
X002Y02966D02*
X00316Y03082D01*
X00926Y02197D02*
Y0225D01*
X00574Y02959D02*
Y03039D01*
X00405Y02021D02*
Y0211D01*
X-00087Y00593D02*
Y00874D01*
X-00119Y00906D02*
X-00087Y00874D01*
X-00443Y00787D02*
X-00338Y00682D01*
X-00187*
X-00087Y00593D02*
X-00038Y00544D01*
X-00568Y00749D02*
Y01499D01*
X-00443Y00787D02*
Y01271D01*
X-00568Y00749D02*
X-00515Y00696D01*
X-00443Y01271D02*
X-00379Y01335D01*
Y01487*
X-00393Y01501D02*
X-00379Y01487D01*
X-00437Y01501D02*
X-00393D01*
X-00568Y01499D02*
X-00522D01*
X-00642Y02688D02*
X-00547Y02783D01*
X-00074Y01491D02*
X-00042Y01459D01*
X-00074Y01491D02*
Y01541D01*
X-01064Y02341D02*
X-00993D01*
X-01121Y02284D02*
X-01064Y02341D01*
X01121Y02206D02*
X0117D01*
X01101Y02186D02*
X01121Y02206D01*
X01028Y02186D02*
X01101D01*
X01308Y02271D02*
X01418D01*
X00723Y026D02*
X00812Y02511D01*
X0024Y03203D02*
Y03236D01*
X00236Y03199D02*
X0024Y03203D01*
G54D48*
X-00147Y01781D02*
Y02133D01*
X00029Y01823D02*
Y01871D01*
X0003Y0187*
X00068Y02288D02*
X00134Y02354D01*
X00108Y02118D02*
Y02218D01*
G54D49*
X00018Y02149D02*
X00019D01*
X-00505Y02353D02*
Y02369D01*
X-00588Y02452D02*
X-00505Y02369D01*
X0003Y0187D02*
Y01942D01*
X-00011Y02118D02*
X00019Y02149D01*
X-00015Y01988D02*
Y02118D01*
X00154Y01558D02*
X00253Y01459D01*
X00081Y01558D02*
X00154D01*
X00019Y0162D02*
X00081Y01558D01*
X-00117Y01577D02*
X-00074Y0162D01*
X-00117Y01488D02*
Y01577D01*
X-00629Y02452D02*
X-00588D01*
X-00663Y02418D02*
X-00629Y02452D01*
X00253Y01459D02*
X00358D01*
X-00015Y01988D02*
X0003Y01942D01*
G54D50*
X-00374Y02207D02*
Y02319D01*
X-00474Y02419D02*
X-00374Y02319D01*
X-00474Y02419D02*
Y02709D01*
X-00571Y02098D02*
X-00539Y02129D01*
X-00571Y0208D02*
Y02098D01*
Y0208D02*
X-00437D01*
X-00539Y02129D02*
Y0219D01*
X00502Y02195D02*
X00665D01*
X00489Y02208D02*
X00502Y02195D01*
X00489Y02208D02*
Y02244D01*
X00763Y02197D02*
X00847D01*
X00697Y02263D02*
X00763Y02197D01*
X0062Y02263D02*
X00697D01*
X00601Y02244D02*
X0062Y02263D01*
X00567Y02244D02*
X00601D01*
X00567D02*
Y0229D01*
X00578Y02301*
Y02305*
X00562Y02321D02*
X00578Y02305D01*
X00562Y02321D02*
Y0236D01*
X00305Y0195D02*
X00314Y01941D01*
X00054Y0288D02*
X00237Y02698D01*
Y02457D02*
Y02698D01*
X00299Y02049D02*
X00324Y02074D01*
X00143Y02068D02*
X00143Y02068D01*
X00019Y02089D02*
Y02097D01*
X-00625Y00319D02*
X-00598Y00292D01*
X-00249Y02933D02*
Y02961D01*
X-00474Y02709D02*
X-00249Y02933D01*
X-00625Y00319D02*
X-00624D01*
X-00528Y0032D02*
X-00506Y00298D01*
X-00248Y02695D02*
X-00073Y02869D01*
X-00248Y02479D02*
Y02695D01*
X00021Y02031D02*
X00108Y02118D01*
X00108Y02118D02*
X00108Y02118D01*
X00021Y02023D02*
Y02031D01*
X00393Y02621D02*
Y02663D01*
X00396Y02411D02*
Y02618D01*
X00393Y02621D02*
X00396Y02618D01*
X00019Y02097D02*
X00088Y02166D01*
X-00598Y00292D02*
X-00532D01*
Y00237D02*
Y00292D01*
X-00506Y00237D02*
Y00298D01*
X-00249Y02961D02*
Y02996D01*
X-00181Y03065*
Y03125*
X-00204Y03148D02*
X-00181Y03125D01*
X-00265Y03148D02*
X-00204D01*
X-00317Y032D02*
X-00265Y03148D01*
G54D51*
X-00663Y02353D02*
X-00519Y02209D01*
X-00663Y02353D02*
Y02418D01*
G54D52*
X-00452Y02084D02*
Y02221D01*
Y02084D02*
X-00428D01*
X00436Y02959D02*
X00495D01*
X00405Y02957D02*
X00407Y02959D01*
X00436*
X00926Y0225D02*
X00958Y02283D01*
X01032*
X-00804Y02617D02*
X-00722D01*
X-00869Y02552D02*
X-00804Y02617D01*
X-00869Y02552D02*
X-00847D01*
X-00771Y00421D02*
X-00193D01*
X-00792Y00442D02*
X-00771Y00421D01*
X-01001Y02256D02*
X-00992D01*
X-00307Y0302D02*
X-00236Y0309D01*
X-00307Y02965D02*
Y0302D01*
X-00422Y02995D02*
X-00317Y031D01*
X-00422Y02963D02*
Y02995D01*
X-00475Y02963D02*
X-00422D01*
X0062Y02848D02*
X00651Y02879D01*
X01031Y0237D02*
X0109D01*
X01026Y02375D02*
X01031Y0237D01*
Y02296D02*
Y0237D01*
X-00925Y0263D02*
X-00847Y02552D01*
X-01373Y02196D02*
X-01237D01*
X00583Y02811D02*
X0062Y02848D01*
X00502Y0273D02*
X00579Y02654D01*
Y02649D02*
Y02654D01*
Y02649D02*
X00594Y02633D01*
X00652Y02808D02*
X00656Y02812D01*
X00652Y02689D02*
Y02808D01*
X0062Y02848D02*
X00656Y02812D01*
X00577Y02891D02*
X0062Y02848D01*
X00563Y02891D02*
X00577D01*
X0034Y00322D02*
X00372D01*
X-00152Y00427D02*
X-00034Y00309D01*
X-0029Y02812D02*
X-00245Y02767D01*
X-0029Y02812D02*
Y02839D01*
X-00079Y00128D02*
X-00074Y00124D01*
X00014*
Y00202D02*
Y00255D01*
X-00034Y00303D02*
X00014Y00255D01*
X-00034Y00303D02*
Y00309D01*
X00989Y02375D02*
X01026D01*
X00919Y02445D02*
X00989Y02375D01*
X00655Y02445D02*
X00919D01*
X00601Y02499D02*
X00655Y02445D01*
X00601Y02499D02*
Y02568D01*
X00652Y02619*
Y02689*
X00789Y00088D02*
X0079Y00089D01*
X-00074Y0162D02*
X00019D01*
X00495Y02959D02*
X00563Y02891D01*
X00019Y01498D02*
X00058Y01459D01*
X00019Y01498D02*
Y01541D01*
X-00773Y02285D02*
X-0077Y02281D01*
X-00866Y02285D02*
X-00773D01*
X00775Y02266D02*
X00847D01*
X0109Y0237D02*
X01175Y02285D01*
X00652Y02689D02*
Y02717D01*
X00436Y02959D02*
X00439Y02961D01*
Y03105*
X00346Y03198D02*
X00439Y03105D01*
X00316Y03198D02*
X00346D01*
X-00236Y0309D02*
Y03099D01*
X-00682Y02546D02*
X-00665Y02563D01*
X-0074Y02546D02*
X-00682D01*
X-00792Y02494D02*
X-0074Y02546D01*
X-00992Y02256D02*
X-00973D01*
X-00524Y02205D02*
X-00519Y02209D01*
X-00508Y02221*
X-00452*
G54D53*
X-00031Y00382D02*
X00095D01*
X-00195Y00546D02*
X-00031Y00382D01*
X-00597Y00546D02*
X-00195D01*
X0013Y00416D02*
X00245D01*
X00095Y00382D02*
X0013Y00416D01*
X00245D02*
X0034Y00322D01*
X00791Y00313D02*
Y00336D01*
X00746Y00381D02*
X00791Y00336D01*
X00721Y00381D02*
X00746D01*
X-00619Y00568D02*
X-00597Y00546D01*
X-00619Y00568D02*
Y01813D01*
X-00597Y01836*
X00678Y00424D02*
X00721Y00381D01*
G54D54*
X00134Y02354D02*
X00237Y02457D01*
G54D55*
X00476Y00602D02*
X00476Y00602D01*
G54D56*
X00418Y00544D02*
X00476Y00602D01*
G54D57*
X00546Y00315D02*
Y00605D01*
G54D58*
X-00671Y02273D02*
X-00577D01*
X-00727Y02218D02*
X-00671Y02273D01*
X00362Y0008D02*
X00373Y0007D01*
X00362Y0008D02*
Y00154D01*
G54D59*
X00526Y00194D02*
X00567D01*
X00465Y00255D02*
X00526Y00194D01*
X00439Y00255D02*
X00465D01*
X00546Y00605D02*
X00654D01*
X00479D02*
X00546D01*
X00372Y00322D02*
X00439Y00255D01*
X00546Y00315D02*
X00567Y00294D01*
G54D60*
X-01108Y02149D02*
X-01001Y02256D01*
X-01409Y02149D02*
X-01108D01*
X-00935Y02218D02*
X-00727D01*
X-01278Y02317D02*
X-01236Y02275D01*
X-01423Y02253D02*
X-01359Y02317D01*
X-01423Y02163D02*
X-01409Y02149D01*
X-01359Y02317D02*
X-01278D01*
X-01423Y02163D02*
Y02253D01*
X-00973Y02256D02*
X-00935Y02218D01*
X-00597Y01836D02*
Y01888D01*
G54D61*
X-00428Y02084D02*
X-00338Y01994D01*
X-0078Y02071D02*
X-00751D01*
G54D62*
X-00118Y00575D02*
Y00814D01*
X-00052Y00609D02*
Y00884D01*
X-00016Y00621D02*
Y00831D01*
X-00052Y00884D02*
X00706Y01642D01*
X-00183Y00879D02*
X-00118Y00814D01*
X-00016Y00831D02*
X00694Y01541D01*
X-00118Y00575D02*
X-00036Y00493D01*
G54D63*
X00191Y00309D02*
Y00322D01*
Y00309D02*
X00283Y00217D01*
Y00154D02*
Y00217D01*
X00771Y0007D02*
X00789Y00088D01*
X00373Y0007D02*
X00771D01*
X0079Y00089D02*
Y00182D01*
G54D64*
X-00248Y02479D02*
X-00088Y02319D01*
G54D65*
X-00052Y00609D02*
X-00012Y00569D01*
G54D66*
X00393Y02009D02*
X00402Y02018D01*
X00218Y02009D02*
X00393D01*
G54D67*
X-00984Y00118D03*
X00984D03*
Y01968D03*
X-00984D03*
G54D68*
X00657Y02193D03*
X-00496Y00685D03*
X-00187Y00682D03*
G54D69*
X00657Y01937D03*
X-00496Y0043D03*
X-00187Y00427D03*
G54D70*
X01175Y02285D03*
X01275Y02282D03*
X00652Y02689D03*
X00723Y02618D03*
X00316Y03198D03*
Y03098D03*
X-00317Y031D03*
Y032D03*
X-00722Y02617D03*
X-00651Y02688D03*
X-01231Y02281D03*
X-01131Y02284D03*
G54D71*
X0117Y02206D03*
X0127Y02203D03*
X00594Y02633D03*
X00665Y02563D03*
X00236Y03199D03*
Y03099D03*
X-00236D03*
Y03199D03*
X-00665Y02563D03*
X-00594Y02633D03*
X-01231Y02203D03*
X-01131Y02206D03*
X-00663Y02418D03*
X-00515Y0191D03*
G54D72*
X00804Y00599D03*
Y00549D03*
Y00499D03*
Y00449D03*
X-00799Y00453D03*
Y00503D03*
Y00553D03*
Y00603D03*
X00872Y02719D03*
G54D73*
X-00042Y01459D03*
X00058D03*
X00158D03*
X00358D03*
X00283Y00154D03*
X00204D03*
X00567Y00294D03*
X00791Y00313D03*
X-00372Y02678D03*
X0015Y02572D03*
X0005Y02672D03*
Y02572D03*
X-0005Y02672D03*
Y02572D03*
X-0015Y02672D03*
Y02572D03*
X00789Y00088D03*
X-00729Y01652D03*
X00706Y01642D03*
X0079Y00182D03*
G54D74*
X00441Y00154D03*
X00126D03*
G54D75*
X00362Y00154D03*
G54D76*
X-00608Y02064D03*
Y02025D03*
X-00648Y02064D03*
Y02025D03*
X00578Y02305D03*
X00314Y01941D03*
G54D77*
X00567Y00194D03*
X-00372Y02578D03*
X-00729Y01552D03*
X00706Y01542D03*
G54D78*
X00691Y00313D03*
X0015Y02672D03*
X0069Y00182D03*
G54D79*
X-00681Y0008D03*
X-0028D03*
Y00225D03*
X-00681D03*
G54D80*
X00018Y02149D03*
X-00505Y02353D03*
X00304Y02211D03*
X0003Y0187D03*
X-00072Y01876D03*
X-00479Y02282D03*
X-00663Y0168D03*
X00822Y02836D03*
X-00117Y01488D03*
X00346Y02608D03*
X00278Y02236D03*
X00438Y00846D03*
X00351Y00839D03*
X-00481Y00316D03*
X-00624Y00319D03*
X-0042Y00316D03*
X-00528Y0032D03*
X00127Y02307D03*
X-00245Y02767D03*
X-0029Y02839D03*
X00098Y01683D03*
X00078Y01648D03*
X-00535Y01682D03*
X-00562Y01719D03*
X-00684D03*
X-00365Y01842D03*
X00393Y02663D03*
X-00454Y02352D03*
X00324Y02074D03*
X00396Y02411D03*
X00213Y01566D03*
X00181Y01697D03*
X00119Y00712D03*
X00021Y02023D03*
X00019Y02089D03*
X00143Y02068D03*
X-00352Y01593D03*
X-00355Y01664D03*
X-00081Y02032D03*
X00653Y02319D03*
X-00296Y02419D03*
X00184Y02305D03*
X-00155Y02317D03*
X-00209Y02372D03*
X-00388Y02128D03*
X00315Y00488D03*
X00316Y00444D03*
G54D81*
X-00038Y00309D03*
G54D82*
X-00119Y00906D03*
X-00187Y00879D03*
G54D83*
X-00531Y02579D03*
X-00337Y02236D03*
X-01192Y02514D03*
X-00866Y02442D03*
X00129Y00537D03*
X00169Y00577D03*
Y00537D03*
X00129Y00577D03*
M02*