G04 Layer_Physical_Order=2*
G04 Layer_Color=16711680*
%FSLAX24Y24*%
%MOIN*%
G70*
G01*
G75*
%ADD44C,0.0080*%
%ADD45C,0.0098*%
%ADD46C,0.0140*%
%ADD47C,0.0197*%
%ADD49C,0.0160*%
%ADD50C,0.0118*%
%ADD52C,0.0200*%
%ADD53C,0.0394*%
%ADD61C,0.0120*%
%ADD67C,0.1181*%
%ADD68O,0.0787X0.0630*%
%ADD69O,0.0787X0.0591*%
%ADD70C,0.0630*%
%ADD71C,0.0512*%
%ADD72C,0.0394*%
%ADD73C,0.0591*%
%ADD74R,0.0591X0.0787*%
%ADD75C,0.0600*%
%ADD76C,0.0197*%
%ADD77R,0.0591X0.0591*%
%ADD78R,0.0591X0.0591*%
G04:AMPARAMS|DCode=79|XSize=94.5mil|YSize=63mil|CornerRadius=15.7mil|HoleSize=0mil|Usage=FLASHONLY|Rotation=90.000|XOffset=0mil|YOffset=0mil|HoleType=Round|Shape=RoundedRectangle|*
%AMROUNDEDRECTD79*
21,1,0.0945,0.0315,0,0,90.0*
21,1,0.0630,0.0630,0,0,90.0*
1,1,0.0315,0.0157,0.0315*
1,1,0.0315,0.0157,-0.0315*
1,1,0.0315,-0.0157,-0.0315*
1,1,0.0315,-0.0157,0.0315*
%
%ADD79ROUNDEDRECTD79*%
%ADD80C,0.0220*%
%ADD81C,0.0276*%
%ADD82C,0.0400*%
%ADD83C,0.0280*%
G36*
X2354Y34050D02*
X4734Y33490D01*
X7174Y32550D01*
X9334Y31140D01*
X11294Y29380D01*
X12924Y27300D01*
X14224Y24880D01*
X15282Y21201D01*
X15198Y21089D01*
X11104Y21040D01*
X11057Y20994D01*
Y90D01*
X-2966D01*
X-3055Y184D01*
X-2960Y253D01*
X-2645D01*
X-2556Y271D01*
X-2481Y321D01*
X-2430Y396D01*
X-2413Y485D01*
Y1115D01*
X-2430Y1204D01*
X-2481Y1279D01*
X-2556Y1329D01*
X-2645Y1347D01*
X-2960D01*
X-3048Y1329D01*
X-3063Y1319D01*
X-3203Y1393D01*
Y1646D01*
X-3203Y1646D01*
X-3202Y1656D01*
X-3200Y1665D01*
X-3188Y1680D01*
X-3186Y1682D01*
X-3069Y1741D01*
X-3048Y1727D01*
X-2960Y1710D01*
X-2645D01*
X-2556Y1727D01*
X-2481Y1778D01*
X-2430Y1853D01*
X-2413Y1942D01*
Y2572D01*
X-2430Y2660D01*
X-2481Y2736D01*
X-2556Y2786D01*
X-2645Y2803D01*
X-2960D01*
X-3048Y2786D01*
X-3124Y2736D01*
X-3174Y2660D01*
X-3192Y2572D01*
Y2011D01*
X-3256Y1968D01*
X-3332Y1954D01*
X-3387Y1996D01*
X-3396Y2001D01*
X-3403Y2006D01*
X-3480Y2037D01*
X-3489Y2039D01*
X-3498Y2042D01*
X-3580Y2053D01*
X-3585Y2053D01*
X-3590Y2054D01*
X-6011Y2051D01*
X-6012Y2051D01*
X-6021Y2052D01*
X-6030Y2054D01*
X-6035Y2053D01*
X-6040Y2053D01*
X-6122Y2042D01*
X-6131Y2039D01*
X-6140Y2037D01*
X-6217Y2006D01*
X-6224Y2001D01*
X-6233Y1996D01*
X-6288Y1954D01*
X-6364Y1968D01*
X-6428Y2011D01*
Y2572D01*
X-6446Y2660D01*
X-6496Y2736D01*
X-6572Y2786D01*
X-6660Y2803D01*
X-6975D01*
X-7064Y2786D01*
X-7139Y2736D01*
X-7190Y2660D01*
X-7207Y2572D01*
Y1942D01*
X-7190Y1853D01*
X-7139Y1778D01*
X-7064Y1727D01*
X-6975Y1710D01*
X-6660D01*
X-6572Y1727D01*
X-6551Y1741D01*
X-6446Y1688D01*
X-6420Y1661D01*
X-6419Y1396D01*
X-6559Y1321D01*
X-6572Y1329D01*
X-6660Y1347D01*
X-6975D01*
X-7064Y1329D01*
X-7139Y1279D01*
X-7190Y1204D01*
X-7207Y1115D01*
Y485D01*
X-7190Y396D01*
X-7139Y321D01*
X-7064Y271D01*
X-6975Y253D01*
X-6660D01*
X-6572Y271D01*
X-6532Y205D01*
X-6627Y90D01*
X-10990D01*
Y20956D01*
X-15243D01*
X-15326Y21068D01*
X-14146Y24990D01*
X-11676Y28900D01*
X-8546Y31640D01*
X-5726Y33110D01*
X-3066Y33900D01*
X-136Y34190D01*
X2354Y34050D01*
D02*
G37*
%LPC*%
G36*
X-1772Y4638D02*
X-1968D01*
X-2064Y4626D01*
X-2153Y4589D01*
X-2229Y4531D01*
X-2287Y4454D01*
X-2324Y4365D01*
X-2337Y4270D01*
X-2324Y4175D01*
X-2287Y4086D01*
X-2229Y4009D01*
X-2153Y3951D01*
X-2064Y3914D01*
X-1968Y3902D01*
X-1772D01*
X-1676Y3914D01*
X-1587Y3951D01*
X-1511Y4009D01*
X-1453Y4086D01*
X-1416Y4175D01*
X-1403Y4270D01*
X-1416Y4365D01*
X-1453Y4454D01*
X-1511Y4531D01*
X-1587Y4589D01*
X-1676Y4626D01*
X-1772Y4638D01*
D02*
G37*
G36*
X7910Y3498D02*
X7815Y3486D01*
X7726Y3449D01*
X7649Y3391D01*
X7591Y3314D01*
X7554Y3225D01*
X7542Y3130D01*
X7554Y3035D01*
X7591Y2946D01*
X7649Y2869D01*
X7726Y2811D01*
X7815Y2774D01*
X7910Y2762D01*
X8005Y2774D01*
X8094Y2811D01*
X8171Y2869D01*
X8229Y2946D01*
X8266Y3035D01*
X8278Y3130D01*
X8266Y3225D01*
X8229Y3314D01*
X8171Y3391D01*
X8094Y3449D01*
X8005Y3486D01*
X7910Y3498D01*
D02*
G37*
G36*
X-1791Y7217D02*
X-1949D01*
X-2049Y7204D01*
X-2143Y7165D01*
X-2223Y7104D01*
X-2285Y7023D01*
X-2324Y6930D01*
X-2337Y6829D01*
X-2324Y6729D01*
X-2285Y6635D01*
X-2223Y6554D01*
X-2143Y6493D01*
X-2049Y6454D01*
X-1949Y6441D01*
X-1791D01*
X-1691Y6454D01*
X-1597Y6493D01*
X-1517Y6554D01*
X-1455Y6635D01*
X-1416Y6729D01*
X-1403Y6829D01*
X-1416Y6930D01*
X-1455Y7023D01*
X-1517Y7104D01*
X-1597Y7165D01*
X-1691Y7204D01*
X-1791Y7217D01*
D02*
G37*
G36*
X7425Y15785D02*
X6695D01*
Y15055D01*
X7425D01*
Y15785D01*
D02*
G37*
G36*
X3580Y14958D02*
X3485Y14946D01*
X3396Y14909D01*
X3319Y14851D01*
X3261Y14774D01*
X3224Y14685D01*
X3212Y14590D01*
X3224Y14495D01*
X3261Y14406D01*
X3319Y14329D01*
X3396Y14271D01*
X3485Y14234D01*
X3580Y14222D01*
X3675Y14234D01*
X3764Y14271D01*
X3841Y14329D01*
X3899Y14406D01*
X3936Y14495D01*
X3948Y14590D01*
X3936Y14685D01*
X3899Y14774D01*
X3841Y14851D01*
X3764Y14909D01*
X3675Y14946D01*
X3580Y14958D01*
D02*
G37*
G36*
X-4881Y7247D02*
X-5039D01*
X-5139Y7234D01*
X-5233Y7195D01*
X-5313Y7134D01*
X-5375Y7053D01*
X-5414Y6960D01*
X-5427Y6859D01*
X-5414Y6759D01*
X-5375Y6665D01*
X-5313Y6585D01*
X-5233Y6523D01*
X-5139Y6484D01*
X-5039Y6471D01*
X-4881D01*
X-4781Y6484D01*
X-4687Y6523D01*
X-4607Y6585D01*
X-4545Y6665D01*
X-4506Y6759D01*
X-4493Y6859D01*
X-4506Y6960D01*
X-4545Y7053D01*
X-4607Y7134D01*
X-4687Y7195D01*
X-4781Y7234D01*
X-4881Y7247D01*
D02*
G37*
G36*
X5670Y3308D02*
X5575Y3296D01*
X5486Y3259D01*
X5409Y3201D01*
X5351Y3124D01*
X5314Y3035D01*
X5302Y2940D01*
X5314Y2845D01*
X5351Y2756D01*
X5409Y2679D01*
X5486Y2621D01*
X5575Y2584D01*
X5670Y2572D01*
X5765Y2584D01*
X5854Y2621D01*
X5931Y2679D01*
X5989Y2756D01*
X6026Y2845D01*
X6038Y2940D01*
X6026Y3035D01*
X5989Y3124D01*
X5931Y3201D01*
X5854Y3259D01*
X5765Y3296D01*
X5670Y3308D01*
D02*
G37*
G36*
X9843Y1845D02*
X9713Y1832D01*
X9589Y1794D01*
X9474Y1733D01*
X9373Y1650D01*
X9291Y1550D01*
X9229Y1435D01*
X9192Y1311D01*
X9179Y1181D01*
X9192Y1052D01*
X9229Y927D01*
X9291Y812D01*
X9373Y712D01*
X9474Y629D01*
X9589Y568D01*
X9713Y530D01*
X9843Y517D01*
X9972Y530D01*
X10097Y568D01*
X10211Y629D01*
X10312Y712D01*
X10394Y812D01*
X10456Y927D01*
X10494Y1052D01*
X10506Y1181D01*
X10494Y1311D01*
X10456Y1435D01*
X10394Y1550D01*
X10312Y1650D01*
X10211Y1733D01*
X10097Y1794D01*
X9972Y1832D01*
X9843Y1845D01*
D02*
G37*
G36*
X-9843D02*
X-9972Y1832D01*
X-10097Y1794D01*
X-10211Y1733D01*
X-10312Y1650D01*
X-10394Y1550D01*
X-10456Y1435D01*
X-10494Y1311D01*
X-10506Y1181D01*
X-10494Y1052D01*
X-10456Y927D01*
X-10394Y812D01*
X-10312Y712D01*
X-10211Y629D01*
X-10097Y568D01*
X-9972Y530D01*
X-9843Y517D01*
X-9713Y530D01*
X-9589Y568D01*
X-9474Y629D01*
X-9373Y712D01*
X-9291Y812D01*
X-9229Y927D01*
X-9192Y1052D01*
X-9179Y1181D01*
X-9192Y1311D01*
X-9229Y1435D01*
X-9291Y1550D01*
X-9373Y1650D01*
X-9474Y1733D01*
X-9589Y1794D01*
X-9713Y1832D01*
X-9843Y1845D01*
D02*
G37*
G36*
X7890Y1248D02*
X7795Y1236D01*
X7706Y1199D01*
X7629Y1141D01*
X7571Y1064D01*
X7534Y975D01*
X7522Y880D01*
X7534Y785D01*
X7571Y696D01*
X7629Y619D01*
X7706Y561D01*
X7795Y524D01*
X7890Y512D01*
X7985Y524D01*
X8074Y561D01*
X8151Y619D01*
X8209Y696D01*
X8246Y785D01*
X8258Y880D01*
X8246Y975D01*
X8209Y1064D01*
X8151Y1141D01*
X8074Y1199D01*
X7985Y1236D01*
X7890Y1248D01*
D02*
G37*
G36*
X4775Y2004D02*
X4044D01*
Y1828D01*
X3904Y1780D01*
X3886Y1804D01*
X3809Y1863D01*
X3719Y1900D01*
X3622Y1913D01*
X3526Y1900D01*
X3436Y1863D01*
X3358Y1804D01*
X3303Y1731D01*
X3271Y1726D01*
X3187Y1725D01*
X3149Y1730D01*
X3095Y1801D01*
X3019Y1859D01*
X2930Y1896D01*
X2835Y1908D01*
X2739Y1896D01*
X2651Y1859D01*
X2574Y1801D01*
X2516Y1724D01*
X2366D01*
X2308Y1801D01*
X2232Y1859D01*
X2143Y1896D01*
X2047Y1908D01*
X1952Y1896D01*
X1863Y1859D01*
X1787Y1801D01*
X1765Y1772D01*
X1625Y1820D01*
Y2004D01*
X895D01*
Y1076D01*
X1625D01*
Y1260D01*
X1765Y1308D01*
X1787Y1279D01*
X1863Y1221D01*
X1952Y1184D01*
X2047Y1172D01*
X2143Y1184D01*
X2232Y1221D01*
X2308Y1279D01*
X2366Y1356D01*
X2516D01*
X2574Y1279D01*
X2651Y1221D01*
X2739Y1184D01*
X2835Y1172D01*
X2930Y1184D01*
X3019Y1221D01*
X3095Y1279D01*
X3149Y1350D01*
X3187Y1355D01*
X3271Y1354D01*
X3303Y1349D01*
X3358Y1276D01*
X3436Y1217D01*
X3526Y1180D01*
X3622Y1167D01*
X3719Y1180D01*
X3809Y1217D01*
X3886Y1276D01*
X3904Y1300D01*
X4044Y1252D01*
Y1076D01*
X4775D01*
Y2004D01*
D02*
G37*
G36*
X6035Y2305D02*
X5305D01*
Y1575D01*
X6035D01*
Y2305D01*
D02*
G37*
G36*
X7900Y2188D02*
X7805Y2176D01*
X7716Y2139D01*
X7639Y2081D01*
X7581Y2004D01*
X7544Y1915D01*
X7532Y1820D01*
X7544Y1725D01*
X7581Y1636D01*
X7639Y1559D01*
X7716Y1501D01*
X7805Y1464D01*
X7900Y1452D01*
X7995Y1464D01*
X8084Y1501D01*
X8161Y1559D01*
X8219Y1636D01*
X8256Y1725D01*
X8268Y1820D01*
X8256Y1915D01*
X8219Y2004D01*
X8161Y2081D01*
X8084Y2139D01*
X7995Y2176D01*
X7900Y2188D01*
D02*
G37*
G36*
X7060Y16788D02*
X6965Y16776D01*
X6876Y16739D01*
X6799Y16681D01*
X6741Y16604D01*
X6704Y16515D01*
X6692Y16420D01*
X6704Y16325D01*
X6741Y16236D01*
X6799Y16159D01*
X6876Y16101D01*
X6965Y16064D01*
X7060Y16052D01*
X7155Y16064D01*
X7244Y16101D01*
X7321Y16159D01*
X7379Y16236D01*
X7416Y16325D01*
X7428Y16420D01*
X7416Y16515D01*
X7379Y16604D01*
X7321Y16681D01*
X7244Y16739D01*
X7155Y16776D01*
X7060Y16788D01*
D02*
G37*
G36*
X-3355Y26145D02*
X-4085D01*
Y25415D01*
X-3355D01*
Y26145D01*
D02*
G37*
G36*
X-3170Y32388D02*
X-3271Y32375D01*
X-3364Y32336D01*
X-3445Y32275D01*
X-3506Y32194D01*
X-3545Y32101D01*
X-3558Y32000D01*
X-3545Y31900D01*
X-3506Y31806D01*
X-3445Y31725D01*
X-3364Y31664D01*
X-3271Y31625D01*
X-3170Y31612D01*
X-3070Y31625D01*
X-2976Y31664D01*
X-2895Y31725D01*
X-2859Y31774D01*
X-2788Y31800D01*
X-2704Y31789D01*
X-2726Y31670D01*
X-2783Y31633D01*
X-3049Y31366D01*
X-3070Y31375D01*
X-3170Y31388D01*
X-3271Y31375D01*
X-3364Y31336D01*
X-3445Y31275D01*
X-3506Y31194D01*
X-3515Y31173D01*
X-3560D01*
X-3626Y31160D01*
X-3683Y31123D01*
X-5173Y29633D01*
X-7346Y27459D01*
X-7384Y27403D01*
X-7397Y27336D01*
Y26521D01*
X-7418Y26513D01*
X-7498Y26451D01*
X-7560Y26371D01*
X-7599Y26277D01*
X-7612Y26176D01*
X-7599Y26076D01*
X-7560Y25982D01*
X-7498Y25902D01*
X-7418Y25840D01*
X-7397Y25832D01*
Y25214D01*
X-7384Y25147D01*
X-7346Y25091D01*
X-6838Y24583D01*
X-6846Y24426D01*
X-6863Y24413D01*
X-6915Y24345D01*
X-6948Y24266D01*
X-6959Y24181D01*
X-6948Y24095D01*
X-6915Y24016D01*
X-6863Y23948D01*
X-6795Y23896D01*
X-6716Y23863D01*
X-6631Y23852D01*
X-6545Y23863D01*
X-6466Y23896D01*
X-6398Y23948D01*
X-6346Y24016D01*
X-6313Y24095D01*
X-6302Y24181D01*
X-6313Y24266D01*
X-6346Y24345D01*
X-6398Y24413D01*
X-6457Y24458D01*
Y24621D01*
X-6470Y24687D01*
X-6508Y24743D01*
X-7020Y25255D01*
X-7009Y25329D01*
X-6955Y25359D01*
X-6860Y25379D01*
X-6817Y25346D01*
X-6738Y25313D01*
X-6653Y25302D01*
X-6568Y25313D01*
X-6488Y25346D01*
X-6420Y25398D01*
X-6368Y25466D01*
X-6335Y25546D01*
X-6332Y25571D01*
X-6189Y25626D01*
X-5842Y25279D01*
Y23560D01*
X-5829Y23494D01*
X-5791Y23439D01*
X-5512Y23159D01*
X-5570Y23019D01*
X-10966D01*
X-10981Y23053D01*
X-11045Y23131D01*
X-11128Y23190D01*
X-11223Y23226D01*
X-11324Y23235D01*
X-11424Y23219D01*
X-11516Y23177D01*
X-11594Y23112D01*
X-11653Y23030D01*
X-11689Y22935D01*
X-11698Y22834D01*
X-11682Y22734D01*
X-11640Y22642D01*
X-11580Y22569D01*
X-11575Y22561D01*
X-11579Y22434D01*
X-11687Y22435D01*
X-11944Y22692D01*
X-11931Y22725D01*
X-11922Y22826D01*
X-11938Y22926D01*
X-11980Y23018D01*
X-12045Y23097D01*
X-12127Y23155D01*
X-12222Y23191D01*
X-12323Y23201D01*
X-12423Y23184D01*
X-12515Y23142D01*
X-12594Y23077D01*
X-12653Y22995D01*
X-12688Y22900D01*
X-12698Y22799D01*
X-12681Y22699D01*
X-12639Y22607D01*
X-12575Y22529D01*
X-12492Y22470D01*
X-12479Y22465D01*
X-12474Y22314D01*
X-12485Y22309D01*
X-12551Y22254D01*
X-12601Y22184D01*
X-12631Y22104D01*
X-12639Y22018D01*
X-12625Y21934D01*
X-12589Y21856D01*
X-12535Y21789D01*
X-12465Y21740D01*
X-12385Y21709D01*
X-12299Y21701D01*
X-12215Y21715D01*
X-12137Y21751D01*
X-12123Y21762D01*
X-12081Y21758D01*
X-11975Y21709D01*
X-11970Y21684D01*
X-11933Y21627D01*
X-11763Y21457D01*
X-11706Y21420D01*
X-11640Y21407D01*
X-8922D01*
X-8604Y21089D01*
X-8564Y18271D01*
X-8948Y17888D01*
X-8985Y17832D01*
X-8998Y17765D01*
Y13799D01*
X-8985Y13733D01*
X-8948Y13677D01*
X-7543Y12272D01*
Y4715D01*
X-7555Y4703D01*
X-7747D01*
X-7798Y4820D01*
X-7800Y4839D01*
X-7778Y4868D01*
X-7757Y4895D01*
X-7730Y4960D01*
X-7721Y5030D01*
X-7730Y5100D01*
X-7757Y5165D01*
X-7778Y5192D01*
X-7800Y5221D01*
Y5339D01*
X-7778Y5368D01*
X-7757Y5395D01*
X-7730Y5460D01*
X-7721Y5530D01*
X-7730Y5600D01*
X-7757Y5665D01*
X-7800Y5720D01*
X-7855Y5763D01*
X-7920Y5790D01*
X-7990Y5799D01*
X-8060Y5790D01*
X-8125Y5763D01*
X-8180Y5720D01*
X-8223Y5665D01*
X-8250Y5600D01*
X-8259Y5530D01*
X-8250Y5460D01*
X-8223Y5395D01*
X-8202Y5368D01*
X-8180Y5339D01*
Y5221D01*
X-8202Y5192D01*
X-8223Y5165D01*
X-8250Y5100D01*
X-8259Y5030D01*
X-8250Y4960D01*
X-8223Y4895D01*
X-8202Y4868D01*
X-8180Y4839D01*
Y4721D01*
X-8202Y4692D01*
X-8223Y4665D01*
X-8250Y4600D01*
X-8259Y4530D01*
X-8250Y4460D01*
X-8223Y4395D01*
X-8180Y4340D01*
X-8125Y4297D01*
X-8060Y4270D01*
X-7990Y4261D01*
X-7920Y4270D01*
X-7855Y4297D01*
X-7800Y4340D01*
X-7787Y4357D01*
X-7483D01*
X-7483Y4357D01*
X-7482Y4357D01*
X-7481Y4357D01*
X-7449Y4363D01*
X-7416Y4370D01*
X-7416Y4370D01*
X-7415Y4370D01*
X-7388Y4389D01*
X-7360Y4407D01*
X-7222Y4350D01*
X-7212Y4300D01*
X-7183Y4257D01*
X-6372Y3446D01*
Y3317D01*
X-6410Y3260D01*
X-6424Y3190D01*
X-6410Y3120D01*
X-6370Y3060D01*
X-6310Y3020D01*
X-6240Y3006D01*
X-6170Y3020D01*
X-6110Y3060D01*
X-6070Y3120D01*
X-6056Y3190D01*
X-6070Y3260D01*
X-6052Y3328D01*
X-5895Y3369D01*
X-5633Y3107D01*
X-5590Y3078D01*
X-5540Y3068D01*
X-5407D01*
X-5350Y3030D01*
X-5280Y3016D01*
X-5210Y3030D01*
X-5150Y3070D01*
X-5126Y3107D01*
X-5032Y3107D01*
X-4980Y3092D01*
X-4980Y3090D01*
X-4940Y3030D01*
X-4880Y2990D01*
X-4810Y2976D01*
X-4740Y2990D01*
X-4680Y3030D01*
X-4640Y3090D01*
X-4626Y3160D01*
X-4640Y3230D01*
X-4651Y3246D01*
X-4542Y3336D01*
X-4382Y3175D01*
X-4384Y3165D01*
X-4370Y3095D01*
X-4330Y3035D01*
X-4270Y2995D01*
X-4200Y2981D01*
X-4130Y2995D01*
X-4070Y3035D01*
X-4030Y3095D01*
X-4016Y3165D01*
X-4030Y3235D01*
X-4070Y3295D01*
X-4130Y3335D01*
X-4200Y3349D01*
X-4210Y3347D01*
X-4639Y3776D01*
X-4678Y3802D01*
X-4725Y3812D01*
X-4737D01*
X-4766Y3944D01*
X-4677Y3981D01*
X-4601Y4039D01*
X-4543Y4116D01*
X-4506Y4205D01*
X-4493Y4300D01*
X-4506Y4395D01*
X-4543Y4484D01*
X-4601Y4561D01*
X-4677Y4619D01*
X-4766Y4656D01*
X-4862Y4668D01*
X-5058D01*
X-5154Y4656D01*
X-5243Y4619D01*
X-5319Y4561D01*
X-5377Y4484D01*
X-5414Y4395D01*
X-5427Y4300D01*
X-5414Y4205D01*
X-5377Y4116D01*
X-5319Y4039D01*
X-5243Y3981D01*
X-5154Y3944D01*
X-5183Y3812D01*
X-5360D01*
X-6268Y4720D01*
Y13190D01*
X-6278Y13237D01*
X-6304Y13276D01*
X-7765Y14736D01*
Y15081D01*
X-7655Y15155D01*
X-7625Y15155D01*
X-7015D01*
X-2139Y10279D01*
Y8814D01*
X-2142Y8790D01*
X-2133Y8720D01*
X-2106Y8654D01*
X-2063Y8597D01*
X-2006Y8554D01*
X-1940Y8527D01*
X-1870Y8518D01*
X-1800Y8527D01*
X-1734Y8554D01*
X-1677Y8597D01*
X-1634Y8654D01*
X-1607Y8720D01*
X-1598Y8790D01*
X-1601Y8814D01*
Y8935D01*
X-1576Y8958D01*
X-1426Y8924D01*
X-1424Y8922D01*
X-1383Y8867D01*
X-1326Y8824D01*
X-1260Y8797D01*
X-1190Y8788D01*
X-1120Y8797D01*
X-1054Y8824D01*
X-997Y8867D01*
X-983Y8887D01*
X-970Y8900D01*
X-927Y8955D01*
X-900Y9020D01*
X-891Y9090D01*
Y10680D01*
X-900Y10750D01*
X-927Y10815D01*
X-970Y10870D01*
X-6583Y16483D01*
X-6566Y16589D01*
X-6543Y16642D01*
X-6500Y16670D01*
X-6495Y16678D01*
X-5462D01*
X-5420Y16650D01*
X-5350Y16636D01*
X-5298Y16647D01*
X-5250Y16602D01*
X-5208Y16533D01*
X-5212Y16527D01*
X-5222Y16480D01*
Y15570D01*
X-5212Y15523D01*
X-5186Y15484D01*
X1068Y9230D01*
Y7255D01*
X1060Y7250D01*
X1020Y7190D01*
X1006Y7120D01*
X1020Y7050D01*
X1060Y6990D01*
X1120Y6950D01*
X1190Y6936D01*
X1260Y6950D01*
X1320Y6990D01*
X1360Y7050D01*
X1374Y7120D01*
X1360Y7190D01*
X1320Y7250D01*
X1312Y7255D01*
Y9280D01*
X1302Y9327D01*
X1276Y9366D01*
X-4978Y15620D01*
Y16430D01*
X-3564Y17844D01*
X-3538Y17883D01*
X-3528Y17930D01*
Y18285D01*
X-3520Y18290D01*
X-3480Y18350D01*
X-3466Y18420D01*
X-3480Y18490D01*
X-3520Y18550D01*
X-3520Y18550D01*
X-3550Y18705D01*
X-3546Y18722D01*
X-3320Y18948D01*
X-984D01*
X-949Y18907D01*
X-896Y18808D01*
X-904Y18767D01*
X-890Y18697D01*
X-850Y18637D01*
X-791Y18598D01*
X-720Y18584D01*
X-650Y18598D01*
X-591Y18637D01*
X-585Y18646D01*
X-66D01*
X-20Y18655D01*
X-15Y18658D01*
X87Y18641D01*
X100Y18637D01*
X147Y18611D01*
X149Y18609D01*
Y18233D01*
X-1242Y16842D01*
X-1278Y16818D01*
X-1311Y16769D01*
X-1323Y16710D01*
Y14975D01*
X-1340Y14950D01*
X-1354Y14880D01*
X-1340Y14810D01*
X-1300Y14750D01*
X-1240Y14710D01*
X-1170Y14696D01*
X-1100Y14710D01*
X-1040Y14750D01*
X-1000Y14810D01*
X-986Y14880D01*
X-1000Y14950D01*
X-1017Y14975D01*
Y16635D01*
X410Y18062D01*
X443Y18111D01*
X455Y18170D01*
Y18609D01*
X471Y18633D01*
X485Y18704D01*
X471Y18774D01*
X432Y18833D01*
X395Y18858D01*
X363Y18961D01*
X357Y19019D01*
X2417Y21079D01*
X2569Y21032D01*
X2574Y21005D01*
X1584Y20015D01*
X1558Y19976D01*
X1548Y19929D01*
Y18740D01*
X-506Y16686D01*
X-532Y16647D01*
X-542Y16600D01*
Y14935D01*
X-604Y14909D01*
X-681Y14851D01*
X-739Y14774D01*
X-776Y14685D01*
X-788Y14590D01*
X-776Y14495D01*
X-739Y14406D01*
X-681Y14329D01*
X-604Y14271D01*
X-515Y14234D01*
X-420Y14222D01*
X-325Y14234D01*
X-236Y14271D01*
X-159Y14329D01*
X-101Y14406D01*
X-64Y14495D01*
X-52Y14590D01*
X-64Y14685D01*
X-101Y14774D01*
X-159Y14851D01*
X-236Y14909D01*
X-298Y14935D01*
Y15112D01*
X-158Y15170D01*
X254Y14757D01*
X224Y14685D01*
X212Y14590D01*
X224Y14495D01*
X261Y14406D01*
X319Y14329D01*
X396Y14271D01*
X485Y14234D01*
X580Y14222D01*
X675Y14234D01*
X764Y14271D01*
X841Y14329D01*
X899Y14406D01*
X936Y14495D01*
X948Y14590D01*
X936Y14685D01*
X899Y14774D01*
X841Y14851D01*
X764Y14909D01*
X675Y14946D01*
X580Y14958D01*
X485Y14946D01*
X413Y14916D01*
X-8Y15336D01*
Y16524D01*
X2009Y18541D01*
X2009Y18541D01*
X2034Y18577D01*
X2042Y18620D01*
X2042Y18620D01*
Y19824D01*
X2921Y20703D01*
X3063Y20671D01*
X3077Y20660D01*
X3110Y20610D01*
X3170Y20570D01*
X3240Y20556D01*
X3310Y20570D01*
X3367Y20608D01*
X3400D01*
X3450Y20618D01*
X3493Y20647D01*
X4053Y21207D01*
X4082Y21250D01*
X4092Y21300D01*
Y23983D01*
X4130Y24040D01*
X4144Y24110D01*
X4130Y24180D01*
X4090Y24240D01*
X4030Y24280D01*
X3960Y24294D01*
X3890Y24280D01*
X3830Y24240D01*
X3790Y24180D01*
X3776Y24110D01*
X3790Y24040D01*
X3828Y23983D01*
Y21354D01*
X3354Y20880D01*
X3310Y20910D01*
X3282Y20915D01*
X3226Y20943D01*
X3152Y21049D01*
Y21968D01*
X3170Y21980D01*
X3210Y22040D01*
X3224Y22110D01*
X3210Y22180D01*
X3170Y22240D01*
X3110Y22280D01*
X3040Y22294D01*
X2964Y22360D01*
X2950Y22430D01*
X2910Y22490D01*
X2850Y22530D01*
X2780Y22544D01*
X2762Y22540D01*
X2642Y22613D01*
X2622Y22639D01*
Y23510D01*
X3618Y24506D01*
X5042D01*
X6348Y23200D01*
X6346Y23190D01*
X6360Y23120D01*
X6400Y23060D01*
X6460Y23020D01*
X6530Y23006D01*
X6600Y23020D01*
X6660Y23060D01*
X6700Y23120D01*
X6714Y23190D01*
X6700Y23260D01*
X6660Y23320D01*
X6600Y23360D01*
X6530Y23374D01*
X6520Y23372D01*
X5203Y24688D01*
X5229Y24788D01*
X5257Y24828D01*
X7430D01*
X7477Y24838D01*
X7516Y24864D01*
X8300Y25648D01*
X9752D01*
X12405Y22995D01*
X12378Y22936D01*
X12362Y22836D01*
X12371Y22735D01*
X12407Y22640D01*
X12466Y22558D01*
X12544Y22493D01*
X12575Y22479D01*
X12570Y22327D01*
X12550Y22320D01*
X12480Y22270D01*
X12426Y22204D01*
X12390Y22126D01*
X12376Y22041D01*
X12384Y21956D01*
X12414Y21875D01*
X12464Y21806D01*
X12530Y21751D01*
X12608Y21715D01*
X12693Y21701D01*
X12778Y21709D01*
X12859Y21740D01*
X12929Y21789D01*
X12983Y21856D01*
X13019Y21934D01*
X13033Y22018D01*
X13025Y22104D01*
X12995Y22184D01*
X12945Y22254D01*
X12879Y22309D01*
X12867Y22314D01*
X12882Y22461D01*
X12932Y22480D01*
X13015Y22539D01*
X13079Y22617D01*
X13121Y22709D01*
X13138Y22809D01*
X13128Y22910D01*
X13093Y23005D01*
X13034Y23087D01*
X12955Y23152D01*
X12863Y23194D01*
X12763Y23211D01*
X12662Y23201D01*
X12576Y23168D01*
X9888Y25856D01*
X9849Y25882D01*
X9802Y25892D01*
X8250D01*
X8203Y25882D01*
X8164Y25856D01*
X7380Y25072D01*
X7171D01*
X7113Y25212D01*
X7320Y25418D01*
X7346Y25457D01*
X7355Y25504D01*
Y25820D01*
X7428Y25850D01*
X7508Y25912D01*
X7570Y25992D01*
X7609Y26086D01*
X7622Y26186D01*
X7609Y26287D01*
X7570Y26381D01*
X7508Y26461D01*
X7428Y26523D01*
X7334Y26562D01*
X7280Y26569D01*
X7226Y26686D01*
X7224Y26711D01*
X8277Y27764D01*
X8321Y27793D01*
X8352Y27839D01*
X8363Y27894D01*
Y28250D01*
X8389Y28290D01*
X8403Y28360D01*
X8389Y28430D01*
X8350Y28490D01*
X8290Y28530D01*
X8220Y28544D01*
X8150Y28530D01*
X8090Y28490D01*
X8050Y28430D01*
X8036Y28360D01*
X8050Y28290D01*
X8077Y28250D01*
Y27939D01*
X7053Y26915D01*
X6905Y26965D01*
X6901Y26994D01*
X6863Y27088D01*
X6801Y27168D01*
X6721Y27230D01*
X6627Y27269D01*
X6526Y27282D01*
X6426Y27269D01*
X6332Y27230D01*
X6252Y27168D01*
X6190Y27088D01*
X6151Y26994D01*
X6138Y26894D01*
X6151Y26793D01*
X6172Y26744D01*
X6066Y26641D01*
X6031Y26655D01*
X5946Y26667D01*
X5861Y26655D01*
X5781Y26622D01*
X5713Y26570D01*
X5661Y26502D01*
X5628Y26423D01*
X5617Y26338D01*
X5628Y26253D01*
X5661Y26173D01*
X5713Y26105D01*
X5781Y26053D01*
X5861Y26020D01*
X5946Y26009D01*
X6031Y26020D01*
X6110Y26053D01*
X6178Y26105D01*
X6230Y26173D01*
X6263Y26253D01*
X6274Y26338D01*
X6268Y26389D01*
X6341Y26469D01*
X6385Y26495D01*
X6473Y26472D01*
X6515Y26393D01*
X6518Y26369D01*
X6510Y26327D01*
Y25924D01*
X6488Y25915D01*
X6420Y25863D01*
X6368Y25795D01*
X6335Y25716D01*
X6324Y25631D01*
X6335Y25546D01*
X6368Y25466D01*
X6395Y25432D01*
X6357Y25321D01*
X6333Y25292D01*
X772D01*
X724Y25432D01*
X761Y25459D01*
X819Y25536D01*
X856Y25625D01*
X868Y25720D01*
X856Y25815D01*
X819Y25904D01*
X761Y25981D01*
X684Y26039D01*
X595Y26076D01*
X500Y26088D01*
X405Y26076D01*
X316Y26039D01*
X239Y25981D01*
X181Y25904D01*
X144Y25815D01*
X132Y25720D01*
X144Y25625D01*
X181Y25536D01*
X239Y25459D01*
X276Y25432D01*
X228Y25292D01*
X-228D01*
X-276Y25432D01*
X-239Y25459D01*
X-181Y25536D01*
X-144Y25625D01*
X-132Y25720D01*
X-144Y25815D01*
X-181Y25904D01*
X-239Y25981D01*
X-316Y26039D01*
X-405Y26076D01*
X-500Y26088D01*
X-595Y26076D01*
X-684Y26039D01*
X-761Y25981D01*
X-819Y25904D01*
X-856Y25815D01*
X-868Y25720D01*
X-856Y25625D01*
X-819Y25536D01*
X-761Y25459D01*
X-724Y25432D01*
X-733Y25349D01*
X-760Y25287D01*
X-787Y25282D01*
X-826Y25256D01*
X-1228Y24853D01*
X-1368Y24911D01*
Y25379D01*
X-1316Y25401D01*
X-1239Y25459D01*
X-1181Y25536D01*
X-1144Y25625D01*
X-1132Y25720D01*
X-1144Y25815D01*
X-1181Y25904D01*
X-1239Y25981D01*
X-1316Y26039D01*
X-1405Y26076D01*
X-1500Y26088D01*
X-1595Y26076D01*
X-1684Y26039D01*
X-1761Y25981D01*
X-1819Y25904D01*
X-1856Y25815D01*
X-1868Y25720D01*
X-1856Y25625D01*
X-1819Y25536D01*
X-1761Y25459D01*
X-1684Y25401D01*
X-1632Y25379D01*
Y24855D01*
X-2513Y23973D01*
X-2542Y23930D01*
X-2552Y23880D01*
Y23530D01*
X-2542Y23480D01*
X-2513Y23437D01*
X-1813Y22737D01*
X-1770Y22708D01*
X-1720Y22698D01*
X-1460D01*
X-1410Y22708D01*
X-1367Y22737D01*
X-806Y23298D01*
X1051D01*
X1059Y23289D01*
X1113Y23158D01*
X1100Y23140D01*
X1086Y23070D01*
X1100Y23000D01*
X1140Y22940D01*
X1148Y22935D01*
Y21860D01*
X502Y21214D01*
X476Y21174D01*
X466Y21128D01*
Y21052D01*
X326Y21010D01*
X320Y21020D01*
X260Y21060D01*
X190Y21074D01*
X120Y21060D01*
X60Y21020D01*
X20Y20960D01*
X12Y20918D01*
X-473Y20433D01*
X-499Y20395D01*
X-527Y20390D01*
X-615Y20390D01*
X-643Y20395D01*
X-680Y20450D01*
X-740Y20490D01*
X-810Y20504D01*
X-880Y20490D01*
X-940Y20450D01*
X-945Y20442D01*
X-1710D01*
X-3608Y22340D01*
Y22710D01*
X-3618Y22757D01*
X-3644Y22796D01*
X-4320Y23472D01*
X-4316Y23532D01*
X-4173Y23586D01*
X-1968Y21382D01*
X-1919Y21349D01*
X-1860Y21337D01*
X85D01*
X110Y21320D01*
X180Y21306D01*
X250Y21320D01*
X310Y21360D01*
X350Y21420D01*
X364Y21490D01*
X350Y21560D01*
X310Y21620D01*
X250Y21660D01*
X180Y21674D01*
X110Y21660D01*
X85Y21643D01*
X-1797D01*
X-4212Y24058D01*
X-4261Y24091D01*
X-4320Y24103D01*
X-4630D01*
X-4689Y24091D01*
X-4738Y24058D01*
X-5089Y23707D01*
X-5120Y23701D01*
X-5180Y23661D01*
X-5219Y23601D01*
X-5228Y23559D01*
X-5308Y23516D01*
X-5371Y23503D01*
X-5498Y23631D01*
Y25350D01*
X-5511Y25416D01*
X-5549Y25471D01*
X-5951Y25874D01*
X-5950Y25888D01*
X-5895Y26016D01*
X-5861Y26020D01*
X-5781Y26053D01*
X-5713Y26105D01*
X-5661Y26173D01*
X-5628Y26253D01*
X-5617Y26338D01*
X-5628Y26423D01*
X-5661Y26502D01*
X-5713Y26570D01*
X-5781Y26622D01*
X-5861Y26655D01*
X-5946Y26667D01*
X-6031Y26655D01*
X-6045Y26649D01*
X-6152Y26756D01*
X-6141Y26783D01*
X-6128Y26884D01*
X-6141Y26984D01*
X-6180Y27078D01*
X-6242Y27158D01*
X-6322Y27220D01*
X-6416Y27259D01*
X-6516Y27272D01*
X-6617Y27259D01*
X-6711Y27220D01*
X-6791Y27158D01*
X-6853Y27078D01*
X-6891Y26984D01*
X-6905Y26884D01*
X-6891Y26783D01*
X-6853Y26689D01*
X-6791Y26609D01*
X-6711Y26547D01*
X-6688Y26538D01*
Y26196D01*
X-6677Y26142D01*
X-6715Y26085D01*
X-6750Y26046D01*
X-6837Y26160D01*
X-6835Y26176D01*
X-6849Y26277D01*
X-6887Y26371D01*
X-6949Y26451D01*
X-7029Y26513D01*
X-7050Y26521D01*
Y27265D01*
X-5050Y29265D01*
X-4053Y28267D01*
X-3996Y28230D01*
X-3930Y28217D01*
X-2951D01*
X-2900Y28206D01*
X-2854Y28216D01*
X-2786Y28162D01*
X-2742Y28103D01*
X-2742Y28100D01*
X-3066Y27776D01*
X-3092Y27737D01*
X-3102Y27690D01*
Y24302D01*
X-3130Y24260D01*
X-3144Y24190D01*
X-3130Y24120D01*
X-3090Y24060D01*
X-3030Y24020D01*
X-2960Y24006D01*
X-2890Y24020D01*
X-2830Y24060D01*
X-2790Y24120D01*
X-2776Y24190D01*
X-2790Y24260D01*
X-2830Y24320D01*
X-2858Y24339D01*
Y27640D01*
X-2763Y27735D01*
X-2634Y27670D01*
X-2620Y27600D01*
X-2580Y27540D01*
X-2520Y27500D01*
X-2491Y27495D01*
X-1843Y26847D01*
X-1856Y26815D01*
X-1868Y26720D01*
X-1856Y26625D01*
X-1819Y26536D01*
X-1761Y26459D01*
X-1684Y26401D01*
X-1595Y26364D01*
X-1500Y26352D01*
X-1405Y26364D01*
X-1316Y26401D01*
X-1239Y26459D01*
X-1181Y26536D01*
X-1144Y26625D01*
X-1132Y26720D01*
X-1144Y26815D01*
X-1181Y26904D01*
X-1239Y26981D01*
X-1316Y27039D01*
X-1405Y27076D01*
X-1500Y27088D01*
X-1595Y27076D01*
X-1627Y27063D01*
X-2275Y27711D01*
X-2280Y27740D01*
X-2320Y27800D01*
X-2380Y27840D01*
X-2450Y27854D01*
X-2515Y27983D01*
X-2050Y28448D01*
X910D01*
X957Y28458D01*
X996Y28484D01*
X3110Y30598D01*
X3160Y30592D01*
X3260Y30605D01*
X3354Y30644D01*
X3435Y30705D01*
X3496Y30786D01*
X3535Y30880D01*
X3548Y30980D01*
X3535Y31081D01*
X3496Y31174D01*
X3435Y31255D01*
X3354Y31316D01*
X3260Y31355D01*
X3160Y31368D01*
X3116Y31362D01*
X3050Y31495D01*
X3148Y31593D01*
X3160Y31592D01*
X3260Y31605D01*
X3354Y31644D01*
X3435Y31705D01*
X3496Y31786D01*
X3535Y31880D01*
X3548Y31980D01*
X3535Y32081D01*
X3496Y32174D01*
X3435Y32255D01*
X3354Y32316D01*
X3260Y32355D01*
X3160Y32368D01*
X3059Y32355D01*
X2966Y32316D01*
X2885Y32255D01*
X2824Y32174D01*
X2808Y32137D01*
X2657D01*
X2647Y32160D01*
X2595Y32229D01*
X2527Y32281D01*
X2447Y32314D01*
X2362Y32325D01*
X2277Y32314D01*
X2198Y32281D01*
X2130Y32229D01*
X2078Y32160D01*
X2045Y32081D01*
X2033Y31996D01*
X2045Y31911D01*
X2078Y31832D01*
X2084Y31823D01*
X2015Y31683D01*
X-2015D01*
X-2084Y31823D01*
X-2078Y31832D01*
X-2045Y31911D01*
X-2033Y31996D01*
X-2045Y32081D01*
X-2078Y32160D01*
X-2130Y32229D01*
X-2198Y32281D01*
X-2277Y32314D01*
X-2362Y32325D01*
X-2447Y32314D01*
X-2527Y32281D01*
X-2595Y32229D01*
X-2647Y32160D01*
X-2661Y32127D01*
X-2698Y32120D01*
X-2809Y32135D01*
X-2834Y32194D01*
X-2895Y32275D01*
X-2976Y32336D01*
X-3070Y32375D01*
X-3170Y32388D01*
D02*
G37*
G36*
X-500Y27088D02*
X-595Y27076D01*
X-684Y27039D01*
X-761Y26981D01*
X-819Y26904D01*
X-856Y26815D01*
X-868Y26720D01*
X-856Y26625D01*
X-819Y26536D01*
X-761Y26459D01*
X-684Y26401D01*
X-595Y26364D01*
X-500Y26352D01*
X-405Y26364D01*
X-316Y26401D01*
X-239Y26459D01*
X-181Y26536D01*
X-144Y26625D01*
X-132Y26720D01*
X-144Y26815D01*
X-181Y26904D01*
X-239Y26981D01*
X-316Y27039D01*
X-405Y27076D01*
X-500Y27088D01*
D02*
G37*
G36*
X500D02*
X405Y27076D01*
X316Y27039D01*
X239Y26981D01*
X181Y26904D01*
X144Y26815D01*
X132Y26720D01*
X144Y26625D01*
X181Y26536D01*
X239Y26459D01*
X316Y26401D01*
X405Y26364D01*
X500Y26352D01*
X595Y26364D01*
X667Y26394D01*
X935Y26127D01*
X935Y26127D01*
X971Y26102D01*
X1014Y26094D01*
X3265D01*
X3276Y26080D01*
X3290Y26010D01*
X3330Y25950D01*
X3390Y25910D01*
X3460Y25896D01*
X3530Y25910D01*
X3590Y25950D01*
X3630Y26010D01*
X3644Y26080D01*
X3630Y26150D01*
X3590Y26210D01*
X3530Y26250D01*
X3460Y26264D01*
X3439Y26259D01*
X3413Y26285D01*
X3377Y26310D01*
X3334Y26318D01*
X3334Y26318D01*
X2021D01*
X1984Y26377D01*
X1974Y26469D01*
X2004Y26498D01*
X3803D01*
X3860Y26460D01*
X3930Y26446D01*
X4000Y26460D01*
X4060Y26500D01*
X4100Y26560D01*
X4114Y26630D01*
X4100Y26700D01*
X4060Y26760D01*
X4000Y26800D01*
X3930Y26814D01*
X3860Y26800D01*
X3803Y26762D01*
X1925D01*
X1865Y26821D01*
Y27085D01*
X1135D01*
Y26442D01*
X995Y26384D01*
X826Y26553D01*
X856Y26625D01*
X868Y26720D01*
X856Y26815D01*
X819Y26904D01*
X761Y26981D01*
X684Y27039D01*
X595Y27076D01*
X500Y27088D01*
D02*
G37*
G36*
X-3720Y27148D02*
X-3815Y27136D01*
X-3904Y27099D01*
X-3981Y27041D01*
X-4039Y26964D01*
X-4076Y26875D01*
X-4088Y26780D01*
X-4076Y26685D01*
X-4039Y26596D01*
X-3981Y26519D01*
X-3904Y26461D01*
X-3815Y26424D01*
X-3720Y26412D01*
X-3625Y26424D01*
X-3536Y26461D01*
X-3459Y26519D01*
X-3401Y26596D01*
X-3364Y26685D01*
X-3352Y26780D01*
X-3364Y26875D01*
X-3401Y26964D01*
X-3459Y27041D01*
X-3536Y27099D01*
X-3625Y27136D01*
X-3720Y27148D01*
D02*
G37*
G36*
X11764Y23245D02*
X11663Y23236D01*
X11568Y23200D01*
X11485Y23141D01*
X11421Y23063D01*
X11379Y22971D01*
X11362Y22871D01*
X11372Y22770D01*
X11407Y22675D01*
X11466Y22593D01*
X11545Y22528D01*
X11576Y22514D01*
X11571Y22362D01*
X11551Y22355D01*
X11481Y22305D01*
X11426Y22239D01*
X11391Y22161D01*
X11377Y22076D01*
X11385Y21991D01*
X11415Y21910D01*
X11465Y21841D01*
X11531Y21786D01*
X11609Y21750D01*
X11694Y21736D01*
X11779Y21744D01*
X11859Y21774D01*
X11929Y21824D01*
X11984Y21890D01*
X12019Y21969D01*
X12034Y22053D01*
X12025Y22139D01*
X11995Y22219D01*
X11945Y22289D01*
X11879Y22343D01*
X11868Y22349D01*
X11882Y22496D01*
X11933Y22515D01*
X12015Y22573D01*
X12080Y22652D01*
X12122Y22744D01*
X12138Y22844D01*
X12129Y22945D01*
X12093Y23040D01*
X12034Y23122D01*
X11956Y23187D01*
X11864Y23229D01*
X11764Y23245D01*
D02*
G37*
G36*
X9843Y20349D02*
X9713Y20336D01*
X9589Y20298D01*
X9474Y20237D01*
X9373Y20154D01*
X9291Y20054D01*
X9229Y19939D01*
X9192Y19815D01*
X9179Y19685D01*
X9192Y19556D01*
X9229Y19431D01*
X9291Y19316D01*
X9373Y19216D01*
X9474Y19133D01*
X9589Y19072D01*
X9713Y19034D01*
X9843Y19021D01*
X9972Y19034D01*
X10097Y19072D01*
X10211Y19133D01*
X10312Y19216D01*
X10394Y19316D01*
X10456Y19431D01*
X10494Y19556D01*
X10506Y19685D01*
X10494Y19815D01*
X10456Y19939D01*
X10394Y20054D01*
X10312Y20154D01*
X10211Y20237D01*
X10097Y20298D01*
X9972Y20336D01*
X9843Y20349D01*
D02*
G37*
G36*
X-9843D02*
X-9972Y20336D01*
X-10097Y20298D01*
X-10211Y20237D01*
X-10312Y20154D01*
X-10394Y20054D01*
X-10456Y19939D01*
X-10494Y19815D01*
X-10506Y19685D01*
X-10494Y19556D01*
X-10456Y19431D01*
X-10394Y19316D01*
X-10312Y19216D01*
X-10211Y19133D01*
X-10097Y19072D01*
X-9972Y19034D01*
X-9843Y19021D01*
X-9713Y19034D01*
X-9589Y19072D01*
X-9474Y19133D01*
X-9373Y19216D01*
X-9291Y19316D01*
X-9229Y19431D01*
X-9192Y19556D01*
X-9179Y19685D01*
X-9192Y19815D01*
X-9229Y19939D01*
X-9291Y20054D01*
X-9373Y20154D01*
X-9474Y20237D01*
X-9589Y20298D01*
X-9713Y20336D01*
X-9843Y20349D01*
D02*
G37*
G36*
X2580Y17882D02*
X2580Y17882D01*
X1650D01*
X1650Y17882D01*
X1607Y17874D01*
X1571Y17849D01*
X1571Y17849D01*
X904Y17182D01*
X879Y17146D01*
X871Y17103D01*
X871Y17103D01*
Y16972D01*
X853Y16960D01*
X813Y16900D01*
X799Y16830D01*
X804Y16807D01*
X792Y16738D01*
X714Y16657D01*
X710Y16656D01*
X650Y16616D01*
X611Y16557D01*
X597Y16486D01*
X611Y16416D01*
X650Y16357D01*
X710Y16317D01*
X780Y16303D01*
X850Y16317D01*
X910Y16357D01*
X922Y16374D01*
X1126D01*
X1126Y16374D01*
X1169Y16383D01*
X1206Y16407D01*
X1419Y16621D01*
X1419Y16621D01*
X1444Y16657D01*
X1452Y16700D01*
X1452Y16700D01*
Y16963D01*
X1491Y16986D01*
X1510Y16984D01*
X1638Y16911D01*
X1640Y16900D01*
X1680Y16840D01*
X1698Y16828D01*
Y15550D01*
X1698Y15550D01*
X1706Y15507D01*
X1731Y15471D01*
X2378Y14824D01*
Y10760D01*
X2378Y10760D01*
X2386Y10717D01*
X2411Y10681D01*
X2950Y10142D01*
X2892Y10002D01*
X2410D01*
X-3389Y15801D01*
X-3350Y15860D01*
X-3336Y15930D01*
X-3350Y16000D01*
X-3390Y16060D01*
X-3450Y16100D01*
X-3520Y16114D01*
X-3585Y16101D01*
X-3703Y16180D01*
X-3713Y16305D01*
X-3560Y16458D01*
X-3550Y16456D01*
X-3480Y16470D01*
X-3420Y16510D01*
X-3380Y16570D01*
X-3366Y16640D01*
X-3380Y16710D01*
X-3420Y16770D01*
X-3480Y16810D01*
X-3550Y16824D01*
X-3620Y16810D01*
X-3680Y16770D01*
X-3720Y16710D01*
X-3734Y16640D01*
X-3732Y16630D01*
X-3935Y16427D01*
X-3961Y16387D01*
X-3971Y16341D01*
Y15749D01*
X-3961Y15703D01*
X-3935Y15663D01*
X3328Y8400D01*
X3326Y8390D01*
X3340Y8320D01*
X3380Y8260D01*
X3440Y8220D01*
X3510Y8206D01*
X3580Y8220D01*
X3640Y8260D01*
X3680Y8320D01*
X3694Y8390D01*
X3680Y8460D01*
X3640Y8520D01*
X3580Y8560D01*
X3510Y8574D01*
X3500Y8572D01*
X2453Y9618D01*
X2511Y9758D01*
X2910D01*
X4198Y8470D01*
X4196Y8460D01*
X4210Y8390D01*
X4250Y8330D01*
X4310Y8290D01*
X4380Y8276D01*
X4428Y8286D01*
X4504Y8249D01*
X4568Y8201D01*
Y7026D01*
X2811Y5269D01*
X2786Y5233D01*
X2778Y5190D01*
X2778Y5190D01*
Y4710D01*
X2778Y4710D01*
X2786Y4667D01*
X2811Y4631D01*
X2981Y4461D01*
X2976Y4440D01*
X2990Y4370D01*
X3030Y4310D01*
X3090Y4270D01*
X3160Y4256D01*
X3230Y4270D01*
X3290Y4310D01*
X3330Y4370D01*
X3344Y4440D01*
X3330Y4510D01*
X3290Y4570D01*
X3266Y4586D01*
X3263Y4593D01*
X3259Y4715D01*
X3266Y4741D01*
X3280Y4750D01*
X3320Y4810D01*
X3334Y4880D01*
X3320Y4950D01*
X3280Y5010D01*
X3329Y5140D01*
X5049Y6861D01*
X5049Y6861D01*
X5074Y6897D01*
X5082Y6940D01*
X5082Y6940D01*
Y8620D01*
X5082Y8620D01*
X5074Y8663D01*
X5049Y8699D01*
X5049Y8699D01*
X2822Y10926D01*
Y15050D01*
X2822Y15050D01*
X2814Y15093D01*
X2789Y15129D01*
X2789Y15129D01*
X2304Y15614D01*
X2314Y15660D01*
X2300Y15730D01*
X2260Y15790D01*
X2200Y15830D01*
X2130Y15844D01*
X2060Y15830D01*
X1922Y15906D01*
Y16828D01*
X1940Y16840D01*
X1980Y16900D01*
X1994Y16970D01*
X1980Y17040D01*
X1940Y17100D01*
X1880Y17140D01*
X1810Y17154D01*
X1773Y17146D01*
X1691Y17263D01*
X1806Y17378D01*
X2554D01*
X5289Y14642D01*
Y12569D01*
X5289Y12569D01*
X5298Y12526D01*
X5322Y12489D01*
X8448Y9364D01*
Y6061D01*
X8441Y6059D01*
X8300Y6060D01*
X8273Y6125D01*
X8230Y6180D01*
X8175Y6223D01*
X8110Y6250D01*
X8040Y6259D01*
X7970Y6250D01*
X7905Y6223D01*
X7850Y6180D01*
X7837Y6163D01*
X7200D01*
X7134Y6150D01*
X7077Y6113D01*
X4228Y3263D01*
X-269D01*
X-303Y3286D01*
X-384Y3302D01*
X-465Y3286D01*
X-533Y3240D01*
X-579Y3171D01*
X-595Y3090D01*
X-579Y3009D01*
X-533Y2940D01*
X-465Y2894D01*
X-384Y2878D01*
X-303Y2894D01*
X-269Y2917D01*
X4300D01*
X4366Y2930D01*
X4423Y2967D01*
X7272Y5817D01*
X7797D01*
X7848Y5700D01*
X7850Y5681D01*
X7828Y5652D01*
X7807Y5625D01*
X7780Y5560D01*
X7771Y5490D01*
X7780Y5420D01*
X7807Y5355D01*
X7828Y5328D01*
X7850Y5299D01*
Y5181D01*
X7828Y5152D01*
X7807Y5125D01*
X7780Y5060D01*
X7771Y4990D01*
X7780Y4920D01*
X7807Y4855D01*
X7850Y4800D01*
X7905Y4757D01*
X7970Y4730D01*
X8040Y4721D01*
X8110Y4730D01*
X8175Y4757D01*
X8230Y4800D01*
X8273Y4855D01*
X8300Y4920D01*
X8309Y4990D01*
X8300Y5060D01*
X8291Y5082D01*
X8809Y5601D01*
X8834Y5637D01*
X8842Y5680D01*
X8842Y5680D01*
Y9620D01*
X8842Y9620D01*
X8834Y9663D01*
X8809Y9699D01*
X8809Y9699D01*
X5723Y12786D01*
Y14739D01*
X5723Y14739D01*
X5714Y14782D01*
X5690Y14819D01*
X5690Y14819D01*
X2659Y17849D01*
X2623Y17874D01*
X2580Y17882D01*
D02*
G37*
G36*
X6652Y22325D02*
X6494D01*
X6394Y22312D01*
X6300Y22273D01*
X6219Y22211D01*
X6158Y22131D01*
X6119Y22037D01*
X6106Y21936D01*
X6119Y21836D01*
X6158Y21742D01*
X6219Y21662D01*
X6300Y21600D01*
X6394Y21561D01*
X6494Y21548D01*
X6652D01*
X6752Y21561D01*
X6846Y21600D01*
X6926Y21662D01*
X6988Y21742D01*
X7027Y21836D01*
X7040Y21936D01*
X7027Y22037D01*
X6988Y22131D01*
X6926Y22211D01*
X6846Y22273D01*
X6752Y22312D01*
X6652Y22325D01*
D02*
G37*
G36*
X5783Y23222D02*
X5717Y23209D01*
X5662Y23172D01*
X5624Y23116D01*
X5615Y23069D01*
X4358Y21812D01*
X4329Y21769D01*
X4319Y21719D01*
Y20770D01*
X3131Y19581D01*
X3083Y19572D01*
X3027Y19535D01*
X2990Y19479D01*
X2977Y19413D01*
X2990Y19347D01*
X3027Y19292D01*
X3083Y19255D01*
X3149Y19241D01*
X3214Y19255D01*
X3270Y19292D01*
X3307Y19347D01*
X3317Y19395D01*
X4544Y20622D01*
X4573Y20665D01*
X4583Y20715D01*
Y21664D01*
X5801Y22882D01*
X5849Y22892D01*
X5904Y22929D01*
X5942Y22985D01*
X5955Y23051D01*
X5942Y23116D01*
X5904Y23172D01*
X5849Y23209D01*
X5783Y23222D01*
D02*
G37*
%LPD*%
G36*
X2070Y31303D02*
X2105Y31197D01*
X2078Y31160D01*
X2045Y31081D01*
X2033Y30996D01*
X2045Y30911D01*
X2078Y30832D01*
X2130Y30764D01*
X2198Y30711D01*
X2277Y30679D01*
X2362Y30667D01*
X2447Y30679D01*
X2527Y30711D01*
X2595Y30764D01*
X2647Y30832D01*
X2654Y30848D01*
X2668Y30852D01*
X2802Y30839D01*
X2824Y30786D01*
X2880Y30712D01*
X860Y28692D01*
X-2100D01*
X-2147Y28682D01*
X-2186Y28656D01*
X-2610Y28232D01*
X-2613Y28232D01*
X-2672Y28276D01*
X-2726Y28344D01*
X-2716Y28390D01*
X-2730Y28460D01*
X-2770Y28520D01*
X-2830Y28560D01*
X-2900Y28574D01*
X-2951Y28563D01*
X-3858D01*
X-4805Y29510D01*
X-3607Y30708D01*
X-3445Y30725D01*
X-3364Y30664D01*
X-3271Y30625D01*
X-3170Y30612D01*
X-3070Y30625D01*
X-2976Y30664D01*
X-2895Y30725D01*
X-2834Y30806D01*
X-2809Y30865D01*
X-2687Y30875D01*
X-2663Y30870D01*
X-2647Y30832D01*
X-2595Y30764D01*
X-2527Y30711D01*
X-2447Y30679D01*
X-2362Y30667D01*
X-2277Y30679D01*
X-2198Y30711D01*
X-2130Y30764D01*
X-2078Y30832D01*
X-2045Y30911D01*
X-2033Y30996D01*
X-2045Y31081D01*
X-2078Y31160D01*
X-2105Y31197D01*
X-2070Y31303D01*
X-2043Y31337D01*
X2043D01*
X2070Y31303D01*
D02*
G37*
G36*
X-4711Y23455D02*
X-4710Y23450D01*
X-4670Y23390D01*
X-4610Y23350D01*
X-4540Y23336D01*
X-4530Y23338D01*
X-3852Y22660D01*
Y22290D01*
X-3842Y22243D01*
X-3816Y22204D01*
X-1846Y20234D01*
X-1807Y20208D01*
X-1760Y20198D01*
X-945D01*
X-940Y20190D01*
X-880Y20150D01*
X-810Y20136D01*
X-740Y20150D01*
X-694Y20181D01*
X-621Y20158D01*
X-593Y20143D01*
X-586Y20041D01*
X-695Y19932D01*
X-3730D01*
X-3780Y19922D01*
X-3823Y19893D01*
X-5374Y18342D01*
X-7790D01*
X-7840Y18332D01*
X-7883Y18303D01*
X-8108Y18078D01*
X-8165Y18105D01*
X-8225Y18159D01*
X-8223Y18168D01*
X-8217Y18200D01*
X-8217Y18201D01*
X-8217Y18203D01*
X-8259Y21165D01*
X-8266Y21197D01*
X-8272Y21228D01*
X-8273Y21230D01*
X-8273Y21231D01*
X-8292Y21258D01*
X-8310Y21285D01*
X-8727Y21703D01*
X-8784Y21740D01*
X-8850Y21753D01*
X-10966D01*
X-11033Y21893D01*
X-11021Y21910D01*
X-10991Y21991D01*
X-10983Y22076D01*
X-10997Y22161D01*
X-11033Y22239D01*
X-11087Y22305D01*
X-11148Y22348D01*
X-11154Y22393D01*
X-11145Y22500D01*
X-11105Y22518D01*
X-11026Y22583D01*
X-10967Y22665D01*
X-10964Y22676D01*
X-5519D01*
X-4043Y21201D01*
X-4010Y21150D01*
X-3950Y21110D01*
X-3880Y21096D01*
X-3810Y21110D01*
X-3750Y21150D01*
X-3710Y21210D01*
X-3696Y21280D01*
X-3710Y21350D01*
X-3750Y21410D01*
X-3801Y21443D01*
X-4865Y22508D01*
X-4865Y22510D01*
X-4797Y22638D01*
X-4790Y22636D01*
X-4720Y22650D01*
X-4660Y22690D01*
X-4620Y22750D01*
X-4606Y22820D01*
X-4620Y22890D01*
X-4660Y22950D01*
X-4720Y22990D01*
X-4790Y23004D01*
X-4849Y22992D01*
X-4859D01*
X-5078Y23210D01*
X-5065Y23273D01*
X-5022Y23353D01*
X-4980Y23362D01*
X-4920Y23401D01*
X-4880Y23461D01*
X-4738Y23464D01*
X-4711Y23455D01*
D02*
G37*
G36*
X3327Y24908D02*
X2340Y23922D01*
X-920D01*
X-967Y23912D01*
X-1006Y23886D01*
X-1540Y23352D01*
X-1550Y23354D01*
X-1620Y23340D01*
X-1680Y23300D01*
X-1720Y23240D01*
X-1724Y23218D01*
X-1853Y23164D01*
X-1867Y23163D01*
X-2105Y23402D01*
X-2102Y23434D01*
X-2050Y23544D01*
X-2020Y23550D01*
X-1960Y23590D01*
X-1920Y23650D01*
X-1906Y23720D01*
X-1910Y23740D01*
X-1908Y23743D01*
X-1898Y23790D01*
Y23840D01*
X-690Y25048D01*
X3269D01*
X3327Y24908D01*
D02*
G37*
D44*
X3334Y26206D02*
X3460Y26080D01*
X1014Y26206D02*
X3334D01*
X500Y26720D02*
X1014Y26206D01*
X2580Y17770D02*
X5611Y14739D01*
Y12739D02*
Y14739D01*
Y12739D02*
X8730Y9620D01*
X8040Y4990D02*
X8730Y5680D01*
Y9620D01*
X8560Y5914D02*
Y9410D01*
X8136Y5490D02*
X8560Y5914D01*
X8040Y5490D02*
X8136D01*
X3040Y20980D02*
Y22110D01*
X1930Y19870D02*
X3040Y20980D01*
X-1170Y16710D02*
X-1164Y16704D01*
X3460Y26080D02*
X3480Y26100D01*
X1810Y15550D02*
X2490Y14870D01*
X1810Y15550D02*
Y16970D01*
X1930Y18620D02*
Y19870D01*
X5401Y12569D02*
X8560Y9410D01*
X5401Y12569D02*
Y14689D01*
X2600Y17490D02*
X5401Y14689D01*
X1760Y17490D02*
X2600D01*
X1340Y17070D02*
X1760Y17490D01*
X1340Y16700D02*
Y17070D01*
X1126Y16486D02*
X1340Y16700D01*
X780Y16486D02*
X1126D01*
X1650Y17770D02*
X2580D01*
X983Y17103D02*
X1650Y17770D01*
X983Y16830D02*
Y17103D01*
X-120Y16570D02*
X1930Y18620D01*
X-120Y15290D02*
Y16570D01*
Y15290D02*
X580Y14590D01*
X2130Y15630D02*
Y15660D01*
X2490Y10760D02*
Y14870D01*
Y10760D02*
X4680Y8570D01*
Y6980D02*
Y8570D01*
X2710Y10880D02*
X4970Y8620D01*
X2710Y10880D02*
Y15050D01*
X2130Y15630D02*
X2710Y15050D01*
X2890Y4710D02*
X3160Y4440D01*
X2890Y4710D02*
Y5190D01*
X4680Y6980D01*
X3150Y4880D02*
Y5120D01*
X4970Y6940D01*
Y8620D01*
D45*
X-8102Y17188D02*
X-7540Y17750D01*
X-8102Y14472D02*
Y17188D01*
Y14472D02*
X-6610Y12980D01*
X-3849Y15749D02*
Y16341D01*
X-3550Y16640D01*
X-720Y18767D02*
X-66D01*
X2500Y21333D02*
Y23560D01*
X-66Y18767D02*
X2500Y21333D01*
X930Y20100D02*
Y21110D01*
X-100Y19070D02*
X930Y20100D01*
X-3370Y19070D02*
X-100D01*
X588Y20157D02*
Y21128D01*
X-260Y19310D02*
X588Y20157D01*
X-3460Y19310D02*
X-260D01*
X-4910Y17530D02*
X-3370Y19070D01*
X1190Y7120D02*
Y9280D01*
Y7070D02*
Y7120D01*
X-3730Y22290D02*
X-1760Y20320D01*
X-3730Y22290D02*
Y22710D01*
X-1760Y20320D02*
X-810D01*
X2390Y23800D02*
X3540Y24950D01*
X-920Y23800D02*
X2390D01*
X-1550Y23170D02*
X-920Y23800D01*
X-6630Y16800D02*
X-5370D01*
X-5350Y16820D01*
X-6610Y4600D02*
Y12980D01*
X-6390Y4670D02*
Y13190D01*
X-7886Y14686D02*
X-6390Y13190D01*
X1670Y19929D02*
X2780Y21039D01*
Y22360D01*
X2500Y23560D02*
X3568Y24628D01*
X2360Y9880D02*
X2960D01*
X4380Y8460D01*
X-3520Y15760D02*
X2360Y9880D01*
X-3849Y15749D02*
X3510Y8390D01*
X-5100Y15570D02*
X1190Y9280D01*
X-4725Y3690D02*
X-4200Y3165D01*
X-5410Y3690D02*
X-4725D01*
X-6390Y4670D02*
X-5410Y3690D01*
X-5062Y3490D02*
X-4800Y3228D01*
X-5500Y3490D02*
X-5062D01*
X-6610Y4600D02*
X-5500Y3490D01*
X-4810Y3160D02*
Y3218D01*
X-4800Y3228D01*
X-740Y25170D02*
X6900D01*
X7234Y25504D01*
X-2020Y23890D02*
X-740Y25170D01*
X7234Y25504D02*
Y26186D01*
X588Y21128D02*
X1270Y21810D01*
Y23070D01*
X-2100Y28570D02*
X910D01*
X-2980Y27690D02*
X-2100Y28570D01*
X-2980Y24210D02*
Y27690D01*
X910Y28570D02*
X3160Y30820D01*
X-6840Y17190D02*
X-5620D01*
X-3650Y17930D02*
Y18420D01*
X-5100Y16480D02*
X-3650Y17930D01*
X-2090Y23720D02*
X-2020Y23790D01*
Y23890D01*
X7430Y24950D02*
X8250Y25770D01*
X3540Y24950D02*
X7430D01*
X8250Y25770D02*
X9802D01*
X12750Y22823D01*
X1670Y18690D02*
Y19929D01*
X3568Y24628D02*
X5092D01*
X6530Y23190D01*
X-3520Y15760D02*
Y15930D01*
X-5100Y15570D02*
Y16480D01*
X930Y21110D02*
X1840Y22020D01*
Y23050D01*
X-420Y14590D02*
Y16600D01*
X1670Y18690D01*
X3160Y30820D02*
Y30980D01*
X-7886Y14686D02*
Y17114D01*
X-7470Y17530D01*
X-4910D01*
X-4540Y23520D02*
X-3730Y22710D01*
X-7540Y17750D02*
X-5020D01*
X-3460Y19310D01*
D46*
X8220Y27894D02*
Y28360D01*
X6653Y25631D02*
Y26327D01*
D47*
X-5670Y23560D02*
X-4930Y22820D01*
X-4790D01*
X-5447Y22847D02*
X-3880Y21280D01*
X-11310Y22847D02*
X-5447D01*
X-6516Y26196D02*
Y26884D01*
X-5670Y23560D02*
Y25350D01*
X-6516Y26196D02*
X-5670Y25350D01*
D49*
X-1860Y21490D02*
X180D01*
X-4320Y23950D02*
X-1860Y21490D01*
X-4630Y23950D02*
X-4320D01*
X-5050Y23531D02*
X-5049D01*
X-4630Y23950D01*
X302Y18170D02*
Y18704D01*
X-1164Y16704D02*
X302Y18170D01*
X-1170Y14880D02*
Y16710D01*
X-2450Y27670D02*
X-1500Y26720D01*
D50*
X-380Y20060D02*
Y20340D01*
X-3730Y19800D02*
X-640D01*
X-5320Y18210D02*
X-3730Y19800D01*
X-7790Y18210D02*
X-5320D01*
X-640Y19800D02*
X-380Y20060D01*
X-8330Y17280D02*
X-7630Y17980D01*
X-8330Y14320D02*
Y17280D01*
Y14320D02*
X-6830Y12820D01*
X-7090Y4350D02*
Y12629D01*
X-8576Y14115D02*
X-7090Y12629D01*
X-8576Y14115D02*
Y17424D01*
X-7790Y18210D01*
X3149Y19413D02*
X4451Y20715D01*
Y21719D01*
X5783Y23051D01*
X1403Y20763D02*
X1430D01*
X-380Y20340D02*
X180Y20900D01*
X1640Y26860D02*
X1870Y26630D01*
X2000Y23430D02*
X2220Y23210D01*
X-860Y23430D02*
X2000D01*
X-1460Y22830D02*
X-860Y23430D01*
X-1720Y22830D02*
X-1460D01*
X-2420Y23530D02*
X-1720Y22830D01*
X-2420Y23530D02*
Y23880D01*
X-1500Y24800D01*
Y25720D01*
X-6830Y4490D02*
Y12820D01*
X2220Y21580D02*
Y23210D01*
X1403Y20763D02*
X2220Y21580D01*
X-7090Y4350D02*
X-6240Y3500D01*
Y3190D02*
Y3500D01*
X-6830Y4490D02*
X-5540Y3200D01*
X-5280D01*
X-490Y19530D02*
X210Y20230D01*
Y20230D01*
X1430Y20680D02*
Y20763D01*
X1870Y26630D02*
X3930D01*
X1500Y26720D02*
X1640Y26860D01*
X3240Y20740D02*
X3400D01*
X3960Y21300D01*
Y24110D01*
X180Y20900D02*
X190Y20890D01*
X-7630Y17980D02*
X-5150D01*
X-3600Y19530D01*
X-490D01*
D52*
X-8825Y17765D02*
X-8390Y18200D01*
X-8825Y13799D02*
X-7370Y12344D01*
X-8825Y13799D02*
Y17765D01*
X-7370Y4643D02*
Y12344D01*
X-8432Y21162D02*
X-8390Y18200D01*
X7200Y5990D02*
X8040D01*
X4300Y3090D02*
X7200Y5990D01*
X-7483Y4530D02*
X-7370Y4643D01*
X-7483Y4530D02*
X-7483Y4530D01*
X-7990Y4530D02*
X-7483D01*
X-11640Y21580D02*
X-8850D01*
X-11810Y21750D02*
X-11640Y21580D01*
X-11810Y21750D02*
Y22313D01*
X-12310Y22813D02*
X-11810Y22313D01*
X-5050Y29510D02*
X-3560Y31000D01*
X-7224Y27336D02*
X-5050Y29510D01*
X-3930Y28390D02*
X-2900D01*
X-5050Y29510D02*
X-3930Y28390D01*
X-384Y3090D02*
X4300D01*
X3160Y31850D02*
Y31980D01*
X2820Y31510D02*
X3160Y31850D01*
X-2660Y31510D02*
X2820D01*
X-3170Y31000D02*
X-2660Y31510D01*
X-3560Y31000D02*
X-3170D01*
X-7224Y26176D02*
Y27336D01*
Y25214D02*
Y26176D01*
Y25214D02*
X-6631Y24621D01*
Y24181D02*
Y24621D01*
X-8850Y21580D02*
X-8432Y21162D01*
D53*
X-7000Y15520D02*
X-1870Y10390D01*
Y8790D02*
Y10390D01*
X-7290Y15520D02*
X-7000D01*
X-1190Y9060D02*
X-1160Y9090D01*
Y10680D01*
X-7000Y16520D02*
X-1160Y10680D01*
X-7290Y16520D02*
X-7000D01*
D61*
X6653Y26327D02*
X8220Y27894D01*
D67*
X-9843Y1181D02*
D03*
X9843D02*
D03*
Y19685D02*
D03*
X-9843D02*
D03*
D68*
X6573Y21936D02*
D03*
X-4960Y6859D02*
D03*
X-1870Y6829D02*
D03*
D69*
X6573Y19377D02*
D03*
X-4960Y4300D02*
D03*
X-1870Y4270D02*
D03*
D70*
X11750Y22857D02*
D03*
X12750Y22823D02*
D03*
X6526Y26894D02*
D03*
X7234Y26186D02*
D03*
X3160Y31980D02*
D03*
Y30980D02*
D03*
X-3170Y31000D02*
D03*
Y32000D02*
D03*
X-7224Y26176D02*
D03*
X-6516Y26884D02*
D03*
X-12310Y22813D02*
D03*
X-11310Y22847D02*
D03*
D71*
X11705Y22065D02*
D03*
X12704Y22030D02*
D03*
X5946Y26338D02*
D03*
X6653Y25631D02*
D03*
X2362Y31996D02*
D03*
Y30996D02*
D03*
X-2362D02*
D03*
Y31996D02*
D03*
X-6653Y25631D02*
D03*
X-5946Y26338D02*
D03*
X-12311Y22030D02*
D03*
X-11311Y22065D02*
D03*
X-6631Y24181D02*
D03*
X-5150Y19100D02*
D03*
D72*
X8040Y5990D02*
D03*
Y5490D02*
D03*
Y4990D02*
D03*
Y4490D02*
D03*
X-7990Y4530D02*
D03*
Y5030D02*
D03*
Y5530D02*
D03*
Y6030D02*
D03*
X8720Y27190D02*
D03*
D73*
X-420Y14590D02*
D03*
X580D02*
D03*
X1580D02*
D03*
X3580D02*
D03*
X2835Y1540D02*
D03*
X2047D02*
D03*
X5670Y2940D02*
D03*
X7910Y3130D02*
D03*
X-3720Y26780D02*
D03*
X1500Y25720D02*
D03*
X500Y26720D02*
D03*
Y25720D02*
D03*
X-500Y26720D02*
D03*
Y25720D02*
D03*
X-1500Y26720D02*
D03*
Y25720D02*
D03*
X7890Y880D02*
D03*
X-7290Y16520D02*
D03*
X7060Y16420D02*
D03*
X7900Y1820D02*
D03*
D74*
X4410Y1540D02*
D03*
X1260D02*
D03*
D75*
X3622D02*
D03*
D76*
X-6087Y20644D02*
D03*
Y20250D02*
D03*
X-6481Y20644D02*
D03*
Y20250D02*
D03*
X5783Y23051D02*
D03*
X3149Y19413D02*
D03*
D77*
X5670Y1940D02*
D03*
X-3720Y25780D02*
D03*
X-7290Y15520D02*
D03*
X7060Y15420D02*
D03*
D78*
X6910Y3130D02*
D03*
X1500Y26720D02*
D03*
X6900Y1820D02*
D03*
D79*
X-6818Y800D02*
D03*
X-2802D02*
D03*
Y2257D02*
D03*
X-6818D02*
D03*
D80*
X180Y21490D02*
D03*
X-5050Y23531D02*
D03*
X3040Y22110D02*
D03*
X302Y18704D02*
D03*
X-720Y18767D02*
D03*
X-4790Y22820D02*
D03*
X-6630Y16800D02*
D03*
X8220Y28360D02*
D03*
X-1170Y14880D02*
D03*
X3460Y26080D02*
D03*
X2780Y22360D02*
D03*
X4380Y8460D02*
D03*
X3510Y8390D02*
D03*
X-4810Y3160D02*
D03*
X-6240Y3190D02*
D03*
X-4200Y3165D02*
D03*
X-5280Y3200D02*
D03*
X1270Y23070D02*
D03*
X-2450Y27670D02*
D03*
X-2900Y28390D02*
D03*
X983Y16830D02*
D03*
X780Y16486D02*
D03*
X-5350Y16820D02*
D03*
X-5620Y17190D02*
D03*
X-6840D02*
D03*
X-3650Y18420D02*
D03*
X3930Y26630D02*
D03*
X-4540Y23520D02*
D03*
X3240Y20740D02*
D03*
X3960Y24110D02*
D03*
X2130Y15660D02*
D03*
X1810Y16970D02*
D03*
X1190Y7120D02*
D03*
X210Y20230D02*
D03*
X190Y20890D02*
D03*
X1430Y20680D02*
D03*
X-3520Y15930D02*
D03*
X-3550Y16640D02*
D03*
X-810Y20320D02*
D03*
X6530Y23190D02*
D03*
X-2960Y24190D02*
D03*
X1840Y23050D02*
D03*
X-1550Y23170D02*
D03*
X-2090Y23720D02*
D03*
X-3880Y21280D02*
D03*
X3150Y4880D02*
D03*
X3160Y4440D02*
D03*
D81*
X-384Y3090D02*
D03*
D82*
X-1190Y9060D02*
D03*
X-1870Y8790D02*
D03*
D83*
X-5310Y25790D02*
D03*
X-3370Y22360D02*
D03*
X-11920Y25140D02*
D03*
X-8661Y24429D02*
D03*
X1290Y5370D02*
D03*
X1690Y5770D02*
D03*
Y5370D02*
D03*
X1290Y5770D02*
D03*
M02*
