M48
;Layer_Color=9474304
;FILE_FORMAT=2:4
INCH,TZ
T13F00S00C0.0300
%
G90
G05
T13
G00X-3425Y1665
M15
G01X-3424Y1668
G01X-3429Y1708
G01X-3445Y1748
G01X-3472Y1782
G01X-3506Y1809
G01X-3546Y1825
G01X-3599Y1832
G01X-6030Y1830
G01X-6034Y1831
G01X-6074Y1825
G01X-6114Y1809
G01X-6148Y1782
G01X-6175Y1748
G01X-6191Y1708
G01X-6198Y1655
G01X-6196Y320
G01X-3425Y320
G01X-3425Y1665
M16
G00X-6263Y-130
M15
G01X-6208Y-76
G01X-6187Y0
G01X-6187Y1717
G01X-6175Y1748
G01X-6148Y1782
G01X-6138Y1790
G01X-3482Y1790
G01X-3472Y1782
G01X-3445Y1748
G01X-3433Y1717
G01X-3433Y10
G01X-3413Y-64
G01X-3359Y-119
G01X-3283Y-140
G01X11024Y-150
G01X11098Y-130
G01X11153Y-77
G01X11174Y0
G01X11174Y20716
G01X15414Y20718
G01X15422Y20719
G01X15493Y20748
G01X15540Y20809
G01X15551Y20886
G01X15535Y21009
G01X15403Y21768
G01X15234Y22521
G01X15028Y23263
G01X14786Y23995
G01X14509Y24714
G01X14196Y25419
G01X13849Y26108
G01X13469Y26778
G01X13057Y27429
G01X12613Y28060
G01X12138Y28667
G01X11635Y29251
G01X11103Y29809
G01X10545Y30340
G01X9961Y30844
G01X9353Y31318
G01X8723Y31762
G01X8071Y32174
G01X7400Y32554
G01X6712Y32900
G01X6007Y33212
G01X5288Y33490
G01X4556Y33731
G01X3813Y33937
G01X3060Y34105
G01X2301Y34237
G01X1536Y34331
G01X767Y34388
G01X-4Y34407
G01X-774Y34387
G01X-1543Y34331
G01X-2308Y34236
G01X-3068Y34104
G01X-3820Y33935
G01X-4563Y33729
G01X-5295Y33487
G01X-6014Y33210
G01X-6718Y32897
G01X-7407Y32550
G01X-8078Y32170
G01X-8729Y31758
G01X-9359Y31314
G01X-9967Y30839
G01X-10550Y30335
G01X-11108Y29804
G01X-11640Y29245
G01X-12143Y28662
G01X-12617Y28054
G01X-13061Y27423
G01X-13473Y26772
G01X-13853Y26101
G01X-14199Y25412
G01X-14512Y24708
G01X-14789Y23988
G01X-15031Y23256
G01X-15236Y22513
G01X-15405Y21761
G01X-15536Y21002
G01X-15551Y20886
G01X-15540Y20810
G01X-15494Y20749
G01X-15423Y20719
G01X-15394Y20716
G01X-11174Y20716
G01X-11174Y0
G01X-11154Y-74
G01X-11100Y-129
G01X-11024Y-150
G01X-6337Y-150
G01X-6263Y-130
M16
M17
M30
