M48
;Layer_Color=9474304
;FILE_FORMAT=2:4
INCH,TZ
;TYPE=PLATED
T1F00S00C0.0138
T2F00S00C0.0140
T3F00S00C0.0157
T4F00S00C0.0200
T5F00S00C0.0236
T7F00S00C0.0300
T8F00S00C0.0315
T11F00S00C0.0354
T12F00S00C0.0394
%
T01
X-6481Y20250
X-6087
Y20644
X-6481
X3149Y19413
X5783Y23051
T02
X-6240Y3190
X-5280Y3200
X-4810Y3160
X-4200Y3165
X3160Y4440
X3150Y4880
X3510Y8390
X4380Y8460
X1190Y7120
X2130Y15660
X1810Y16970
X983Y16830
X780Y16486
X302Y18704
X-720Y18767
X-810Y20320
X210Y20230
X190Y20890
X1430Y20680
X3240Y20740
X-3650Y18420
X-3550Y16640
X-3520Y15930
X-5350Y16820
X-5620Y17190
X-6840
X-6630Y16800
X-1170Y14880
X180Y21490
X1270Y23070
X1840Y23050
X2780Y22360
X3040Y22110
X3960Y24110
X3460Y26080
X3930Y26630
X-2450Y27670
X-2900Y28390
X-2960Y24190
X-2090Y23720
X-1550Y23170
X-4540Y23520
X-5050Y23531
X-4790Y22820
X-3880Y21280
X6530Y23190
X8220Y28360
T03
X-384Y3090
T04
X1290Y5370
X1690
Y5770
X1290
X-11920Y25140
X-8661Y24429
X-5310Y25790
X-3370Y22360
T05
X-7990Y4530
Y5030
Y5530
X8040Y5490
Y4990
Y4490
Y5990
X-7990Y6030
T07
X-1870Y8790
X-1190Y9060
X-11311Y22065
X-12311Y22030
X-6653Y25631
X-5946Y26338
X-2362Y30996
Y31996
X2362
Y30996
X5946Y26338
X6653Y25631
X11705Y22065
X12704Y22030
T08
X2047Y1540
X2835
X3622
X-11310Y22847
X-12310Y22813
X-7224Y26176
X-6516Y26884
X-3170Y31000
Y32000
X3160Y31980
Y30980
X6526Y26894
X7234Y26186
X8720Y27190
X11750Y22857
X12750Y22823
T11
X5670Y1940
Y2940
X6910Y3130
X7910
X7900Y1820
X7890Y880
X6900Y1820
X7060Y15420
Y16420
X3580Y14590
X1580
X580
X-420
X-7290Y15520
Y16520
X-3720Y25780
Y26780
X-1500Y26720
X-500
X500
X1500
Y25720
X500
X-500
X-1500
T12
X-5150Y19100
X-6631Y24181
M30
