G04 Layer_Color=16711935*
%FSLAX24Y24*%
%MOIN*%
G70*
G01*
G75*
%ADD71C,0.0512*%
%ADD72C,0.0394*%
%ADD73C,0.0591*%
%ADD76C,0.0197*%
%ADD80C,0.0220*%
%ADD81C,0.0276*%
%ADD82C,0.0400*%
%ADD83C,0.0280*%
%ADD125O,0.0866X0.0709*%
%ADD126O,0.0866X0.0669*%
%ADD127C,0.0709*%
%ADD128C,0.0472*%
%ADD129C,0.0669*%
%ADD130R,0.0669X0.0866*%
%ADD131C,0.0679*%
%ADD132C,0.0276*%
%ADD133R,0.0669X0.0669*%
%ADD134R,0.0669X0.0669*%
G04:AMPARAMS|DCode=135|XSize=102.4mil|YSize=70.9mil|CornerRadius=19.7mil|HoleSize=0mil|Usage=FLASHONLY|Rotation=90.000|XOffset=0mil|YOffset=0mil|HoleType=Round|Shape=RoundedRectangle|*
%AMROUNDEDRECTD135*
21,1,0.1024,0.0315,0,0,90.0*
21,1,0.0630,0.0709,0,0,90.0*
1,1,0.0394,0.0157,0.0315*
1,1,0.0394,0.0157,-0.0315*
1,1,0.0394,-0.0157,-0.0315*
1,1,0.0394,-0.0157,0.0315*
%
%ADD135ROUNDEDRECTD135*%
D71*
X-6631Y24181D02*
D03*
X-5150Y19100D02*
D03*
D72*
X8720Y27190D02*
D03*
D73*
X11705Y22065D02*
D03*
X12704Y22030D02*
D03*
X5946Y26338D02*
D03*
X6653Y25631D02*
D03*
X2362Y31996D02*
D03*
Y30996D02*
D03*
X-2362D02*
D03*
Y31996D02*
D03*
X-6653Y25631D02*
D03*
X-5946Y26338D02*
D03*
X-12311Y22030D02*
D03*
X-11311Y22065D02*
D03*
D76*
X5783Y23051D02*
D03*
X3149Y19413D02*
D03*
D80*
X180Y21490D02*
D03*
X-5050Y23531D02*
D03*
X3040Y22110D02*
D03*
X302Y18704D02*
D03*
X-720Y18767D02*
D03*
X-4790Y22820D02*
D03*
X-6630Y16800D02*
D03*
X8220Y28360D02*
D03*
X-1170Y14880D02*
D03*
X3460Y26080D02*
D03*
X2780Y22360D02*
D03*
X4380Y8460D02*
D03*
X3510Y8390D02*
D03*
X-4810Y3160D02*
D03*
X-6240Y3190D02*
D03*
X-4200Y3165D02*
D03*
X-5280Y3200D02*
D03*
X1270Y23070D02*
D03*
X-2450Y27670D02*
D03*
X-2900Y28390D02*
D03*
X983Y16830D02*
D03*
X780Y16486D02*
D03*
X-5350Y16820D02*
D03*
X-5620Y17190D02*
D03*
X-6840D02*
D03*
X-3650Y18420D02*
D03*
X3930Y26630D02*
D03*
X-4540Y23520D02*
D03*
X3240Y20740D02*
D03*
X3960Y24110D02*
D03*
X2130Y15660D02*
D03*
X1810Y16970D02*
D03*
X1190Y7120D02*
D03*
X210Y20230D02*
D03*
X190Y20890D02*
D03*
X1430Y20680D02*
D03*
X-3520Y15930D02*
D03*
X-3550Y16640D02*
D03*
X-810Y20320D02*
D03*
X6530Y23190D02*
D03*
X-2960Y24190D02*
D03*
X1840Y23050D02*
D03*
X-1550Y23170D02*
D03*
X-2090Y23720D02*
D03*
X-3880Y21280D02*
D03*
X3150Y4880D02*
D03*
X3160Y4440D02*
D03*
D81*
X-384Y3090D02*
D03*
D82*
X-1190Y9060D02*
D03*
X-1870Y8790D02*
D03*
D83*
X-5310Y25790D02*
D03*
X-3370Y22360D02*
D03*
X-11920Y25140D02*
D03*
X-8661Y24429D02*
D03*
X1290Y5370D02*
D03*
X1690Y5770D02*
D03*
Y5370D02*
D03*
X1290Y5770D02*
D03*
D125*
X6573Y21936D02*
D03*
X-4960Y6859D02*
D03*
X-1870Y6829D02*
D03*
D126*
X6573Y19377D02*
D03*
X-4960Y4300D02*
D03*
X-1870Y4270D02*
D03*
D127*
X11750Y22857D02*
D03*
X12750Y22823D02*
D03*
X6526Y26894D02*
D03*
X7234Y26186D02*
D03*
X3160Y31980D02*
D03*
Y30980D02*
D03*
X-3170Y31000D02*
D03*
Y32000D02*
D03*
X-7224Y26176D02*
D03*
X-6516Y26884D02*
D03*
X-12310Y22813D02*
D03*
X-11310Y22847D02*
D03*
D128*
X8040Y5990D02*
D03*
Y5490D02*
D03*
Y4990D02*
D03*
Y4490D02*
D03*
X-7990Y4530D02*
D03*
Y5030D02*
D03*
Y5530D02*
D03*
Y6030D02*
D03*
D129*
X-420Y14590D02*
D03*
X580D02*
D03*
X1580D02*
D03*
X3580D02*
D03*
X2835Y1540D02*
D03*
X2047D02*
D03*
X5670Y2940D02*
D03*
X7910Y3130D02*
D03*
X-3720Y26780D02*
D03*
X1500Y25720D02*
D03*
X500Y26720D02*
D03*
Y25720D02*
D03*
X-500Y26720D02*
D03*
Y25720D02*
D03*
X-1500Y26720D02*
D03*
Y25720D02*
D03*
X7890Y880D02*
D03*
X-7290Y16520D02*
D03*
X7060Y16420D02*
D03*
X7900Y1820D02*
D03*
D130*
X4410Y1540D02*
D03*
X1260D02*
D03*
D131*
X3622D02*
D03*
D132*
X-6087Y20644D02*
D03*
Y20250D02*
D03*
X-6481Y20644D02*
D03*
Y20250D02*
D03*
D133*
X5670Y1940D02*
D03*
X-3720Y25780D02*
D03*
X-7290Y15520D02*
D03*
X7060Y15420D02*
D03*
D134*
X6910Y3130D02*
D03*
X1500Y26720D02*
D03*
X6900Y1820D02*
D03*
D135*
X-6818Y800D02*
D03*
X-2802D02*
D03*
Y2257D02*
D03*
X-6818D02*
D03*
M02*
