M48
;Layer_Color=9474304
;FILE_FORMAT=2:4
INCH,TZ
;TYPE=PLATED
T6F00S00C0.0276
T9F00S00C0.0315
%
G90
G05
T06
G00X-4842Y4300
M15
G01X-5078
M16
G00X-1752Y4270
M15
G01X-1988
M16
G00X6691Y19377
M15
G01X6455
M16
G00X-1752Y6829
M15
G01X-1988
M16
G00X-4842Y6859
M15
G01X-5078
M16
G00X6691Y21936
M15
G01X6455
M16
T09
G00X-6818Y603
M15
G01Y997
M16
G00X-6818Y2119
M15
G01Y2394
M16
G00X-2802Y2119
M15
G01Y2394
M16
G00X-2802Y603
M15
G01Y997
M16
M17
M30
