G04 Layer_Color=8388736*
%FSLAX24Y24*%
%MOIN*%
G70*
G01*
G75*
%ADD71C,0.0512*%
%ADD72C,0.0394*%
%ADD73C,0.0591*%
%ADD76C,0.0197*%
%ADD80C,0.0220*%
%ADD81C,0.0276*%
%ADD82C,0.0400*%
%ADD83C,0.0280*%
%ADD89R,0.1890X0.0472*%
%ADD90R,0.1890X0.0472*%
%ADD91R,0.1500X0.0600*%
G04:AMPARAMS|DCode=92|XSize=78.7mil|YSize=59.1mil|CornerRadius=10.3mil|HoleSize=0mil|Usage=FLASHONLY|Rotation=178.000|XOffset=0mil|YOffset=0mil|HoleType=Round|Shape=RoundedRectangle|*
%AMROUNDEDRECTD92*
21,1,0.0787,0.0384,0,0,178.0*
21,1,0.0581,0.0591,0,0,178.0*
1,1,0.0207,-0.0283,0.0202*
1,1,0.0207,0.0297,0.0182*
1,1,0.0207,0.0283,-0.0202*
1,1,0.0207,-0.0297,-0.0182*
%
%ADD92ROUNDEDRECTD92*%
G04:AMPARAMS|DCode=93|XSize=78.7mil|YSize=59.1mil|CornerRadius=10.3mil|HoleSize=0mil|Usage=FLASHONLY|Rotation=135.000|XOffset=0mil|YOffset=0mil|HoleType=Round|Shape=RoundedRectangle|*
%AMROUNDEDRECTD93*
21,1,0.0787,0.0384,0,0,135.0*
21,1,0.0581,0.0591,0,0,135.0*
1,1,0.0207,-0.0070,0.0341*
1,1,0.0207,0.0341,-0.0070*
1,1,0.0207,0.0070,-0.0341*
1,1,0.0207,-0.0341,0.0070*
%
%ADD93ROUNDEDRECTD93*%
G04:AMPARAMS|DCode=94|XSize=59.1mil|YSize=39.4mil|CornerRadius=7.9mil|HoleSize=0mil|Usage=FLASHONLY|Rotation=90.000|XOffset=0mil|YOffset=0mil|HoleType=Round|Shape=RoundedRectangle|*
%AMROUNDEDRECTD94*
21,1,0.0591,0.0236,0,0,90.0*
21,1,0.0433,0.0394,0,0,90.0*
1,1,0.0157,0.0118,0.0217*
1,1,0.0157,0.0118,-0.0217*
1,1,0.0157,-0.0118,-0.0217*
1,1,0.0157,-0.0118,0.0217*
%
%ADD94ROUNDEDRECTD94*%
G04:AMPARAMS|DCode=95|XSize=63mil|YSize=47.2mil|CornerRadius=8.9mil|HoleSize=0mil|Usage=FLASHONLY|Rotation=270.000|XOffset=0mil|YOffset=0mil|HoleType=Round|Shape=RoundedRectangle|*
%AMROUNDEDRECTD95*
21,1,0.0630,0.0295,0,0,270.0*
21,1,0.0453,0.0472,0,0,270.0*
1,1,0.0177,-0.0148,-0.0226*
1,1,0.0177,-0.0148,0.0226*
1,1,0.0177,0.0148,0.0226*
1,1,0.0177,0.0148,-0.0226*
%
%ADD95ROUNDEDRECTD95*%
G04:AMPARAMS|DCode=96|XSize=59.1mil|YSize=39.4mil|CornerRadius=7.9mil|HoleSize=0mil|Usage=FLASHONLY|Rotation=0.000|XOffset=0mil|YOffset=0mil|HoleType=Round|Shape=RoundedRectangle|*
%AMROUNDEDRECTD96*
21,1,0.0591,0.0236,0,0,0.0*
21,1,0.0433,0.0394,0,0,0.0*
1,1,0.0157,0.0217,-0.0118*
1,1,0.0157,-0.0217,-0.0118*
1,1,0.0157,-0.0217,0.0118*
1,1,0.0157,0.0217,0.0118*
%
%ADD96ROUNDEDRECTD96*%
%ADD97O,0.0236X0.0669*%
%ADD98R,0.0945X0.1024*%
%ADD99R,0.0532X0.0630*%
G04:AMPARAMS|DCode=100|XSize=78.7mil|YSize=53.2mil|CornerRadius=9.6mil|HoleSize=0mil|Usage=FLASHONLY|Rotation=0.000|XOffset=0mil|YOffset=0mil|HoleType=Round|Shape=RoundedRectangle|*
%AMROUNDEDRECTD100*
21,1,0.0787,0.0340,0,0,0.0*
21,1,0.0595,0.0532,0,0,0.0*
1,1,0.0192,0.0298,-0.0170*
1,1,0.0192,-0.0298,-0.0170*
1,1,0.0192,-0.0298,0.0170*
1,1,0.0192,0.0298,0.0170*
%
%ADD100ROUNDEDRECTD100*%
%ADD101O,0.0197X0.0787*%
%ADD102O,0.0787X0.0197*%
G04:AMPARAMS|DCode=103|XSize=78.7mil|YSize=59.1mil|CornerRadius=10.3mil|HoleSize=0mil|Usage=FLASHONLY|Rotation=90.000|XOffset=0mil|YOffset=0mil|HoleType=Round|Shape=RoundedRectangle|*
%AMROUNDEDRECTD103*
21,1,0.0787,0.0384,0,0,90.0*
21,1,0.0581,0.0591,0,0,90.0*
1,1,0.0207,0.0192,0.0290*
1,1,0.0207,0.0192,-0.0290*
1,1,0.0207,-0.0192,-0.0290*
1,1,0.0207,-0.0192,0.0290*
%
%ADD103ROUNDEDRECTD103*%
G04:AMPARAMS|DCode=104|XSize=78.7mil|YSize=59.1mil|CornerRadius=10.3mil|HoleSize=0mil|Usage=FLASHONLY|Rotation=45.000|XOffset=0mil|YOffset=0mil|HoleType=Round|Shape=RoundedRectangle|*
%AMROUNDEDRECTD104*
21,1,0.0787,0.0384,0,0,45.0*
21,1,0.0581,0.0591,0,0,45.0*
1,1,0.0207,0.0341,0.0070*
1,1,0.0207,-0.0070,-0.0341*
1,1,0.0207,-0.0341,-0.0070*
1,1,0.0207,0.0070,0.0341*
%
%ADD104ROUNDEDRECTD104*%
G04:AMPARAMS|DCode=105|XSize=78.7mil|YSize=59.1mil|CornerRadius=10.3mil|HoleSize=0mil|Usage=FLASHONLY|Rotation=2.000|XOffset=0mil|YOffset=0mil|HoleType=Round|Shape=RoundedRectangle|*
%AMROUNDEDRECTD105*
21,1,0.0787,0.0384,0,0,2.0*
21,1,0.0581,0.0591,0,0,2.0*
1,1,0.0207,0.0297,-0.0182*
1,1,0.0207,-0.0283,-0.0202*
1,1,0.0207,-0.0297,0.0182*
1,1,0.0207,0.0283,0.0202*
%
%ADD105ROUNDEDRECTD105*%
%ADD106R,0.1024X0.0945*%
%ADD107R,0.0154X0.0331*%
%ADD108R,0.0331X0.0154*%
%ADD109R,0.0717X0.0717*%
G04:AMPARAMS|DCode=110|XSize=63mil|YSize=47.2mil|CornerRadius=8.9mil|HoleSize=0mil|Usage=FLASHONLY|Rotation=0.000|XOffset=0mil|YOffset=0mil|HoleType=Round|Shape=RoundedRectangle|*
%AMROUNDEDRECTD110*
21,1,0.0630,0.0295,0,0,0.0*
21,1,0.0453,0.0472,0,0,0.0*
1,1,0.0177,0.0226,-0.0148*
1,1,0.0177,-0.0226,-0.0148*
1,1,0.0177,-0.0226,0.0148*
1,1,0.0177,0.0226,0.0148*
%
%ADD110ROUNDEDRECTD110*%
G04:AMPARAMS|DCode=111|XSize=66.9mil|YSize=21.7mil|CornerRadius=5.3mil|HoleSize=0mil|Usage=FLASHONLY|Rotation=90.000|XOffset=0mil|YOffset=0mil|HoleType=Round|Shape=RoundedRectangle|*
%AMROUNDEDRECTD111*
21,1,0.0669,0.0110,0,0,90.0*
21,1,0.0563,0.0217,0,0,90.0*
1,1,0.0106,0.0055,0.0282*
1,1,0.0106,0.0055,-0.0282*
1,1,0.0106,-0.0055,-0.0282*
1,1,0.0106,-0.0055,0.0282*
%
%ADD111ROUNDEDRECTD111*%
G04:AMPARAMS|DCode=112|XSize=66.9mil|YSize=55.1mil|CornerRadius=8.7mil|HoleSize=0mil|Usage=FLASHONLY|Rotation=90.000|XOffset=0mil|YOffset=0mil|HoleType=Round|Shape=RoundedRectangle|*
%AMROUNDEDRECTD112*
21,1,0.0669,0.0378,0,0,90.0*
21,1,0.0496,0.0551,0,0,90.0*
1,1,0.0173,0.0189,0.0248*
1,1,0.0173,0.0189,-0.0248*
1,1,0.0173,-0.0189,-0.0248*
1,1,0.0173,-0.0189,0.0248*
%
%ADD112ROUNDEDRECTD112*%
G04:AMPARAMS|DCode=113|XSize=57.9mil|YSize=57.9mil|CornerRadius=10.2mil|HoleSize=0mil|Usage=FLASHONLY|Rotation=90.000|XOffset=0mil|YOffset=0mil|HoleType=Round|Shape=RoundedRectangle|*
%AMROUNDEDRECTD113*
21,1,0.0579,0.0375,0,0,90.0*
21,1,0.0375,0.0579,0,0,90.0*
1,1,0.0204,0.0188,0.0188*
1,1,0.0204,0.0188,-0.0188*
1,1,0.0204,-0.0188,-0.0188*
1,1,0.0204,-0.0188,0.0188*
%
%ADD113ROUNDEDRECTD113*%
%ADD114R,0.1009X0.1048*%
%ADD115R,0.0591X0.0178*%
G04:AMPARAMS|DCode=116|XSize=63mil|YSize=47.2mil|CornerRadius=8.9mil|HoleSize=0mil|Usage=FLASHONLY|Rotation=358.000|XOffset=0mil|YOffset=0mil|HoleType=Round|Shape=RoundedRectangle|*
%AMROUNDEDRECTD116*
21,1,0.0630,0.0295,0,0,358.0*
21,1,0.0453,0.0472,0,0,358.0*
1,1,0.0177,0.0221,-0.0155*
1,1,0.0177,-0.0231,-0.0140*
1,1,0.0177,-0.0221,0.0155*
1,1,0.0177,0.0231,0.0140*
%
%ADD116ROUNDEDRECTD116*%
G04:AMPARAMS|DCode=117|XSize=63mil|YSize=47.2mil|CornerRadius=8.9mil|HoleSize=0mil|Usage=FLASHONLY|Rotation=315.000|XOffset=0mil|YOffset=0mil|HoleType=Round|Shape=RoundedRectangle|*
%AMROUNDEDRECTD117*
21,1,0.0630,0.0295,0,0,315.0*
21,1,0.0453,0.0472,0,0,315.0*
1,1,0.0177,0.0056,-0.0264*
1,1,0.0177,-0.0264,0.0056*
1,1,0.0177,-0.0056,0.0264*
1,1,0.0177,0.0264,-0.0056*
%
%ADD117ROUNDEDRECTD117*%
G04:AMPARAMS|DCode=118|XSize=63mil|YSize=47.2mil|CornerRadius=8.9mil|HoleSize=0mil|Usage=FLASHONLY|Rotation=45.000|XOffset=0mil|YOffset=0mil|HoleType=Round|Shape=RoundedRectangle|*
%AMROUNDEDRECTD118*
21,1,0.0630,0.0295,0,0,45.0*
21,1,0.0453,0.0472,0,0,45.0*
1,1,0.0177,0.0264,0.0056*
1,1,0.0177,-0.0056,-0.0264*
1,1,0.0177,-0.0264,-0.0056*
1,1,0.0177,0.0056,0.0264*
%
%ADD118ROUNDEDRECTD118*%
G04:AMPARAMS|DCode=119|XSize=63mil|YSize=47.2mil|CornerRadius=8.9mil|HoleSize=0mil|Usage=FLASHONLY|Rotation=182.000|XOffset=0mil|YOffset=0mil|HoleType=Round|Shape=RoundedRectangle|*
%AMROUNDEDRECTD119*
21,1,0.0630,0.0295,0,0,182.0*
21,1,0.0453,0.0472,0,0,182.0*
1,1,0.0177,-0.0231,0.0140*
1,1,0.0177,0.0221,0.0155*
1,1,0.0177,0.0231,-0.0140*
1,1,0.0177,-0.0221,-0.0155*
%
%ADD119ROUNDEDRECTD119*%
G04:AMPARAMS|DCode=120|XSize=59.1mil|YSize=39.4mil|CornerRadius=7.9mil|HoleSize=0mil|Usage=FLASHONLY|Rotation=358.000|XOffset=0mil|YOffset=0mil|HoleType=Round|Shape=RoundedRectangle|*
%AMROUNDEDRECTD120*
21,1,0.0591,0.0236,0,0,358.0*
21,1,0.0433,0.0394,0,0,358.0*
1,1,0.0157,0.0212,-0.0126*
1,1,0.0157,-0.0221,-0.0110*
1,1,0.0157,-0.0212,0.0126*
1,1,0.0157,0.0221,0.0110*
%
%ADD120ROUNDEDRECTD120*%
G04:AMPARAMS|DCode=121|XSize=59.1mil|YSize=39.4mil|CornerRadius=7.9mil|HoleSize=0mil|Usage=FLASHONLY|Rotation=135.000|XOffset=0mil|YOffset=0mil|HoleType=Round|Shape=RoundedRectangle|*
%AMROUNDEDRECTD121*
21,1,0.0591,0.0236,0,0,135.0*
21,1,0.0433,0.0394,0,0,135.0*
1,1,0.0157,-0.0070,0.0237*
1,1,0.0157,0.0237,-0.0070*
1,1,0.0157,0.0070,-0.0237*
1,1,0.0157,-0.0237,0.0070*
%
%ADD121ROUNDEDRECTD121*%
G04:AMPARAMS|DCode=122|XSize=59.1mil|YSize=39.4mil|CornerRadius=7.9mil|HoleSize=0mil|Usage=FLASHONLY|Rotation=225.000|XOffset=0mil|YOffset=0mil|HoleType=Round|Shape=RoundedRectangle|*
%AMROUNDEDRECTD122*
21,1,0.0591,0.0236,0,0,225.0*
21,1,0.0433,0.0394,0,0,225.0*
1,1,0.0157,-0.0237,-0.0070*
1,1,0.0157,0.0070,0.0237*
1,1,0.0157,0.0237,0.0070*
1,1,0.0157,-0.0070,-0.0237*
%
%ADD122ROUNDEDRECTD122*%
G04:AMPARAMS|DCode=123|XSize=59.1mil|YSize=39.4mil|CornerRadius=7.9mil|HoleSize=0mil|Usage=FLASHONLY|Rotation=182.000|XOffset=0mil|YOffset=0mil|HoleType=Round|Shape=RoundedRectangle|*
%AMROUNDEDRECTD123*
21,1,0.0591,0.0236,0,0,182.0*
21,1,0.0433,0.0394,0,0,182.0*
1,1,0.0157,-0.0221,0.0110*
1,1,0.0157,0.0212,0.0126*
1,1,0.0157,0.0221,-0.0110*
1,1,0.0157,-0.0212,-0.0126*
%
%ADD123ROUNDEDRECTD123*%
G04:AMPARAMS|DCode=124|XSize=65mil|YSize=57.1mil|CornerRadius=8.9mil|HoleSize=0mil|Usage=FLASHONLY|Rotation=90.000|XOffset=0mil|YOffset=0mil|HoleType=Round|Shape=RoundedRectangle|*
%AMROUNDEDRECTD124*
21,1,0.0650,0.0394,0,0,90.0*
21,1,0.0472,0.0571,0,0,90.0*
1,1,0.0177,0.0197,0.0236*
1,1,0.0177,0.0197,-0.0236*
1,1,0.0177,-0.0197,-0.0236*
1,1,0.0177,-0.0197,0.0236*
%
%ADD124ROUNDEDRECTD124*%
%ADD125O,0.0866X0.0709*%
%ADD126O,0.0866X0.0669*%
%ADD127C,0.0709*%
%ADD128C,0.0472*%
%ADD129C,0.0669*%
%ADD130R,0.0669X0.0866*%
%ADD131C,0.0679*%
%ADD132C,0.0276*%
%ADD133R,0.0669X0.0669*%
%ADD134R,0.0669X0.0669*%
G04:AMPARAMS|DCode=135|XSize=102.4mil|YSize=70.9mil|CornerRadius=19.7mil|HoleSize=0mil|Usage=FLASHONLY|Rotation=90.000|XOffset=0mil|YOffset=0mil|HoleType=Round|Shape=RoundedRectangle|*
%AMROUNDEDRECTD135*
21,1,0.1024,0.0315,0,0,90.0*
21,1,0.0630,0.0709,0,0,90.0*
1,1,0.0394,0.0157,0.0315*
1,1,0.0394,0.0157,-0.0315*
1,1,0.0394,-0.0157,-0.0315*
1,1,0.0394,-0.0157,0.0315*
%
%ADD135ROUNDEDRECTD135*%
D71*
X-6631Y24181D02*
D03*
X-5150Y19100D02*
D03*
D72*
X8720Y27190D02*
D03*
D73*
X11705Y22065D02*
D03*
X12704Y22030D02*
D03*
X5946Y26338D02*
D03*
X6653Y25631D02*
D03*
X2362Y31996D02*
D03*
Y30996D02*
D03*
X-2362D02*
D03*
Y31996D02*
D03*
X-6653Y25631D02*
D03*
X-5946Y26338D02*
D03*
X-12311Y22030D02*
D03*
X-11311Y22065D02*
D03*
D76*
X5783Y23051D02*
D03*
X3149Y19413D02*
D03*
D80*
X180Y21490D02*
D03*
X-5050Y23531D02*
D03*
X3040Y22110D02*
D03*
X302Y18704D02*
D03*
X-720Y18767D02*
D03*
X-4790Y22820D02*
D03*
X-6630Y16800D02*
D03*
X8220Y28360D02*
D03*
X-1170Y14880D02*
D03*
X3460Y26080D02*
D03*
X2780Y22360D02*
D03*
X4380Y8460D02*
D03*
X3510Y8390D02*
D03*
X-4810Y3160D02*
D03*
X-6240Y3190D02*
D03*
X-4200Y3165D02*
D03*
X-5280Y3200D02*
D03*
X1270Y23070D02*
D03*
X-2450Y27670D02*
D03*
X-2900Y28390D02*
D03*
X983Y16830D02*
D03*
X780Y16486D02*
D03*
X-5350Y16820D02*
D03*
X-5620Y17190D02*
D03*
X-6840D02*
D03*
X-3650Y18420D02*
D03*
X3930Y26630D02*
D03*
X-4540Y23520D02*
D03*
X3240Y20740D02*
D03*
X3960Y24110D02*
D03*
X2130Y15660D02*
D03*
X1810Y16970D02*
D03*
X1190Y7120D02*
D03*
X210Y20230D02*
D03*
X190Y20890D02*
D03*
X1430Y20680D02*
D03*
X-3520Y15930D02*
D03*
X-3550Y16640D02*
D03*
X-810Y20320D02*
D03*
X6530Y23190D02*
D03*
X-2960Y24190D02*
D03*
X1840Y23050D02*
D03*
X-1550Y23170D02*
D03*
X-2090Y23720D02*
D03*
X-3880Y21280D02*
D03*
X3150Y4880D02*
D03*
X3160Y4440D02*
D03*
D81*
X-384Y3090D02*
D03*
D82*
X-1190Y9060D02*
D03*
X-1870Y8790D02*
D03*
D83*
X-5310Y25790D02*
D03*
X-3370Y22360D02*
D03*
X-11920Y25140D02*
D03*
X-8661Y24429D02*
D03*
X1290Y5370D02*
D03*
X1690Y5770D02*
D03*
Y5370D02*
D03*
X1290Y5770D02*
D03*
D89*
X161Y31602D02*
D03*
D90*
Y29318D02*
D03*
D91*
X-4810Y2370D02*
D03*
D92*
X10270Y21819D02*
D03*
X10310Y22961D02*
D03*
D93*
X4971Y27345D02*
D03*
X5779Y28153D02*
D03*
D94*
X4892Y22442D02*
D03*
X5679D02*
D03*
X9260Y21979D02*
D03*
X8473D02*
D03*
X1979Y29590D02*
D03*
X2766D02*
D03*
X-2494Y29610D02*
D03*
X-1706D02*
D03*
D95*
X4911Y23605D02*
D03*
X5620D02*
D03*
X-3396Y19780D02*
D03*
X-4104D02*
D03*
X3342Y29570D02*
D03*
X4051D02*
D03*
X-5464Y29630D02*
D03*
X-4756D02*
D03*
X3986Y17900D02*
D03*
X4694D02*
D03*
X4824Y21100D02*
D03*
X4116D02*
D03*
X-6684Y19060D02*
D03*
X-5976D02*
D03*
D96*
X-740Y16204D02*
D03*
Y15416D02*
D03*
X190Y16204D02*
D03*
Y15416D02*
D03*
X7750Y23454D02*
D03*
Y22666D02*
D03*
X-7700Y23604D02*
D03*
Y22816D02*
D03*
X-7550Y22164D02*
D03*
Y21376D02*
D03*
X140Y2028D02*
D03*
Y1241D02*
D03*
X-4370Y14226D02*
D03*
Y15014D02*
D03*
X-5190Y15024D02*
D03*
Y14236D02*
D03*
D97*
X1057Y29318D02*
D03*
X545D02*
D03*
X801D02*
D03*
X545Y31602D02*
D03*
X801D02*
D03*
X1057D02*
D03*
X289D02*
D03*
X33D02*
D03*
X-223D02*
D03*
X-479D02*
D03*
X33Y29318D02*
D03*
X-223D02*
D03*
X-479D02*
D03*
X-735D02*
D03*
Y31602D02*
D03*
X289Y29318D02*
D03*
D98*
X6410Y4308D02*
D03*
Y6111D02*
D03*
D99*
X4650Y20181D02*
D03*
X4020D02*
D03*
Y19000D02*
D03*
X4650D02*
D03*
D100*
X4764Y6025D02*
D03*
Y4844D02*
D03*
X-4830Y20991D02*
D03*
Y19809D02*
D03*
D101*
X-689Y22185D02*
D03*
X-492D02*
D03*
X-295D02*
D03*
X-98D02*
D03*
X98D02*
D03*
X295D02*
D03*
X492D02*
D03*
X689D02*
D03*
X886D02*
D03*
X1083D02*
D03*
X1280D02*
D03*
X1476D02*
D03*
X689Y17815D02*
D03*
X492D02*
D03*
X295D02*
D03*
X98D02*
D03*
X-98D02*
D03*
X-295D02*
D03*
X-492D02*
D03*
X-689D02*
D03*
X-886D02*
D03*
X-1083D02*
D03*
X-1280D02*
D03*
X-1476D02*
D03*
X886D02*
D03*
X1083D02*
D03*
X1280D02*
D03*
X1476D02*
D03*
X-886Y22185D02*
D03*
X-1083D02*
D03*
X-1280D02*
D03*
X-1476D02*
D03*
D102*
X2185Y20689D02*
D03*
Y20492D02*
D03*
Y20295D02*
D03*
Y20098D02*
D03*
Y19902D02*
D03*
Y19705D02*
D03*
Y19508D02*
D03*
Y19311D02*
D03*
Y19114D02*
D03*
Y18917D02*
D03*
Y18720D02*
D03*
Y18524D02*
D03*
X-2185Y19311D02*
D03*
Y19508D02*
D03*
Y19705D02*
D03*
Y19902D02*
D03*
Y20098D02*
D03*
Y20295D02*
D03*
Y20492D02*
D03*
Y20689D02*
D03*
Y20886D02*
D03*
Y21083D02*
D03*
Y21280D02*
D03*
Y21476D02*
D03*
Y19114D02*
D03*
Y18917D02*
D03*
Y18720D02*
D03*
Y18524D02*
D03*
X2185Y20886D02*
D03*
Y21083D02*
D03*
Y21280D02*
D03*
Y21476D02*
D03*
D103*
X4779Y29590D02*
D03*
X5921D02*
D03*
X-4211Y29650D02*
D03*
X-3069D02*
D03*
D104*
X-8604Y25624D02*
D03*
X-7796Y24816D02*
D03*
D105*
X-13650Y23171D02*
D03*
X-13610Y22029D02*
D03*
D106*
X1918Y3220D02*
D03*
X3721D02*
D03*
D107*
X-6579Y21018D02*
D03*
X-6382D02*
D03*
X-6189D02*
D03*
X-5989D02*
D03*
X-6579Y19876D02*
D03*
X-5989D02*
D03*
X-6185D02*
D03*
X-6382D02*
D03*
D108*
X-6855Y20151D02*
D03*
Y20348D02*
D03*
Y20545D02*
D03*
Y20742D02*
D03*
X-5713Y20151D02*
D03*
Y20348D02*
D03*
Y20742D02*
D03*
Y20545D02*
D03*
D109*
X-6284Y20447D02*
D03*
D110*
X-2080Y15496D02*
D03*
Y16204D02*
D03*
X3820Y21826D02*
D03*
Y22534D02*
D03*
X550Y23406D02*
D03*
Y24114D02*
D03*
X3690Y5084D02*
D03*
Y4376D02*
D03*
X3703Y5910D02*
D03*
Y6619D02*
D03*
X-7320Y19314D02*
D03*
Y18606D02*
D03*
X-7667Y20597D02*
D03*
Y19888D02*
D03*
D111*
X-4298Y2375D02*
D03*
X-4554D02*
D03*
X-4810D02*
D03*
X-5066D02*
D03*
X-5322D02*
D03*
D112*
X-3885D02*
D03*
X-5735D02*
D03*
D113*
X8670Y22815D02*
D03*
Y23565D02*
D03*
X-8661Y22853D02*
D03*
Y23603D02*
D03*
X-790Y2035D02*
D03*
Y1285D02*
D03*
D114*
X1490Y5570D02*
D03*
D115*
X2651Y6466D02*
D03*
Y6210D02*
D03*
Y5954D02*
D03*
Y5698D02*
D03*
Y5442D02*
D03*
Y5186D02*
D03*
Y4930D02*
D03*
Y4674D02*
D03*
X329D02*
D03*
Y4930D02*
D03*
Y5186D02*
D03*
Y5442D02*
D03*
Y5698D02*
D03*
Y5954D02*
D03*
Y6210D02*
D03*
Y6466D02*
D03*
D116*
X10402Y24474D02*
D03*
X10378Y23766D02*
D03*
D117*
X7031Y29281D02*
D03*
X6529Y28779D02*
D03*
D118*
X-9761Y26811D02*
D03*
X-9259Y26309D02*
D03*
D119*
X-9898Y21856D02*
D03*
X-9922Y22564D02*
D03*
D120*
X14184Y22713D02*
D03*
X14156Y21927D02*
D03*
D121*
X8122Y25112D02*
D03*
X8678Y25668D02*
D03*
D122*
X-5472Y27832D02*
D03*
X-6028Y28388D02*
D03*
D123*
X-9936Y23417D02*
D03*
X-9964Y24203D02*
D03*
D124*
X-5248Y22050D02*
D03*
X-6232D02*
D03*
D125*
X6573Y21936D02*
D03*
X-4960Y6859D02*
D03*
X-1870Y6829D02*
D03*
D126*
X6573Y19377D02*
D03*
X-4960Y4300D02*
D03*
X-1870Y4270D02*
D03*
D127*
X11750Y22857D02*
D03*
X12750Y22823D02*
D03*
X6526Y26894D02*
D03*
X7234Y26186D02*
D03*
X3160Y31980D02*
D03*
Y30980D02*
D03*
X-3170Y31000D02*
D03*
Y32000D02*
D03*
X-7224Y26176D02*
D03*
X-6516Y26884D02*
D03*
X-12310Y22813D02*
D03*
X-11310Y22847D02*
D03*
D128*
X8040Y5990D02*
D03*
Y5490D02*
D03*
Y4990D02*
D03*
Y4490D02*
D03*
X-7990Y4530D02*
D03*
Y5030D02*
D03*
Y5530D02*
D03*
Y6030D02*
D03*
D129*
X-420Y14590D02*
D03*
X580D02*
D03*
X1580D02*
D03*
X3580D02*
D03*
X2835Y1540D02*
D03*
X2047D02*
D03*
X5670Y2940D02*
D03*
X7910Y3130D02*
D03*
X-3720Y26780D02*
D03*
X1500Y25720D02*
D03*
X500Y26720D02*
D03*
Y25720D02*
D03*
X-500Y26720D02*
D03*
Y25720D02*
D03*
X-1500Y26720D02*
D03*
Y25720D02*
D03*
X7890Y880D02*
D03*
X-7290Y16520D02*
D03*
X7060Y16420D02*
D03*
X7900Y1820D02*
D03*
D130*
X4410Y1540D02*
D03*
X1260D02*
D03*
D131*
X3622D02*
D03*
D132*
X-6087Y20644D02*
D03*
Y20250D02*
D03*
X-6481Y20644D02*
D03*
Y20250D02*
D03*
D133*
X5670Y1940D02*
D03*
X-3720Y25780D02*
D03*
X-7290Y15520D02*
D03*
X7060Y15420D02*
D03*
D134*
X6910Y3130D02*
D03*
X1500Y26720D02*
D03*
X6900Y1820D02*
D03*
D135*
X-6818Y800D02*
D03*
X-2802D02*
D03*
Y2257D02*
D03*
X-6818D02*
D03*
M02*
