  999
file created by gear template generator
  0
SECTION
  2
HEADER
  9
$ACADVER
  1
AC1006
  9
$INSBASE
  10
0.0
  20
0.0
  30
0.0
  9
$EXTMIN
  10
0.0
  20
0.0
  9
$EXTMAX
  10
10000.0
  20
10000.0
  0
ENDSEC
  0
SECTION
  2
ENTITIES
  0
LINE
  8
0
  10
2.33143
  20
1.18447
  30
0
  11
2.33143
  21
1.18447
  31
0
  0
LINE
  8
0
  10
2.33143
  20
1.18447
  30
0
  11
2.33436
  21
1.18391
  31
0
  0
LINE
  8
0
  10
2.33436
  20
1.18391
  30
0
  11
2.33729
  21
1.1833
  31
0
  0
LINE
  8
0
  10
2.33729
  20
1.1833
  30
0
  11
2.34022
  21
1.18264
  31
0
  0
LINE
  8
0
  10
2.34022
  20
1.18264
  30
0
  11
2.34314
  21
1.18194
  31
0
  0
LINE
  8
0
  10
2.34314
  20
1.18194
  30
0
  11
2.34899
  21
1.18042
  31
0
  0
LINE
  8
0
  10
2.34899
  20
1.18042
  30
0
  11
2.35482
  21
1.17874
  31
0
  0
LINE
  8
0
  10
2.35482
  20
1.17874
  30
0
  11
2.36648
  21
1.175
  31
0
  0
LINE
  8
0
  10
2.36648
  20
1.175
  30
0
  11
2.3781
  21
1.17077
  31
0
  0
LINE
  8
0
  10
2.3781
  20
1.17077
  30
0
  11
2.38968
  21
1.16609
  31
0
  0
LINE
  8
0
  10
2.38968
  20
1.16609
  30
0
  11
2.40123
  21
1.161
  31
0
  0
LINE
  8
0
  10
2.40123
  20
1.161
  30
0
  11
2.41274
  21
1.15552
  31
0
  0
LINE
  8
0
  10
2.41274
  20
1.15552
  30
0
  11
2.42421
  21
1.14967
  31
0
  0
LINE
  8
0
  10
2.42421
  20
1.14967
  30
0
  11
2.43563
  21
1.14345
  31
0
  0
LINE
  8
0
  10
2.43563
  20
1.14345
  30
0
  11
2.447
  21
1.13689
  31
0
  0
LINE
  8
0
  10
2.447
  20
1.13689
  30
0
  11
2.44188
  21
1.08276
  31
0
  0
LINE
  8
0
  10
2.44188
  20
1.08276
  30
0
  11
2.42948
  21
1.07845
  31
0
  0
LINE
  8
0
  10
2.42948
  20
1.07845
  30
0
  11
2.4171
  21
1.07448
  31
0
  0
LINE
  8
0
  10
2.4171
  20
1.07448
  30
0
  11
2.40474
  21
1.07088
  31
0
  0
LINE
  8
0
  10
2.40474
  20
1.07088
  30
0
  11
2.39241
  21
1.06765
  31
0
  0
LINE
  8
0
  10
2.39241
  20
1.06765
  30
0
  11
2.38011
  21
1.06482
  31
0
  0
LINE
  8
0
  10
2.38011
  20
1.06482
  30
0
  11
2.36785
  21
1.06239
  31
0
  0
LINE
  8
0
  10
2.36785
  20
1.06239
  30
0
  11
2.35564
  21
1.06042
  31
0
  0
LINE
  8
0
  10
2.35564
  20
1.06042
  30
0
  11
2.3435
  21
1.05892
  31
0
  0
LINE
  8
0
  10
2.3435
  20
1.05892
  30
0
  11
2.33745
  21
1.05837
  31
0
  0
LINE
  8
0
  10
2.33745
  20
1.05837
  30
0
  11
2.33142
  21
1.05797
  31
0
  0
LINE
  8
0
  10
2.33142
  20
1.05797
  30
0
  11
2.32842
  21
1.05783
  31
0
  0
LINE
  8
0
  10
2.32842
  20
1.05783
  30
0
  11
2.32542
  21
1.05773
  31
0
  0
LINE
  8
0
  10
2.32542
  20
1.05773
  30
0
  11
2.32243
  21
1.05768
  31
0
  0
LINE
  8
0
  10
2.32243
  20
1.05768
  30
0
  11
2.31944
  21
1.05768
  31
0
  0
LINE
  8
0
  10
2.31944
  20
1.05768
  30
0
  11
2.30757
  21
0.99297
  31
0
  0
LINE
  8
0
  10
2.30757
  20
0.99297
  30
0
  11
2.31036
  21
0.99191
  31
0
  0
LINE
  8
0
  10
2.31036
  20
0.99191
  30
0
  11
2.31314
  21
0.9908
  31
0
  0
LINE
  8
0
  10
2.31314
  20
0.9908
  30
0
  11
2.3159
  21
0.98965
  31
0
  0
LINE
  8
0
  10
2.3159
  20
0.98965
  30
0
  11
2.31866
  21
0.98845
  31
0
  0
LINE
  8
0
  10
2.31866
  20
0.98845
  30
0
  11
2.32415
  21
0.98593
  31
0
  0
LINE
  8
0
  10
2.32415
  20
0.98593
  30
0
  11
2.32961
  21
0.98327
  31
0
  0
LINE
  8
0
  10
2.32961
  20
0.98327
  30
0
  11
2.34044
  21
0.97756
  31
0
  0
LINE
  8
0
  10
2.34044
  20
0.97756
  30
0
  11
2.35115
  21
0.97137
  31
0
  0
LINE
  8
0
  10
2.35115
  20
0.97137
  30
0
  11
2.36174
  21
0.96476
  31
0
  0
LINE
  8
0
  10
2.36174
  20
0.96476
  30
0
  11
2.37223
  21
0.95774
  31
0
  0
LINE
  8
0
  10
2.37223
  20
0.95774
  30
0
  11
2.38262
  21
0.95034
  31
0
  0
LINE
  8
0
  10
2.38262
  20
0.95034
  30
0
  11
2.39289
  21
0.94259
  31
0
  0
LINE
  8
0
  10
2.39289
  20
0.94259
  30
0
  11
2.40306
  21
0.93448
  31
0
  0
LINE
  8
0
  10
2.40306
  20
0.93448
  30
0
  11
2.41312
  21
0.92605
  31
0
  0
LINE
  8
0
  10
2.41312
  20
0.92605
  30
0
  11
2.39868
  21
0.87363
  31
0
  0
LINE
  8
0
  10
2.39868
  20
0.87363
  30
0
  11
2.38572
  21
0.87153
  31
0
  0
LINE
  8
0
  10
2.38572
  20
0.87153
  30
0
  11
2.37284
  21
0.86978
  31
0
  0
LINE
  8
0
  10
2.37284
  20
0.86978
  30
0
  11
2.36004
  21
0.86838
  31
0
  0
LINE
  8
0
  10
2.36004
  20
0.86838
  30
0
  11
2.34733
  21
0.86734
  31
0
  0
LINE
  8
0
  10
2.34733
  20
0.86734
  30
0
  11
2.33473
  21
0.86668
  31
0
  0
LINE
  8
0
  10
2.33473
  20
0.86668
  30
0
  11
2.32224
  21
0.86643
  31
0
  0
LINE
  8
0
  10
2.32224
  20
0.86643
  30
0
  11
2.30987
  21
0.8666
  31
0
  0
LINE
  8
0
  10
2.30987
  20
0.8666
  30
0
  11
2.29765
  21
0.86723
  31
0
  0
LINE
  8
0
  10
2.29765
  20
0.86723
  30
0
  11
2.2916
  21
0.86774
  31
0
  0
LINE
  8
0
  10
2.2916
  20
0.86774
  30
0
  11
2.2856
  21
0.86839
  31
0
  0
LINE
  8
0
  10
2.2856
  20
0.86839
  30
0
  11
2.28261
  21
0.86878
  31
0
  0
LINE
  8
0
  10
2.28261
  20
0.86878
  30
0
  11
2.27964
  21
0.8692
  31
0
  0
LINE
  8
0
  10
2.27964
  20
0.8692
  30
0
  11
2.27669
  21
0.86967
  31
0
  0
LINE
  8
0
  10
2.27669
  20
0.86967
  30
0
  11
2.27375
  21
0.87019
  31
0
  0
LINE
  8
0
  10
2.27375
  20
0.87019
  30
0
  11
2.25082
  21
0.80853
  31
0
  0
LINE
  8
0
  10
2.25082
  20
0.80853
  30
0
  11
2.25338
  21
0.807
  31
0
  0
LINE
  8
0
  10
2.25338
  20
0.807
  30
0
  11
2.25592
  21
0.80542
  31
0
  0
LINE
  8
0
  10
2.25592
  20
0.80542
  30
0
  11
2.25845
  21
0.8038
  31
0
  0
LINE
  8
0
  10
2.25845
  20
0.8038
  30
0
  11
2.26096
  21
0.80214
  31
0
  0
LINE
  8
0
  10
2.26096
  20
0.80214
  30
0
  11
2.26593
  21
0.79871
  31
0
  0
LINE
  8
0
  10
2.26593
  20
0.79871
  30
0
  11
2.27084
  21
0.79515
  31
0
  0
LINE
  8
0
  10
2.27084
  20
0.79515
  30
0
  11
2.28051
  21
0.78764
  31
0
  0
LINE
  8
0
  10
2.28051
  20
0.78764
  30
0
  11
2.28998
  21
0.77969
  31
0
  0
LINE
  8
0
  10
2.28998
  20
0.77969
  30
0
  11
2.29927
  21
0.77134
  31
0
  0
LINE
  8
0
  10
2.29927
  20
0.77134
  30
0
  11
2.30838
  21
0.7626
  31
0
  0
LINE
  8
0
  10
2.30838
  20
0.7626
  30
0
  11
2.31732
  21
0.75352
  31
0
  0
LINE
  8
0
  10
2.31732
  20
0.75352
  30
0
  11
2.32609
  21
0.74409
  31
0
  0
LINE
  8
0
  10
2.32609
  20
0.74409
  30
0
  11
2.3347
  21
0.73435
  31
0
  0
LINE
  8
0
  10
2.3347
  20
0.73435
  30
0
  11
2.34314
  21
0.72429
  31
0
  0
LINE
  8
0
  10
2.34314
  20
0.72429
  30
0
  11
2.31982
  21
0.67518
  31
0
  0
LINE
  8
0
  10
2.31982
  20
0.67518
  30
0
  11
2.30669
  21
0.67536
  31
0
  0
LINE
  8
0
  10
2.30669
  20
0.67536
  30
0
  11
2.2937
  21
0.67587
  31
0
  0
LINE
  8
0
  10
2.2937
  20
0.67587
  30
0
  11
2.28085
  21
0.67671
  31
0
  0
LINE
  8
0
  10
2.28085
  20
0.67671
  30
0
  11
2.26816
  21
0.6779
  31
0
  0
LINE
  8
0
  10
2.26816
  20
0.6779
  30
0
  11
2.25564
  21
0.67944
  31
0
  0
LINE
  8
0
  10
2.25564
  20
0.67944
  30
0
  11
2.24329
  21
0.68136
  31
0
  0
LINE
  8
0
  10
2.24329
  20
0.68136
  30
0
  11
2.23114
  21
0.68367
  31
0
  0
LINE
  8
0
  10
2.23114
  20
0.68367
  30
0
  11
2.21922
  21
0.68642
  31
0
  0
LINE
  8
0
  10
2.21922
  20
0.68642
  30
0
  11
2.21335
  21
0.68797
  31
0
  0
LINE
  8
0
  10
2.21335
  20
0.68797
  30
0
  11
2.20755
  21
0.68966
  31
0
  0
LINE
  8
0
  10
2.20755
  20
0.68966
  30
0
  11
2.20467
  21
0.69055
  31
0
  0
LINE
  8
0
  10
2.20467
  20
0.69055
  30
0
  11
2.20182
  21
0.69149
  31
0
  0
LINE
  8
0
  10
2.20182
  20
0.69149
  30
0
  11
2.19899
  21
0.69246
  31
0
  0
LINE
  8
0
  10
2.19899
  20
0.69246
  30
0
  11
2.19619
  21
0.69348
  31
0
  0
LINE
  8
0
  10
2.19619
  20
0.69348
  30
0
  11
2.1629
  21
0.63674
  31
0
  0
LINE
  8
0
  10
2.1629
  20
0.63674
  30
0
  11
2.16516
  21
0.63479
  31
0
  0
LINE
  8
0
  10
2.16516
  20
0.63479
  30
0
  11
2.16739
  21
0.6328
  31
0
  0
LINE
  8
0
  10
2.16739
  20
0.6328
  30
0
  11
2.16959
  21
0.63076
  31
0
  0
LINE
  8
0
  10
2.16959
  20
0.63076
  30
0
  11
2.17178
  21
0.62869
  31
0
  0
LINE
  8
0
  10
2.17178
  20
0.62869
  30
0
  11
2.17608
  21
0.62445
  31
0
  0
LINE
  8
0
  10
2.17608
  20
0.62445
  30
0
  11
2.1803
  21
0.62008
  31
0
  0
LINE
  8
0
  10
2.1803
  20
0.62008
  30
0
  11
2.18851
  21
0.61101
  31
0
  0
LINE
  8
0
  10
2.18851
  20
0.61101
  30
0
  11
2.19646
  21
0.60154
  31
0
  0
LINE
  8
0
  10
2.19646
  20
0.60154
  30
0
  11
2.20416
  21
0.5917
  31
0
  0
LINE
  8
0
  10
2.20416
  20
0.5917
  30
0
  11
2.21161
  21
0.58152
  31
0
  0
LINE
  8
0
  10
2.21161
  20
0.58152
  30
0
  11
2.21884
  21
0.57102
  31
0
  0
LINE
  8
0
  10
2.21884
  20
0.57102
  30
0
  11
2.22584
  21
0.56021
  31
0
  0
LINE
  8
0
  10
2.22584
  20
0.56021
  30
0
  11
2.23263
  21
0.54912
  31
0
  0
LINE
  8
0
  10
2.23263
  20
0.54912
  30
0
  11
2.23919
  21
0.53775
  31
0
  0
LINE
  8
0
  10
2.23919
  20
0.53775
  30
0
  11
2.2077
  21
0.49343
  31
0
  0
LINE
  8
0
  10
2.2077
  20
0.49343
  30
0
  11
2.1948
  21
0.4959
  31
0
  0
LINE
  8
0
  10
2.1948
  20
0.4959
  30
0
  11
2.1821
  21
0.49865
  31
0
  0
LINE
  8
0
  10
2.1821
  20
0.49865
  30
0
  11
2.16959
  21
0.50171
  31
0
  0
LINE
  8
0
  10
2.16959
  20
0.50171
  30
0
  11
2.1573
  21
0.50508
  31
0
  0
LINE
  8
0
  10
2.1573
  20
0.50508
  30
0
  11
2.14523
  21
0.50878
  31
0
  0
LINE
  8
0
  10
2.14523
  20
0.50878
  30
0
  11
2.1334
  21
0.51281
  31
0
  0
LINE
  8
0
  10
2.1334
  20
0.51281
  30
0
  11
2.12184
  21
0.5172
  31
0
  0
LINE
  8
0
  10
2.12184
  20
0.5172
  30
0
  11
2.11057
  21
0.52198
  31
0
  0
LINE
  8
0
  10
2.11057
  20
0.52198
  30
0
  11
2.10506
  21
0.52453
  31
0
  0
LINE
  8
0
  10
2.10506
  20
0.52453
  30
0
  11
2.09964
  21
0.52719
  31
0
  0
LINE
  8
0
  10
2.09964
  20
0.52719
  30
0
  11
2.09697
  21
0.52857
  31
0
  0
LINE
  8
0
  10
2.09697
  20
0.52857
  30
0
  11
2.09432
  21
0.52999
  31
0
  0
LINE
  8
0
  10
2.09432
  20
0.52999
  30
0
  11
2.09171
  21
0.53144
  31
0
  0
LINE
  8
0
  10
2.09171
  20
0.53144
  30
0
  11
2.08912
  21
0.53293
  31
0
  0
LINE
  8
0
  10
2.08912
  20
0.53293
  30
0
  11
2.04649
  21
0.48283
  31
0
  0
LINE
  8
0
  10
2.04649
  20
0.48283
  30
0
  11
2.04837
  21
0.48052
  31
0
  0
LINE
  8
0
  10
2.04837
  20
0.48052
  30
0
  11
2.05022
  21
0.47817
  31
0
  0
LINE
  8
0
  10
2.05022
  20
0.47817
  30
0
  11
2.05204
  21
0.47578
  31
0
  0
LINE
  8
0
  10
2.05204
  20
0.47578
  30
0
  11
2.05383
  21
0.47336
  31
0
  0
LINE
  8
0
  10
2.05383
  20
0.47336
  30
0
  11
2.05733
  21
0.46844
  31
0
  0
LINE
  8
0
  10
2.05733
  20
0.46844
  30
0
  11
2.06073
  21
0.46341
  31
0
  0
LINE
  8
0
  10
2.06073
  20
0.46341
  30
0
  11
2.06724
  21
0.45305
  31
0
  0
LINE
  8
0
  10
2.06724
  20
0.45305
  30
0
  11
2.07343
  21
0.44234
  31
0
  0
LINE
  8
0
  10
2.07343
  20
0.44234
  30
0
  11
2.0793
  21
0.43131
  31
0
  0
LINE
  8
0
  10
2.0793
  20
0.43131
  30
0
  11
2.08487
  21
0.41999
  31
0
  0
LINE
  8
0
  10
2.08487
  20
0.41999
  30
0
  11
2.09017
  21
0.40839
  31
0
  0
LINE
  8
0
  10
2.09017
  20
0.40839
  30
0
  11
2.09519
  21
0.39653
  31
0
  0
LINE
  8
0
  10
2.09519
  20
0.39653
  30
0
  11
2.09994
  21
0.38443
  31
0
  0
LINE
  8
0
  10
2.09994
  20
0.38443
  30
0
  11
2.10443
  21
0.37209
  31
0
  0
LINE
  8
0
  10
2.10443
  20
0.37209
  30
0
  11
2.06572
  21
0.33392
  31
0
  0
LINE
  8
0
  10
2.06572
  20
0.33392
  30
0
  11
2.05345
  21
0.33858
  31
0
  0
LINE
  8
0
  10
2.05345
  20
0.33858
  30
0
  11
2.04141
  21
0.34351
  31
0
  0
LINE
  8
0
  10
2.04141
  20
0.34351
  30
0
  11
2.02963
  21
0.34869
  31
0
  0
LINE
  8
0
  10
2.02963
  20
0.34869
  30
0
  11
2.01811
  21
0.35415
  31
0
  0
LINE
  8
0
  10
2.01811
  20
0.35415
  30
0
  11
2.00686
  21
0.35988
  31
0
  0
LINE
  8
0
  10
2.00686
  20
0.35988
  30
0
  11
1.99592
  21
0.3659
  31
0
  0
LINE
  8
0
  10
1.99592
  20
0.3659
  30
0
  11
1.9853
  21
0.37223
  31
0
  0
LINE
  8
0
  10
1.9853
  20
0.37223
  30
0
  11
1.97503
  21
0.3789
  31
0
  0
LINE
  8
0
  10
1.97503
  20
0.3789
  30
0
  11
1.97004
  21
0.38236
  31
0
  0
LINE
  8
0
  10
1.97004
  20
0.38236
  30
0
  11
1.96517
  21
0.38593
  31
0
  0
LINE
  8
0
  10
1.96517
  20
0.38593
  30
0
  11
1.96278
  21
0.38775
  31
0
  0
LINE
  8
0
  10
1.96278
  20
0.38775
  30
0
  11
1.96042
  21
0.3896
  31
0
  0
LINE
  8
0
  10
1.96042
  20
0.3896
  30
0
  11
1.95809
  21
0.39149
  31
0
  0
LINE
  8
0
  10
1.95809
  20
0.39149
  30
0
  11
1.9558
  21
0.39341
  31
0
  0
LINE
  8
0
  10
1.9558
  20
0.39341
  30
0
  11
1.90512
  21
0.35147
  31
0
  0
LINE
  8
0
  10
1.90512
  20
0.35147
  30
0
  11
1.90657
  21
0.34887
  31
0
  0
LINE
  8
0
  10
1.90657
  20
0.34887
  30
0
  11
1.90799
  21
0.34623
  31
0
  0
LINE
  8
0
  10
1.90799
  20
0.34623
  30
0
  11
1.90936
  21
0.34357
  31
0
  0
LINE
  8
0
  10
1.90936
  20
0.34357
  30
0
  11
1.91071
  21
0.34087
  31
0
  0
LINE
  8
0
  10
1.91071
  20
0.34087
  30
0
  11
1.91329
  21
0.33542
  31
0
  0
LINE
  8
0
  10
1.91329
  20
0.33542
  30
0
  11
1.91577
  21
0.32987
  31
0
  0
LINE
  8
0
  10
1.91577
  20
0.32987
  30
0
  11
1.92039
  21
0.31854
  31
0
  0
LINE
  8
0
  10
1.92039
  20
0.31854
  30
0
  11
1.92461
  21
0.30692
  31
0
  0
LINE
  8
0
  10
1.92461
  20
0.30692
  30
0
  11
1.92848
  21
0.29504
  31
0
  0
LINE
  8
0
  10
1.92848
  20
0.29504
  30
0
  11
1.93201
  21
0.28292
  31
0
  0
LINE
  8
0
  10
1.93201
  20
0.28292
  30
0
  11
1.9352
  21
0.27058
  31
0
  0
LINE
  8
0
  10
1.9352
  20
0.27058
  30
0
  11
1.93809
  21
0.25803
  31
0
  0
LINE
  8
0
  10
1.93809
  20
0.25803
  30
0
  11
1.94067
  21
0.24529
  31
0
  0
LINE
  8
0
  10
1.94067
  20
0.24529
  30
0
  11
1.94295
  21
0.23236
  31
0
  0
LINE
  8
0
  10
1.94295
  20
0.23236
  30
0
  11
1.8982
  21
0.20149
  31
0
  0
LINE
  8
0
  10
1.8982
  20
0.20149
  30
0
  11
1.88692
  21
0.20821
  31
0
  0
LINE
  8
0
  10
1.88692
  20
0.20821
  30
0
  11
1.87593
  21
0.21515
  31
0
  0
LINE
  8
0
  10
1.87593
  20
0.21515
  30
0
  11
1.86522
  21
0.2223
  31
0
  0
LINE
  8
0
  10
1.86522
  20
0.2223
  30
0
  11
1.85482
  21
0.22967
  31
0
  0
LINE
  8
0
  10
1.85482
  20
0.22967
  30
0
  11
1.84474
  21
0.23727
  31
0
  0
LINE
  8
0
  10
1.84474
  20
0.23727
  30
0
  11
1.83501
  21
0.2451
  31
0
  0
LINE
  8
0
  10
1.83501
  20
0.2451
  30
0
  11
1.82565
  21
0.25318
  31
0
  0
LINE
  8
0
  10
1.82565
  20
0.25318
  30
0
  11
1.8167
  21
0.26153
  31
0
  0
LINE
  8
0
  10
1.8167
  20
0.26153
  30
0
  11
1.81239
  21
0.26581
  31
0
  0
LINE
  8
0
  10
1.81239
  20
0.26581
  30
0
  11
1.80821
  21
0.27016
  31
0
  0
LINE
  8
0
  10
1.80821
  20
0.27016
  30
0
  11
1.80617
  21
0.27237
  31
0
  0
LINE
  8
0
  10
1.80617
  20
0.27237
  30
0
  11
1.80416
  21
0.27461
  31
0
  0
LINE
  8
0
  10
1.80416
  20
0.27461
  30
0
  11
1.8022
  21
0.27687
  31
0
  0
LINE
  8
0
  10
1.8022
  20
0.27687
  30
0
  11
1.80028
  21
0.27915
  31
0
  0
LINE
  8
0
  10
1.80028
  20
0.27915
  30
0
  11
1.74308
  21
0.24666
  31
0
  0
LINE
  8
0
  10
1.74308
  20
0.24666
  30
0
  11
1.74406
  21
0.24384
  31
0
  0
LINE
  8
0
  10
1.74406
  20
0.24384
  30
0
  11
1.745
  21
0.241
  31
0
  0
LINE
  8
0
  10
1.745
  20
0.241
  30
0
  11
1.74589
  21
0.23813
  31
0
  0
LINE
  8
0
  10
1.74589
  20
0.23813
  30
0
  11
1.74675
  21
0.23525
  31
0
  0
LINE
  8
0
  10
1.74675
  20
0.23525
  30
0
  11
1.74835
  21
0.22943
  31
0
  0
LINE
  8
0
  10
1.74835
  20
0.22943
  30
0
  11
1.74982
  21
0.22353
  31
0
  0
LINE
  8
0
  10
1.74982
  20
0.22353
  30
0
  11
1.7524
  21
0.21157
  31
0
  0
LINE
  8
0
  10
1.7524
  20
0.21157
  30
0
  11
1.75455
  21
0.19939
  31
0
  0
LINE
  8
0
  10
1.75455
  20
0.19939
  30
0
  11
1.75629
  21
0.18702
  31
0
  0
LINE
  8
0
  10
1.75629
  20
0.18702
  30
0
  11
1.75766
  21
0.17448
  31
0
  0
LINE
  8
0
  10
1.75766
  20
0.17448
  30
0
  11
1.75867
  21
0.16177
  31
0
  0
LINE
  8
0
  10
1.75867
  20
0.16177
  30
0
  11
1.75933
  21
0.14891
  31
0
  0
LINE
  8
0
  10
1.75933
  20
0.14891
  30
0
  11
1.75966
  21
0.13591
  31
0
  0
LINE
  8
0
  10
1.75966
  20
0.13591
  30
0
  11
1.75966
  21
0.12278
  31
0
  0
LINE
  8
0
  10
1.75966
  20
0.12278
  30
0
  11
1.71023
  21
0.10015
  31
0
  0
LINE
  8
0
  10
1.71023
  20
0.10015
  30
0
  11
1.70029
  21
0.10873
  31
0
  0
LINE
  8
0
  10
1.70029
  20
0.10873
  30
0
  11
1.69066
  21
0.11747
  31
0
  0
LINE
  8
0
  10
1.69066
  20
0.11747
  30
0
  11
1.68136
  21
0.12638
  31
0
  0
LINE
  8
0
  10
1.68136
  20
0.12638
  30
0
  11
1.6724
  21
0.13544
  31
0
  0
LINE
  8
0
  10
1.6724
  20
0.13544
  30
0
  11
1.6638
  21
0.14467
  31
0
  0
LINE
  8
0
  10
1.6638
  20
0.14467
  30
0
  11
1.65557
  21
0.15408
  31
0
  0
LINE
  8
0
  10
1.65557
  20
0.15408
  30
0
  11
1.64776
  21
0.16366
  31
0
  0
LINE
  8
0
  10
1.64776
  20
0.16366
  30
0
  11
1.64039
  21
0.17343
  31
0
  0
LINE
  8
0
  10
1.64039
  20
0.17343
  30
0
  11
1.63689
  21
0.1784
  31
0
  0
LINE
  8
0
  10
1.63689
  20
0.1784
  30
0
  11
1.63353
  21
0.18341
  31
0
  0
LINE
  8
0
  10
1.63353
  20
0.18341
  30
0
  11
1.6319
  21
0.18595
  31
0
  0
LINE
  8
0
  10
1.6319
  20
0.18595
  30
0
  11
1.63032
  21
0.18849
  31
0
  0
LINE
  8
0
  10
1.63032
  20
0.18849
  30
0
  11
1.62878
  21
0.19106
  31
0
  0
LINE
  8
0
  10
1.62878
  20
0.19106
  30
0
  11
1.62728
  21
0.19364
  31
0
  0
LINE
  8
0
  10
1.62728
  20
0.19364
  30
0
  11
1.56531
  21
0.17158
  31
0
  0
LINE
  8
0
  10
1.56531
  20
0.17158
  30
0
  11
1.56579
  21
0.16863
  31
0
  0
LINE
  8
0
  10
1.56579
  20
0.16863
  30
0
  11
1.56621
  21
0.16567
  31
0
  0
LINE
  8
0
  10
1.56621
  20
0.16567
  30
0
  11
1.5666
  21
0.16269
  31
0
  0
LINE
  8
0
  10
1.5666
  20
0.16269
  30
0
  11
1.56694
  21
0.1597
  31
0
  0
LINE
  8
0
  10
1.56694
  20
0.1597
  30
0
  11
1.56751
  21
0.15369
  31
0
  0
LINE
  8
0
  10
1.56751
  20
0.15369
  30
0
  11
1.56793
  21
0.14763
  31
0
  0
LINE
  8
0
  10
1.56793
  20
0.14763
  30
0
  11
1.5684
  21
0.1354
  31
0
  0
LINE
  8
0
  10
1.5684
  20
0.1354
  30
0
  11
1.56839
  21
0.12304
  31
0
  0
LINE
  8
0
  10
1.56839
  20
0.12304
  30
0
  11
1.56796
  21
0.11055
  31
0
  0
LINE
  8
0
  10
1.56796
  20
0.11055
  30
0
  11
1.56713
  21
0.09796
  31
0
  0
LINE
  8
0
  10
1.56713
  20
0.09796
  30
0
  11
1.56592
  21
0.08527
  31
0
  0
LINE
  8
0
  10
1.56592
  20
0.08527
  30
0
  11
1.56434
  21
0.07249
  31
0
  0
LINE
  8
0
  10
1.56434
  20
0.07249
  30
0
  11
1.5624
  21
0.05963
  31
0
  0
LINE
  8
0
  10
1.5624
  20
0.05963
  30
0
  11
1.56012
  21
0.0467
  31
0
  0
LINE
  8
0
  10
1.56012
  20
0.0467
  30
0
  11
1.50751
  21
0.033
  31
0
  0
LINE
  8
0
  10
1.50751
  20
0.033
  30
0
  11
1.49922
  21
0.04317
  31
0
  0
LINE
  8
0
  10
1.49922
  20
0.04317
  30
0
  11
1.49126
  21
0.05345
  31
0
  0
LINE
  8
0
  10
1.49126
  20
0.05345
  30
0
  11
1.48364
  21
0.06384
  31
0
  0
LINE
  8
0
  10
1.48364
  20
0.06384
  30
0
  11
1.47639
  21
0.07432
  31
0
  0
LINE
  8
0
  10
1.47639
  20
0.07432
  30
0
  11
1.46952
  21
0.08491
  31
0
  0
LINE
  8
0
  10
1.46952
  20
0.08491
  30
0
  11
1.46305
  21
0.0956
  31
0
  0
LINE
  8
0
  10
1.46305
  20
0.0956
  30
0
  11
1.45702
  21
0.10639
  31
0
  0
LINE
  8
0
  10
1.45702
  20
0.10639
  30
0
  11
1.45146
  21
0.11729
  31
0
  0
LINE
  8
0
  10
1.45146
  20
0.11729
  30
0
  11
1.44888
  21
0.12279
  31
0
  0
LINE
  8
0
  10
1.44888
  20
0.12279
  30
0
  11
1.44644
  21
0.12831
  31
0
  0
LINE
  8
0
  10
1.44644
  20
0.12831
  30
0
  11
1.44528
  21
0.13109
  31
0
  0
LINE
  8
0
  10
1.44528
  20
0.13109
  30
0
  11
1.44416
  21
0.13387
  31
0
  0
LINE
  8
0
  10
1.44416
  20
0.13387
  30
0
  11
1.44309
  21
0.13667
  31
0
  0
LINE
  8
0
  10
1.44309
  20
0.13667
  30
0
  11
1.44206
  21
0.13947
  31
0
  0
LINE
  8
0
  10
1.44206
  20
0.13947
  30
0
  11
1.3772
  21
0.1285
  31
0
  0
LINE
  8
0
  10
1.3772
  20
0.1285
  30
0
  11
1.37716
  21
0.12552
  31
0
  0
LINE
  8
0
  10
1.37716
  20
0.12552
  30
0
  11
1.37707
  21
0.12253
  31
0
  0
LINE
  8
0
  10
1.37707
  20
0.12253
  30
0
  11
1.37693
  21
0.11953
  31
0
  0
LINE
  8
0
  10
1.37693
  20
0.11953
  30
0
  11
1.37674
  21
0.11653
  31
0
  0
LINE
  8
0
  10
1.37674
  20
0.11653
  30
0
  11
1.37626
  21
0.11051
  31
0
  0
LINE
  8
0
  10
1.37626
  20
0.11051
  30
0
  11
1.37562
  21
0.10447
  31
0
  0
LINE
  8
0
  10
1.37562
  20
0.10447
  30
0
  11
1.37396
  21
0.09234
  31
0
  0
LINE
  8
0
  10
1.37396
  20
0.09234
  30
0
  11
1.37181
  21
0.08016
  31
0
  0
LINE
  8
0
  10
1.37181
  20
0.08016
  30
0
  11
1.36922
  21
0.06794
  31
0
  0
LINE
  8
0
  10
1.36922
  20
0.06794
  30
0
  11
1.36621
  21
0.05569
  31
0
  0
LINE
  8
0
  10
1.36621
  20
0.05569
  30
0
  11
1.36281
  21
0.0434
  31
0
  0
LINE
  8
0
  10
1.36281
  20
0.0434
  30
0
  11
1.35904
  21
0.03109
  31
0
  0
LINE
  8
0
  10
1.35904
  20
0.03109
  30
0
  11
1.3549
  21
0.01876
  31
0
  0
LINE
  8
0
  10
1.3549
  20
0.01876
  30
0
  11
1.35041
  21
0.00643
  31
0
  0
LINE
  8
0
  10
1.35041
  20
0.00643
  30
0
  11
1.29622
  21
0.00207
  31
0
  0
LINE
  8
0
  10
1.29622
  20
0.00207
  30
0
  11
1.28981
  21
0.01353
  31
0
  0
LINE
  8
0
  10
1.28981
  20
0.01353
  30
0
  11
1.28376
  21
0.02503
  31
0
  0
LINE
  8
0
  10
1.28376
  20
0.02503
  30
0
  11
1.27806
  21
0.03658
  31
0
  0
LINE
  8
0
  10
1.27806
  20
0.03658
  30
0
  11
1.27274
  21
0.04816
  31
0
  0
LINE
  8
0
  10
1.27274
  20
0.04816
  30
0
  11
1.26782
  21
0.05978
  31
0
  0
LINE
  8
0
  10
1.26782
  20
0.05978
  30
0
  11
1.2633
  21
0.07143
  31
0
  0
LINE
  8
0
  10
1.2633
  20
0.07143
  30
0
  11
1.25924
  21
0.08311
  31
0
  0
LINE
  8
0
  10
1.25924
  20
0.08311
  30
0
  11
1.25565
  21
0.09481
  31
0
  0
LINE
  8
0
  10
1.25565
  20
0.09481
  30
0
  11
1.25406
  21
0.10067
  31
0
  0
LINE
  8
0
  10
1.25406
  20
0.10067
  30
0
  11
1.25262
  21
0.10654
  31
0
  0
LINE
  8
0
  10
1.25262
  20
0.10654
  30
0
  11
1.25196
  21
0.10947
  31
0
  0
LINE
  8
0
  10
1.25196
  20
0.10947
  30
0
  11
1.25134
  21
0.11241
  31
0
  0
LINE
  8
0
  10
1.25134
  20
0.11241
  30
0
  11
1.25077
  21
0.11535
  31
0
  0
LINE
  8
0
  10
1.25077
  20
0.11535
  30
0
  11
1.25025
  21
0.11829
  31
0
  0
LINE
  8
0
  10
1.25025
  20
0.11829
  30
0
  11
1.18447
  21
0.11875
  31
0
  0
LINE
  8
0
  10
1.18447
  20
0.11875
  30
0
  11
1.18391
  21
0.11582
  31
0
  0
LINE
  8
0
  10
1.18391
  20
0.11582
  30
0
  11
1.1833
  21
0.11289
  31
0
  0
LINE
  8
0
  10
1.1833
  20
0.11289
  30
0
  11
1.18264
  21
0.10996
  31
0
  0
LINE
  8
0
  10
1.18264
  20
0.10996
  30
0
  11
1.18194
  21
0.10703
  31
0
  0
LINE
  8
0
  10
1.18194
  20
0.10703
  30
0
  11
1.18042
  21
0.10119
  31
0
  0
LINE
  8
0
  10
1.18042
  20
0.10119
  30
0
  11
1.17874
  21
0.09535
  31
0
  0
LINE
  8
0
  10
1.17874
  20
0.09535
  30
0
  11
1.175
  21
0.0837
  31
0
  0
LINE
  8
0
  10
1.175
  20
0.0837
  30
0
  11
1.17077
  21
0.07208
  31
0
  0
LINE
  8
0
  10
1.17077
  20
0.07208
  30
0
  11
1.16609
  21
0.06049
  31
0
  0
LINE
  8
0
  10
1.16609
  20
0.06049
  30
0
  11
1.161
  21
0.04895
  31
0
  0
LINE
  8
0
  10
1.161
  20
0.04895
  30
0
  11
1.15552
  21
0.03744
  31
0
  0
LINE
  8
0
  10
1.15552
  20
0.03744
  30
0
  11
1.14967
  21
0.02597
  31
0
  0
LINE
  8
0
  10
1.14967
  20
0.02597
  30
0
  11
1.14345
  21
0.01455
  31
0
  0
LINE
  8
0
  10
1.14345
  20
0.01455
  30
0
  11
1.13689
  21
0.00318
  31
0
  0
LINE
  8
0
  10
1.13689
  20
0.00318
  30
0
  11
1.08276
  21
0.0083
  31
0
  0
LINE
  8
0
  10
1.08276
  20
0.0083
  30
0
  11
1.07845
  21
0.02069
  31
0
  0
LINE
  8
0
  10
1.07845
  20
0.02069
  30
0
  11
1.07448
  21
0.03308
  31
0
  0
LINE
  8
0
  10
1.07448
  20
0.03308
  30
0
  11
1.07088
  21
0.04544
  31
0
  0
LINE
  8
0
  10
1.07088
  20
0.04544
  30
0
  11
1.06765
  21
0.05777
  31
0
  0
LINE
  8
0
  10
1.06765
  20
0.05777
  30
0
  11
1.06482
  21
0.07007
  31
0
  0
LINE
  8
0
  10
1.06482
  20
0.07007
  30
0
  11
1.06239
  21
0.08232
  31
0
  0
LINE
  8
0
  10
1.06239
  20
0.08232
  30
0
  11
1.06042
  21
0.09453
  31
0
  0
LINE
  8
0
  10
1.06042
  20
0.09453
  30
0
  11
1.05892
  21
0.10668
  31
0
  0
LINE
  8
0
  10
1.05892
  20
0.10668
  30
0
  11
1.05837
  21
0.11273
  31
0
  0
LINE
  8
0
  10
1.05837
  20
0.11273
  30
0
  11
1.05797
  21
0.11875
  31
0
  0
LINE
  8
0
  10
1.05797
  20
0.11875
  30
0
  11
1.05783
  21
0.12176
  31
0
  0
LINE
  8
0
  10
1.05783
  20
0.12176
  30
0
  11
1.05773
  21
0.12476
  31
0
  0
LINE
  8
0
  10
1.05773
  20
0.12476
  30
0
  11
1.05768
  21
0.12775
  31
0
  0
LINE
  8
0
  10
1.05768
  20
0.12775
  30
0
  11
1.05768
  21
0.13073
  31
0
  0
LINE
  8
0
  10
1.05768
  20
0.13073
  30
0
  11
0.99297
  21
0.14261
  31
0
  0
LINE
  8
0
  10
0.99297
  20
0.14261
  30
0
  11
0.99191
  21
0.13982
  31
0
  0
LINE
  8
0
  10
0.99191
  20
0.13982
  30
0
  11
0.9908
  21
0.13704
  31
0
  0
LINE
  8
0
  10
0.9908
  20
0.13704
  30
0
  11
0.98965
  21
0.13427
  31
0
  0
LINE
  8
0
  10
0.98965
  20
0.13427
  30
0
  11
0.98845
  21
0.13151
  31
0
  0
LINE
  8
0
  10
0.98845
  20
0.13151
  30
0
  11
0.98593
  21
0.12602
  31
0
  0
LINE
  8
0
  10
0.98593
  20
0.12602
  30
0
  11
0.98327
  21
0.12056
  31
0
  0
LINE
  8
0
  10
0.98327
  20
0.12056
  30
0
  11
0.97756
  21
0.10974
  31
0
  0
LINE
  8
0
  10
0.97756
  20
0.10974
  30
0
  11
0.97137
  21
0.09903
  31
0
  0
LINE
  8
0
  10
0.97137
  20
0.09903
  30
0
  11
0.96476
  21
0.08843
  31
0
  0
LINE
  8
0
  10
0.96476
  20
0.08843
  30
0
  11
0.95774
  21
0.07794
  31
0
  0
LINE
  8
0
  10
0.95774
  20
0.07794
  30
0
  11
0.95034
  21
0.06756
  31
0
  0
LINE
  8
0
  10
0.95034
  20
0.06756
  30
0
  11
0.94259
  21
0.05728
  31
0
  0
LINE
  8
0
  10
0.94259
  20
0.05728
  30
0
  11
0.93448
  21
0.04712
  31
0
  0
LINE
  8
0
  10
0.93448
  20
0.04712
  30
0
  11
0.92605
  21
0.03706
  31
0
  0
LINE
  8
0
  10
0.92605
  20
0.03706
  30
0
  11
0.87363
  21
0.0515
  31
0
  0
LINE
  8
0
  10
0.87363
  20
0.0515
  30
0
  11
0.87153
  21
0.06446
  31
0
  0
LINE
  8
0
  10
0.87153
  20
0.06446
  30
0
  11
0.86978
  21
0.07734
  31
0
  0
LINE
  8
0
  10
0.86978
  20
0.07734
  30
0
  11
0.86838
  21
0.09014
  31
0
  0
LINE
  8
0
  10
0.86838
  20
0.09014
  30
0
  11
0.86734
  21
0.10284
  31
0
  0
LINE
  8
0
  10
0.86734
  20
0.10284
  30
0
  11
0.86668
  21
0.11545
  31
0
  0
LINE
  8
0
  10
0.86668
  20
0.11545
  30
0
  11
0.86643
  21
0.12794
  31
0
  0
LINE
  8
0
  10
0.86643
  20
0.12794
  30
0
  11
0.8666
  21
0.1403
  31
0
  0
LINE
  8
0
  10
0.8666
  20
0.1403
  30
0
  11
0.86723
  21
0.15252
  31
0
  0
LINE
  8
0
  10
0.86723
  20
0.15252
  30
0
  11
0.86774
  21
0.15857
  31
0
  0
LINE
  8
0
  10
0.86774
  20
0.15857
  30
0
  11
0.86839
  21
0.16458
  31
0
  0
LINE
  8
0
  10
0.86839
  20
0.16458
  30
0
  11
0.86878
  21
0.16756
  31
0
  0
LINE
  8
0
  10
0.86878
  20
0.16756
  30
0
  11
0.8692
  21
0.17053
  31
0
  0
LINE
  8
0
  10
0.8692
  20
0.17053
  30
0
  11
0.86967
  21
0.17349
  31
0
  0
LINE
  8
0
  10
0.86967
  20
0.17349
  30
0
  11
0.87019
  21
0.17643
  31
0
  0
LINE
  8
0
  10
0.87019
  20
0.17643
  30
0
  11
0.80853
  21
0.19936
  31
0
  0
LINE
  8
0
  10
0.80853
  20
0.19936
  30
0
  11
0.807
  21
0.1968
  31
0
  0
LINE
  8
0
  10
0.807
  20
0.1968
  30
0
  11
0.80542
  21
0.19425
  31
0
  0
LINE
  8
0
  10
0.80542
  20
0.19425
  30
0
  11
0.8038
  21
0.19173
  31
0
  0
LINE
  8
0
  10
0.8038
  20
0.19173
  30
0
  11
0.80214
  21
0.18922
  31
0
  0
LINE
  8
0
  10
0.80214
  20
0.18922
  30
0
  11
0.79871
  21
0.18425
  31
0
  0
LINE
  8
0
  10
0.79871
  20
0.18425
  30
0
  11
0.79515
  21
0.17933
  31
0
  0
LINE
  8
0
  10
0.79515
  20
0.17933
  30
0
  11
0.78764
  21
0.16967
  31
0
  0
LINE
  8
0
  10
0.78764
  20
0.16967
  30
0
  11
0.77969
  21
0.16019
  31
0
  0
LINE
  8
0
  10
0.77969
  20
0.16019
  30
0
  11
0.77134
  21
0.15091
  31
0
  0
LINE
  8
0
  10
0.77134
  20
0.15091
  30
0
  11
0.7626
  21
0.14179
  31
0
  0
LINE
  8
0
  10
0.7626
  20
0.14179
  30
0
  11
0.75352
  21
0.13285
  31
0
  0
LINE
  8
0
  10
0.75352
  20
0.13285
  30
0
  11
0.74409
  21
0.12408
  31
0
  0
LINE
  8
0
  10
0.74409
  20
0.12408
  30
0
  11
0.73435
  21
0.11548
  31
0
  0
LINE
  8
0
  10
0.73435
  20
0.11548
  30
0
  11
0.72429
  21
0.10704
  31
0
  0
LINE
  8
0
  10
0.72429
  20
0.10704
  30
0
  11
0.67518
  21
0.13035
  31
0
  0
LINE
  8
0
  10
0.67518
  20
0.13035
  30
0
  11
0.67536
  21
0.14348
  31
0
  0
LINE
  8
0
  10
0.67536
  20
0.14348
  30
0
  11
0.67587
  21
0.15647
  31
0
  0
LINE
  8
0
  10
0.67587
  20
0.15647
  30
0
  11
0.67671
  21
0.16932
  31
0
  0
LINE
  8
0
  10
0.67671
  20
0.16932
  30
0
  11
0.6779
  21
0.18201
  31
0
  0
LINE
  8
0
  10
0.6779
  20
0.18201
  30
0
  11
0.67944
  21
0.19454
  31
0
  0
LINE
  8
0
  10
0.67944
  20
0.19454
  30
0
  11
0.68136
  21
0.20689
  31
0
  0
LINE
  8
0
  10
0.68136
  20
0.20689
  30
0
  11
0.68367
  21
0.21903
  31
0
  0
LINE
  8
0
  10
0.68367
  20
0.21903
  30
0
  11
0.68642
  21
0.23096
  31
0
  0
LINE
  8
0
  10
0.68642
  20
0.23096
  30
0
  11
0.68797
  21
0.23683
  31
0
  0
LINE
  8
0
  10
0.68797
  20
0.23683
  30
0
  11
0.68966
  21
0.24263
  31
0
  0
LINE
  8
0
  10
0.68966
  20
0.24263
  30
0
  11
0.69055
  21
0.2455
  31
0
  0
LINE
  8
0
  10
0.69055
  20
0.2455
  30
0
  11
0.69149
  21
0.24835
  31
0
  0
LINE
  8
0
  10
0.69149
  20
0.24835
  30
0
  11
0.69246
  21
0.25118
  31
0
  0
LINE
  8
0
  10
0.69246
  20
0.25118
  30
0
  11
0.69348
  21
0.25399
  31
0
  0
LINE
  8
0
  10
0.69348
  20
0.25399
  30
0
  11
0.63674
  21
0.28728
  31
0
  0
LINE
  8
0
  10
0.63674
  20
0.28728
  30
0
  11
0.63479
  21
0.28502
  31
0
  0
LINE
  8
0
  10
0.63479
  20
0.28502
  30
0
  11
0.6328
  21
0.28279
  31
0
  0
LINE
  8
0
  10
0.6328
  20
0.28279
  30
0
  11
0.63076
  21
0.28058
  31
0
  0
LINE
  8
0
  10
0.63076
  20
0.28058
  30
0
  11
0.62869
  21
0.2784
  31
0
  0
LINE
  8
0
  10
0.62869
  20
0.2784
  30
0
  11
0.62445
  21
0.2741
  31
0
  0
LINE
  8
0
  10
0.62445
  20
0.2741
  30
0
  11
0.62008
  21
0.26988
  31
0
  0
LINE
  8
0
  10
0.62008
  20
0.26988
  30
0
  11
0.61101
  21
0.26166
  31
0
  0
LINE
  8
0
  10
0.61101
  20
0.26166
  30
0
  11
0.60154
  21
0.25371
  31
0
  0
LINE
  8
0
  10
0.60154
  20
0.25371
  30
0
  11
0.5917
  21
0.24602
  31
0
  0
LINE
  8
0
  10
0.5917
  20
0.24602
  30
0
  11
0.58152
  21
0.23856
  31
0
  0
LINE
  8
0
  10
0.58152
  20
0.23856
  30
0
  11
0.57102
  21
0.23133
  31
0
  0
LINE
  8
0
  10
0.57102
  20
0.23133
  30
0
  11
0.56021
  21
0.22433
  31
0
  0
LINE
  8
0
  10
0.56021
  20
0.22433
  30
0
  11
0.54912
  21
0.21755
  31
0
  0
LINE
  8
0
  10
0.54912
  20
0.21755
  30
0
  11
0.53775
  21
0.21098
  31
0
  0
LINE
  8
0
  10
0.53775
  20
0.21098
  30
0
  11
0.49343
  21
0.24248
  31
0
  0
LINE
  8
0
  10
0.49343
  20
0.24248
  30
0
  11
0.4959
  21
0.25537
  31
0
  0
LINE
  8
0
  10
0.4959
  20
0.25537
  30
0
  11
0.49865
  21
0.26808
  31
0
  0
LINE
  8
0
  10
0.49865
  20
0.26808
  30
0
  11
0.50171
  21
0.28059
  31
0
  0
LINE
  8
0
  10
0.50171
  20
0.28059
  30
0
  11
0.50508
  21
0.29288
  31
0
  0
LINE
  8
0
  10
0.50508
  20
0.29288
  30
0
  11
0.50878
  21
0.30495
  31
0
  0
LINE
  8
0
  10
0.50878
  20
0.30495
  30
0
  11
0.51281
  21
0.31677
  31
0
  0
LINE
  8
0
  10
0.51281
  20
0.31677
  30
0
  11
0.5172
  21
0.32833
  31
0
  0
LINE
  8
0
  10
0.5172
  20
0.32833
  30
0
  11
0.52198
  21
0.3396
  31
0
  0
LINE
  8
0
  10
0.52198
  20
0.3396
  30
0
  11
0.52453
  21
0.34511
  31
0
  0
LINE
  8
0
  10
0.52453
  20
0.34511
  30
0
  11
0.52719
  21
0.35053
  31
0
  0
LINE
  8
0
  10
0.52719
  20
0.35053
  30
0
  11
0.52857
  21
0.3532
  31
0
  0
LINE
  8
0
  10
0.52857
  20
0.3532
  30
0
  11
0.52999
  21
0.35585
  31
0
  0
LINE
  8
0
  10
0.52999
  20
0.35585
  30
0
  11
0.53144
  21
0.35847
  31
0
  0
LINE
  8
0
  10
0.53144
  20
0.35847
  30
0
  11
0.53293
  21
0.36105
  31
0
  0
LINE
  8
0
  10
0.53293
  20
0.36105
  30
0
  11
0.48283
  21
0.40369
  31
0
  0
LINE
  8
0
  10
0.48283
  20
0.40369
  30
0
  11
0.48052
  21
0.4018
  31
0
  0
LINE
  8
0
  10
0.48052
  20
0.4018
  30
0
  11
0.47817
  21
0.39995
  31
0
  0
LINE
  8
0
  10
0.47817
  20
0.39995
  30
0
  11
0.47578
  21
0.39813
  31
0
  0
LINE
  8
0
  10
0.47578
  20
0.39813
  30
0
  11
0.47336
  21
0.39634
  31
0
  0
LINE
  8
0
  10
0.47336
  20
0.39634
  30
0
  11
0.46844
  21
0.39285
  31
0
  0
LINE
  8
0
  10
0.46844
  20
0.39285
  30
0
  11
0.46341
  21
0.38945
  31
0
  0
LINE
  8
0
  10
0.46341
  20
0.38945
  30
0
  11
0.45305
  21
0.38293
  31
0
  0
LINE
  8
0
  10
0.45305
  20
0.38293
  30
0
  11
0.44234
  21
0.37675
  31
0
  0
LINE
  8
0
  10
0.44234
  20
0.37675
  30
0
  11
0.43131
  21
0.37088
  31
0
  0
LINE
  8
0
  10
0.43131
  20
0.37088
  30
0
  11
0.41999
  21
0.3653
  31
0
  0
LINE
  8
0
  10
0.41999
  20
0.3653
  30
0
  11
0.40839
  21
0.36001
  31
0
  0
LINE
  8
0
  10
0.40839
  20
0.36001
  30
0
  11
0.39653
  21
0.35499
  31
0
  0
LINE
  8
0
  10
0.39653
  20
0.35499
  30
0
  11
0.38443
  21
0.35024
  31
0
  0
LINE
  8
0
  10
0.38443
  20
0.35024
  30
0
  11
0.37209
  21
0.34575
  31
0
  0
LINE
  8
0
  10
0.37209
  20
0.34575
  30
0
  11
0.33392
  21
0.38446
  31
0
  0
LINE
  8
0
  10
0.33392
  20
0.38446
  30
0
  11
0.33858
  21
0.39673
  31
0
  0
LINE
  8
0
  10
0.33858
  20
0.39673
  30
0
  11
0.34351
  21
0.40876
  31
0
  0
LINE
  8
0
  10
0.34351
  20
0.40876
  30
0
  11
0.34869
  21
0.42055
  31
0
  0
LINE
  8
0
  10
0.34869
  20
0.42055
  30
0
  11
0.35415
  21
0.43207
  31
0
  0
LINE
  8
0
  10
0.35415
  20
0.43207
  30
0
  11
0.35988
  21
0.44331
  31
0
  0
LINE
  8
0
  10
0.35988
  20
0.44331
  30
0
  11
0.3659
  21
0.45426
  31
0
  0
LINE
  8
0
  10
0.3659
  20
0.45426
  30
0
  11
0.37223
  21
0.46488
  31
0
  0
LINE
  8
0
  10
0.37223
  20
0.46488
  30
0
  11
0.3789
  21
0.47515
  31
0
  0
LINE
  8
0
  10
0.3789
  20
0.47515
  30
0
  11
0.38236
  21
0.48013
  31
0
  0
LINE
  8
0
  10
0.38236
  20
0.48013
  30
0
  11
0.38593
  21
0.48501
  31
0
  0
LINE
  8
0
  10
0.38593
  20
0.48501
  30
0
  11
0.38775
  21
0.4874
  31
0
  0
LINE
  8
0
  10
0.38775
  20
0.4874
  30
0
  11
0.3896
  21
0.48976
  31
0
  0
LINE
  8
0
  10
0.3896
  20
0.48976
  30
0
  11
0.39149
  21
0.49209
  31
0
  0
LINE
  8
0
  10
0.39149
  20
0.49209
  30
0
  11
0.39341
  21
0.49437
  31
0
  0
LINE
  8
0
  10
0.39341
  20
0.49437
  30
0
  11
0.35147
  21
0.54506
  31
0
  0
LINE
  8
0
  10
0.35147
  20
0.54506
  30
0
  11
0.34887
  21
0.5436
  31
0
  0
LINE
  8
0
  10
0.34887
  20
0.5436
  30
0
  11
0.34623
  21
0.54219
  31
0
  0
LINE
  8
0
  10
0.34623
  20
0.54219
  30
0
  11
0.34357
  21
0.54081
  31
0
  0
LINE
  8
0
  10
0.34357
  20
0.54081
  30
0
  11
0.34087
  21
0.53947
  31
0
  0
LINE
  8
0
  10
0.34087
  20
0.53947
  30
0
  11
0.33542
  21
0.53688
  31
0
  0
LINE
  8
0
  10
0.33542
  20
0.53688
  30
0
  11
0.32987
  21
0.53441
  31
0
  0
LINE
  8
0
  10
0.32987
  20
0.53441
  30
0
  11
0.31854
  21
0.52979
  31
0
  0
LINE
  8
0
  10
0.31854
  20
0.52979
  30
0
  11
0.30692
  21
0.52556
  31
0
  0
LINE
  8
0
  10
0.30692
  20
0.52556
  30
0
  11
0.29504
  21
0.52169
  31
0
  0
LINE
  8
0
  10
0.29504
  20
0.52169
  30
0
  11
0.28292
  21
0.51817
  31
0
  0
LINE
  8
0
  10
0.28292
  20
0.51817
  30
0
  11
0.27058
  21
0.51497
  31
0
  0
LINE
  8
0
  10
0.27058
  20
0.51497
  30
0
  11
0.25803
  21
0.51209
  31
0
  0
LINE
  8
0
  10
0.25803
  20
0.51209
  30
0
  11
0.24529
  21
0.50951
  31
0
  0
LINE
  8
0
  10
0.24529
  20
0.50951
  30
0
  11
0.23236
  21
0.50723
  31
0
  0
LINE
  8
0
  10
0.23236
  20
0.50723
  30
0
  11
0.20149
  21
0.55198
  31
0
  0
LINE
  8
0
  10
0.20149
  20
0.55198
  30
0
  11
0.20821
  21
0.56325
  31
0
  0
LINE
  8
0
  10
0.20821
  20
0.56325
  30
0
  11
0.21515
  21
0.57425
  31
0
  0
LINE
  8
0
  10
0.21515
  20
0.57425
  30
0
  11
0.2223
  21
0.58495
  31
0
  0
LINE
  8
0
  10
0.2223
  20
0.58495
  30
0
  11
0.22967
  21
0.59535
  31
0
  0
LINE
  8
0
  10
0.22967
  20
0.59535
  30
0
  11
0.23727
  21
0.60543
  31
0
  0
LINE
  8
0
  10
0.23727
  20
0.60543
  30
0
  11
0.2451
  21
0.61516
  31
0
  0
LINE
  8
0
  10
0.2451
  20
0.61516
  30
0
  11
0.25318
  21
0.62453
  31
0
  0
LINE
  8
0
  10
0.25318
  20
0.62453
  30
0
  11
0.26153
  21
0.63348
  31
0
  0
LINE
  8
0
  10
0.26153
  20
0.63348
  30
0
  11
0.26581
  21
0.63779
  31
0
  0
LINE
  8
0
  10
0.26581
  20
0.63779
  30
0
  11
0.27016
  21
0.64197
  31
0
  0
LINE
  8
0
  10
0.27016
  20
0.64197
  30
0
  11
0.27237
  21
0.64401
  31
0
  0
LINE
  8
0
  10
0.27237
  20
0.64401
  30
0
  11
0.27461
  21
0.64601
  31
0
  0
LINE
  8
0
  10
0.27461
  20
0.64601
  30
0
  11
0.27687
  21
0.64797
  31
0
  0
LINE
  8
0
  10
0.27687
  20
0.64797
  30
0
  11
0.27915
  21
0.64989
  31
0
  0
LINE
  8
0
  10
0.27915
  20
0.64989
  30
0
  11
0.24666
  21
0.70709
  31
0
  0
LINE
  8
0
  10
0.24666
  20
0.70709
  30
0
  11
0.24384
  21
0.70611
  31
0
  0
LINE
  8
0
  10
0.24384
  20
0.70611
  30
0
  11
0.241
  21
0.70518
  31
0
  0
LINE
  8
0
  10
0.241
  20
0.70518
  30
0
  11
0.23813
  21
0.70428
  31
0
  0
LINE
  8
0
  10
0.23813
  20
0.70428
  30
0
  11
0.23525
  21
0.70343
  31
0
  0
LINE
  8
0
  10
0.23525
  20
0.70343
  30
0
  11
0.22943
  21
0.70183
  31
0
  0
LINE
  8
0
  10
0.22943
  20
0.70183
  30
0
  11
0.22353
  21
0.70035
  31
0
  0
LINE
  8
0
  10
0.22353
  20
0.70035
  30
0
  11
0.21157
  21
0.69777
  31
0
  0
LINE
  8
0
  10
0.21157
  20
0.69777
  30
0
  11
0.19939
  21
0.69563
  31
0
  0
LINE
  8
0
  10
0.19939
  20
0.69563
  30
0
  11
0.18702
  21
0.69388
  31
0
  0
LINE
  8
0
  10
0.18702
  20
0.69388
  30
0
  11
0.17448
  21
0.69252
  31
0
  0
LINE
  8
0
  10
0.17448
  20
0.69252
  30
0
  11
0.16177
  21
0.69151
  31
0
  0
LINE
  8
0
  10
0.16177
  20
0.69151
  30
0
  11
0.14891
  21
0.69085
  31
0
  0
LINE
  8
0
  10
0.14891
  20
0.69085
  30
0
  11
0.13591
  21
0.69052
  31
0
  0
LINE
  8
0
  10
0.13591
  20
0.69052
  30
0
  11
0.12278
  21
0.69052
  31
0
  0
LINE
  8
0
  10
0.12278
  20
0.69052
  30
0
  11
0.10015
  21
0.73995
  31
0
  0
LINE
  8
0
  10
0.10015
  20
0.73995
  30
0
  11
0.10873
  21
0.74989
  31
0
  0
LINE
  8
0
  10
0.10873
  20
0.74989
  30
0
  11
0.11747
  21
0.75951
  31
0
  0
LINE
  8
0
  10
0.11747
  20
0.75951
  30
0
  11
0.12638
  21
0.76881
  31
0
  0
LINE
  8
0
  10
0.12638
  20
0.76881
  30
0
  11
0.13544
  21
0.77777
  31
0
  0
LINE
  8
0
  10
0.13544
  20
0.77777
  30
0
  11
0.14467
  21
0.78638
  31
0
  0
LINE
  8
0
  10
0.14467
  20
0.78638
  30
0
  11
0.15408
  21
0.7946
  31
0
  0
LINE
  8
0
  10
0.15408
  20
0.7946
  30
0
  11
0.16366
  21
0.80242
  31
0
  0
LINE
  8
0
  10
0.16366
  20
0.80242
  30
0
  11
0.17343
  21
0.80979
  31
0
  0
LINE
  8
0
  10
0.17343
  20
0.80979
  30
0
  11
0.1784
  21
0.81329
  31
0
  0
LINE
  8
0
  10
0.1784
  20
0.81329
  30
0
  11
0.18341
  21
0.81665
  31
0
  0
LINE
  8
0
  10
0.18341
  20
0.81665
  30
0
  11
0.18595
  21
0.81827
  31
0
  0
LINE
  8
0
  10
0.18595
  20
0.81827
  30
0
  11
0.18849
  21
0.81986
  31
0
  0
LINE
  8
0
  10
0.18849
  20
0.81986
  30
0
  11
0.19106
  21
0.8214
  31
0
  0
LINE
  8
0
  10
0.19106
  20
0.8214
  30
0
  11
0.19364
  21
0.82289
  31
0
  0
LINE
  8
0
  10
0.19364
  20
0.82289
  30
0
  11
0.17158
  21
0.88486
  31
0
  0
LINE
  8
0
  10
0.17158
  20
0.88486
  30
0
  11
0.16863
  21
0.88439
  31
0
  0
LINE
  8
0
  10
0.16863
  20
0.88439
  30
0
  11
0.16567
  21
0.88396
  31
0
  0
LINE
  8
0
  10
0.16567
  20
0.88396
  30
0
  11
0.16269
  21
0.88358
  31
0
  0
LINE
  8
0
  10
0.16269
  20
0.88358
  30
0
  11
0.1597
  21
0.88324
  31
0
  0
LINE
  8
0
  10
0.1597
  20
0.88324
  30
0
  11
0.15369
  21
0.88267
  31
0
  0
LINE
  8
0
  10
0.15369
  20
0.88267
  30
0
  11
0.14763
  21
0.88224
  31
0
  0
LINE
  8
0
  10
0.14763
  20
0.88224
  30
0
  11
0.1354
  21
0.88178
  31
0
  0
LINE
  8
0
  10
0.1354
  20
0.88178
  30
0
  11
0.12304
  21
0.88178
  31
0
  0
LINE
  8
0
  10
0.12304
  20
0.88178
  30
0
  11
0.11055
  21
0.88221
  31
0
  0
LINE
  8
0
  10
0.11055
  20
0.88221
  30
0
  11
0.09796
  21
0.88304
  31
0
  0
LINE
  8
0
  10
0.09796
  20
0.88304
  30
0
  11
0.08527
  21
0.88426
  31
0
  0
LINE
  8
0
  10
0.08527
  20
0.88426
  30
0
  11
0.07249
  21
0.88584
  31
0
  0
LINE
  8
0
  10
0.07249
  20
0.88584
  30
0
  11
0.05963
  21
0.88777
  31
0
  0
LINE
  8
0
  10
0.05963
  20
0.88777
  30
0
  11
0.0467
  21
0.89005
  31
0
  0
LINE
  8
0
  10
0.0467
  20
0.89005
  30
0
  11
0.033
  21
0.94266
  31
0
  0
LINE
  8
0
  10
0.033
  20
0.94266
  30
0
  11
0.04317
  21
0.95096
  31
0
  0
LINE
  8
0
  10
0.04317
  20
0.95096
  30
0
  11
0.05345
  21
0.95892
  31
0
  0
LINE
  8
0
  10
0.05345
  20
0.95892
  30
0
  11
0.06384
  21
0.96653
  31
0
  0
LINE
  8
0
  10
0.06384
  20
0.96653
  30
0
  11
0.07432
  21
0.97378
  31
0
  0
LINE
  8
0
  10
0.07432
  20
0.97378
  30
0
  11
0.08491
  21
0.98065
  31
0
  0
LINE
  8
0
  10
0.08491
  20
0.98065
  30
0
  11
0.0956
  21
0.98712
  31
0
  0
LINE
  8
0
  10
0.0956
  20
0.98712
  30
0
  11
0.10639
  21
0.99316
  31
0
  0
LINE
  8
0
  10
0.10639
  20
0.99316
  30
0
  11
0.11729
  21
0.99872
  31
0
  0
LINE
  8
0
  10
0.11729
  20
0.99872
  30
0
  11
0.12279
  21
1.0013
  31
0
  0
LINE
  8
0
  10
0.12279
  20
1.0013
  30
0
  11
0.12831
  21
1.00374
  31
0
  0
LINE
  8
0
  10
0.12831
  20
1.00374
  30
0
  11
0.13109
  21
1.0049
  31
0
  0
LINE
  8
0
  10
0.13109
  20
1.0049
  30
0
  11
0.13387
  21
1.00602
  31
0
  0
LINE
  8
0
  10
0.13387
  20
1.00602
  30
0
  11
0.13667
  21
1.00709
  31
0
  0
LINE
  8
0
  10
0.13667
  20
1.00709
  30
0
  11
0.13947
  21
1.00811
  31
0
  0
LINE
  8
0
  10
0.13947
  20
1.00811
  30
0
  11
0.1285
  21
1.07297
  31
0
  0
LINE
  8
0
  10
0.1285
  20
1.07297
  30
0
  11
0.12552
  21
1.07302
  31
0
  0
LINE
  8
0
  10
0.12552
  20
1.07302
  30
0
  11
0.12253
  21
1.07311
  31
0
  0
LINE
  8
0
  10
0.12253
  20
1.07311
  30
0
  11
0.11953
  21
1.07325
  31
0
  0
LINE
  8
0
  10
0.11953
  20
1.07325
  30
0
  11
0.11653
  21
1.07343
  31
0
  0
LINE
  8
0
  10
0.11653
  20
1.07343
  30
0
  11
0.11051
  21
1.07392
  31
0
  0
LINE
  8
0
  10
0.11051
  20
1.07392
  30
0
  11
0.10447
  21
1.07455
  31
0
  0
LINE
  8
0
  10
0.10447
  20
1.07455
  30
0
  11
0.09234
  21
1.07622
  31
0
  0
LINE
  8
0
  10
0.09234
  20
1.07622
  30
0
  11
0.08016
  21
1.07837
  31
0
  0
LINE
  8
0
  10
0.08016
  20
1.07837
  30
0
  11
0.06794
  21
1.08096
  31
0
  0
LINE
  8
0
  10
0.06794
  20
1.08096
  30
0
  11
0.05569
  21
1.08396
  31
0
  0
LINE
  8
0
  10
0.05569
  20
1.08396
  30
0
  11
0.0434
  21
1.08736
  31
0
  0
LINE
  8
0
  10
0.0434
  20
1.08736
  30
0
  11
0.03109
  21
1.09114
  31
0
  0
LINE
  8
0
  10
0.03109
  20
1.09114
  30
0
  11
0.01876
  21
1.09528
  31
0
  0
LINE
  8
0
  10
0.01876
  20
1.09528
  30
0
  11
0.00643
  21
1.09977
  31
0
  0
LINE
  8
0
  10
0.00643
  20
1.09977
  30
0
  11
0.00207
  21
1.15396
  31
0
  0
LINE
  8
0
  10
0.00207
  20
1.15396
  30
0
  11
0.01353
  21
1.16036
  31
0
  0
LINE
  8
0
  10
0.01353
  20
1.16036
  30
0
  11
0.02503
  21
1.16642
  31
0
  0
LINE
  8
0
  10
0.02503
  20
1.16642
  30
0
  11
0.03658
  21
1.17211
  31
0
  0
LINE
  8
0
  10
0.03658
  20
1.17211
  30
0
  11
0.04816
  21
1.17743
  31
0
  0
LINE
  8
0
  10
0.04816
  20
1.17743
  30
0
  11
0.05978
  21
1.18236
  31
0
  0
LINE
  8
0
  10
0.05978
  20
1.18236
  30
0
  11
0.07143
  21
1.18687
  31
0
  0
LINE
  8
0
  10
0.07143
  20
1.18687
  30
0
  11
0.08311
  21
1.19094
  31
0
  0
LINE
  8
0
  10
0.08311
  20
1.19094
  30
0
  11
0.09481
  21
1.19452
  31
0
  0
LINE
  8
0
  10
0.09481
  20
1.19452
  30
0
  11
0.10067
  21
1.19611
  31
0
  0
LINE
  8
0
  10
0.10067
  20
1.19611
  30
0
  11
0.10654
  21
1.19755
  31
0
  0
LINE
  8
0
  10
0.10654
  20
1.19755
  30
0
  11
0.10947
  21
1.19821
  31
0
  0
LINE
  8
0
  10
0.10947
  20
1.19821
  30
0
  11
0.11241
  21
1.19883
  31
0
  0
LINE
  8
0
  10
0.11241
  20
1.19883
  30
0
  11
0.11535
  21
1.1994
  31
0
  0
LINE
  8
0
  10
0.11535
  20
1.1994
  30
0
  11
0.11829
  21
1.19992
  31
0
  0
LINE
  8
0
  10
0.11829
  20
1.19992
  30
0
  11
0.11875
  21
1.2657
  31
0
  0
LINE
  8
0
  10
0.11875
  20
1.2657
  30
0
  11
0.11582
  21
1.26626
  31
0
  0
LINE
  8
0
  10
0.11582
  20
1.26626
  30
0
  11
0.11289
  21
1.26688
  31
0
  0
LINE
  8
0
  10
0.11289
  20
1.26688
  30
0
  11
0.10996
  21
1.26753
  31
0
  0
LINE
  8
0
  10
0.10996
  20
1.26753
  30
0
  11
0.10703
  21
1.26824
  31
0
  0
LINE
  8
0
  10
0.10703
  20
1.26824
  30
0
  11
0.10119
  21
1.26976
  31
0
  0
LINE
  8
0
  10
0.10119
  20
1.26976
  30
0
  11
0.09535
  21
1.27143
  31
0
  0
LINE
  8
0
  10
0.09535
  20
1.27143
  30
0
  11
0.0837
  21
1.27518
  31
0
  0
LINE
  8
0
  10
0.0837
  20
1.27518
  30
0
  11
0.07208
  21
1.27941
  31
0
  0
LINE
  8
0
  10
0.07208
  20
1.27941
  30
0
  11
0.06049
  21
1.28408
  31
0
  0
LINE
  8
0
  10
0.06049
  20
1.28408
  30
0
  11
0.04895
  21
1.28917
  31
0
  0
LINE
  8
0
  10
0.04895
  20
1.28917
  30
0
  11
0.03744
  21
1.29465
  31
0
  0
LINE
  8
0
  10
0.03744
  20
1.29465
  30
0
  11
0.02597
  21
1.30051
  31
0
  0
LINE
  8
0
  10
0.02597
  20
1.30051
  30
0
  11
0.01455
  21
1.30672
  31
0
  0
LINE
  8
0
  10
0.01455
  20
1.30672
  30
0
  11
0.00318
  21
1.31329
  31
0
  0
LINE
  8
0
  10
0.00318
  20
1.31329
  30
0
  11
0.0083
  21
1.36741
  31
0
  0
LINE
  8
0
  10
0.0083
  20
1.36741
  30
0
  11
0.02069
  21
1.37173
  31
0
  0
LINE
  8
0
  10
0.02069
  20
1.37173
  30
0
  11
0.03308
  21
1.37569
  31
0
  0
LINE
  8
0
  10
0.03308
  20
1.37569
  30
0
  11
0.04544
  21
1.3793
  31
0
  0
LINE
  8
0
  10
0.04544
  20
1.3793
  30
0
  11
0.05777
  21
1.38252
  31
0
  0
LINE
  8
0
  10
0.05777
  20
1.38252
  30
0
  11
0.07007
  21
1.38536
  31
0
  0
LINE
  8
0
  10
0.07007
  20
1.38536
  30
0
  11
0.08232
  21
1.38778
  31
0
  0
LINE
  8
0
  10
0.08232
  20
1.38778
  30
0
  11
0.09453
  21
1.38976
  31
0
  0
LINE
  8
0
  10
0.09453
  20
1.38976
  30
0
  11
0.10668
  21
1.39126
  31
0
  0
LINE
  8
0
  10
0.10668
  20
1.39126
  30
0
  11
0.11273
  21
1.3918
  31
0
  0
LINE
  8
0
  10
0.11273
  20
1.3918
  30
0
  11
0.11875
  21
1.39221
  31
0
  0
LINE
  8
0
  10
0.11875
  20
1.39221
  30
0
  11
0.12176
  21
1.39235
  31
0
  0
LINE
  8
0
  10
0.12176
  20
1.39235
  30
0
  11
0.12476
  21
1.39245
  31
0
  0
LINE
  8
0
  10
0.12476
  20
1.39245
  30
0
  11
0.12775
  21
1.3925
  31
0
  0
LINE
  8
0
  10
0.12775
  20
1.3925
  30
0
  11
0.13073
  21
1.3925
  31
0
  0
LINE
  8
0
  10
0.13073
  20
1.3925
  30
0
  11
0.14261
  21
1.4572
  31
0
  0
LINE
  8
0
  10
0.14261
  20
1.4572
  30
0
  11
0.13982
  21
1.45826
  31
0
  0
LINE
  8
0
  10
0.13982
  20
1.45826
  30
0
  11
0.13704
  21
1.45937
  31
0
  0
LINE
  8
0
  10
0.13704
  20
1.45937
  30
0
  11
0.13427
  21
1.46053
  31
0
  0
LINE
  8
0
  10
0.13427
  20
1.46053
  30
0
  11
0.13151
  21
1.46173
  31
0
  0
LINE
  8
0
  10
0.13151
  20
1.46173
  30
0
  11
0.12602
  21
1.46424
  31
0
  0
LINE
  8
0
  10
0.12602
  20
1.46424
  30
0
  11
0.12056
  21
1.4669
  31
0
  0
LINE
  8
0
  10
0.12056
  20
1.4669
  30
0
  11
0.10974
  21
1.47262
  31
0
  0
LINE
  8
0
  10
0.10974
  20
1.47262
  30
0
  11
0.09903
  21
1.4788
  31
0
  0
LINE
  8
0
  10
0.09903
  20
1.4788
  30
0
  11
0.08843
  21
1.48542
  31
0
  0
LINE
  8
0
  10
0.08843
  20
1.48542
  30
0
  11
0.07794
  21
1.49243
  31
0
  0
LINE
  8
0
  10
0.07794
  20
1.49243
  30
0
  11
0.06756
  21
1.49983
  31
0
  0
LINE
  8
0
  10
0.06756
  20
1.49983
  30
0
  11
0.05728
  21
1.50759
  31
0
  0
LINE
  8
0
  10
0.05728
  20
1.50759
  30
0
  11
0.04712
  21
1.51569
  31
0
  0
LINE
  8
0
  10
0.04712
  20
1.51569
  30
0
  11
0.03706
  21
1.52413
  31
0
  0
LINE
  8
0
  10
0.03706
  20
1.52413
  30
0
  11
0.0515
  21
1.57654
  31
0
  0
LINE
  8
0
  10
0.0515
  20
1.57654
  30
0
  11
0.06446
  21
1.57864
  31
0
  0
LINE
  8
0
  10
0.06446
  20
1.57864
  30
0
  11
0.07734
  21
1.5804
  31
0
  0
LINE
  8
0
  10
0.07734
  20
1.5804
  30
0
  11
0.09014
  21
1.5818
  31
0
  0
LINE
  8
0
  10
0.09014
  20
1.5818
  30
0
  11
0.10284
  21
1.58284
  31
0
  0
LINE
  8
0
  10
0.10284
  20
1.58284
  30
0
  11
0.11545
  21
1.58349
  31
0
  0
LINE
  8
0
  10
0.11545
  20
1.58349
  30
0
  11
0.12794
  21
1.58375
  31
0
  0
LINE
  8
0
  10
0.12794
  20
1.58375
  30
0
  11
0.1403
  21
1.58358
  31
0
  0
LINE
  8
0
  10
0.1403
  20
1.58358
  30
0
  11
0.15252
  21
1.58294
  31
0
  0
LINE
  8
0
  10
0.15252
  20
1.58294
  30
0
  11
0.15857
  21
1.58243
  31
0
  0
LINE
  8
0
  10
0.15857
  20
1.58243
  30
0
  11
0.16458
  21
1.58178
  31
0
  0
LINE
  8
0
  10
0.16458
  20
1.58178
  30
0
  11
0.16756
  21
1.5814
  31
0
  0
LINE
  8
0
  10
0.16756
  20
1.5814
  30
0
  11
0.17053
  21
1.58097
  31
0
  0
LINE
  8
0
  10
0.17053
  20
1.58097
  30
0
  11
0.17349
  21
1.5805
  31
0
  0
LINE
  8
0
  10
0.17349
  20
1.5805
  30
0
  11
0.17643
  21
1.57999
  31
0
  0
LINE
  8
0
  10
0.17643
  20
1.57999
  30
0
  11
0.19936
  21
1.64165
  31
0
  0
LINE
  8
0
  10
0.19936
  20
1.64165
  30
0
  11
0.1968
  21
1.64317
  31
0
  0
LINE
  8
0
  10
0.1968
  20
1.64317
  30
0
  11
0.19425
  21
1.64475
  31
0
  0
LINE
  8
0
  10
0.19425
  20
1.64475
  30
0
  11
0.19173
  21
1.64637
  31
0
  0
LINE
  8
0
  10
0.19173
  20
1.64637
  30
0
  11
0.18922
  21
1.64803
  31
0
  0
LINE
  8
0
  10
0.18922
  20
1.64803
  30
0
  11
0.18425
  21
1.65146
  31
0
  0
LINE
  8
0
  10
0.18425
  20
1.65146
  30
0
  11
0.17933
  21
1.65503
  31
0
  0
LINE
  8
0
  10
0.17933
  20
1.65503
  30
0
  11
0.16967
  21
1.66253
  31
0
  0
LINE
  8
0
  10
0.16967
  20
1.66253
  30
0
  11
0.16019
  21
1.67048
  31
0
  0
LINE
  8
0
  10
0.16019
  20
1.67048
  30
0
  11
0.15091
  21
1.67884
  31
0
  0
LINE
  8
0
  10
0.15091
  20
1.67884
  30
0
  11
0.14179
  21
1.68757
  31
0
  0
LINE
  8
0
  10
0.14179
  20
1.68757
  30
0
  11
0.13285
  21
1.69666
  31
0
  0
LINE
  8
0
  10
0.13285
  20
1.69666
  30
0
  11
0.12408
  21
1.70608
  31
0
  0
LINE
  8
0
  10
0.12408
  20
1.70608
  30
0
  11
0.11548
  21
1.71583
  31
0
  0
LINE
  8
0
  10
0.11548
  20
1.71583
  30
0
  11
0.10704
  21
1.72589
  31
0
  0
LINE
  8
0
  10
0.10704
  20
1.72589
  30
0
  11
0.13035
  21
1.775
  31
0
  0
LINE
  8
0
  10
0.13035
  20
1.775
  30
0
  11
0.14348
  21
1.77481
  31
0
  0
LINE
  8
0
  10
0.14348
  20
1.77481
  30
0
  11
0.15647
  21
1.7743
  31
0
  0
LINE
  8
0
  10
0.15647
  20
1.7743
  30
0
  11
0.16932
  21
1.77346
  31
0
  0
LINE
  8
0
  10
0.16932
  20
1.77346
  30
0
  11
0.18201
  21
1.77228
  31
0
  0
LINE
  8
0
  10
0.18201
  20
1.77228
  30
0
  11
0.19454
  21
1.77073
  31
0
  0
LINE
  8
0
  10
0.19454
  20
1.77073
  30
0
  11
0.20689
  21
1.76882
  31
0
  0
LINE
  8
0
  10
0.20689
  20
1.76882
  30
0
  11
0.21903
  21
1.7665
  31
0
  0
LINE
  8
0
  10
0.21903
  20
1.7665
  30
0
  11
0.23096
  21
1.76375
  31
0
  0
LINE
  8
0
  10
0.23096
  20
1.76375
  30
0
  11
0.23683
  21
1.7622
  31
0
  0
LINE
  8
0
  10
0.23683
  20
1.7622
  30
0
  11
0.24263
  21
1.76052
  31
0
  0
LINE
  8
0
  10
0.24263
  20
1.76052
  30
0
  11
0.2455
  21
1.75962
  31
0
  0
LINE
  8
0
  10
0.2455
  20
1.75962
  30
0
  11
0.24835
  21
1.75869
  31
0
  0
LINE
  8
0
  10
0.24835
  20
1.75869
  30
0
  11
0.25118
  21
1.75771
  31
0
  0
LINE
  8
0
  10
0.25118
  20
1.75771
  30
0
  11
0.25399
  21
1.75669
  31
0
  0
LINE
  8
0
  10
0.25399
  20
1.75669
  30
0
  11
0.28728
  21
1.81343
  31
0
  0
LINE
  8
0
  10
0.28728
  20
1.81343
  30
0
  11
0.28502
  21
1.81538
  31
0
  0
LINE
  8
0
  10
0.28502
  20
1.81538
  30
0
  11
0.28279
  21
1.81738
  31
0
  0
LINE
  8
0
  10
0.28279
  20
1.81738
  30
0
  11
0.28058
  21
1.81941
  31
0
  0
LINE
  8
0
  10
0.28058
  20
1.81941
  30
0
  11
0.2784
  21
1.82148
  31
0
  0
LINE
  8
0
  10
0.2784
  20
1.82148
  30
0
  11
0.2741
  21
1.82572
  31
0
  0
LINE
  8
0
  10
0.2741
  20
1.82572
  30
0
  11
0.26988
  21
1.83009
  31
0
  0
LINE
  8
0
  10
0.26988
  20
1.83009
  30
0
  11
0.26166
  21
1.83916
  31
0
  0
LINE
  8
0
  10
0.26166
  20
1.83916
  30
0
  11
0.25371
  21
1.84863
  31
0
  0
LINE
  8
0
  10
0.25371
  20
1.84863
  30
0
  11
0.24602
  21
1.85848
  31
0
  0
LINE
  8
0
  10
0.24602
  20
1.85848
  30
0
  11
0.23856
  21
1.86866
  31
0
  0
LINE
  8
0
  10
0.23856
  20
1.86866
  30
0
  11
0.23133
  21
1.87916
  31
0
  0
LINE
  8
0
  10
0.23133
  20
1.87916
  30
0
  11
0.22433
  21
1.88996
  31
0
  0
LINE
  8
0
  10
0.22433
  20
1.88996
  30
0
  11
0.21755
  21
1.90106
  31
0
  0
LINE
  8
0
  10
0.21755
  20
1.90106
  30
0
  11
0.21098
  21
1.91243
  31
0
  0
LINE
  8
0
  10
0.21098
  20
1.91243
  30
0
  11
0.24248
  21
1.95674
  31
0
  0
LINE
  8
0
  10
0.24248
  20
1.95674
  30
0
  11
0.25537
  21
1.95428
  31
0
  0
LINE
  8
0
  10
0.25537
  20
1.95428
  30
0
  11
0.26808
  21
1.95152
  31
0
  0
LINE
  8
0
  10
0.26808
  20
1.95152
  30
0
  11
0.28059
  21
1.94846
  31
0
  0
LINE
  8
0
  10
0.28059
  20
1.94846
  30
0
  11
0.29288
  21
1.94509
  31
0
  0
LINE
  8
0
  10
0.29288
  20
1.94509
  30
0
  11
0.30495
  21
1.9414
  31
0
  0
LINE
  8
0
  10
0.30495
  20
1.9414
  30
0
  11
0.31677
  21
1.93737
  31
0
  0
LINE
  8
0
  10
0.31677
  20
1.93737
  30
0
  11
0.32833
  21
1.93298
  31
0
  0
LINE
  8
0
  10
0.32833
  20
1.93298
  30
0
  11
0.3396
  21
1.9282
  31
0
  0
LINE
  8
0
  10
0.3396
  20
1.9282
  30
0
  11
0.34511
  21
1.92565
  31
0
  0
LINE
  8
0
  10
0.34511
  20
1.92565
  30
0
  11
0.35053
  21
1.92298
  31
0
  0
LINE
  8
0
  10
0.35053
  20
1.92298
  30
0
  11
0.3532
  21
1.9216
  31
0
  0
LINE
  8
0
  10
0.3532
  20
1.9216
  30
0
  11
0.35585
  21
1.92019
  31
0
  0
LINE
  8
0
  10
0.35585
  20
1.92019
  30
0
  11
0.35847
  21
1.91874
  31
0
  0
LINE
  8
0
  10
0.35847
  20
1.91874
  30
0
  11
0.36105
  21
1.91725
  31
0
  0
LINE
  8
0
  10
0.36105
  20
1.91725
  30
0
  11
0.40369
  21
1.96734
  31
0
  0
LINE
  8
0
  10
0.40369
  20
1.96734
  30
0
  11
0.4018
  21
1.96966
  31
0
  0
LINE
  8
0
  10
0.4018
  20
1.96966
  30
0
  11
0.39995
  21
1.97201
  31
0
  0
LINE
  8
0
  10
0.39995
  20
1.97201
  30
0
  11
0.39813
  21
1.97439
  31
0
  0
LINE
  8
0
  10
0.39813
  20
1.97439
  30
0
  11
0.39634
  21
1.97681
  31
0
  0
LINE
  8
0
  10
0.39634
  20
1.97681
  30
0
  11
0.39285
  21
1.98174
  31
0
  0
LINE
  8
0
  10
0.39285
  20
1.98174
  30
0
  11
0.38945
  21
1.98677
  31
0
  0
LINE
  8
0
  10
0.38945
  20
1.98677
  30
0
  11
0.38293
  21
1.99713
  31
0
  0
LINE
  8
0
  10
0.38293
  20
1.99713
  30
0
  11
0.37675
  21
2.00784
  31
0
  0
LINE
  8
0
  10
0.37675
  20
2.00784
  30
0
  11
0.37088
  21
2.01887
  31
0
  0
LINE
  8
0
  10
0.37088
  20
2.01887
  30
0
  11
0.3653
  21
2.03019
  31
0
  0
LINE
  8
0
  10
0.3653
  20
2.03019
  30
0
  11
0.36001
  21
2.04179
  31
0
  0
LINE
  8
0
  10
0.36001
  20
2.04179
  30
0
  11
0.35499
  21
2.05364
  31
0
  0
LINE
  8
0
  10
0.35499
  20
2.05364
  30
0
  11
0.35024
  21
2.06574
  31
0
  0
LINE
  8
0
  10
0.35024
  20
2.06574
  30
0
  11
0.34575
  21
2.07808
  31
0
  0
LINE
  8
0
  10
0.34575
  20
2.07808
  30
0
  11
0.38446
  21
2.11625
  31
0
  0
LINE
  8
0
  10
0.38446
  20
2.11625
  30
0
  11
0.39673
  21
2.11159
  31
0
  0
LINE
  8
0
  10
0.39673
  20
2.11159
  30
0
  11
0.40876
  21
2.10667
  31
0
  0
LINE
  8
0
  10
0.40876
  20
2.10667
  30
0
  11
0.42055
  21
2.10148
  31
0
  0
LINE
  8
0
  10
0.42055
  20
2.10148
  30
0
  11
0.43207
  21
2.09603
  31
0
  0
LINE
  8
0
  10
0.43207
  20
2.09603
  30
0
  11
0.44331
  21
2.0903
  31
0
  0
LINE
  8
0
  10
0.44331
  20
2.0903
  30
0
  11
0.45426
  21
2.08427
  31
0
  0
LINE
  8
0
  10
0.45426
  20
2.08427
  30
0
  11
0.46488
  21
2.07794
  31
0
  0
LINE
  8
0
  10
0.46488
  20
2.07794
  30
0
  11
0.47515
  21
2.07128
  31
0
  0
LINE
  8
0
  10
0.47515
  20
2.07128
  30
0
  11
0.48013
  21
2.06781
  31
0
  0
LINE
  8
0
  10
0.48013
  20
2.06781
  30
0
  11
0.48501
  21
2.06425
  31
0
  0
LINE
  8
0
  10
0.48501
  20
2.06425
  30
0
  11
0.4874
  21
2.06242
  31
0
  0
LINE
  8
0
  10
0.4874
  20
2.06242
  30
0
  11
0.48976
  21
2.06057
  31
0
  0
LINE
  8
0
  10
0.48976
  20
2.06057
  30
0
  11
0.49209
  21
2.05869
  31
0
  0
LINE
  8
0
  10
0.49209
  20
2.05869
  30
0
  11
0.49437
  21
2.05677
  31
0
  0
LINE
  8
0
  10
0.49437
  20
2.05677
  30
0
  11
0.54506
  21
2.0987
  31
0
  0
LINE
  8
0
  10
0.54506
  20
2.0987
  30
0
  11
0.5436
  21
2.10131
  31
0
  0
LINE
  8
0
  10
0.5436
  20
2.10131
  30
0
  11
0.54219
  21
2.10394
  31
0
  0
LINE
  8
0
  10
0.54219
  20
2.10394
  30
0
  11
0.54081
  21
2.10661
  31
0
  0
LINE
  8
0
  10
0.54081
  20
2.10661
  30
0
  11
0.53947
  21
2.1093
  31
0
  0
LINE
  8
0
  10
0.53947
  20
2.1093
  30
0
  11
0.53688
  21
2.11476
  31
0
  0
LINE
  8
0
  10
0.53688
  20
2.11476
  30
0
  11
0.53441
  21
2.12031
  31
0
  0
LINE
  8
0
  10
0.53441
  20
2.12031
  30
0
  11
0.52979
  21
2.13164
  31
0
  0
LINE
  8
0
  10
0.52979
  20
2.13164
  30
0
  11
0.52556
  21
2.14326
  31
0
  0
LINE
  8
0
  10
0.52556
  20
2.14326
  30
0
  11
0.52169
  21
2.15514
  31
0
  0
LINE
  8
0
  10
0.52169
  20
2.15514
  30
0
  11
0.51817
  21
2.16726
  31
0
  0
LINE
  8
0
  10
0.51817
  20
2.16726
  30
0
  11
0.51497
  21
2.1796
  31
0
  0
LINE
  8
0
  10
0.51497
  20
2.1796
  30
0
  11
0.51209
  21
2.19215
  31
0
  0
LINE
  8
0
  10
0.51209
  20
2.19215
  30
0
  11
0.50951
  21
2.20489
  31
0
  0
LINE
  8
0
  10
0.50951
  20
2.20489
  30
0
  11
0.50723
  21
2.21782
  31
0
  0
LINE
  8
0
  10
0.50723
  20
2.21782
  30
0
  11
0.55198
  21
2.24869
  31
0
  0
LINE
  8
0
  10
0.55198
  20
2.24869
  30
0
  11
0.56325
  21
2.24197
  31
0
  0
LINE
  8
0
  10
0.56325
  20
2.24197
  30
0
  11
0.57425
  21
2.23503
  31
0
  0
LINE
  8
0
  10
0.57425
  20
2.23503
  30
0
  11
0.58495
  21
2.22788
  31
0
  0
LINE
  8
0
  10
0.58495
  20
2.22788
  30
0
  11
0.59535
  21
2.2205
  31
0
  0
LINE
  8
0
  10
0.59535
  20
2.2205
  30
0
  11
0.60543
  21
2.21291
  31
0
  0
LINE
  8
0
  10
0.60543
  20
2.21291
  30
0
  11
0.61516
  21
2.20507
  31
0
  0
LINE
  8
0
  10
0.61516
  20
2.20507
  30
0
  11
0.62453
  21
2.19699
  31
0
  0
LINE
  8
0
  10
0.62453
  20
2.19699
  30
0
  11
0.63348
  21
2.18865
  31
0
  0
LINE
  8
0
  10
0.63348
  20
2.18865
  30
0
  11
0.63779
  21
2.18437
  31
0
  0
LINE
  8
0
  10
0.63779
  20
2.18437
  30
0
  11
0.64197
  21
2.18001
  31
0
  0
LINE
  8
0
  10
0.64197
  20
2.18001
  30
0
  11
0.64401
  21
2.1778
  31
0
  0
LINE
  8
0
  10
0.64401
  20
2.1778
  30
0
  11
0.64601
  21
2.17557
  31
0
  0
LINE
  8
0
  10
0.64601
  20
2.17557
  30
0
  11
0.64797
  21
2.17331
  31
0
  0
LINE
  8
0
  10
0.64797
  20
2.17331
  30
0
  11
0.64989
  21
2.17102
  31
0
  0
LINE
  8
0
  10
0.64989
  20
2.17102
  30
0
  11
0.70709
  21
2.20352
  31
0
  0
LINE
  8
0
  10
0.70709
  20
2.20352
  30
0
  11
0.70611
  21
2.20633
  31
0
  0
LINE
  8
0
  10
0.70611
  20
2.20633
  30
0
  11
0.70518
  21
2.20918
  31
0
  0
LINE
  8
0
  10
0.70518
  20
2.20918
  30
0
  11
0.70428
  21
2.21204
  31
0
  0
LINE
  8
0
  10
0.70428
  20
2.21204
  30
0
  11
0.70343
  21
2.21493
  31
0
  0
LINE
  8
0
  10
0.70343
  20
2.21493
  30
0
  11
0.70183
  21
2.22075
  31
0
  0
LINE
  8
0
  10
0.70183
  20
2.22075
  30
0
  11
0.70035
  21
2.22664
  31
0
  0
LINE
  8
0
  10
0.70035
  20
2.22664
  30
0
  11
0.69777
  21
2.2386
  31
0
  0
LINE
  8
0
  10
0.69777
  20
2.2386
  30
0
  11
0.69563
  21
2.25078
  31
0
  0
LINE
  8
0
  10
0.69563
  20
2.25078
  30
0
  11
0.69388
  21
2.26315
  31
0
  0
LINE
  8
0
  10
0.69388
  20
2.26315
  30
0
  11
0.69252
  21
2.2757
  31
0
  0
LINE
  8
0
  10
0.69252
  20
2.2757
  30
0
  11
0.69151
  21
2.28841
  31
0
  0
LINE
  8
0
  10
0.69151
  20
2.28841
  30
0
  11
0.69085
  21
2.30126
  31
0
  0
LINE
  8
0
  10
0.69085
  20
2.30126
  30
0
  11
0.69052
  21
2.31426
  31
0
  0
LINE
  8
0
  10
0.69052
  20
2.31426
  30
0
  11
0.69052
  21
2.32739
  31
0
  0
LINE
  8
0
  10
0.69052
  20
2.32739
  30
0
  11
0.73995
  21
2.35002
  31
0
  0
LINE
  8
0
  10
0.73995
  20
2.35002
  30
0
  11
0.74989
  21
2.34144
  31
0
  0
LINE
  8
0
  10
0.74989
  20
2.34144
  30
0
  11
0.75951
  21
2.3327
  31
0
  0
LINE
  8
0
  10
0.75951
  20
2.3327
  30
0
  11
0.76881
  21
2.3238
  31
0
  0
LINE
  8
0
  10
0.76881
  20
2.3238
  30
0
  11
0.77777
  21
2.31473
  31
0
  0
LINE
  8
0
  10
0.77777
  20
2.31473
  30
0
  11
0.78638
  21
2.3055
  31
0
  0
LINE
  8
0
  10
0.78638
  20
2.3055
  30
0
  11
0.7946
  21
2.2961
  31
0
  0
LINE
  8
0
  10
0.7946
  20
2.2961
  30
0
  11
0.80242
  21
2.28651
  31
0
  0
LINE
  8
0
  10
0.80242
  20
2.28651
  30
0
  11
0.80979
  21
2.27674
  31
0
  0
LINE
  8
0
  10
0.80979
  20
2.27674
  30
0
  11
0.81329
  21
2.27178
  31
0
  0
LINE
  8
0
  10
0.81329
  20
2.27178
  30
0
  11
0.81665
  21
2.26676
  31
0
  0
LINE
  8
0
  10
0.81665
  20
2.26676
  30
0
  11
0.81827
  21
2.26423
  31
0
  0
LINE
  8
0
  10
0.81827
  20
2.26423
  30
0
  11
0.81986
  21
2.26168
  31
0
  0
LINE
  8
0
  10
0.81986
  20
2.26168
  30
0
  11
0.8214
  21
2.25912
  31
0
  0
LINE
  8
0
  10
0.8214
  20
2.25912
  30
0
  11
0.82289
  21
2.25653
  31
0
  0
LINE
  8
0
  10
0.82289
  20
2.25653
  30
0
  11
0.88486
  21
2.2786
  31
0
  0
LINE
  8
0
  10
0.88486
  20
2.2786
  30
0
  11
0.88439
  21
2.28155
  31
0
  0
LINE
  8
0
  10
0.88439
  20
2.28155
  30
0
  11
0.88396
  21
2.28451
  31
0
  0
LINE
  8
0
  10
0.88396
  20
2.28451
  30
0
  11
0.88358
  21
2.28748
  31
0
  0
LINE
  8
0
  10
0.88358
  20
2.28748
  30
0
  11
0.88324
  21
2.29047
  31
0
  0
LINE
  8
0
  10
0.88324
  20
2.29047
  30
0
  11
0.88267
  21
2.29649
  31
0
  0
LINE
  8
0
  10
0.88267
  20
2.29649
  30
0
  11
0.88224
  21
2.30254
  31
0
  0
LINE
  8
0
  10
0.88224
  20
2.30254
  30
0
  11
0.88178
  21
2.31477
  31
0
  0
LINE
  8
0
  10
0.88178
  20
2.31477
  30
0
  11
0.88178
  21
2.32714
  31
0
  0
LINE
  8
0
  10
0.88178
  20
2.32714
  30
0
  11
0.88221
  21
2.33963
  31
0
  0
LINE
  8
0
  10
0.88221
  20
2.33963
  30
0
  11
0.88304
  21
2.35222
  31
0
  0
LINE
  8
0
  10
0.88304
  20
2.35222
  30
0
  11
0.88426
  21
2.36491
  31
0
  0
LINE
  8
0
  10
0.88426
  20
2.36491
  30
0
  11
0.88584
  21
2.37769
  31
0
  0
LINE
  8
0
  10
0.88584
  20
2.37769
  30
0
  11
0.88777
  21
2.39054
  31
0
  0
LINE
  8
0
  10
0.88777
  20
2.39054
  30
0
  11
0.89005
  21
2.40347
  31
0
  0
LINE
  8
0
  10
0.89005
  20
2.40347
  30
0
  11
0.94266
  21
2.41718
  31
0
  0
LINE
  8
0
  10
0.94266
  20
2.41718
  30
0
  11
0.95096
  21
2.407
  31
0
  0
LINE
  8
0
  10
0.95096
  20
2.407
  30
0
  11
0.95892
  21
2.39672
  31
0
  0
LINE
  8
0
  10
0.95892
  20
2.39672
  30
0
  11
0.96653
  21
2.38634
  31
0
  0
LINE
  8
0
  10
0.96653
  20
2.38634
  30
0
  11
0.97378
  21
2.37585
  31
0
  0
LINE
  8
0
  10
0.97378
  20
2.37585
  30
0
  11
0.98065
  21
2.36527
  31
0
  0
LINE
  8
0
  10
0.98065
  20
2.36527
  30
0
  11
0.98712
  21
2.35458
  31
0
  0
LINE
  8
0
  10
0.98712
  20
2.35458
  30
0
  11
0.99316
  21
2.34378
  31
0
  0
LINE
  8
0
  10
0.99316
  20
2.34378
  30
0
  11
0.99872
  21
2.33288
  31
0
  0
LINE
  8
0
  10
0.99872
  20
2.33288
  30
0
  11
1.0013
  21
2.32739
  31
0
  0
LINE
  8
0
  10
1.0013
  20
2.32739
  30
0
  11
1.00374
  21
2.32186
  31
0
  0
LINE
  8
0
  10
1.00374
  20
2.32186
  30
0
  11
1.0049
  21
2.31909
  31
0
  0
LINE
  8
0
  10
1.0049
  20
2.31909
  30
0
  11
1.00602
  21
2.3163
  31
0
  0
LINE
  8
0
  10
1.00602
  20
2.3163
  30
0
  11
1.00709
  21
2.31351
  31
0
  0
LINE
  8
0
  10
1.00709
  20
2.31351
  30
0
  11
1.00811
  21
2.3107
  31
0
  0
LINE
  8
0
  10
1.00811
  20
2.3107
  30
0
  11
1.07297
  21
2.32167
  31
0
  0
LINE
  8
0
  10
1.07297
  20
2.32167
  30
0
  11
1.07302
  21
2.32466
  31
0
  0
LINE
  8
0
  10
1.07302
  20
2.32466
  30
0
  11
1.07311
  21
2.32765
  31
0
  0
LINE
  8
0
  10
1.07311
  20
2.32765
  30
0
  11
1.07325
  21
2.33065
  31
0
  0
LINE
  8
0
  10
1.07325
  20
2.33065
  30
0
  11
1.07343
  21
2.33365
  31
0
  0
LINE
  8
0
  10
1.07343
  20
2.33365
  30
0
  11
1.07392
  21
2.33967
  31
0
  0
LINE
  8
0
  10
1.07392
  20
2.33967
  30
0
  11
1.07455
  21
2.34571
  31
0
  0
LINE
  8
0
  10
1.07455
  20
2.34571
  30
0
  11
1.07622
  21
2.35783
  31
0
  0
LINE
  8
0
  10
1.07622
  20
2.35783
  30
0
  11
1.07837
  21
2.37001
  31
0
  0
LINE
  8
0
  10
1.07837
  20
2.37001
  30
0
  11
1.08096
  21
2.38223
  31
0
  0
LINE
  8
0
  10
1.08096
  20
2.38223
  30
0
  11
1.08396
  21
2.39449
  31
0
  0
LINE
  8
0
  10
1.08396
  20
2.39449
  30
0
  11
1.08736
  21
2.40678
  31
0
  0
LINE
  8
0
  10
1.08736
  20
2.40678
  30
0
  11
1.09114
  21
2.41908
  31
0
  0
LINE
  8
0
  10
1.09114
  20
2.41908
  30
0
  11
1.09528
  21
2.43141
  31
0
  0
LINE
  8
0
  10
1.09528
  20
2.43141
  30
0
  11
1.09977
  21
2.44375
  31
0
  0
LINE
  8
0
  10
1.09977
  20
2.44375
  30
0
  11
1.15396
  21
2.44811
  31
0
  0
LINE
  8
0
  10
1.15396
  20
2.44811
  30
0
  11
1.16036
  21
2.43665
  31
0
  0
LINE
  8
0
  10
1.16036
  20
2.43665
  30
0
  11
1.16642
  21
2.42514
  31
0
  0
LINE
  8
0
  10
1.16642
  20
2.42514
  30
0
  11
1.17211
  21
2.41359
  31
0
  0
LINE
  8
0
  10
1.17211
  20
2.41359
  30
0
  11
1.17743
  21
2.40201
  31
0
  0
LINE
  8
0
  10
1.17743
  20
2.40201
  30
0
  11
1.18236
  21
2.39039
  31
0
  0
LINE
  8
0
  10
1.18236
  20
2.39039
  30
0
  11
1.18687
  21
2.37874
  31
0
  0
LINE
  8
0
  10
1.18687
  20
2.37874
  30
0
  11
1.19094
  21
2.36706
  31
0
  0
LINE
  8
0
  10
1.19094
  20
2.36706
  30
0
  11
1.19452
  21
2.35536
  31
0
  0
LINE
  8
0
  10
1.19452
  20
2.35536
  30
0
  11
1.19611
  21
2.3495
  31
0
  0
LINE
  8
0
  10
1.19611
  20
2.3495
  30
0
  11
1.19755
  21
2.34364
  31
0
  0
LINE
  8
0
  10
1.19755
  20
2.34364
  30
0
  11
1.19821
  21
2.3407
  31
0
  0
LINE
  8
0
  10
1.19821
  20
2.3407
  30
0
  11
1.19883
  21
2.33776
  31
0
  0
LINE
  8
0
  10
1.19883
  20
2.33776
  30
0
  11
1.1994
  21
2.33483
  31
0
  0
LINE
  8
0
  10
1.1994
  20
2.33483
  30
0
  11
1.19992
  21
2.33189
  31
0
  0
LINE
  8
0
  10
1.19992
  20
2.33189
  30
0
  11
1.2657
  21
2.33143
  31
0
  0
LINE
  8
0
  10
1.2657
  20
2.33143
  30
0
  11
1.26626
  21
2.33436
  31
0
  0
LINE
  8
0
  10
1.26626
  20
2.33436
  30
0
  11
1.26688
  21
2.33729
  31
0
  0
LINE
  8
0
  10
1.26688
  20
2.33729
  30
0
  11
1.26753
  21
2.34022
  31
0
  0
LINE
  8
0
  10
1.26753
  20
2.34022
  30
0
  11
1.26824
  21
2.34314
  31
0
  0
LINE
  8
0
  10
1.26824
  20
2.34314
  30
0
  11
1.26976
  21
2.34899
  31
0
  0
LINE
  8
0
  10
1.26976
  20
2.34899
  30
0
  11
1.27143
  21
2.35482
  31
0
  0
LINE
  8
0
  10
1.27143
  20
2.35482
  30
0
  11
1.27518
  21
2.36648
  31
0
  0
LINE
  8
0
  10
1.27518
  20
2.36648
  30
0
  11
1.27941
  21
2.3781
  31
0
  0
LINE
  8
0
  10
1.27941
  20
2.3781
  30
0
  11
1.28408
  21
2.38968
  31
0
  0
LINE
  8
0
  10
1.28408
  20
2.38968
  30
0
  11
1.28917
  21
2.40123
  31
0
  0
LINE
  8
0
  10
1.28917
  20
2.40123
  30
0
  11
1.29465
  21
2.41274
  31
0
  0
LINE
  8
0
  10
1.29465
  20
2.41274
  30
0
  11
1.30051
  21
2.42421
  31
0
  0
LINE
  8
0
  10
1.30051
  20
2.42421
  30
0
  11
1.30672
  21
2.43563
  31
0
  0
LINE
  8
0
  10
1.30672
  20
2.43563
  30
0
  11
1.31329
  21
2.447
  31
0
  0
LINE
  8
0
  10
1.31329
  20
2.447
  30
0
  11
1.36741
  21
2.44188
  31
0
  0
LINE
  8
0
  10
1.36741
  20
2.44188
  30
0
  11
1.37173
  21
2.42948
  31
0
  0
LINE
  8
0
  10
1.37173
  20
2.42948
  30
0
  11
1.37569
  21
2.4171
  31
0
  0
LINE
  8
0
  10
1.37569
  20
2.4171
  30
0
  11
1.3793
  21
2.40474
  31
0
  0
LINE
  8
0
  10
1.3793
  20
2.40474
  30
0
  11
1.38252
  21
2.39241
  31
0
  0
LINE
  8
0
  10
1.38252
  20
2.39241
  30
0
  11
1.38536
  21
2.38011
  31
0
  0
LINE
  8
0
  10
1.38536
  20
2.38011
  30
0
  11
1.38778
  21
2.36785
  31
0
  0
LINE
  8
0
  10
1.38778
  20
2.36785
  30
0
  11
1.38976
  21
2.35564
  31
0
  0
LINE
  8
0
  10
1.38976
  20
2.35564
  30
0
  11
1.39126
  21
2.3435
  31
0
  0
LINE
  8
0
  10
1.39126
  20
2.3435
  30
0
  11
1.3918
  21
2.33745
  31
0
  0
LINE
  8
0
  10
1.3918
  20
2.33745
  30
0
  11
1.39221
  21
2.33142
  31
0
  0
LINE
  8
0
  10
1.39221
  20
2.33142
  30
0
  11
1.39235
  21
2.32842
  31
0
  0
LINE
  8
0
  10
1.39235
  20
2.32842
  30
0
  11
1.39245
  21
2.32542
  31
0
  0
LINE
  8
0
  10
1.39245
  20
2.32542
  30
0
  11
1.3925
  21
2.32243
  31
0
  0
LINE
  8
0
  10
1.3925
  20
2.32243
  30
0
  11
1.3925
  21
2.31944
  31
0
  0
LINE
  8
0
  10
1.3925
  20
2.31944
  30
0
  11
1.4572
  21
2.30757
  31
0
  0
LINE
  8
0
  10
1.4572
  20
2.30757
  30
0
  11
1.45826
  21
2.31036
  31
0
  0
LINE
  8
0
  10
1.45826
  20
2.31036
  30
0
  11
1.45937
  21
2.31314
  31
0
  0
LINE
  8
0
  10
1.45937
  20
2.31314
  30
0
  11
1.46053
  21
2.3159
  31
0
  0
LINE
  8
0
  10
1.46053
  20
2.3159
  30
0
  11
1.46173
  21
2.31866
  31
0
  0
LINE
  8
0
  10
1.46173
  20
2.31866
  30
0
  11
1.46424
  21
2.32415
  31
0
  0
LINE
  8
0
  10
1.46424
  20
2.32415
  30
0
  11
1.4669
  21
2.32961
  31
0
  0
LINE
  8
0
  10
1.4669
  20
2.32961
  30
0
  11
1.47262
  21
2.34044
  31
0
  0
LINE
  8
0
  10
1.47262
  20
2.34044
  30
0
  11
1.4788
  21
2.35115
  31
0
  0
LINE
  8
0
  10
1.4788
  20
2.35115
  30
0
  11
1.48542
  21
2.36174
  31
0
  0
LINE
  8
0
  10
1.48542
  20
2.36174
  30
0
  11
1.49243
  21
2.37223
  31
0
  0
LINE
  8
0
  10
1.49243
  20
2.37223
  30
0
  11
1.49983
  21
2.38262
  31
0
  0
LINE
  8
0
  10
1.49983
  20
2.38262
  30
0
  11
1.50759
  21
2.39289
  31
0
  0
LINE
  8
0
  10
1.50759
  20
2.39289
  30
0
  11
1.51569
  21
2.40306
  31
0
  0
LINE
  8
0
  10
1.51569
  20
2.40306
  30
0
  11
1.52413
  21
2.41312
  31
0
  0
LINE
  8
0
  10
1.52413
  20
2.41312
  30
0
  11
1.57654
  21
2.39868
  31
0
  0
LINE
  8
0
  10
1.57654
  20
2.39868
  30
0
  11
1.57864
  21
2.38572
  31
0
  0
LINE
  8
0
  10
1.57864
  20
2.38572
  30
0
  11
1.5804
  21
2.37284
  31
0
  0
LINE
  8
0
  10
1.5804
  20
2.37284
  30
0
  11
1.5818
  21
2.36004
  31
0
  0
LINE
  8
0
  10
1.5818
  20
2.36004
  30
0
  11
1.58284
  21
2.34733
  31
0
  0
LINE
  8
0
  10
1.58284
  20
2.34733
  30
0
  11
1.58349
  21
2.33473
  31
0
  0
LINE
  8
0
  10
1.58349
  20
2.33473
  30
0
  11
1.58375
  21
2.32224
  31
0
  0
LINE
  8
0
  10
1.58375
  20
2.32224
  30
0
  11
1.58358
  21
2.30987
  31
0
  0
LINE
  8
0
  10
1.58358
  20
2.30987
  30
0
  11
1.58294
  21
2.29765
  31
0
  0
LINE
  8
0
  10
1.58294
  20
2.29765
  30
0
  11
1.58243
  21
2.2916
  31
0
  0
LINE
  8
0
  10
1.58243
  20
2.2916
  30
0
  11
1.58178
  21
2.2856
  31
0
  0
LINE
  8
0
  10
1.58178
  20
2.2856
  30
0
  11
1.5814
  21
2.28261
  31
0
  0
LINE
  8
0
  10
1.5814
  20
2.28261
  30
0
  11
1.58097
  21
2.27964
  31
0
  0
LINE
  8
0
  10
1.58097
  20
2.27964
  30
0
  11
1.5805
  21
2.27669
  31
0
  0
LINE
  8
0
  10
1.5805
  20
2.27669
  30
0
  11
1.57999
  21
2.27375
  31
0
  0
LINE
  8
0
  10
1.57999
  20
2.27375
  30
0
  11
1.64165
  21
2.25082
  31
0
  0
LINE
  8
0
  10
1.64165
  20
2.25082
  30
0
  11
1.64317
  21
2.25338
  31
0
  0
LINE
  8
0
  10
1.64317
  20
2.25338
  30
0
  11
1.64475
  21
2.25592
  31
0
  0
LINE
  8
0
  10
1.64475
  20
2.25592
  30
0
  11
1.64637
  21
2.25845
  31
0
  0
LINE
  8
0
  10
1.64637
  20
2.25845
  30
0
  11
1.64803
  21
2.26096
  31
0
  0
LINE
  8
0
  10
1.64803
  20
2.26096
  30
0
  11
1.65146
  21
2.26593
  31
0
  0
LINE
  8
0
  10
1.65146
  20
2.26593
  30
0
  11
1.65503
  21
2.27084
  31
0
  0
LINE
  8
0
  10
1.65503
  20
2.27084
  30
0
  11
1.66253
  21
2.28051
  31
0
  0
LINE
  8
0
  10
1.66253
  20
2.28051
  30
0
  11
1.67048
  21
2.28998
  31
0
  0
LINE
  8
0
  10
1.67048
  20
2.28998
  30
0
  11
1.67884
  21
2.29927
  31
0
  0
LINE
  8
0
  10
1.67884
  20
2.29927
  30
0
  11
1.68757
  21
2.30838
  31
0
  0
LINE
  8
0
  10
1.68757
  20
2.30838
  30
0
  11
1.69666
  21
2.31732
  31
0
  0
LINE
  8
0
  10
1.69666
  20
2.31732
  30
0
  11
1.70608
  21
2.32609
  31
0
  0
LINE
  8
0
  10
1.70608
  20
2.32609
  30
0
  11
1.71583
  21
2.3347
  31
0
  0
LINE
  8
0
  10
1.71583
  20
2.3347
  30
0
  11
1.72589
  21
2.34314
  31
0
  0
LINE
  8
0
  10
1.72589
  20
2.34314
  30
0
  11
1.775
  21
2.31982
  31
0
  0
LINE
  8
0
  10
1.775
  20
2.31982
  30
0
  11
1.77481
  21
2.30669
  31
0
  0
LINE
  8
0
  10
1.77481
  20
2.30669
  30
0
  11
1.7743
  21
2.2937
  31
0
  0
LINE
  8
0
  10
1.7743
  20
2.2937
  30
0
  11
1.77346
  21
2.28085
  31
0
  0
LINE
  8
0
  10
1.77346
  20
2.28085
  30
0
  11
1.77228
  21
2.26816
  31
0
  0
LINE
  8
0
  10
1.77228
  20
2.26816
  30
0
  11
1.77073
  21
2.25564
  31
0
  0
LINE
  8
0
  10
1.77073
  20
2.25564
  30
0
  11
1.76882
  21
2.24329
  31
0
  0
LINE
  8
0
  10
1.76882
  20
2.24329
  30
0
  11
1.7665
  21
2.23114
  31
0
  0
LINE
  8
0
  10
1.7665
  20
2.23114
  30
0
  11
1.76375
  21
2.21922
  31
0
  0
LINE
  8
0
  10
1.76375
  20
2.21922
  30
0
  11
1.7622
  21
2.21335
  31
0
  0
LINE
  8
0
  10
1.7622
  20
2.21335
  30
0
  11
1.76052
  21
2.20755
  31
0
  0
LINE
  8
0
  10
1.76052
  20
2.20755
  30
0
  11
1.75962
  21
2.20467
  31
0
  0
LINE
  8
0
  10
1.75962
  20
2.20467
  30
0
  11
1.75869
  21
2.20182
  31
0
  0
LINE
  8
0
  10
1.75869
  20
2.20182
  30
0
  11
1.75771
  21
2.19899
  31
0
  0
LINE
  8
0
  10
1.75771
  20
2.19899
  30
0
  11
1.75669
  21
2.19619
  31
0
  0
LINE
  8
0
  10
1.75669
  20
2.19619
  30
0
  11
1.81343
  21
2.1629
  31
0
  0
LINE
  8
0
  10
1.81343
  20
2.1629
  30
0
  11
1.81538
  21
2.16516
  31
0
  0
LINE
  8
0
  10
1.81538
  20
2.16516
  30
0
  11
1.81738
  21
2.16739
  31
0
  0
LINE
  8
0
  10
1.81738
  20
2.16739
  30
0
  11
1.81941
  21
2.16959
  31
0
  0
LINE
  8
0
  10
1.81941
  20
2.16959
  30
0
  11
1.82148
  21
2.17178
  31
0
  0
LINE
  8
0
  10
1.82148
  20
2.17178
  30
0
  11
1.82572
  21
2.17608
  31
0
  0
LINE
  8
0
  10
1.82572
  20
2.17608
  30
0
  11
1.83009
  21
2.1803
  31
0
  0
LINE
  8
0
  10
1.83009
  20
2.1803
  30
0
  11
1.83916
  21
2.18851
  31
0
  0
LINE
  8
0
  10
1.83916
  20
2.18851
  30
0
  11
1.84863
  21
2.19646
  31
0
  0
LINE
  8
0
  10
1.84863
  20
2.19646
  30
0
  11
1.85848
  21
2.20416
  31
0
  0
LINE
  8
0
  10
1.85848
  20
2.20416
  30
0
  11
1.86866
  21
2.21161
  31
0
  0
LINE
  8
0
  10
1.86866
  20
2.21161
  30
0
  11
1.87916
  21
2.21884
  31
0
  0
LINE
  8
0
  10
1.87916
  20
2.21884
  30
0
  11
1.88996
  21
2.22584
  31
0
  0
LINE
  8
0
  10
1.88996
  20
2.22584
  30
0
  11
1.90106
  21
2.23263
  31
0
  0
LINE
  8
0
  10
1.90106
  20
2.23263
  30
0
  11
1.91243
  21
2.23919
  31
0
  0
LINE
  8
0
  10
1.91243
  20
2.23919
  30
0
  11
1.95674
  21
2.2077
  31
0
  0
LINE
  8
0
  10
1.95674
  20
2.2077
  30
0
  11
1.95428
  21
2.1948
  31
0
  0
LINE
  8
0
  10
1.95428
  20
2.1948
  30
0
  11
1.95152
  21
2.1821
  31
0
  0
LINE
  8
0
  10
1.95152
  20
2.1821
  30
0
  11
1.94846
  21
2.16959
  31
0
  0
LINE
  8
0
  10
1.94846
  20
2.16959
  30
0
  11
1.94509
  21
2.1573
  31
0
  0
LINE
  8
0
  10
1.94509
  20
2.1573
  30
0
  11
1.9414
  21
2.14523
  31
0
  0
LINE
  8
0
  10
1.9414
  20
2.14523
  30
0
  11
1.93737
  21
2.1334
  31
0
  0
LINE
  8
0
  10
1.93737
  20
2.1334
  30
0
  11
1.93298
  21
2.12184
  31
0
  0
LINE
  8
0
  10
1.93298
  20
2.12184
  30
0
  11
1.9282
  21
2.11057
  31
0
  0
LINE
  8
0
  10
1.9282
  20
2.11057
  30
0
  11
1.92565
  21
2.10506
  31
0
  0
LINE
  8
0
  10
1.92565
  20
2.10506
  30
0
  11
1.92298
  21
2.09964
  31
0
  0
LINE
  8
0
  10
1.92298
  20
2.09964
  30
0
  11
1.9216
  21
2.09697
  31
0
  0
LINE
  8
0
  10
1.9216
  20
2.09697
  30
0
  11
1.92019
  21
2.09432
  31
0
  0
LINE
  8
0
  10
1.92019
  20
2.09432
  30
0
  11
1.91874
  21
2.09171
  31
0
  0
LINE
  8
0
  10
1.91874
  20
2.09171
  30
0
  11
1.91725
  21
2.08912
  31
0
  0
LINE
  8
0
  10
1.91725
  20
2.08912
  30
0
  11
1.96734
  21
2.04649
  31
0
  0
LINE
  8
0
  10
1.96734
  20
2.04649
  30
0
  11
1.96966
  21
2.04837
  31
0
  0
LINE
  8
0
  10
1.96966
  20
2.04837
  30
0
  11
1.97201
  21
2.05022
  31
0
  0
LINE
  8
0
  10
1.97201
  20
2.05022
  30
0
  11
1.97439
  21
2.05204
  31
0
  0
LINE
  8
0
  10
1.97439
  20
2.05204
  30
0
  11
1.97681
  21
2.05383
  31
0
  0
LINE
  8
0
  10
1.97681
  20
2.05383
  30
0
  11
1.98174
  21
2.05733
  31
0
  0
LINE
  8
0
  10
1.98174
  20
2.05733
  30
0
  11
1.98677
  21
2.06073
  31
0
  0
LINE
  8
0
  10
1.98677
  20
2.06073
  30
0
  11
1.99713
  21
2.06724
  31
0
  0
LINE
  8
0
  10
1.99713
  20
2.06724
  30
0
  11
2.00784
  21
2.07343
  31
0
  0
LINE
  8
0
  10
2.00784
  20
2.07343
  30
0
  11
2.01887
  21
2.0793
  31
0
  0
LINE
  8
0
  10
2.01887
  20
2.0793
  30
0
  11
2.03019
  21
2.08487
  31
0
  0
LINE
  8
0
  10
2.03019
  20
2.08487
  30
0
  11
2.04179
  21
2.09017
  31
0
  0
LINE
  8
0
  10
2.04179
  20
2.09017
  30
0
  11
2.05364
  21
2.09519
  31
0
  0
LINE
  8
0
  10
2.05364
  20
2.09519
  30
0
  11
2.06574
  21
2.09994
  31
0
  0
LINE
  8
0
  10
2.06574
  20
2.09994
  30
0
  11
2.07808
  21
2.10443
  31
0
  0
LINE
  8
0
  10
2.07808
  20
2.10443
  30
0
  11
2.11625
  21
2.06572
  31
0
  0
LINE
  8
0
  10
2.11625
  20
2.06572
  30
0
  11
2.11159
  21
2.05345
  31
0
  0
LINE
  8
0
  10
2.11159
  20
2.05345
  30
0
  11
2.10667
  21
2.04141
  31
0
  0
LINE
  8
0
  10
2.10667
  20
2.04141
  30
0
  11
2.10148
  21
2.02963
  31
0
  0
LINE
  8
0
  10
2.10148
  20
2.02963
  30
0
  11
2.09603
  21
2.01811
  31
0
  0
LINE
  8
0
  10
2.09603
  20
2.01811
  30
0
  11
2.0903
  21
2.00686
  31
0
  0
LINE
  8
0
  10
2.0903
  20
2.00686
  30
0
  11
2.08427
  21
1.99592
  31
0
  0
LINE
  8
0
  10
2.08427
  20
1.99592
  30
0
  11
2.07794
  21
1.9853
  31
0
  0
LINE
  8
0
  10
2.07794
  20
1.9853
  30
0
  11
2.07128
  21
1.97503
  31
0
  0
LINE
  8
0
  10
2.07128
  20
1.97503
  30
0
  11
2.06781
  21
1.97004
  31
0
  0
LINE
  8
0
  10
2.06781
  20
1.97004
  30
0
  11
2.06425
  21
1.96517
  31
0
  0
LINE
  8
0
  10
2.06425
  20
1.96517
  30
0
  11
2.06242
  21
1.96278
  31
0
  0
LINE
  8
0
  10
2.06242
  20
1.96278
  30
0
  11
2.06057
  21
1.96042
  31
0
  0
LINE
  8
0
  10
2.06057
  20
1.96042
  30
0
  11
2.05869
  21
1.95809
  31
0
  0
LINE
  8
0
  10
2.05869
  20
1.95809
  30
0
  11
2.05677
  21
1.9558
  31
0
  0
LINE
  8
0
  10
2.05677
  20
1.9558
  30
0
  11
2.0987
  21
1.90512
  31
0
  0
LINE
  8
0
  10
2.0987
  20
1.90512
  30
0
  11
2.10131
  21
1.90657
  31
0
  0
LINE
  8
0
  10
2.10131
  20
1.90657
  30
0
  11
2.10394
  21
1.90799
  31
0
  0
LINE
  8
0
  10
2.10394
  20
1.90799
  30
0
  11
2.10661
  21
1.90936
  31
0
  0
LINE
  8
0
  10
2.10661
  20
1.90936
  30
0
  11
2.1093
  21
1.91071
  31
0
  0
LINE
  8
0
  10
2.1093
  20
1.91071
  30
0
  11
2.11476
  21
1.91329
  31
0
  0
LINE
  8
0
  10
2.11476
  20
1.91329
  30
0
  11
2.12031
  21
1.91577
  31
0
  0
LINE
  8
0
  10
2.12031
  20
1.91577
  30
0
  11
2.13164
  21
1.92039
  31
0
  0
LINE
  8
0
  10
2.13164
  20
1.92039
  30
0
  11
2.14326
  21
1.92461
  31
0
  0
LINE
  8
0
  10
2.14326
  20
1.92461
  30
0
  11
2.15514
  21
1.92848
  31
0
  0
LINE
  8
0
  10
2.15514
  20
1.92848
  30
0
  11
2.16726
  21
1.93201
  31
0
  0
LINE
  8
0
  10
2.16726
  20
1.93201
  30
0
  11
2.1796
  21
1.9352
  31
0
  0
LINE
  8
0
  10
2.1796
  20
1.9352
  30
0
  11
2.19215
  21
1.93809
  31
0
  0
LINE
  8
0
  10
2.19215
  20
1.93809
  30
0
  11
2.20489
  21
1.94067
  31
0
  0
LINE
  8
0
  10
2.20489
  20
1.94067
  30
0
  11
2.21782
  21
1.94295
  31
0
  0
LINE
  8
0
  10
2.21782
  20
1.94295
  30
0
  11
2.24869
  21
1.8982
  31
0
  0
LINE
  8
0
  10
2.24869
  20
1.8982
  30
0
  11
2.24197
  21
1.88692
  31
0
  0
LINE
  8
0
  10
2.24197
  20
1.88692
  30
0
  11
2.23503
  21
1.87593
  31
0
  0
LINE
  8
0
  10
2.23503
  20
1.87593
  30
0
  11
2.22788
  21
1.86522
  31
0
  0
LINE
  8
0
  10
2.22788
  20
1.86522
  30
0
  11
2.2205
  21
1.85482
  31
0
  0
LINE
  8
0
  10
2.2205
  20
1.85482
  30
0
  11
2.21291
  21
1.84474
  31
0
  0
LINE
  8
0
  10
2.21291
  20
1.84474
  30
0
  11
2.20507
  21
1.83501
  31
0
  0
LINE
  8
0
  10
2.20507
  20
1.83501
  30
0
  11
2.19699
  21
1.82565
  31
0
  0
LINE
  8
0
  10
2.19699
  20
1.82565
  30
0
  11
2.18865
  21
1.8167
  31
0
  0
LINE
  8
0
  10
2.18865
  20
1.8167
  30
0
  11
2.18437
  21
1.81239
  31
0
  0
LINE
  8
0
  10
2.18437
  20
1.81239
  30
0
  11
2.18001
  21
1.80821
  31
0
  0
LINE
  8
0
  10
2.18001
  20
1.80821
  30
0
  11
2.1778
  21
1.80617
  31
0
  0
LINE
  8
0
  10
2.1778
  20
1.80617
  30
0
  11
2.17557
  21
1.80416
  31
0
  0
LINE
  8
0
  10
2.17557
  20
1.80416
  30
0
  11
2.17331
  21
1.8022
  31
0
  0
LINE
  8
0
  10
2.17331
  20
1.8022
  30
0
  11
2.17102
  21
1.80028
  31
0
  0
LINE
  8
0
  10
2.17102
  20
1.80028
  30
0
  11
2.20352
  21
1.74308
  31
0
  0
LINE
  8
0
  10
2.20352
  20
1.74308
  30
0
  11
2.20633
  21
1.74406
  31
0
  0
LINE
  8
0
  10
2.20633
  20
1.74406
  30
0
  11
2.20918
  21
1.745
  31
0
  0
LINE
  8
0
  10
2.20918
  20
1.745
  30
0
  11
2.21204
  21
1.74589
  31
0
  0
LINE
  8
0
  10
2.21204
  20
1.74589
  30
0
  11
2.21493
  21
1.74675
  31
0
  0
LINE
  8
0
  10
2.21493
  20
1.74675
  30
0
  11
2.22075
  21
1.74835
  31
0
  0
LINE
  8
0
  10
2.22075
  20
1.74835
  30
0
  11
2.22664
  21
1.74982
  31
0
  0
LINE
  8
0
  10
2.22664
  20
1.74982
  30
0
  11
2.2386
  21
1.7524
  31
0
  0
LINE
  8
0
  10
2.2386
  20
1.7524
  30
0
  11
2.25078
  21
1.75455
  31
0
  0
LINE
  8
0
  10
2.25078
  20
1.75455
  30
0
  11
2.26315
  21
1.75629
  31
0
  0
LINE
  8
0
  10
2.26315
  20
1.75629
  30
0
  11
2.2757
  21
1.75766
  31
0
  0
LINE
  8
0
  10
2.2757
  20
1.75766
  30
0
  11
2.28841
  21
1.75867
  31
0
  0
LINE
  8
0
  10
2.28841
  20
1.75867
  30
0
  11
2.30126
  21
1.75933
  31
0
  0
LINE
  8
0
  10
2.30126
  20
1.75933
  30
0
  11
2.31426
  21
1.75966
  31
0
  0
LINE
  8
0
  10
2.31426
  20
1.75966
  30
0
  11
2.32739
  21
1.75966
  31
0
  0
LINE
  8
0
  10
2.32739
  20
1.75966
  30
0
  11
2.35002
  21
1.71023
  31
0
  0
LINE
  8
0
  10
2.35002
  20
1.71023
  30
0
  11
2.34144
  21
1.70029
  31
0
  0
LINE
  8
0
  10
2.34144
  20
1.70029
  30
0
  11
2.3327
  21
1.69066
  31
0
  0
LINE
  8
0
  10
2.3327
  20
1.69066
  30
0
  11
2.3238
  21
1.68136
  31
0
  0
LINE
  8
0
  10
2.3238
  20
1.68136
  30
0
  11
2.31473
  21
1.6724
  31
0
  0
LINE
  8
0
  10
2.31473
  20
1.6724
  30
0
  11
2.3055
  21
1.6638
  31
0
  0
LINE
  8
0
  10
2.3055
  20
1.6638
  30
0
  11
2.2961
  21
1.65557
  31
0
  0
LINE
  8
0
  10
2.2961
  20
1.65557
  30
0
  11
2.28651
  21
1.64776
  31
0
  0
LINE
  8
0
  10
2.28651
  20
1.64776
  30
0
  11
2.27674
  21
1.64039
  31
0
  0
LINE
  8
0
  10
2.27674
  20
1.64039
  30
0
  11
2.27178
  21
1.63689
  31
0
  0
LINE
  8
0
  10
2.27178
  20
1.63689
  30
0
  11
2.26676
  21
1.63353
  31
0
  0
LINE
  8
0
  10
2.26676
  20
1.63353
  30
0
  11
2.26423
  21
1.6319
  31
0
  0
LINE
  8
0
  10
2.26423
  20
1.6319
  30
0
  11
2.26168
  21
1.63032
  31
0
  0
LINE
  8
0
  10
2.26168
  20
1.63032
  30
0
  11
2.25912
  21
1.62878
  31
0
  0
LINE
  8
0
  10
2.25912
  20
1.62878
  30
0
  11
2.25653
  21
1.62728
  31
0
  0
LINE
  8
0
  10
2.25653
  20
1.62728
  30
0
  11
2.2786
  21
1.56531
  31
0
  0
LINE
  8
0
  10
2.2786
  20
1.56531
  30
0
  11
2.28155
  21
1.56579
  31
0
  0
LINE
  8
0
  10
2.28155
  20
1.56579
  30
0
  11
2.28451
  21
1.56621
  31
0
  0
LINE
  8
0
  10
2.28451
  20
1.56621
  30
0
  11
2.28748
  21
1.5666
  31
0
  0
LINE
  8
0
  10
2.28748
  20
1.5666
  30
0
  11
2.29047
  21
1.56694
  31
0
  0
LINE
  8
0
  10
2.29047
  20
1.56694
  30
0
  11
2.29649
  21
1.56751
  31
0
  0
LINE
  8
0
  10
2.29649
  20
1.56751
  30
0
  11
2.30254
  21
1.56793
  31
0
  0
LINE
  8
0
  10
2.30254
  20
1.56793
  30
0
  11
2.31477
  21
1.5684
  31
0
  0
LINE
  8
0
  10
2.31477
  20
1.5684
  30
0
  11
2.32714
  21
1.56839
  31
0
  0
LINE
  8
0
  10
2.32714
  20
1.56839
  30
0
  11
2.33963
  21
1.56796
  31
0
  0
LINE
  8
0
  10
2.33963
  20
1.56796
  30
0
  11
2.35222
  21
1.56713
  31
0
  0
LINE
  8
0
  10
2.35222
  20
1.56713
  30
0
  11
2.36491
  21
1.56592
  31
0
  0
LINE
  8
0
  10
2.36491
  20
1.56592
  30
0
  11
2.37769
  21
1.56434
  31
0
  0
LINE
  8
0
  10
2.37769
  20
1.56434
  30
0
  11
2.39054
  21
1.5624
  31
0
  0
LINE
  8
0
  10
2.39054
  20
1.5624
  30
0
  11
2.40347
  21
1.56012
  31
0
  0
LINE
  8
0
  10
2.40347
  20
1.56012
  30
0
  11
2.41718
  21
1.50751
  31
0
  0
LINE
  8
0
  10
2.41718
  20
1.50751
  30
0
  11
2.407
  21
1.49922
  31
0
  0
LINE
  8
0
  10
2.407
  20
1.49922
  30
0
  11
2.39672
  21
1.49126
  31
0
  0
LINE
  8
0
  10
2.39672
  20
1.49126
  30
0
  11
2.38634
  21
1.48364
  31
0
  0
LINE
  8
0
  10
2.38634
  20
1.48364
  30
0
  11
2.37585
  21
1.47639
  31
0
  0
LINE
  8
0
  10
2.37585
  20
1.47639
  30
0
  11
2.36527
  21
1.46952
  31
0
  0
LINE
  8
0
  10
2.36527
  20
1.46952
  30
0
  11
2.35458
  21
1.46305
  31
0
  0
LINE
  8
0
  10
2.35458
  20
1.46305
  30
0
  11
2.34378
  21
1.45702
  31
0
  0
LINE
  8
0
  10
2.34378
  20
1.45702
  30
0
  11
2.33288
  21
1.45146
  31
0
  0
LINE
  8
0
  10
2.33288
  20
1.45146
  30
0
  11
2.32739
  21
1.44888
  31
0
  0
LINE
  8
0
  10
2.32739
  20
1.44888
  30
0
  11
2.32186
  21
1.44644
  31
0
  0
LINE
  8
0
  10
2.32186
  20
1.44644
  30
0
  11
2.31909
  21
1.44528
  31
0
  0
LINE
  8
0
  10
2.31909
  20
1.44528
  30
0
  11
2.3163
  21
1.44416
  31
0
  0
LINE
  8
0
  10
2.3163
  20
1.44416
  30
0
  11
2.31351
  21
1.44309
  31
0
  0
LINE
  8
0
  10
2.31351
  20
1.44309
  30
0
  11
2.3107
  21
1.44206
  31
0
  0
LINE
  8
0
  10
2.3107
  20
1.44206
  30
0
  11
2.32167
  21
1.3772
  31
0
  0
LINE
  8
0
  10
2.32167
  20
1.3772
  30
0
  11
2.32466
  21
1.37716
  31
0
  0
LINE
  8
0
  10
2.32466
  20
1.37716
  30
0
  11
2.32765
  21
1.37707
  31
0
  0
LINE
  8
0
  10
2.32765
  20
1.37707
  30
0
  11
2.33065
  21
1.37693
  31
0
  0
LINE
  8
0
  10
2.33065
  20
1.37693
  30
0
  11
2.33365
  21
1.37674
  31
0
  0
LINE
  8
0
  10
2.33365
  20
1.37674
  30
0
  11
2.33967
  21
1.37626
  31
0
  0
LINE
  8
0
  10
2.33967
  20
1.37626
  30
0
  11
2.34571
  21
1.37562
  31
0
  0
LINE
  8
0
  10
2.34571
  20
1.37562
  30
0
  11
2.35783
  21
1.37396
  31
0
  0
LINE
  8
0
  10
2.35783
  20
1.37396
  30
0
  11
2.37001
  21
1.37181
  31
0
  0
LINE
  8
0
  10
2.37001
  20
1.37181
  30
0
  11
2.38223
  21
1.36922
  31
0
  0
LINE
  8
0
  10
2.38223
  20
1.36922
  30
0
  11
2.39449
  21
1.36621
  31
0
  0
LINE
  8
0
  10
2.39449
  20
1.36621
  30
0
  11
2.40678
  21
1.36281
  31
0
  0
LINE
  8
0
  10
2.40678
  20
1.36281
  30
0
  11
2.41908
  21
1.35904
  31
0
  0
LINE
  8
0
  10
2.41908
  20
1.35904
  30
0
  11
2.43141
  21
1.3549
  31
0
  0
LINE
  8
0
  10
2.43141
  20
1.3549
  30
0
  11
2.44375
  21
1.35041
  31
0
  0
LINE
  8
0
  10
2.44375
  20
1.35041
  30
0
  11
2.44811
  21
1.29622
  31
0
  0
LINE
  8
0
  10
2.44811
  20
1.29622
  30
0
  11
2.43665
  21
1.28981
  31
0
  0
LINE
  8
0
  10
2.43665
  20
1.28981
  30
0
  11
2.42514
  21
1.28376
  31
0
  0
LINE
  8
0
  10
2.42514
  20
1.28376
  30
0
  11
2.41359
  21
1.27806
  31
0
  0
LINE
  8
0
  10
2.41359
  20
1.27806
  30
0
  11
2.40201
  21
1.27274
  31
0
  0
LINE
  8
0
  10
2.40201
  20
1.27274
  30
0
  11
2.39039
  21
1.26782
  31
0
  0
LINE
  8
0
  10
2.39039
  20
1.26782
  30
0
  11
2.37874
  21
1.2633
  31
0
  0
LINE
  8
0
  10
2.37874
  20
1.2633
  30
0
  11
2.36706
  21
1.25924
  31
0
  0
LINE
  8
0
  10
2.36706
  20
1.25924
  30
0
  11
2.35536
  21
1.25565
  31
0
  0
LINE
  8
0
  10
2.35536
  20
1.25565
  30
0
  11
2.3495
  21
1.25406
  31
0
  0
LINE
  8
0
  10
2.3495
  20
1.25406
  30
0
  11
2.34364
  21
1.25262
  31
0
  0
LINE
  8
0
  10
2.34364
  20
1.25262
  30
0
  11
2.3407
  21
1.25196
  31
0
  0
LINE
  8
0
  10
2.3407
  20
1.25196
  30
0
  11
2.33776
  21
1.25134
  31
0
  0
LINE
  8
0
  10
2.33776
  20
1.25134
  30
0
  11
2.33483
  21
1.25077
  31
0
  0
LINE
  8
0
  10
2.33483
  20
1.25077
  30
0
  11
2.33189
  21
1.25025
  31
0
  0
LINE
  8
0
  10
2.33189
  20
1.25025
  30
0
  11
2.33143
  21
1.18447
  31
0
  0
LINE
  8
0
  10
1.37509
  20
1.22509
  30
0
  11
1.37509
  21
1.22509
  31
0
  0
LINE
  8
0
  10
1.37509
  20
1.22509
  30
0
  11
1.36998
  21
1.26391
  31
0
  0
LINE
  8
0
  10
1.36998
  20
1.26391
  30
0
  11
1.35499
  21
1.30009
  31
0
  0
LINE
  8
0
  10
1.35499
  20
1.30009
  30
0
  11
1.33115
  21
1.33115
  31
0
  0
LINE
  8
0
  10
1.33115
  20
1.33115
  30
0
  11
1.30009
  21
1.35499
  31
0
  0
LINE
  8
0
  10
1.30009
  20
1.35499
  30
0
  11
1.26391
  21
1.36998
  31
0
  0
LINE
  8
0
  10
1.26391
  20
1.36998
  30
0
  11
1.22509
  21
1.37509
  31
0
  0
LINE
  8
0
  10
1.22509
  20
1.37509
  30
0
  11
1.18626
  21
1.36998
  31
0
  0
LINE
  8
0
  10
1.18626
  20
1.36998
  30
0
  11
1.15009
  21
1.35499
  31
0
  0
LINE
  8
0
  10
1.15009
  20
1.35499
  30
0
  11
1.11902
  21
1.33115
  31
0
  0
LINE
  8
0
  10
1.11902
  20
1.33115
  30
0
  11
1.09518
  21
1.30009
  31
0
  0
LINE
  8
0
  10
1.09518
  20
1.30009
  30
0
  11
1.0802
  21
1.26391
  31
0
  0
LINE
  8
0
  10
1.0802
  20
1.26391
  30
0
  11
1.07509
  21
1.22509
  31
0
  0
LINE
  8
0
  10
1.07509
  20
1.22509
  30
0
  11
1.0802
  21
1.18626
  31
0
  0
LINE
  8
0
  10
1.0802
  20
1.18626
  30
0
  11
1.09518
  21
1.15009
  31
0
  0
LINE
  8
0
  10
1.09518
  20
1.15009
  30
0
  11
1.11902
  21
1.11902
  31
0
  0
LINE
  8
0
  10
1.11902
  20
1.11902
  30
0
  11
1.15009
  21
1.09518
  31
0
  0
LINE
  8
0
  10
1.15009
  20
1.09518
  30
0
  11
1.18626
  21
1.0802
  31
0
  0
LINE
  8
0
  10
1.18626
  20
1.0802
  30
0
  11
1.22509
  21
1.07509
  31
0
  0
LINE
  8
0
  10
1.22509
  20
1.07509
  30
0
  11
1.26391
  21
1.0802
  31
0
  0
LINE
  8
0
  10
1.26391
  20
1.0802
  30
0
  11
1.30009
  21
1.09518
  31
0
  0
LINE
  8
0
  10
1.30009
  20
1.09518
  30
0
  11
1.33115
  21
1.11902
  31
0
  0
LINE
  8
0
  10
1.33115
  20
1.11902
  30
0
  11
1.35499
  21
1.15009
  31
0
  0
LINE
  8
0
  10
1.35499
  20
1.15009
  30
0
  11
1.36998
  21
1.18626
  31
0
  0
LINE
  8
0
  10
1.36998
  20
1.18626
  30
0
  11
1.37509
  21
1.22509
  31
0
  0
LINE
  8
0
  10
1.37509
  20
1.22509
  30
0
  11
1.37509
  21
1.22509
  31
0
  0
ENDSEC
  0
EOF
