  999
file created by gear template generator
  0
SECTION
  2
HEADER
  9
$ACADVER
  1
AC1006
  9
$INSBASE
  10
0.0
  20
0.0
  30
0.0
  9
$EXTMIN
  10
0.0
  20
0.0
  9
$EXTMAX
  10
10000.0
  20
10000.0
  0
ENDSEC
  0
SECTION
  2
ENTITIES
  0
LINE
  8
0
  10
2.32934
  20
1.14589
  30
0
  11
2.32934
  21
1.14589
  31
0
  0
LINE
  8
0
  10
2.32934
  20
1.14589
  30
0
  11
2.33225
  21
1.14522
  31
0
  0
LINE
  8
0
  10
2.33225
  20
1.14522
  30
0
  11
2.33515
  21
1.14451
  31
0
  0
LINE
  8
0
  10
2.33515
  20
1.14451
  30
0
  11
2.33806
  21
1.14375
  31
0
  0
LINE
  8
0
  10
2.33806
  20
1.14375
  30
0
  11
2.34095
  21
1.14295
  31
0
  0
LINE
  8
0
  10
2.34095
  20
1.14295
  30
0
  11
2.34674
  21
1.14122
  31
0
  0
LINE
  8
0
  10
2.34674
  20
1.14122
  30
0
  11
2.35252
  21
1.13934
  31
0
  0
LINE
  8
0
  10
2.35252
  20
1.13934
  30
0
  11
2.36403
  21
1.13519
  31
0
  0
LINE
  8
0
  10
2.36403
  20
1.13519
  30
0
  11
2.3755
  21
1.13056
  31
0
  0
LINE
  8
0
  10
2.3755
  20
1.13056
  30
0
  11
2.38691
  21
1.12548
  31
0
  0
LINE
  8
0
  10
2.38691
  20
1.12548
  30
0
  11
2.39828
  21
1.11999
  31
0
  0
LINE
  8
0
  10
2.39828
  20
1.11999
  30
0
  11
2.40959
  21
1.11412
  31
0
  0
LINE
  8
0
  10
2.40959
  20
1.11412
  30
0
  11
2.42084
  21
1.10786
  31
0
  0
LINE
  8
0
  10
2.42084
  20
1.10786
  30
0
  11
2.43204
  21
1.10125
  31
0
  0
LINE
  8
0
  10
2.43204
  20
1.10125
  30
0
  11
2.44317
  21
1.0943
  31
0
  0
LINE
  8
0
  10
2.44317
  20
1.0943
  30
0
  11
2.43617
  21
1.04038
  31
0
  0
LINE
  8
0
  10
2.43617
  20
1.04038
  30
0
  11
2.42363
  21
1.0365
  31
0
  0
LINE
  8
0
  10
2.42363
  20
1.0365
  30
0
  11
2.41112
  21
1.03297
  31
0
  0
LINE
  8
0
  10
2.41112
  20
1.03297
  30
0
  11
2.39864
  21
1.0298
  31
0
  0
LINE
  8
0
  10
2.39864
  20
1.0298
  30
0
  11
2.3862
  21
1.02701
  31
0
  0
LINE
  8
0
  10
2.3862
  20
1.02701
  30
0
  11
2.37381
  21
1.0246
  31
0
  0
LINE
  8
0
  10
2.37381
  20
1.0246
  30
0
  11
2.36148
  21
1.02261
  31
0
  0
LINE
  8
0
  10
2.36148
  20
1.02261
  30
0
  11
2.34921
  21
1.02106
  31
0
  0
LINE
  8
0
  10
2.34921
  20
1.02106
  30
0
  11
2.33702
  21
1.01999
  31
0
  0
LINE
  8
0
  10
2.33702
  20
1.01999
  30
0
  11
2.33095
  21
1.01965
  31
0
  0
LINE
  8
0
  10
2.33095
  20
1.01965
  30
0
  11
2.32492
  21
1.01946
  31
0
  0
LINE
  8
0
  10
2.32492
  20
1.01946
  30
0
  11
2.32191
  21
1.01942
  31
0
  0
LINE
  8
0
  10
2.32191
  20
1.01942
  30
0
  11
2.31891
  21
1.01943
  31
0
  0
LINE
  8
0
  10
2.31891
  20
1.01943
  30
0
  11
2.31592
  21
1.01948
  31
0
  0
LINE
  8
0
  10
2.31592
  20
1.01948
  30
0
  11
2.31293
  21
1.01959
  31
0
  0
LINE
  8
0
  10
2.31293
  20
1.01959
  30
0
  11
2.29881
  21
0.95534
  31
0
  0
LINE
  8
0
  10
2.29881
  20
0.95534
  30
0
  11
2.30156
  21
0.95418
  31
0
  0
LINE
  8
0
  10
2.30156
  20
0.95418
  30
0
  11
2.3043
  21
0.95297
  31
0
  0
LINE
  8
0
  10
2.3043
  20
0.95297
  30
0
  11
2.30702
  21
0.95172
  31
0
  0
LINE
  8
0
  10
2.30702
  20
0.95172
  30
0
  11
2.30974
  21
0.95043
  31
0
  0
LINE
  8
0
  10
2.30974
  20
0.95043
  30
0
  11
2.31514
  21
0.94772
  31
0
  0
LINE
  8
0
  10
2.31514
  20
0.94772
  30
0
  11
2.3205
  21
0.94487
  31
0
  0
LINE
  8
0
  10
2.3205
  20
0.94487
  30
0
  11
2.33112
  21
0.93878
  31
0
  0
LINE
  8
0
  10
2.33112
  20
0.93878
  30
0
  11
2.34161
  21
0.93223
  31
0
  0
LINE
  8
0
  10
2.34161
  20
0.93223
  30
0
  11
2.35197
  21
0.92525
  31
0
  0
LINE
  8
0
  10
2.35197
  20
0.92525
  30
0
  11
2.3622
  21
0.91787
  31
0
  0
LINE
  8
0
  10
2.3622
  20
0.91787
  30
0
  11
2.37232
  21
0.91011
  31
0
  0
LINE
  8
0
  10
2.37232
  20
0.91011
  30
0
  11
2.38232
  21
0.902
  31
0
  0
LINE
  8
0
  10
2.38232
  20
0.902
  30
0
  11
2.3922
  21
0.89355
  31
0
  0
LINE
  8
0
  10
2.3922
  20
0.89355
  30
0
  11
2.40196
  21
0.88477
  31
0
  0
LINE
  8
0
  10
2.40196
  20
0.88477
  30
0
  11
2.3857
  21
0.83289
  31
0
  0
LINE
  8
0
  10
2.3857
  20
0.83289
  30
0
  11
2.37267
  21
0.83124
  31
0
  0
LINE
  8
0
  10
2.37267
  20
0.83124
  30
0
  11
2.35974
  21
0.82994
  31
0
  0
LINE
  8
0
  10
2.35974
  20
0.82994
  30
0
  11
2.3469
  21
0.82898
  31
0
  0
LINE
  8
0
  10
2.3469
  20
0.82898
  30
0
  11
2.33416
  21
0.82839
  31
0
  0
LINE
  8
0
  10
2.33416
  20
0.82839
  30
0
  11
2.32155
  21
0.82818
  31
0
  0
LINE
  8
0
  10
2.32155
  20
0.82818
  30
0
  11
2.30905
  21
0.82836
  31
0
  0
LINE
  8
0
  10
2.30905
  20
0.82836
  30
0
  11
2.2967
  21
0.82896
  31
0
  0
LINE
  8
0
  10
2.2967
  20
0.82896
  30
0
  11
2.28451
  21
0.83002
  31
0
  0
LINE
  8
0
  10
2.28451
  20
0.83002
  30
0
  11
2.27848
  21
0.83074
  31
0
  0
LINE
  8
0
  10
2.27848
  20
0.83074
  30
0
  11
2.2725
  21
0.8316
  31
0
  0
LINE
  8
0
  10
2.2725
  20
0.8316
  30
0
  11
2.26953
  21
0.83209
  31
0
  0
LINE
  8
0
  10
2.26953
  20
0.83209
  30
0
  11
2.26658
  21
0.83262
  31
0
  0
LINE
  8
0
  10
2.26658
  20
0.83262
  30
0
  11
2.26364
  21
0.83319
  31
0
  0
LINE
  8
0
  10
2.26364
  20
0.83319
  30
0
  11
2.26072
  21
0.83381
  31
0
  0
LINE
  8
0
  10
2.26072
  20
0.83381
  30
0
  11
2.23565
  21
0.77299
  31
0
  0
LINE
  8
0
  10
2.23565
  20
0.77299
  30
0
  11
2.23816
  21
0.77137
  31
0
  0
LINE
  8
0
  10
2.23816
  20
0.77137
  30
0
  11
2.24065
  21
0.7697
  31
0
  0
LINE
  8
0
  10
2.24065
  20
0.7697
  30
0
  11
2.24312
  21
0.768
  31
0
  0
LINE
  8
0
  10
2.24312
  20
0.768
  30
0
  11
2.24557
  21
0.76625
  31
0
  0
LINE
  8
0
  10
2.24557
  20
0.76625
  30
0
  11
2.25041
  21
0.76265
  31
0
  0
LINE
  8
0
  10
2.25041
  20
0.76265
  30
0
  11
2.2552
  21
0.75891
  31
0
  0
LINE
  8
0
  10
2.2552
  20
0.75891
  30
0
  11
2.2646
  21
0.75107
  31
0
  0
LINE
  8
0
  10
2.2646
  20
0.75107
  30
0
  11
2.27379
  21
0.7428
  31
0
  0
LINE
  8
0
  10
2.27379
  20
0.7428
  30
0
  11
2.28278
  21
0.73412
  31
0
  0
LINE
  8
0
  10
2.28278
  20
0.73412
  30
0
  11
2.29158
  21
0.72508
  31
0
  0
LINE
  8
0
  10
2.29158
  20
0.72508
  30
0
  11
2.3002
  21
0.71568
  31
0
  0
LINE
  8
0
  10
2.3002
  20
0.71568
  30
0
  11
2.30864
  21
0.70596
  31
0
  0
LINE
  8
0
  10
2.30864
  20
0.70596
  30
0
  11
2.3169
  21
0.69592
  31
0
  0
LINE
  8
0
  10
2.3169
  20
0.69592
  30
0
  11
2.32498
  21
0.68557
  31
0
  0
LINE
  8
0
  10
2.32498
  20
0.68557
  30
0
  11
2.29996
  21
0.63731
  31
0
  0
LINE
  8
0
  10
2.29996
  20
0.63731
  30
0
  11
2.28685
  21
0.63795
  31
0
  0
LINE
  8
0
  10
2.28685
  20
0.63795
  30
0
  11
2.27388
  21
0.63891
  31
0
  0
LINE
  8
0
  10
2.27388
  20
0.63891
  30
0
  11
2.26107
  21
0.6402
  31
0
  0
LINE
  8
0
  10
2.26107
  20
0.6402
  30
0
  11
2.24843
  21
0.64183
  31
0
  0
LINE
  8
0
  10
2.24843
  20
0.64183
  30
0
  11
2.23596
  21
0.64381
  31
0
  0
LINE
  8
0
  10
2.23596
  20
0.64381
  30
0
  11
2.22369
  21
0.64615
  31
0
  0
LINE
  8
0
  10
2.22369
  20
0.64615
  30
0
  11
2.21163
  21
0.64889
  31
0
  0
LINE
  8
0
  10
2.21163
  20
0.64889
  30
0
  11
2.19981
  21
0.65206
  31
0
  0
LINE
  8
0
  10
2.19981
  20
0.65206
  30
0
  11
2.194
  21
0.65381
  31
0
  0
LINE
  8
0
  10
2.194
  20
0.65381
  30
0
  11
2.18826
  21
0.6557
  31
0
  0
LINE
  8
0
  10
2.18826
  20
0.6557
  30
0
  11
2.18542
  21
0.65669
  31
0
  0
LINE
  8
0
  10
2.18542
  20
0.65669
  30
0
  11
2.1826
  21
0.65772
  31
0
  0
LINE
  8
0
  10
2.1826
  20
0.65772
  30
0
  11
2.17981
  21
0.6588
  31
0
  0
LINE
  8
0
  10
2.17981
  20
0.6588
  30
0
  11
2.17704
  21
0.65991
  31
0
  0
LINE
  8
0
  10
2.17704
  20
0.65991
  30
0
  11
2.14179
  21
0.60437
  31
0
  0
LINE
  8
0
  10
2.14179
  20
0.60437
  30
0
  11
2.14398
  21
0.60234
  31
0
  0
LINE
  8
0
  10
2.14398
  20
0.60234
  30
0
  11
2.14614
  21
0.60027
  31
0
  0
LINE
  8
0
  10
2.14614
  20
0.60027
  30
0
  11
2.14828
  21
0.59816
  31
0
  0
LINE
  8
0
  10
2.14828
  20
0.59816
  30
0
  11
2.15039
  21
0.59602
  31
0
  0
LINE
  8
0
  10
2.15039
  20
0.59602
  30
0
  11
2.15454
  21
0.59163
  31
0
  0
LINE
  8
0
  10
2.15454
  20
0.59163
  30
0
  11
2.1586
  21
0.58712
  31
0
  0
LINE
  8
0
  10
2.1586
  20
0.58712
  30
0
  11
2.1665
  21
0.57777
  31
0
  0
LINE
  8
0
  10
2.1665
  20
0.57777
  30
0
  11
2.17411
  21
0.56802
  31
0
  0
LINE
  8
0
  10
2.17411
  20
0.56802
  30
0
  11
2.18146
  21
0.55792
  31
0
  0
LINE
  8
0
  10
2.18146
  20
0.55792
  30
0
  11
2.18855
  21
0.54748
  31
0
  0
LINE
  8
0
  10
2.18855
  20
0.54748
  30
0
  11
2.19541
  21
0.53673
  31
0
  0
LINE
  8
0
  10
2.19541
  20
0.53673
  30
0
  11
2.20203
  21
0.52569
  31
0
  0
LINE
  8
0
  10
2.20203
  20
0.52569
  30
0
  11
2.20842
  21
0.51437
  31
0
  0
LINE
  8
0
  10
2.20842
  20
0.51437
  30
0
  11
2.21459
  21
0.50278
  31
0
  0
LINE
  8
0
  10
2.21459
  20
0.50278
  30
0
  11
2.18157
  21
0.45959
  31
0
  0
LINE
  8
0
  10
2.18157
  20
0.45959
  30
0
  11
2.16876
  21
0.4625
  31
0
  0
LINE
  8
0
  10
2.16876
  20
0.4625
  30
0
  11
2.15616
  21
0.4657
  31
0
  0
LINE
  8
0
  10
2.15616
  20
0.4657
  30
0
  11
2.14377
  21
0.46919
  31
0
  0
LINE
  8
0
  10
2.14377
  20
0.46919
  30
0
  11
2.1316
  21
0.47299
  31
0
  0
LINE
  8
0
  10
2.1316
  20
0.47299
  30
0
  11
2.11967
  21
0.4771
  31
0
  0
LINE
  8
0
  10
2.11967
  20
0.4771
  30
0
  11
2.10799
  21
0.48154
  31
0
  0
LINE
  8
0
  10
2.10799
  20
0.48154
  30
0
  11
2.09659
  21
0.48633
  31
0
  0
LINE
  8
0
  10
2.09659
  20
0.48633
  30
0
  11
2.0855
  21
0.4915
  31
0
  0
LINE
  8
0
  10
2.0855
  20
0.4915
  30
0
  11
2.08008
  21
0.49424
  31
0
  0
LINE
  8
0
  10
2.08008
  20
0.49424
  30
0
  11
2.07475
  21
0.49709
  31
0
  0
LINE
  8
0
  10
2.07475
  20
0.49709
  30
0
  11
2.07213
  21
0.49857
  31
0
  0
LINE
  8
0
  10
2.07213
  20
0.49857
  30
0
  11
2.06954
  21
0.50007
  31
0
  0
LINE
  8
0
  10
2.06954
  20
0.50007
  30
0
  11
2.06697
  21
0.50161
  31
0
  0
LINE
  8
0
  10
2.06697
  20
0.50161
  30
0
  11
2.06444
  21
0.5032
  31
0
  0
LINE
  8
0
  10
2.06444
  20
0.5032
  30
0
  11
2.02008
  21
0.45462
  31
0
  0
LINE
  8
0
  10
2.02008
  20
0.45462
  30
0
  11
2.02188
  21
0.45224
  31
0
  0
LINE
  8
0
  10
2.02188
  20
0.45224
  30
0
  11
2.02365
  21
0.44982
  31
0
  0
LINE
  8
0
  10
2.02365
  20
0.44982
  30
0
  11
2.02539
  21
0.44738
  31
0
  0
LINE
  8
0
  10
2.02539
  20
0.44738
  30
0
  11
2.02709
  21
0.4449
  31
0
  0
LINE
  8
0
  10
2.02709
  20
0.4449
  30
0
  11
2.03042
  21
0.43985
  31
0
  0
LINE
  8
0
  10
2.03042
  20
0.43985
  30
0
  11
2.03363
  21
0.43471
  31
0
  0
LINE
  8
0
  10
2.03363
  20
0.43471
  30
0
  11
2.03979
  21
0.42413
  31
0
  0
LINE
  8
0
  10
2.03979
  20
0.42413
  30
0
  11
2.04559
  21
0.41321
  31
0
  0
LINE
  8
0
  10
2.04559
  20
0.41321
  30
0
  11
2.05107
  21
0.40198
  31
0
  0
LINE
  8
0
  10
2.05107
  20
0.40198
  30
0
  11
2.05625
  21
0.39047
  31
0
  0
LINE
  8
0
  10
2.05625
  20
0.39047
  30
0
  11
2.06114
  21
0.3787
  31
0
  0
LINE
  8
0
  10
2.06114
  20
0.3787
  30
0
  11
2.06574
  21
0.36667
  31
0
  0
LINE
  8
0
  10
2.06574
  20
0.36667
  30
0
  11
2.07007
  21
0.35441
  31
0
  0
LINE
  8
0
  10
2.07007
  20
0.35441
  30
0
  11
2.07413
  21
0.34193
  31
0
  0
LINE
  8
0
  10
2.07413
  20
0.34193
  30
0
  11
2.03411
  21
0.30513
  31
0
  0
LINE
  8
0
  10
2.03411
  20
0.30513
  30
0
  11
2.022
  21
0.31022
  31
0
  0
LINE
  8
0
  10
2.022
  20
0.31022
  30
0
  11
2.01015
  21
0.31555
  31
0
  0
LINE
  8
0
  10
2.01015
  20
0.31555
  30
0
  11
1.99855
  21
0.32115
  31
0
  0
LINE
  8
0
  10
1.99855
  20
0.32115
  30
0
  11
1.98723
  21
0.327
  31
0
  0
LINE
  8
0
  10
1.98723
  20
0.327
  30
0
  11
1.97619
  21
0.33312
  31
0
  0
LINE
  8
0
  10
1.97619
  20
0.33312
  30
0
  11
1.96546
  21
0.33952
  31
0
  0
LINE
  8
0
  10
1.96546
  20
0.33952
  30
0
  11
1.95507
  21
0.34622
  31
0
  0
LINE
  8
0
  10
1.95507
  20
0.34622
  30
0
  11
1.94504
  21
0.35324
  31
0
  0
LINE
  8
0
  10
1.94504
  20
0.35324
  30
0
  11
1.94018
  21
0.35688
  31
0
  0
LINE
  8
0
  10
1.94018
  20
0.35688
  30
0
  11
1.93543
  21
0.36061
  31
0
  0
LINE
  8
0
  10
1.93543
  20
0.36061
  30
0
  11
1.9331
  21
0.36252
  31
0
  0
LINE
  8
0
  10
1.9331
  20
0.36252
  30
0
  11
1.93081
  21
0.36445
  31
0
  0
LINE
  8
0
  10
1.93081
  20
0.36445
  30
0
  11
1.92855
  21
0.36641
  31
0
  0
LINE
  8
0
  10
1.92855
  20
0.36641
  30
0
  11
1.92633
  21
0.36841
  31
0
  0
LINE
  8
0
  10
1.92633
  20
0.36841
  30
0
  11
1.87421
  21
0.32827
  31
0
  0
LINE
  8
0
  10
1.87421
  20
0.32827
  30
0
  11
1.87558
  21
0.32562
  31
0
  0
LINE
  8
0
  10
1.87558
  20
0.32562
  30
0
  11
1.8769
  21
0.32293
  31
0
  0
LINE
  8
0
  10
1.8769
  20
0.32293
  30
0
  11
1.87818
  21
0.32022
  31
0
  0
LINE
  8
0
  10
1.87818
  20
0.32022
  30
0
  11
1.87943
  21
0.31748
  31
0
  0
LINE
  8
0
  10
1.87943
  20
0.31748
  30
0
  11
1.88183
  21
0.31194
  31
0
  0
LINE
  8
0
  10
1.88183
  20
0.31194
  30
0
  11
1.8841
  21
0.30631
  31
0
  0
LINE
  8
0
  10
1.8841
  20
0.30631
  30
0
  11
1.88833
  21
0.29482
  31
0
  0
LINE
  8
0
  10
1.88833
  20
0.29482
  30
0
  11
1.89214
  21
0.28306
  31
0
  0
LINE
  8
0
  10
1.89214
  20
0.28306
  30
0
  11
1.89559
  21
0.27105
  31
0
  0
LINE
  8
0
  10
1.89559
  20
0.27105
  30
0
  11
1.89869
  21
0.25882
  31
0
  0
LINE
  8
0
  10
1.89869
  20
0.25882
  30
0
  11
1.90146
  21
0.24638
  31
0
  0
LINE
  8
0
  10
1.90146
  20
0.24638
  30
0
  11
1.90391
  21
0.23374
  31
0
  0
LINE
  8
0
  10
1.90391
  20
0.23374
  30
0
  11
1.90604
  21
0.22091
  31
0
  0
LINE
  8
0
  10
1.90604
  20
0.22091
  30
0
  11
1.90787
  21
0.20791
  31
0
  0
LINE
  8
0
  10
1.90787
  20
0.20791
  30
0
  11
1.86207
  21
0.17862
  31
0
  0
LINE
  8
0
  10
1.86207
  20
0.17862
  30
0
  11
1.85103
  21
0.18573
  31
0
  0
LINE
  8
0
  10
1.85103
  20
0.18573
  30
0
  11
1.84028
  21
0.19305
  31
0
  0
LINE
  8
0
  10
1.84028
  20
0.19305
  30
0
  11
1.82983
  21
0.20057
  31
0
  0
LINE
  8
0
  10
1.82983
  20
0.20057
  30
0
  11
1.8197
  21
0.2083
  31
0
  0
LINE
  8
0
  10
1.8197
  20
0.2083
  30
0
  11
1.80989
  21
0.21625
  31
0
  0
LINE
  8
0
  10
1.80989
  20
0.21625
  30
0
  11
1.80044
  21
0.22441
  31
0
  0
LINE
  8
0
  10
1.80044
  20
0.22441
  30
0
  11
1.79136
  21
0.23281
  31
0
  0
LINE
  8
0
  10
1.79136
  20
0.23281
  30
0
  11
1.78271
  21
0.24147
  31
0
  0
LINE
  8
0
  10
1.78271
  20
0.24147
  30
0
  11
1.77855
  21
0.24589
  31
0
  0
LINE
  8
0
  10
1.77855
  20
0.24589
  30
0
  11
1.77452
  21
0.25039
  31
0
  0
LINE
  8
0
  10
1.77452
  20
0.25039
  30
0
  11
1.77256
  21
0.25268
  31
0
  0
LINE
  8
0
  10
1.77256
  20
0.25268
  30
0
  11
1.77064
  21
0.25498
  31
0
  0
LINE
  8
0
  10
1.77064
  20
0.25498
  30
0
  11
1.76876
  21
0.2573
  31
0
  0
LINE
  8
0
  10
1.76876
  20
0.2573
  30
0
  11
1.76692
  21
0.25966
  31
0
  0
LINE
  8
0
  10
1.76692
  20
0.25966
  30
0
  11
1.70862
  21
0.22918
  31
0
  0
LINE
  8
0
  10
1.70862
  20
0.22918
  30
0
  11
1.7095
  21
0.22633
  31
0
  0
LINE
  8
0
  10
1.7095
  20
0.22633
  30
0
  11
1.71034
  21
0.22345
  31
0
  0
LINE
  8
0
  10
1.71034
  20
0.22345
  30
0
  11
1.71113
  21
0.22056
  31
0
  0
LINE
  8
0
  10
1.71113
  20
0.22056
  30
0
  11
1.71188
  21
0.21765
  31
0
  0
LINE
  8
0
  10
1.71188
  20
0.21765
  30
0
  11
1.71328
  21
0.21177
  31
0
  0
LINE
  8
0
  10
1.71328
  20
0.21177
  30
0
  11
1.71455
  21
0.20583
  31
0
  0
LINE
  8
0
  10
1.71455
  20
0.20583
  30
0
  11
1.71671
  21
0.19379
  31
0
  0
LINE
  8
0
  10
1.71671
  20
0.19379
  30
0
  11
1.71843
  21
0.18154
  31
0
  0
LINE
  8
0
  10
1.71843
  20
0.18154
  30
0
  11
1.71974
  21
0.16912
  31
0
  0
LINE
  8
0
  10
1.71974
  20
0.16912
  30
0
  11
1.72067
  21
0.15653
  31
0
  0
LINE
  8
0
  10
1.72067
  20
0.15653
  30
0
  11
1.72123
  21
0.14379
  31
0
  0
LINE
  8
0
  10
1.72123
  20
0.14379
  30
0
  11
1.72145
  21
0.13092
  31
0
  0
LINE
  8
0
  10
1.72145
  20
0.13092
  30
0
  11
1.72132
  21
0.11792
  31
0
  0
LINE
  8
0
  10
1.72132
  20
0.11792
  30
0
  11
1.72086
  21
0.1048
  31
0
  0
LINE
  8
0
  10
1.72086
  20
0.1048
  30
0
  11
1.67067
  21
0.08391
  31
0
  0
LINE
  8
0
  10
1.67067
  20
0.08391
  30
0
  11
1.66104
  21
0.09283
  31
0
  0
LINE
  8
0
  10
1.66104
  20
0.09283
  30
0
  11
1.65172
  21
0.1019
  31
0
  0
LINE
  8
0
  10
1.65172
  20
0.1019
  30
0
  11
1.64274
  21
0.11112
  31
0
  0
LINE
  8
0
  10
1.64274
  20
0.11112
  30
0
  11
1.6341
  21
0.12049
  31
0
  0
LINE
  8
0
  10
1.6341
  20
0.12049
  30
0
  11
1.62582
  21
0.13002
  31
0
  0
LINE
  8
0
  10
1.62582
  20
0.13002
  30
0
  11
1.61793
  21
0.13971
  31
0
  0
LINE
  8
0
  10
1.61793
  20
0.13971
  30
0
  11
1.61045
  21
0.14956
  31
0
  0
LINE
  8
0
  10
1.61045
  20
0.14956
  30
0
  11
1.60343
  21
0.15958
  31
0
  0
LINE
  8
0
  10
1.60343
  20
0.15958
  30
0
  11
1.60011
  21
0.16466
  31
0
  0
LINE
  8
0
  10
1.60011
  20
0.16466
  30
0
  11
1.59692
  21
0.16979
  31
0
  0
LINE
  8
0
  10
1.59692
  20
0.16979
  30
0
  11
1.59539
  21
0.17238
  31
0
  0
LINE
  8
0
  10
1.59539
  20
0.17238
  30
0
  11
1.59389
  21
0.17498
  31
0
  0
LINE
  8
0
  10
1.59389
  20
0.17498
  30
0
  11
1.59244
  21
0.1776
  31
0
  0
LINE
  8
0
  10
1.59244
  20
0.1776
  30
0
  11
1.59104
  21
0.18023
  31
0
  0
LINE
  8
0
  10
1.59104
  20
0.18023
  30
0
  11
1.52834
  21
0.16034
  31
0
  0
LINE
  8
0
  10
1.52834
  20
0.16034
  30
0
  11
1.52871
  21
0.15738
  31
0
  0
LINE
  8
0
  10
1.52871
  20
0.15738
  30
0
  11
1.52903
  21
0.15441
  31
0
  0
LINE
  8
0
  10
1.52903
  20
0.15441
  30
0
  11
1.52931
  21
0.15142
  31
0
  0
LINE
  8
0
  10
1.52931
  20
0.15142
  30
0
  11
1.52955
  21
0.14842
  31
0
  0
LINE
  8
0
  10
1.52955
  20
0.14842
  30
0
  11
1.52991
  21
0.14239
  31
0
  0
LINE
  8
0
  10
1.52991
  20
0.14239
  30
0
  11
1.53012
  21
0.13632
  31
0
  0
LINE
  8
0
  10
1.53012
  20
0.13632
  30
0
  11
1.53016
  21
0.12408
  31
0
  0
LINE
  8
0
  10
1.53016
  20
0.12408
  30
0
  11
1.52972
  21
0.11173
  31
0
  0
LINE
  8
0
  10
1.52972
  20
0.11173
  30
0
  11
1.52886
  21
0.09926
  31
0
  0
LINE
  8
0
  10
1.52886
  20
0.09926
  30
0
  11
1.52759
  21
0.08671
  31
0
  0
LINE
  8
0
  10
1.52759
  20
0.08671
  30
0
  11
1.52593
  21
0.07407
  31
0
  0
LINE
  8
0
  10
1.52593
  20
0.07407
  30
0
  11
1.52391
  21
0.06135
  31
0
  0
LINE
  8
0
  10
1.52391
  20
0.06135
  30
0
  11
1.52152
  21
0.04857
  31
0
  0
LINE
  8
0
  10
1.52152
  20
0.04857
  30
0
  11
1.51879
  21
0.03573
  31
0
  0
LINE
  8
0
  10
1.51879
  20
0.03573
  30
0
  11
1.46574
  21
0.02387
  31
0
  0
LINE
  8
0
  10
1.46574
  20
0.02387
  30
0
  11
1.4578
  21
0.03433
  31
0
  0
LINE
  8
0
  10
1.4578
  20
0.03433
  30
0
  11
1.4502
  21
0.04488
  31
0
  0
LINE
  8
0
  10
1.4502
  20
0.04488
  30
0
  11
1.44296
  21
0.05552
  31
0
  0
LINE
  8
0
  10
1.44296
  20
0.05552
  30
0
  11
1.43608
  21
0.06625
  31
0
  0
LINE
  8
0
  10
1.43608
  20
0.06625
  30
0
  11
1.42958
  21
0.07707
  31
0
  0
LINE
  8
0
  10
1.42958
  20
0.07707
  30
0
  11
1.42349
  21
0.08798
  31
0
  0
LINE
  8
0
  10
1.42349
  20
0.08798
  30
0
  11
1.41784
  21
0.09898
  31
0
  0
LINE
  8
0
  10
1.41784
  20
0.09898
  30
0
  11
1.41266
  21
0.11007
  31
0
  0
LINE
  8
0
  10
1.41266
  20
0.11007
  30
0
  11
1.41027
  21
0.11565
  31
0
  0
LINE
  8
0
  10
1.41027
  20
0.11565
  30
0
  11
1.40803
  21
0.12126
  31
0
  0
LINE
  8
0
  10
1.40803
  20
0.12126
  30
0
  11
1.40696
  21
0.12407
  31
0
  0
LINE
  8
0
  10
1.40696
  20
0.12407
  30
0
  11
1.40594
  21
0.12689
  31
0
  0
LINE
  8
0
  10
1.40594
  20
0.12689
  30
0
  11
1.40497
  21
0.12972
  31
0
  0
LINE
  8
0
  10
1.40497
  20
0.12972
  30
0
  11
1.40405
  21
0.13256
  31
0
  0
LINE
  8
0
  10
1.40405
  20
0.13256
  30
0
  11
1.33884
  21
0.12386
  31
0
  0
LINE
  8
0
  10
1.33884
  20
0.12386
  30
0
  11
1.33869
  21
0.12088
  31
0
  0
LINE
  8
0
  10
1.33869
  20
0.12088
  30
0
  11
1.33849
  21
0.11789
  31
0
  0
LINE
  8
0
  10
1.33849
  20
0.11789
  30
0
  11
1.33825
  21
0.1149
  31
0
  0
LINE
  8
0
  10
1.33825
  20
0.1149
  30
0
  11
1.33796
  21
0.11191
  31
0
  0
LINE
  8
0
  10
1.33796
  20
0.11191
  30
0
  11
1.33727
  21
0.10591
  31
0
  0
LINE
  8
0
  10
1.33727
  20
0.10591
  30
0
  11
1.33642
  21
0.0999
  31
0
  0
LINE
  8
0
  10
1.33642
  20
0.0999
  30
0
  11
1.33434
  21
0.08784
  31
0
  0
LINE
  8
0
  10
1.33434
  20
0.08784
  30
0
  11
1.33176
  21
0.07574
  31
0
  0
LINE
  8
0
  10
1.33176
  20
0.07574
  30
0
  11
1.32875
  21
0.06362
  31
0
  0
LINE
  8
0
  10
1.32875
  20
0.06362
  30
0
  11
1.32531
  21
0.05147
  31
0
  0
LINE
  8
0
  10
1.32531
  20
0.05147
  30
0
  11
1.32149
  21
0.03931
  31
0
  0
LINE
  8
0
  10
1.32149
  20
0.03931
  30
0
  11
1.31729
  21
0.02714
  31
0
  0
LINE
  8
0
  10
1.31729
  20
0.02714
  30
0
  11
1.31272
  21
0.01497
  31
0
  0
LINE
  8
0
  10
1.31272
  20
0.01497
  30
0
  11
1.3078
  21
0.0028
  31
0
  0
LINE
  8
0
  10
1.3078
  20
0.0028
  30
0
  11
1.25349
  21
0.00033
  31
0
  0
LINE
  8
0
  10
1.25349
  20
0.00033
  30
0
  11
1.24749
  21
0.01201
  31
0
  0
LINE
  8
0
  10
1.24749
  20
0.01201
  30
0
  11
1.24184
  21
0.02372
  31
0
  0
LINE
  8
0
  10
1.24184
  20
0.02372
  30
0
  11
1.23655
  21
0.03546
  31
0
  0
LINE
  8
0
  10
1.23655
  20
0.03546
  30
0
  11
1.23164
  21
0.04722
  31
0
  0
LINE
  8
0
  10
1.23164
  20
0.04722
  30
0
  11
1.22712
  21
0.059
  31
0
  0
LINE
  8
0
  10
1.22712
  20
0.059
  30
0
  11
1.22302
  21
0.0708
  31
0
  0
LINE
  8
0
  10
1.22302
  20
0.0708
  30
0
  11
1.21936
  21
0.08262
  31
0
  0
LINE
  8
0
  10
1.21936
  20
0.08262
  30
0
  11
1.21619
  21
0.09444
  31
0
  0
LINE
  8
0
  10
1.21619
  20
0.09444
  30
0
  11
1.2148
  21
0.10035
  31
0
  0
LINE
  8
0
  10
1.2148
  20
0.10035
  30
0
  11
1.21357
  21
0.10626
  31
0
  0
LINE
  8
0
  10
1.21357
  20
0.10626
  30
0
  11
1.21301
  21
0.10922
  31
0
  0
LINE
  8
0
  10
1.21301
  20
0.10922
  30
0
  11
1.2125
  21
0.11217
  31
0
  0
LINE
  8
0
  10
1.2125
  20
0.11217
  30
0
  11
1.21203
  21
0.11513
  31
0
  0
LINE
  8
0
  10
1.21203
  20
0.11513
  30
0
  11
1.21161
  21
0.11808
  31
0
  0
LINE
  8
0
  10
1.21161
  20
0.11808
  30
0
  11
1.14589
  21
0.12084
  31
0
  0
LINE
  8
0
  10
1.14589
  20
0.12084
  30
0
  11
1.14522
  21
0.11793
  31
0
  0
LINE
  8
0
  10
1.14522
  20
0.11793
  30
0
  11
1.14451
  21
0.11502
  31
0
  0
LINE
  8
0
  10
1.14451
  20
0.11502
  30
0
  11
1.14375
  21
0.11212
  31
0
  0
LINE
  8
0
  10
1.14375
  20
0.11212
  30
0
  11
1.14295
  21
0.10922
  31
0
  0
LINE
  8
0
  10
1.14295
  20
0.10922
  30
0
  11
1.14122
  21
0.10343
  31
0
  0
LINE
  8
0
  10
1.14122
  20
0.10343
  30
0
  11
1.13934
  21
0.09766
  31
0
  0
LINE
  8
0
  10
1.13934
  20
0.09766
  30
0
  11
1.13519
  21
0.08614
  31
0
  0
LINE
  8
0
  10
1.13519
  20
0.08614
  30
0
  11
1.13056
  21
0.07468
  31
0
  0
LINE
  8
0
  10
1.13056
  20
0.07468
  30
0
  11
1.12548
  21
0.06326
  31
0
  0
LINE
  8
0
  10
1.12548
  20
0.06326
  30
0
  11
1.11999
  21
0.0519
  31
0
  0
LINE
  8
0
  10
1.11999
  20
0.0519
  30
0
  11
1.11412
  21
0.04059
  31
0
  0
LINE
  8
0
  10
1.11412
  20
0.04059
  30
0
  11
1.10786
  21
0.02933
  31
0
  0
LINE
  8
0
  10
1.10786
  20
0.02933
  30
0
  11
1.10125
  21
0.01814
  31
0
  0
LINE
  8
0
  10
1.10125
  20
0.01814
  30
0
  11
1.0943
  21
0.007
  31
0
  0
LINE
  8
0
  10
1.0943
  20
0.007
  30
0
  11
1.04038
  21
0.014
  31
0
  0
LINE
  8
0
  10
1.04038
  20
0.014
  30
0
  11
1.0365
  21
0.02655
  31
0
  0
LINE
  8
0
  10
1.0365
  20
0.02655
  30
0
  11
1.03297
  21
0.03906
  31
0
  0
LINE
  8
0
  10
1.03297
  20
0.03906
  30
0
  11
1.0298
  21
0.05154
  31
0
  0
LINE
  8
0
  10
1.0298
  20
0.05154
  30
0
  11
1.02701
  21
0.06398
  31
0
  0
LINE
  8
0
  10
1.02701
  20
0.06398
  30
0
  11
1.0246
  21
0.07636
  31
0
  0
LINE
  8
0
  10
1.0246
  20
0.07636
  30
0
  11
1.02261
  21
0.0887
  31
0
  0
LINE
  8
0
  10
1.02261
  20
0.0887
  30
0
  11
1.02106
  21
0.10097
  31
0
  0
LINE
  8
0
  10
1.02106
  20
0.10097
  30
0
  11
1.01999
  21
0.11316
  31
0
  0
LINE
  8
0
  10
1.01999
  20
0.11316
  30
0
  11
1.01965
  21
0.11922
  31
0
  0
LINE
  8
0
  10
1.01965
  20
0.11922
  30
0
  11
1.01946
  21
0.12526
  31
0
  0
LINE
  8
0
  10
1.01946
  20
0.12526
  30
0
  11
1.01942
  21
0.12827
  31
0
  0
LINE
  8
0
  10
1.01942
  20
0.12827
  30
0
  11
1.01943
  21
0.13127
  31
0
  0
LINE
  8
0
  10
1.01943
  20
0.13127
  30
0
  11
1.01948
  21
0.13426
  31
0
  0
LINE
  8
0
  10
1.01948
  20
0.13426
  30
0
  11
1.01959
  21
0.13724
  31
0
  0
LINE
  8
0
  10
1.01959
  20
0.13724
  30
0
  11
0.95534
  21
0.15137
  31
0
  0
LINE
  8
0
  10
0.95534
  20
0.15137
  30
0
  11
0.95418
  21
0.14862
  31
0
  0
LINE
  8
0
  10
0.95418
  20
0.14862
  30
0
  11
0.95297
  21
0.14588
  31
0
  0
LINE
  8
0
  10
0.95297
  20
0.14588
  30
0
  11
0.95172
  21
0.14315
  31
0
  0
LINE
  8
0
  10
0.95172
  20
0.14315
  30
0
  11
0.95043
  21
0.14044
  31
0
  0
LINE
  8
0
  10
0.95043
  20
0.14044
  30
0
  11
0.94772
  21
0.13504
  31
0
  0
LINE
  8
0
  10
0.94772
  20
0.13504
  30
0
  11
0.94487
  21
0.12967
  31
0
  0
LINE
  8
0
  10
0.94487
  20
0.12967
  30
0
  11
0.93878
  21
0.11906
  31
0
  0
LINE
  8
0
  10
0.93878
  20
0.11906
  30
0
  11
0.93223
  21
0.10857
  31
0
  0
LINE
  8
0
  10
0.93223
  20
0.10857
  30
0
  11
0.92525
  21
0.09821
  31
0
  0
LINE
  8
0
  10
0.92525
  20
0.09821
  30
0
  11
0.91787
  21
0.08797
  31
0
  0
LINE
  8
0
  10
0.91787
  20
0.08797
  30
0
  11
0.91011
  21
0.07785
  31
0
  0
LINE
  8
0
  10
0.91011
  20
0.07785
  30
0
  11
0.902
  21
0.06785
  31
0
  0
LINE
  8
0
  10
0.902
  20
0.06785
  30
0
  11
0.89355
  21
0.05798
  31
0
  0
LINE
  8
0
  10
0.89355
  20
0.05798
  30
0
  11
0.88477
  21
0.04822
  31
0
  0
LINE
  8
0
  10
0.88477
  20
0.04822
  30
0
  11
0.83289
  21
0.06448
  31
0
  0
LINE
  8
0
  10
0.83289
  20
0.06448
  30
0
  11
0.83124
  21
0.0775
  31
0
  0
LINE
  8
0
  10
0.83124
  20
0.0775
  30
0
  11
0.82994
  21
0.09044
  31
0
  0
LINE
  8
0
  10
0.82994
  20
0.09044
  30
0
  11
0.82898
  21
0.10328
  31
0
  0
LINE
  8
0
  10
0.82898
  20
0.10328
  30
0
  11
0.82839
  21
0.11601
  31
0
  0
LINE
  8
0
  10
0.82839
  20
0.11601
  30
0
  11
0.82818
  21
0.12863
  31
0
  0
LINE
  8
0
  10
0.82818
  20
0.12863
  30
0
  11
0.82836
  21
0.14112
  31
0
  0
LINE
  8
0
  10
0.82836
  20
0.14112
  30
0
  11
0.82896
  21
0.15347
  31
0
  0
LINE
  8
0
  10
0.82896
  20
0.15347
  30
0
  11
0.83002
  21
0.16567
  31
0
  0
LINE
  8
0
  10
0.83002
  20
0.16567
  30
0
  11
0.83074
  21
0.1717
  31
0
  0
LINE
  8
0
  10
0.83074
  20
0.1717
  30
0
  11
0.8316
  21
0.17767
  31
0
  0
LINE
  8
0
  10
0.8316
  20
0.17767
  30
0
  11
0.83209
  21
0.18064
  31
0
  0
LINE
  8
0
  10
0.83209
  20
0.18064
  30
0
  11
0.83262
  21
0.1836
  31
0
  0
LINE
  8
0
  10
0.83262
  20
0.1836
  30
0
  11
0.83319
  21
0.18653
  31
0
  0
LINE
  8
0
  10
0.83319
  20
0.18653
  30
0
  11
0.83381
  21
0.18945
  31
0
  0
LINE
  8
0
  10
0.83381
  20
0.18945
  30
0
  11
0.77299
  21
0.21452
  31
0
  0
LINE
  8
0
  10
0.77299
  20
0.21452
  30
0
  11
0.77137
  21
0.21201
  31
0
  0
LINE
  8
0
  10
0.77137
  20
0.21201
  30
0
  11
0.7697
  21
0.20953
  31
0
  0
LINE
  8
0
  10
0.7697
  20
0.20953
  30
0
  11
0.768
  21
0.20706
  31
0
  0
LINE
  8
0
  10
0.768
  20
0.20706
  30
0
  11
0.76625
  21
0.20461
  31
0
  0
LINE
  8
0
  10
0.76625
  20
0.20461
  30
0
  11
0.76265
  21
0.19976
  31
0
  0
LINE
  8
0
  10
0.76265
  20
0.19976
  30
0
  11
0.75891
  21
0.19498
  31
0
  0
LINE
  8
0
  10
0.75891
  20
0.19498
  30
0
  11
0.75107
  21
0.18557
  31
0
  0
LINE
  8
0
  10
0.75107
  20
0.18557
  30
0
  11
0.7428
  21
0.17639
  31
0
  0
LINE
  8
0
  10
0.7428
  20
0.17639
  30
0
  11
0.73412
  21
0.1674
  31
0
  0
LINE
  8
0
  10
0.73412
  20
0.1674
  30
0
  11
0.72508
  21
0.15859
  31
0
  0
LINE
  8
0
  10
0.72508
  20
0.15859
  30
0
  11
0.71568
  21
0.14998
  31
0
  0
LINE
  8
0
  10
0.71568
  20
0.14998
  30
0
  11
0.70596
  21
0.14154
  31
0
  0
LINE
  8
0
  10
0.70596
  20
0.14154
  30
0
  11
0.69592
  21
0.13328
  31
0
  0
LINE
  8
0
  10
0.69592
  20
0.13328
  30
0
  11
0.68557
  21
0.12519
  31
0
  0
LINE
  8
0
  10
0.68557
  20
0.12519
  30
0
  11
0.63731
  21
0.15021
  31
0
  0
LINE
  8
0
  10
0.63731
  20
0.15021
  30
0
  11
0.63795
  21
0.16333
  31
0
  0
LINE
  8
0
  10
0.63795
  20
0.16333
  30
0
  11
0.63891
  21
0.17629
  31
0
  0
LINE
  8
0
  10
0.63891
  20
0.17629
  30
0
  11
0.6402
  21
0.1891
  31
0
  0
LINE
  8
0
  10
0.6402
  20
0.1891
  30
0
  11
0.64183
  21
0.20175
  31
0
  0
LINE
  8
0
  10
0.64183
  20
0.20175
  30
0
  11
0.64381
  21
0.21421
  31
0
  0
LINE
  8
0
  10
0.64381
  20
0.21421
  30
0
  11
0.64615
  21
0.22648
  31
0
  0
LINE
  8
0
  10
0.64615
  20
0.22648
  30
0
  11
0.64889
  21
0.23854
  31
0
  0
LINE
  8
0
  10
0.64889
  20
0.23854
  30
0
  11
0.65206
  21
0.25036
  31
0
  0
LINE
  8
0
  10
0.65206
  20
0.25036
  30
0
  11
0.65381
  21
0.25618
  31
0
  0
LINE
  8
0
  10
0.65381
  20
0.25618
  30
0
  11
0.6557
  21
0.26191
  31
0
  0
LINE
  8
0
  10
0.6557
  20
0.26191
  30
0
  11
0.65669
  21
0.26475
  31
0
  0
LINE
  8
0
  10
0.65669
  20
0.26475
  30
0
  11
0.65772
  21
0.26757
  31
0
  0
LINE
  8
0
  10
0.65772
  20
0.26757
  30
0
  11
0.6588
  21
0.27036
  31
0
  0
LINE
  8
0
  10
0.6588
  20
0.27036
  30
0
  11
0.65991
  21
0.27313
  31
0
  0
LINE
  8
0
  10
0.65991
  20
0.27313
  30
0
  11
0.60437
  21
0.30838
  31
0
  0
LINE
  8
0
  10
0.60437
  20
0.30838
  30
0
  11
0.60234
  21
0.30619
  31
0
  0
LINE
  8
0
  10
0.60234
  20
0.30619
  30
0
  11
0.60027
  21
0.30403
  31
0
  0
LINE
  8
0
  10
0.60027
  20
0.30403
  30
0
  11
0.59816
  21
0.3019
  31
0
  0
LINE
  8
0
  10
0.59816
  20
0.3019
  30
0
  11
0.59602
  21
0.29979
  31
0
  0
LINE
  8
0
  10
0.59602
  20
0.29979
  30
0
  11
0.59163
  21
0.29564
  31
0
  0
LINE
  8
0
  10
0.59163
  20
0.29564
  30
0
  11
0.58712
  21
0.29158
  31
0
  0
LINE
  8
0
  10
0.58712
  20
0.29158
  30
0
  11
0.57777
  21
0.28368
  31
0
  0
LINE
  8
0
  10
0.57777
  20
0.28368
  30
0
  11
0.56802
  21
0.27607
  31
0
  0
LINE
  8
0
  10
0.56802
  20
0.27607
  30
0
  11
0.55792
  21
0.26872
  31
0
  0
LINE
  8
0
  10
0.55792
  20
0.26872
  30
0
  11
0.54748
  21
0.26162
  31
0
  0
LINE
  8
0
  10
0.54748
  20
0.26162
  30
0
  11
0.53673
  21
0.25477
  31
0
  0
LINE
  8
0
  10
0.53673
  20
0.25477
  30
0
  11
0.52569
  21
0.24815
  31
0
  0
LINE
  8
0
  10
0.52569
  20
0.24815
  30
0
  11
0.51437
  21
0.24175
  31
0
  0
LINE
  8
0
  10
0.51437
  20
0.24175
  30
0
  11
0.50278
  21
0.23559
  31
0
  0
LINE
  8
0
  10
0.50278
  20
0.23559
  30
0
  11
0.45959
  21
0.26861
  31
0
  0
LINE
  8
0
  10
0.45959
  20
0.26861
  30
0
  11
0.4625
  21
0.28141
  31
0
  0
LINE
  8
0
  10
0.4625
  20
0.28141
  30
0
  11
0.4657
  21
0.29401
  31
0
  0
LINE
  8
0
  10
0.4657
  20
0.29401
  30
0
  11
0.46919
  21
0.30641
  31
0
  0
LINE
  8
0
  10
0.46919
  20
0.30641
  30
0
  11
0.47299
  21
0.31857
  31
0
  0
LINE
  8
0
  10
0.47299
  20
0.31857
  30
0
  11
0.4771
  21
0.33051
  31
0
  0
LINE
  8
0
  10
0.4771
  20
0.33051
  30
0
  11
0.48154
  21
0.34218
  31
0
  0
LINE
  8
0
  10
0.48154
  20
0.34218
  30
0
  11
0.48633
  21
0.35358
  31
0
  0
LINE
  8
0
  10
0.48633
  20
0.35358
  30
0
  11
0.4915
  21
0.36468
  31
0
  0
LINE
  8
0
  10
0.4915
  20
0.36468
  30
0
  11
0.49424
  21
0.3701
  31
0
  0
LINE
  8
0
  10
0.49424
  20
0.3701
  30
0
  11
0.49709
  21
0.37542
  31
0
  0
LINE
  8
0
  10
0.49709
  20
0.37542
  30
0
  11
0.49857
  21
0.37804
  31
0
  0
LINE
  8
0
  10
0.49857
  20
0.37804
  30
0
  11
0.50007
  21
0.38064
  31
0
  0
LINE
  8
0
  10
0.50007
  20
0.38064
  30
0
  11
0.50161
  21
0.3832
  31
0
  0
LINE
  8
0
  10
0.50161
  20
0.3832
  30
0
  11
0.5032
  21
0.38574
  31
0
  0
LINE
  8
0
  10
0.5032
  20
0.38574
  30
0
  11
0.45462
  21
0.43009
  31
0
  0
LINE
  8
0
  10
0.45462
  20
0.43009
  30
0
  11
0.45224
  21
0.42829
  31
0
  0
LINE
  8
0
  10
0.45224
  20
0.42829
  30
0
  11
0.44982
  21
0.42652
  31
0
  0
LINE
  8
0
  10
0.44982
  20
0.42652
  30
0
  11
0.44738
  21
0.42479
  31
0
  0
LINE
  8
0
  10
0.44738
  20
0.42479
  30
0
  11
0.4449
  21
0.42308
  31
0
  0
LINE
  8
0
  10
0.4449
  20
0.42308
  30
0
  11
0.43985
  21
0.41976
  31
0
  0
LINE
  8
0
  10
0.43985
  20
0.41976
  30
0
  11
0.43471
  21
0.41654
  31
0
  0
LINE
  8
0
  10
0.43471
  20
0.41654
  30
0
  11
0.42413
  21
0.41039
  31
0
  0
LINE
  8
0
  10
0.42413
  20
0.41039
  30
0
  11
0.41321
  21
0.40458
  31
0
  0
LINE
  8
0
  10
0.41321
  20
0.40458
  30
0
  11
0.40198
  21
0.3991
  31
0
  0
LINE
  8
0
  10
0.40198
  20
0.3991
  30
0
  11
0.39047
  21
0.39392
  31
0
  0
LINE
  8
0
  10
0.39047
  20
0.39392
  30
0
  11
0.3787
  21
0.38904
  31
0
  0
LINE
  8
0
  10
0.3787
  20
0.38904
  30
0
  11
0.36667
  21
0.38444
  31
0
  0
LINE
  8
0
  10
0.36667
  20
0.38444
  30
0
  11
0.35441
  21
0.38011
  31
0
  0
LINE
  8
0
  10
0.35441
  20
0.38011
  30
0
  11
0.34193
  21
0.37605
  31
0
  0
LINE
  8
0
  10
0.34193
  20
0.37605
  30
0
  11
0.30513
  21
0.41607
  31
0
  0
LINE
  8
0
  10
0.30513
  20
0.41607
  30
0
  11
0.31022
  21
0.42817
  31
0
  0
LINE
  8
0
  10
0.31022
  20
0.42817
  30
0
  11
0.31555
  21
0.44003
  31
0
  0
LINE
  8
0
  10
0.31555
  20
0.44003
  30
0
  11
0.32115
  21
0.45162
  31
0
  0
LINE
  8
0
  10
0.32115
  20
0.45162
  30
0
  11
0.327
  21
0.46295
  31
0
  0
LINE
  8
0
  10
0.327
  20
0.46295
  30
0
  11
0.33312
  21
0.47398
  31
0
  0
LINE
  8
0
  10
0.33312
  20
0.47398
  30
0
  11
0.33952
  21
0.48471
  31
0
  0
LINE
  8
0
  10
0.33952
  20
0.48471
  30
0
  11
0.34622
  21
0.49511
  31
0
  0
LINE
  8
0
  10
0.34622
  20
0.49511
  30
0
  11
0.35324
  21
0.50514
  31
0
  0
LINE
  8
0
  10
0.35324
  20
0.50514
  30
0
  11
0.35688
  21
0.51
  31
0
  0
LINE
  8
0
  10
0.35688
  20
0.51
  30
0
  11
0.36061
  21
0.51474
  31
0
  0
LINE
  8
0
  10
0.36061
  20
0.51474
  30
0
  11
0.36252
  21
0.51707
  31
0
  0
LINE
  8
0
  10
0.36252
  20
0.51707
  30
0
  11
0.36445
  21
0.51937
  31
0
  0
LINE
  8
0
  10
0.36445
  20
0.51937
  30
0
  11
0.36641
  21
0.52162
  31
0
  0
LINE
  8
0
  10
0.36641
  20
0.52162
  30
0
  11
0.36841
  21
0.52384
  31
0
  0
LINE
  8
0
  10
0.36841
  20
0.52384
  30
0
  11
0.32827
  21
0.57596
  31
0
  0
LINE
  8
0
  10
0.32827
  20
0.57596
  30
0
  11
0.32562
  21
0.5746
  31
0
  0
LINE
  8
0
  10
0.32562
  20
0.5746
  30
0
  11
0.32293
  21
0.57328
  31
0
  0
LINE
  8
0
  10
0.32293
  20
0.57328
  30
0
  11
0.32022
  21
0.57199
  31
0
  0
LINE
  8
0
  10
0.32022
  20
0.57199
  30
0
  11
0.31748
  21
0.57075
  31
0
  0
LINE
  8
0
  10
0.31748
  20
0.57075
  30
0
  11
0.31194
  21
0.56835
  31
0
  0
LINE
  8
0
  10
0.31194
  20
0.56835
  30
0
  11
0.30631
  21
0.56607
  31
0
  0
LINE
  8
0
  10
0.30631
  20
0.56607
  30
0
  11
0.29482
  21
0.56185
  31
0
  0
LINE
  8
0
  10
0.29482
  20
0.56185
  30
0
  11
0.28306
  21
0.55803
  31
0
  0
LINE
  8
0
  10
0.28306
  20
0.55803
  30
0
  11
0.27105
  21
0.55458
  31
0
  0
LINE
  8
0
  10
0.27105
  20
0.55458
  30
0
  11
0.25882
  21
0.55148
  31
0
  0
LINE
  8
0
  10
0.25882
  20
0.55148
  30
0
  11
0.24638
  21
0.54872
  31
0
  0
LINE
  8
0
  10
0.24638
  20
0.54872
  30
0
  11
0.23374
  21
0.54627
  31
0
  0
LINE
  8
0
  10
0.23374
  20
0.54627
  30
0
  11
0.22091
  21
0.54414
  31
0
  0
LINE
  8
0
  10
0.22091
  20
0.54414
  30
0
  11
0.20791
  21
0.54231
  31
0
  0
LINE
  8
0
  10
0.20791
  20
0.54231
  30
0
  11
0.17862
  21
0.58811
  31
0
  0
LINE
  8
0
  10
0.17862
  20
0.58811
  30
0
  11
0.18573
  21
0.59914
  31
0
  0
LINE
  8
0
  10
0.18573
  20
0.59914
  30
0
  11
0.19305
  21
0.60989
  31
0
  0
LINE
  8
0
  10
0.19305
  20
0.60989
  30
0
  11
0.20057
  21
0.62034
  31
0
  0
LINE
  8
0
  10
0.20057
  20
0.62034
  30
0
  11
0.2083
  21
0.63048
  31
0
  0
LINE
  8
0
  10
0.2083
  20
0.63048
  30
0
  11
0.21625
  21
0.64028
  31
0
  0
LINE
  8
0
  10
0.21625
  20
0.64028
  30
0
  11
0.22441
  21
0.64974
  31
0
  0
LINE
  8
0
  10
0.22441
  20
0.64974
  30
0
  11
0.23281
  21
0.65881
  31
0
  0
LINE
  8
0
  10
0.23281
  20
0.65881
  30
0
  11
0.24147
  21
0.66747
  31
0
  0
LINE
  8
0
  10
0.24147
  20
0.66747
  30
0
  11
0.24589
  21
0.67162
  31
0
  0
LINE
  8
0
  10
0.24589
  20
0.67162
  30
0
  11
0.25039
  21
0.67565
  31
0
  0
LINE
  8
0
  10
0.25039
  20
0.67565
  30
0
  11
0.25268
  21
0.67761
  31
0
  0
LINE
  8
0
  10
0.25268
  20
0.67761
  30
0
  11
0.25498
  21
0.67954
  31
0
  0
LINE
  8
0
  10
0.25498
  20
0.67954
  30
0
  11
0.2573
  21
0.68142
  31
0
  0
LINE
  8
0
  10
0.2573
  20
0.68142
  30
0
  11
0.25966
  21
0.68326
  31
0
  0
LINE
  8
0
  10
0.25966
  20
0.68326
  30
0
  11
0.22918
  21
0.74155
  31
0
  0
LINE
  8
0
  10
0.22918
  20
0.74155
  30
0
  11
0.22633
  21
0.74067
  31
0
  0
LINE
  8
0
  10
0.22633
  20
0.74067
  30
0
  11
0.22345
  21
0.73984
  31
0
  0
LINE
  8
0
  10
0.22345
  20
0.73984
  30
0
  11
0.22056
  21
0.73904
  31
0
  0
LINE
  8
0
  10
0.22056
  20
0.73904
  30
0
  11
0.21765
  21
0.73829
  31
0
  0
LINE
  8
0
  10
0.21765
  20
0.73829
  30
0
  11
0.21177
  21
0.73689
  31
0
  0
LINE
  8
0
  10
0.21177
  20
0.73689
  30
0
  11
0.20583
  21
0.73563
  31
0
  0
LINE
  8
0
  10
0.20583
  20
0.73563
  30
0
  11
0.19379
  21
0.73346
  31
0
  0
LINE
  8
0
  10
0.19379
  20
0.73346
  30
0
  11
0.18154
  21
0.73175
  31
0
  0
LINE
  8
0
  10
0.18154
  20
0.73175
  30
0
  11
0.16912
  21
0.73043
  31
0
  0
LINE
  8
0
  10
0.16912
  20
0.73043
  30
0
  11
0.15653
  21
0.72951
  31
0
  0
LINE
  8
0
  10
0.15653
  20
0.72951
  30
0
  11
0.14379
  21
0.72894
  31
0
  0
LINE
  8
0
  10
0.14379
  20
0.72894
  30
0
  11
0.13092
  21
0.72873
  31
0
  0
LINE
  8
0
  10
0.13092
  20
0.72873
  30
0
  11
0.11792
  21
0.72886
  31
0
  0
LINE
  8
0
  10
0.11792
  20
0.72886
  30
0
  11
0.1048
  21
0.72931
  31
0
  0
LINE
  8
0
  10
0.1048
  20
0.72931
  30
0
  11
0.08391
  21
0.7795
  31
0
  0
LINE
  8
0
  10
0.08391
  20
0.7795
  30
0
  11
0.09283
  21
0.78914
  31
0
  0
LINE
  8
0
  10
0.09283
  20
0.78914
  30
0
  11
0.1019
  21
0.79845
  31
0
  0
LINE
  8
0
  10
0.1019
  20
0.79845
  30
0
  11
0.11112
  21
0.80743
  31
0
  0
LINE
  8
0
  10
0.11112
  20
0.80743
  30
0
  11
0.12049
  21
0.81607
  31
0
  0
LINE
  8
0
  10
0.12049
  20
0.81607
  30
0
  11
0.13002
  21
0.82435
  31
0
  0
LINE
  8
0
  10
0.13002
  20
0.82435
  30
0
  11
0.13971
  21
0.83224
  31
0
  0
LINE
  8
0
  10
0.13971
  20
0.83224
  30
0
  11
0.14956
  21
0.83972
  31
0
  0
LINE
  8
0
  10
0.14956
  20
0.83972
  30
0
  11
0.15958
  21
0.84674
  31
0
  0
LINE
  8
0
  10
0.15958
  20
0.84674
  30
0
  11
0.16466
  21
0.85007
  31
0
  0
LINE
  8
0
  10
0.16466
  20
0.85007
  30
0
  11
0.16979
  21
0.85325
  31
0
  0
LINE
  8
0
  10
0.16979
  20
0.85325
  30
0
  11
0.17238
  21
0.85479
  31
0
  0
LINE
  8
0
  10
0.17238
  20
0.85479
  30
0
  11
0.17498
  21
0.85628
  31
0
  0
LINE
  8
0
  10
0.17498
  20
0.85628
  30
0
  11
0.1776
  21
0.85773
  31
0
  0
LINE
  8
0
  10
0.1776
  20
0.85773
  30
0
  11
0.18023
  21
0.85913
  31
0
  0
LINE
  8
0
  10
0.18023
  20
0.85913
  30
0
  11
0.16034
  21
0.92184
  31
0
  0
LINE
  8
0
  10
0.16034
  20
0.92184
  30
0
  11
0.15738
  21
0.92147
  31
0
  0
LINE
  8
0
  10
0.15738
  20
0.92147
  30
0
  11
0.15441
  21
0.92114
  31
0
  0
LINE
  8
0
  10
0.15441
  20
0.92114
  30
0
  11
0.15142
  21
0.92086
  31
0
  0
LINE
  8
0
  10
0.15142
  20
0.92086
  30
0
  11
0.14842
  21
0.92063
  31
0
  0
LINE
  8
0
  10
0.14842
  20
0.92063
  30
0
  11
0.14239
  21
0.92027
  31
0
  0
LINE
  8
0
  10
0.14239
  20
0.92027
  30
0
  11
0.13632
  21
0.92006
  31
0
  0
LINE
  8
0
  10
0.13632
  20
0.92006
  30
0
  11
0.12408
  21
0.92002
  31
0
  0
LINE
  8
0
  10
0.12408
  20
0.92002
  30
0
  11
0.11173
  21
0.92045
  31
0
  0
LINE
  8
0
  10
0.11173
  20
0.92045
  30
0
  11
0.09926
  21
0.92132
  31
0
  0
LINE
  8
0
  10
0.09926
  20
0.92132
  30
0
  11
0.08671
  21
0.92259
  31
0
  0
LINE
  8
0
  10
0.08671
  20
0.92259
  30
0
  11
0.07407
  21
0.92424
  31
0
  0
LINE
  8
0
  10
0.07407
  20
0.92424
  30
0
  11
0.06135
  21
0.92627
  31
0
  0
LINE
  8
0
  10
0.06135
  20
0.92627
  30
0
  11
0.04857
  21
0.92865
  31
0
  0
LINE
  8
0
  10
0.04857
  20
0.92865
  30
0
  11
0.03573
  21
0.93138
  31
0
  0
LINE
  8
0
  10
0.03573
  20
0.93138
  30
0
  11
0.02387
  21
0.98444
  31
0
  0
LINE
  8
0
  10
0.02387
  20
0.98444
  30
0
  11
0.03433
  21
0.99237
  31
0
  0
LINE
  8
0
  10
0.03433
  20
0.99237
  30
0
  11
0.04488
  21
0.99997
  31
0
  0
LINE
  8
0
  10
0.04488
  20
0.99997
  30
0
  11
0.05552
  21
1.00722
  31
0
  0
LINE
  8
0
  10
0.05552
  20
1.00722
  30
0
  11
0.06625
  21
1.0141
  31
0
  0
LINE
  8
0
  10
0.06625
  20
1.0141
  30
0
  11
0.07707
  21
1.02059
  31
0
  0
LINE
  8
0
  10
0.07707
  20
1.02059
  30
0
  11
0.08798
  21
1.02668
  31
0
  0
LINE
  8
0
  10
0.08798
  20
1.02668
  30
0
  11
0.09898
  21
1.03234
  31
0
  0
LINE
  8
0
  10
0.09898
  20
1.03234
  30
0
  11
0.11007
  21
1.03752
  31
0
  0
LINE
  8
0
  10
0.11007
  20
1.03752
  30
0
  11
0.11565
  21
1.03991
  31
0
  0
LINE
  8
0
  10
0.11565
  20
1.03991
  30
0
  11
0.12126
  21
1.04215
  31
0
  0
LINE
  8
0
  10
0.12126
  20
1.04215
  30
0
  11
0.12407
  21
1.04321
  31
0
  0
LINE
  8
0
  10
0.12407
  20
1.04321
  30
0
  11
0.12689
  21
1.04423
  31
0
  0
LINE
  8
0
  10
0.12689
  20
1.04423
  30
0
  11
0.12972
  21
1.04521
  31
0
  0
LINE
  8
0
  10
0.12972
  20
1.04521
  30
0
  11
0.13256
  21
1.04613
  31
0
  0
LINE
  8
0
  10
0.13256
  20
1.04613
  30
0
  11
0.12386
  21
1.11134
  31
0
  0
LINE
  8
0
  10
0.12386
  20
1.11134
  30
0
  11
0.12088
  21
1.11148
  31
0
  0
LINE
  8
0
  10
0.12088
  20
1.11148
  30
0
  11
0.11789
  21
1.11168
  31
0
  0
LINE
  8
0
  10
0.11789
  20
1.11168
  30
0
  11
0.1149
  21
1.11193
  31
0
  0
LINE
  8
0
  10
0.1149
  20
1.11193
  30
0
  11
0.11191
  21
1.11221
  31
0
  0
LINE
  8
0
  10
0.11191
  20
1.11221
  30
0
  11
0.10591
  21
1.11291
  31
0
  0
LINE
  8
0
  10
0.10591
  20
1.11291
  30
0
  11
0.0999
  21
1.11375
  31
0
  0
LINE
  8
0
  10
0.0999
  20
1.11375
  30
0
  11
0.08784
  21
1.11584
  31
0
  0
LINE
  8
0
  10
0.08784
  20
1.11584
  30
0
  11
0.07574
  21
1.11841
  31
0
  0
LINE
  8
0
  10
0.07574
  20
1.11841
  30
0
  11
0.06362
  21
1.12143
  31
0
  0
LINE
  8
0
  10
0.06362
  20
1.12143
  30
0
  11
0.05147
  21
1.12486
  31
0
  0
LINE
  8
0
  10
0.05147
  20
1.12486
  30
0
  11
0.03931
  21
1.12869
  31
0
  0
LINE
  8
0
  10
0.03931
  20
1.12869
  30
0
  11
0.02714
  21
1.13289
  31
0
  0
LINE
  8
0
  10
0.02714
  20
1.13289
  30
0
  11
0.01497
  21
1.13746
  31
0
  0
LINE
  8
0
  10
0.01497
  20
1.13746
  30
0
  11
0.0028
  21
1.14237
  31
0
  0
LINE
  8
0
  10
0.0028
  20
1.14237
  30
0
  11
0.00033
  21
1.19668
  31
0
  0
LINE
  8
0
  10
0.00033
  20
1.19668
  30
0
  11
0.01201
  21
1.20268
  31
0
  0
LINE
  8
0
  10
0.01201
  20
1.20268
  30
0
  11
0.02372
  21
1.20833
  31
0
  0
LINE
  8
0
  10
0.02372
  20
1.20833
  30
0
  11
0.03546
  21
1.21362
  31
0
  0
LINE
  8
0
  10
0.03546
  20
1.21362
  30
0
  11
0.04722
  21
1.21853
  31
0
  0
LINE
  8
0
  10
0.04722
  20
1.21853
  30
0
  11
0.059
  21
1.22305
  31
0
  0
LINE
  8
0
  10
0.059
  20
1.22305
  30
0
  11
0.0708
  21
1.22716
  31
0
  0
LINE
  8
0
  10
0.0708
  20
1.22716
  30
0
  11
0.08262
  21
1.23081
  31
0
  0
LINE
  8
0
  10
0.08262
  20
1.23081
  30
0
  11
0.09444
  21
1.23399
  31
0
  0
LINE
  8
0
  10
0.09444
  20
1.23399
  30
0
  11
0.10035
  21
1.23537
  31
0
  0
LINE
  8
0
  10
0.10035
  20
1.23537
  30
0
  11
0.10626
  21
1.23661
  31
0
  0
LINE
  8
0
  10
0.10626
  20
1.23661
  30
0
  11
0.10922
  21
1.23717
  31
0
  0
LINE
  8
0
  10
0.10922
  20
1.23717
  30
0
  11
0.11217
  21
1.23768
  31
0
  0
LINE
  8
0
  10
0.11217
  20
1.23768
  30
0
  11
0.11513
  21
1.23815
  31
0
  0
LINE
  8
0
  10
0.11513
  20
1.23815
  30
0
  11
0.11808
  21
1.23856
  31
0
  0
LINE
  8
0
  10
0.11808
  20
1.23856
  30
0
  11
0.12084
  21
1.30429
  31
0
  0
LINE
  8
0
  10
0.12084
  20
1.30429
  30
0
  11
0.11793
  21
1.30495
  31
0
  0
LINE
  8
0
  10
0.11793
  20
1.30495
  30
0
  11
0.11502
  21
1.30567
  31
0
  0
LINE
  8
0
  10
0.11502
  20
1.30567
  30
0
  11
0.11212
  21
1.30643
  31
0
  0
LINE
  8
0
  10
0.11212
  20
1.30643
  30
0
  11
0.10922
  21
1.30723
  31
0
  0
LINE
  8
0
  10
0.10922
  20
1.30723
  30
0
  11
0.10343
  21
1.30896
  31
0
  0
LINE
  8
0
  10
0.10343
  20
1.30896
  30
0
  11
0.09766
  21
1.31083
  31
0
  0
LINE
  8
0
  10
0.09766
  20
1.31083
  30
0
  11
0.08614
  21
1.31498
  31
0
  0
LINE
  8
0
  10
0.08614
  20
1.31498
  30
0
  11
0.07468
  21
1.31961
  31
0
  0
LINE
  8
0
  10
0.07468
  20
1.31961
  30
0
  11
0.06326
  21
1.32469
  31
0
  0
LINE
  8
0
  10
0.06326
  20
1.32469
  30
0
  11
0.0519
  21
1.33018
  31
0
  0
LINE
  8
0
  10
0.0519
  20
1.33018
  30
0
  11
0.04059
  21
1.33606
  31
0
  0
LINE
  8
0
  10
0.04059
  20
1.33606
  30
0
  11
0.02933
  21
1.34231
  31
0
  0
LINE
  8
0
  10
0.02933
  20
1.34231
  30
0
  11
0.01814
  21
1.34892
  31
0
  0
LINE
  8
0
  10
0.01814
  20
1.34892
  30
0
  11
0.007
  21
1.35588
  31
0
  0
LINE
  8
0
  10
0.007
  20
1.35588
  30
0
  11
0.014
  21
1.40979
  31
0
  0
LINE
  8
0
  10
0.014
  20
1.40979
  30
0
  11
0.02655
  21
1.41367
  31
0
  0
LINE
  8
0
  10
0.02655
  20
1.41367
  30
0
  11
0.03906
  21
1.4172
  31
0
  0
LINE
  8
0
  10
0.03906
  20
1.4172
  30
0
  11
0.05154
  21
1.42037
  31
0
  0
LINE
  8
0
  10
0.05154
  20
1.42037
  30
0
  11
0.06398
  21
1.42317
  31
0
  0
LINE
  8
0
  10
0.06398
  20
1.42317
  30
0
  11
0.07636
  21
1.42557
  31
0
  0
LINE
  8
0
  10
0.07636
  20
1.42557
  30
0
  11
0.0887
  21
1.42756
  31
0
  0
LINE
  8
0
  10
0.0887
  20
1.42756
  30
0
  11
0.10097
  21
1.42912
  31
0
  0
LINE
  8
0
  10
0.10097
  20
1.42912
  30
0
  11
0.11316
  21
1.43019
  31
0
  0
LINE
  8
0
  10
0.11316
  20
1.43019
  30
0
  11
0.11922
  21
1.43052
  31
0
  0
LINE
  8
0
  10
0.11922
  20
1.43052
  30
0
  11
0.12526
  21
1.43071
  31
0
  0
LINE
  8
0
  10
0.12526
  20
1.43071
  30
0
  11
0.12827
  21
1.43075
  31
0
  0
LINE
  8
0
  10
0.12827
  20
1.43075
  30
0
  11
0.13127
  21
1.43074
  31
0
  0
LINE
  8
0
  10
0.13127
  20
1.43074
  30
0
  11
0.13426
  21
1.43069
  31
0
  0
LINE
  8
0
  10
0.13426
  20
1.43069
  30
0
  11
0.13724
  21
1.43059
  31
0
  0
LINE
  8
0
  10
0.13724
  20
1.43059
  30
0
  11
0.15137
  21
1.49484
  31
0
  0
LINE
  8
0
  10
0.15137
  20
1.49484
  30
0
  11
0.14862
  21
1.496
  31
0
  0
LINE
  8
0
  10
0.14862
  20
1.496
  30
0
  11
0.14588
  21
1.4972
  31
0
  0
LINE
  8
0
  10
0.14588
  20
1.4972
  30
0
  11
0.14315
  21
1.49846
  31
0
  0
LINE
  8
0
  10
0.14315
  20
1.49846
  30
0
  11
0.14044
  21
1.49975
  31
0
  0
LINE
  8
0
  10
0.14044
  20
1.49975
  30
0
  11
0.13504
  21
1.50246
  31
0
  0
LINE
  8
0
  10
0.13504
  20
1.50246
  30
0
  11
0.12967
  21
1.5053
  31
0
  0
LINE
  8
0
  10
0.12967
  20
1.5053
  30
0
  11
0.11906
  21
1.51139
  31
0
  0
LINE
  8
0
  10
0.11906
  20
1.51139
  30
0
  11
0.10857
  21
1.51795
  31
0
  0
LINE
  8
0
  10
0.10857
  20
1.51795
  30
0
  11
0.09821
  21
1.52493
  31
0
  0
LINE
  8
0
  10
0.09821
  20
1.52493
  30
0
  11
0.08797
  21
1.53231
  31
0
  0
LINE
  8
0
  10
0.08797
  20
1.53231
  30
0
  11
0.07785
  21
1.54006
  31
0
  0
LINE
  8
0
  10
0.07785
  20
1.54006
  30
0
  11
0.06785
  21
1.54817
  31
0
  0
LINE
  8
0
  10
0.06785
  20
1.54817
  30
0
  11
0.05798
  21
1.55663
  31
0
  0
LINE
  8
0
  10
0.05798
  20
1.55663
  30
0
  11
0.04822
  21
1.56541
  31
0
  0
LINE
  8
0
  10
0.04822
  20
1.56541
  30
0
  11
0.06448
  21
1.61729
  31
0
  0
LINE
  8
0
  10
0.06448
  20
1.61729
  30
0
  11
0.0775
  21
1.61893
  31
0
  0
LINE
  8
0
  10
0.0775
  20
1.61893
  30
0
  11
0.09044
  21
1.62024
  31
0
  0
LINE
  8
0
  10
0.09044
  20
1.62024
  30
0
  11
0.10328
  21
1.62119
  31
0
  0
LINE
  8
0
  10
0.10328
  20
1.62119
  30
0
  11
0.11601
  21
1.62178
  31
0
  0
LINE
  8
0
  10
0.11601
  20
1.62178
  30
0
  11
0.12863
  21
1.622
  31
0
  0
LINE
  8
0
  10
0.12863
  20
1.622
  30
0
  11
0.14112
  21
1.62182
  31
0
  0
LINE
  8
0
  10
0.14112
  20
1.62182
  30
0
  11
0.15347
  21
1.62122
  31
0
  0
LINE
  8
0
  10
0.15347
  20
1.62122
  30
0
  11
0.16567
  21
1.62015
  31
0
  0
LINE
  8
0
  10
0.16567
  20
1.62015
  30
0
  11
0.1717
  21
1.61943
  31
0
  0
LINE
  8
0
  10
0.1717
  20
1.61943
  30
0
  11
0.17767
  21
1.61857
  31
0
  0
LINE
  8
0
  10
0.17767
  20
1.61857
  30
0
  11
0.18064
  21
1.61809
  31
0
  0
LINE
  8
0
  10
0.18064
  20
1.61809
  30
0
  11
0.1836
  21
1.61756
  31
0
  0
LINE
  8
0
  10
0.1836
  20
1.61756
  30
0
  11
0.18653
  21
1.61699
  31
0
  0
LINE
  8
0
  10
0.18653
  20
1.61699
  30
0
  11
0.18945
  21
1.61637
  31
0
  0
LINE
  8
0
  10
0.18945
  20
1.61637
  30
0
  11
0.21452
  21
1.67719
  31
0
  0
LINE
  8
0
  10
0.21452
  20
1.67719
  30
0
  11
0.21201
  21
1.67881
  31
0
  0
LINE
  8
0
  10
0.21201
  20
1.67881
  30
0
  11
0.20953
  21
1.68047
  31
0
  0
LINE
  8
0
  10
0.20953
  20
1.68047
  30
0
  11
0.20706
  21
1.68218
  31
0
  0
LINE
  8
0
  10
0.20706
  20
1.68218
  30
0
  11
0.20461
  21
1.68392
  31
0
  0
LINE
  8
0
  10
0.20461
  20
1.68392
  30
0
  11
0.19976
  21
1.68753
  31
0
  0
LINE
  8
0
  10
0.19976
  20
1.68753
  30
0
  11
0.19498
  21
1.69126
  31
0
  0
LINE
  8
0
  10
0.19498
  20
1.69126
  30
0
  11
0.18557
  21
1.6991
  31
0
  0
LINE
  8
0
  10
0.18557
  20
1.6991
  30
0
  11
0.17639
  21
1.70738
  31
0
  0
LINE
  8
0
  10
0.17639
  20
1.70738
  30
0
  11
0.1674
  21
1.71605
  31
0
  0
LINE
  8
0
  10
0.1674
  20
1.71605
  30
0
  11
0.15859
  21
1.7251
  31
0
  0
LINE
  8
0
  10
0.15859
  20
1.7251
  30
0
  11
0.14998
  21
1.73449
  31
0
  0
LINE
  8
0
  10
0.14998
  20
1.73449
  30
0
  11
0.14154
  21
1.74421
  31
0
  0
LINE
  8
0
  10
0.14154
  20
1.74421
  30
0
  11
0.13328
  21
1.75426
  31
0
  0
LINE
  8
0
  10
0.13328
  20
1.75426
  30
0
  11
0.12519
  21
1.7646
  31
0
  0
LINE
  8
0
  10
0.12519
  20
1.7646
  30
0
  11
0.15021
  21
1.81287
  31
0
  0
LINE
  8
0
  10
0.15021
  20
1.81287
  30
0
  11
0.16333
  21
1.81222
  31
0
  0
LINE
  8
0
  10
0.16333
  20
1.81222
  30
0
  11
0.17629
  21
1.81126
  31
0
  0
LINE
  8
0
  10
0.17629
  20
1.81126
  30
0
  11
0.1891
  21
1.80997
  31
0
  0
LINE
  8
0
  10
0.1891
  20
1.80997
  30
0
  11
0.20175
  21
1.80835
  31
0
  0
LINE
  8
0
  10
0.20175
  20
1.80835
  30
0
  11
0.21421
  21
1.80637
  31
0
  0
LINE
  8
0
  10
0.21421
  20
1.80637
  30
0
  11
0.22648
  21
1.80402
  31
0
  0
LINE
  8
0
  10
0.22648
  20
1.80402
  30
0
  11
0.23854
  21
1.80128
  31
0
  0
LINE
  8
0
  10
0.23854
  20
1.80128
  30
0
  11
0.25036
  21
1.79812
  31
0
  0
LINE
  8
0
  10
0.25036
  20
1.79812
  30
0
  11
0.25618
  21
1.79636
  31
0
  0
LINE
  8
0
  10
0.25618
  20
1.79636
  30
0
  11
0.26191
  21
1.79448
  31
0
  0
LINE
  8
0
  10
0.26191
  20
1.79448
  30
0
  11
0.26475
  21
1.79348
  31
0
  0
LINE
  8
0
  10
0.26475
  20
1.79348
  30
0
  11
0.26757
  21
1.79245
  31
0
  0
LINE
  8
0
  10
0.26757
  20
1.79245
  30
0
  11
0.27036
  21
1.79138
  31
0
  0
LINE
  8
0
  10
0.27036
  20
1.79138
  30
0
  11
0.27313
  21
1.79026
  31
0
  0
LINE
  8
0
  10
0.27313
  20
1.79026
  30
0
  11
0.30838
  21
1.8458
  31
0
  0
LINE
  8
0
  10
0.30838
  20
1.8458
  30
0
  11
0.30619
  21
1.84783
  31
0
  0
LINE
  8
0
  10
0.30619
  20
1.84783
  30
0
  11
0.30403
  21
1.8499
  31
0
  0
LINE
  8
0
  10
0.30403
  20
1.8499
  30
0
  11
0.3019
  21
1.85201
  31
0
  0
LINE
  8
0
  10
0.3019
  20
1.85201
  30
0
  11
0.29979
  21
1.85416
  31
0
  0
LINE
  8
0
  10
0.29979
  20
1.85416
  30
0
  11
0.29564
  21
1.85855
  31
0
  0
LINE
  8
0
  10
0.29564
  20
1.85855
  30
0
  11
0.29158
  21
1.86306
  31
0
  0
LINE
  8
0
  10
0.29158
  20
1.86306
  30
0
  11
0.28368
  21
1.87241
  31
0
  0
LINE
  8
0
  10
0.28368
  20
1.87241
  30
0
  11
0.27607
  21
1.88216
  31
0
  0
LINE
  8
0
  10
0.27607
  20
1.88216
  30
0
  11
0.26872
  21
1.89226
  31
0
  0
LINE
  8
0
  10
0.26872
  20
1.89226
  30
0
  11
0.26162
  21
1.9027
  31
0
  0
LINE
  8
0
  10
0.26162
  20
1.9027
  30
0
  11
0.25477
  21
1.91344
  31
0
  0
LINE
  8
0
  10
0.25477
  20
1.91344
  30
0
  11
0.24815
  21
1.92448
  31
0
  0
LINE
  8
0
  10
0.24815
  20
1.92448
  30
0
  11
0.24175
  21
1.93581
  31
0
  0
LINE
  8
0
  10
0.24175
  20
1.93581
  30
0
  11
0.23559
  21
1.9474
  31
0
  0
LINE
  8
0
  10
0.23559
  20
1.9474
  30
0
  11
0.26861
  21
1.99059
  31
0
  0
LINE
  8
0
  10
0.26861
  20
1.99059
  30
0
  11
0.28141
  21
1.98768
  31
0
  0
LINE
  8
0
  10
0.28141
  20
1.98768
  30
0
  11
0.29401
  21
1.98448
  31
0
  0
LINE
  8
0
  10
0.29401
  20
1.98448
  30
0
  11
0.30641
  21
1.98098
  31
0
  0
LINE
  8
0
  10
0.30641
  20
1.98098
  30
0
  11
0.31857
  21
1.97719
  31
0
  0
LINE
  8
0
  10
0.31857
  20
1.97719
  30
0
  11
0.33051
  21
1.97307
  31
0
  0
LINE
  8
0
  10
0.33051
  20
1.97307
  30
0
  11
0.34218
  21
1.96863
  31
0
  0
LINE
  8
0
  10
0.34218
  20
1.96863
  30
0
  11
0.35358
  21
1.96384
  31
0
  0
LINE
  8
0
  10
0.35358
  20
1.96384
  30
0
  11
0.36468
  21
1.95867
  31
0
  0
LINE
  8
0
  10
0.36468
  20
1.95867
  30
0
  11
0.3701
  21
1.95593
  31
0
  0
LINE
  8
0
  10
0.3701
  20
1.95593
  30
0
  11
0.37542
  21
1.95308
  31
0
  0
LINE
  8
0
  10
0.37542
  20
1.95308
  30
0
  11
0.37804
  21
1.95161
  31
0
  0
LINE
  8
0
  10
0.37804
  20
1.95161
  30
0
  11
0.38064
  21
1.9501
  31
0
  0
LINE
  8
0
  10
0.38064
  20
1.9501
  30
0
  11
0.3832
  21
1.94856
  31
0
  0
LINE
  8
0
  10
0.3832
  20
1.94856
  30
0
  11
0.38574
  21
1.94698
  31
0
  0
LINE
  8
0
  10
0.38574
  20
1.94698
  30
0
  11
0.43009
  21
1.99556
  31
0
  0
LINE
  8
0
  10
0.43009
  20
1.99556
  30
0
  11
0.42829
  21
1.99794
  31
0
  0
LINE
  8
0
  10
0.42829
  20
1.99794
  30
0
  11
0.42652
  21
2.00035
  31
0
  0
LINE
  8
0
  10
0.42652
  20
2.00035
  30
0
  11
0.42479
  21
2.0028
  31
0
  0
LINE
  8
0
  10
0.42479
  20
2.0028
  30
0
  11
0.42308
  21
2.00528
  31
0
  0
LINE
  8
0
  10
0.42308
  20
2.00528
  30
0
  11
0.41976
  21
2.01032
  31
0
  0
LINE
  8
0
  10
0.41976
  20
2.01032
  30
0
  11
0.41654
  21
2.01547
  31
0
  0
LINE
  8
0
  10
0.41654
  20
2.01547
  30
0
  11
0.41039
  21
2.02605
  31
0
  0
LINE
  8
0
  10
0.41039
  20
2.02605
  30
0
  11
0.40458
  21
2.03697
  31
0
  0
LINE
  8
0
  10
0.40458
  20
2.03697
  30
0
  11
0.3991
  21
2.0482
  31
0
  0
LINE
  8
0
  10
0.3991
  20
2.0482
  30
0
  11
0.39392
  21
2.0597
  31
0
  0
LINE
  8
0
  10
0.39392
  20
2.0597
  30
0
  11
0.38904
  21
2.07148
  31
0
  0
LINE
  8
0
  10
0.38904
  20
2.07148
  30
0
  11
0.38444
  21
2.0835
  31
0
  0
LINE
  8
0
  10
0.38444
  20
2.0835
  30
0
  11
0.38011
  21
2.09576
  31
0
  0
LINE
  8
0
  10
0.38011
  20
2.09576
  30
0
  11
0.37605
  21
2.10825
  31
0
  0
LINE
  8
0
  10
0.37605
  20
2.10825
  30
0
  11
0.41607
  21
2.14505
  31
0
  0
LINE
  8
0
  10
0.41607
  20
2.14505
  30
0
  11
0.42817
  21
2.13996
  31
0
  0
LINE
  8
0
  10
0.42817
  20
2.13996
  30
0
  11
0.44003
  21
2.13462
  31
0
  0
LINE
  8
0
  10
0.44003
  20
2.13462
  30
0
  11
0.45162
  21
2.12903
  31
0
  0
LINE
  8
0
  10
0.45162
  20
2.12903
  30
0
  11
0.46295
  21
2.12317
  31
0
  0
LINE
  8
0
  10
0.46295
  20
2.12317
  30
0
  11
0.47398
  21
2.11705
  31
0
  0
LINE
  8
0
  10
0.47398
  20
2.11705
  30
0
  11
0.48471
  21
2.11065
  31
0
  0
LINE
  8
0
  10
0.48471
  20
2.11065
  30
0
  11
0.49511
  21
2.10395
  31
0
  0
LINE
  8
0
  10
0.49511
  20
2.10395
  30
0
  11
0.50514
  21
2.09694
  31
0
  0
LINE
  8
0
  10
0.50514
  20
2.09694
  30
0
  11
0.51
  21
2.0933
  31
0
  0
LINE
  8
0
  10
0.51
  20
2.0933
  30
0
  11
0.51474
  21
2.08956
  31
0
  0
LINE
  8
0
  10
0.51474
  20
2.08956
  30
0
  11
0.51707
  21
2.08766
  31
0
  0
LINE
  8
0
  10
0.51707
  20
2.08766
  30
0
  11
0.51937
  21
2.08572
  31
0
  0
LINE
  8
0
  10
0.51937
  20
2.08572
  30
0
  11
0.52162
  21
2.08376
  31
0
  0
LINE
  8
0
  10
0.52162
  20
2.08376
  30
0
  11
0.52384
  21
2.08176
  31
0
  0
LINE
  8
0
  10
0.52384
  20
2.08176
  30
0
  11
0.57596
  21
2.1219
  31
0
  0
LINE
  8
0
  10
0.57596
  20
2.1219
  30
0
  11
0.5746
  21
2.12456
  31
0
  0
LINE
  8
0
  10
0.5746
  20
2.12456
  30
0
  11
0.57328
  21
2.12724
  31
0
  0
LINE
  8
0
  10
0.57328
  20
2.12724
  30
0
  11
0.57199
  21
2.12995
  31
0
  0
LINE
  8
0
  10
0.57199
  20
2.12995
  30
0
  11
0.57075
  21
2.13269
  31
0
  0
LINE
  8
0
  10
0.57075
  20
2.13269
  30
0
  11
0.56835
  21
2.13824
  31
0
  0
LINE
  8
0
  10
0.56835
  20
2.13824
  30
0
  11
0.56607
  21
2.14386
  31
0
  0
LINE
  8
0
  10
0.56607
  20
2.14386
  30
0
  11
0.56185
  21
2.15535
  31
0
  0
LINE
  8
0
  10
0.56185
  20
2.15535
  30
0
  11
0.55803
  21
2.16711
  31
0
  0
LINE
  8
0
  10
0.55803
  20
2.16711
  30
0
  11
0.55458
  21
2.17912
  31
0
  0
LINE
  8
0
  10
0.55458
  20
2.17912
  30
0
  11
0.55148
  21
2.19136
  31
0
  0
LINE
  8
0
  10
0.55148
  20
2.19136
  30
0
  11
0.54872
  21
2.2038
  31
0
  0
LINE
  8
0
  10
0.54872
  20
2.2038
  30
0
  11
0.54627
  21
2.21644
  31
0
  0
LINE
  8
0
  10
0.54627
  20
2.21644
  30
0
  11
0.54414
  21
2.22926
  31
0
  0
LINE
  8
0
  10
0.54414
  20
2.22926
  30
0
  11
0.54231
  21
2.24227
  31
0
  0
LINE
  8
0
  10
0.54231
  20
2.24227
  30
0
  11
0.58811
  21
2.27156
  31
0
  0
LINE
  8
0
  10
0.58811
  20
2.27156
  30
0
  11
0.59914
  21
2.26444
  31
0
  0
LINE
  8
0
  10
0.59914
  20
2.26444
  30
0
  11
0.60989
  21
2.25713
  31
0
  0
LINE
  8
0
  10
0.60989
  20
2.25713
  30
0
  11
0.62034
  21
2.24961
  31
0
  0
LINE
  8
0
  10
0.62034
  20
2.24961
  30
0
  11
0.63048
  21
2.24187
  31
0
  0
LINE
  8
0
  10
0.63048
  20
2.24187
  30
0
  11
0.64028
  21
2.23393
  31
0
  0
LINE
  8
0
  10
0.64028
  20
2.23393
  30
0
  11
0.64974
  21
2.22576
  31
0
  0
LINE
  8
0
  10
0.64974
  20
2.22576
  30
0
  11
0.65881
  21
2.21736
  31
0
  0
LINE
  8
0
  10
0.65881
  20
2.21736
  30
0
  11
0.66747
  21
2.20871
  31
0
  0
LINE
  8
0
  10
0.66747
  20
2.20871
  30
0
  11
0.67162
  21
2.20428
  31
0
  0
LINE
  8
0
  10
0.67162
  20
2.20428
  30
0
  11
0.67565
  21
2.19978
  31
0
  0
LINE
  8
0
  10
0.67565
  20
2.19978
  30
0
  11
0.67761
  21
2.1975
  31
0
  0
LINE
  8
0
  10
0.67761
  20
2.1975
  30
0
  11
0.67954
  21
2.1952
  31
0
  0
LINE
  8
0
  10
0.67954
  20
2.1952
  30
0
  11
0.68142
  21
2.19287
  31
0
  0
LINE
  8
0
  10
0.68142
  20
2.19287
  30
0
  11
0.68326
  21
2.19052
  31
0
  0
LINE
  8
0
  10
0.68326
  20
2.19052
  30
0
  11
0.74155
  21
2.221
  31
0
  0
LINE
  8
0
  10
0.74155
  20
2.221
  30
0
  11
0.74067
  21
2.22385
  31
0
  0
LINE
  8
0
  10
0.74067
  20
2.22385
  30
0
  11
0.73984
  21
2.22672
  31
0
  0
LINE
  8
0
  10
0.73984
  20
2.22672
  30
0
  11
0.73904
  21
2.22962
  31
0
  0
LINE
  8
0
  10
0.73904
  20
2.22962
  30
0
  11
0.73829
  21
2.23253
  31
0
  0
LINE
  8
0
  10
0.73829
  20
2.23253
  30
0
  11
0.73689
  21
2.2384
  31
0
  0
LINE
  8
0
  10
0.73689
  20
2.2384
  30
0
  11
0.73563
  21
2.24434
  31
0
  0
LINE
  8
0
  10
0.73563
  20
2.24434
  30
0
  11
0.73346
  21
2.25639
  31
0
  0
LINE
  8
0
  10
0.73346
  20
2.25639
  30
0
  11
0.73175
  21
2.26864
  31
0
  0
LINE
  8
0
  10
0.73175
  20
2.26864
  30
0
  11
0.73043
  21
2.28106
  31
0
  0
LINE
  8
0
  10
0.73043
  20
2.28106
  30
0
  11
0.72951
  21
2.29365
  31
0
  0
LINE
  8
0
  10
0.72951
  20
2.29365
  30
0
  11
0.72894
  21
2.30638
  31
0
  0
LINE
  8
0
  10
0.72894
  20
2.30638
  30
0
  11
0.72873
  21
2.31925
  31
0
  0
LINE
  8
0
  10
0.72873
  20
2.31925
  30
0
  11
0.72886
  21
2.33226
  31
0
  0
LINE
  8
0
  10
0.72886
  20
2.33226
  30
0
  11
0.72931
  21
2.34538
  31
0
  0
LINE
  8
0
  10
0.72931
  20
2.34538
  30
0
  11
0.7795
  21
2.36627
  31
0
  0
LINE
  8
0
  10
0.7795
  20
2.36627
  30
0
  11
0.78914
  21
2.35735
  31
0
  0
LINE
  8
0
  10
0.78914
  20
2.35735
  30
0
  11
0.79845
  21
2.34828
  31
0
  0
LINE
  8
0
  10
0.79845
  20
2.34828
  30
0
  11
0.80743
  21
2.33905
  31
0
  0
LINE
  8
0
  10
0.80743
  20
2.33905
  30
0
  11
0.81607
  21
2.32968
  31
0
  0
LINE
  8
0
  10
0.81607
  20
2.32968
  30
0
  11
0.82435
  21
2.32015
  31
0
  0
LINE
  8
0
  10
0.82435
  20
2.32015
  30
0
  11
0.83224
  21
2.31047
  31
0
  0
LINE
  8
0
  10
0.83224
  20
2.31047
  30
0
  11
0.83972
  21
2.30062
  31
0
  0
LINE
  8
0
  10
0.83972
  20
2.30062
  30
0
  11
0.84674
  21
2.2906
  31
0
  0
LINE
  8
0
  10
0.84674
  20
2.2906
  30
0
  11
0.85007
  21
2.28551
  31
0
  0
LINE
  8
0
  10
0.85007
  20
2.28551
  30
0
  11
0.85325
  21
2.28038
  31
0
  0
LINE
  8
0
  10
0.85325
  20
2.28038
  30
0
  11
0.85479
  21
2.27779
  31
0
  0
LINE
  8
0
  10
0.85479
  20
2.27779
  30
0
  11
0.85628
  21
2.27519
  31
0
  0
LINE
  8
0
  10
0.85628
  20
2.27519
  30
0
  11
0.85773
  21
2.27258
  31
0
  0
LINE
  8
0
  10
0.85773
  20
2.27258
  30
0
  11
0.85913
  21
2.26994
  31
0
  0
LINE
  8
0
  10
0.85913
  20
2.26994
  30
0
  11
0.92184
  21
2.28983
  31
0
  0
LINE
  8
0
  10
0.92184
  20
2.28983
  30
0
  11
0.92147
  21
2.29279
  31
0
  0
LINE
  8
0
  10
0.92147
  20
2.29279
  30
0
  11
0.92114
  21
2.29577
  31
0
  0
LINE
  8
0
  10
0.92114
  20
2.29577
  30
0
  11
0.92086
  21
2.29875
  31
0
  0
LINE
  8
0
  10
0.92086
  20
2.29875
  30
0
  11
0.92063
  21
2.30175
  31
0
  0
LINE
  8
0
  10
0.92063
  20
2.30175
  30
0
  11
0.92027
  21
2.30778
  31
0
  0
LINE
  8
0
  10
0.92027
  20
2.30778
  30
0
  11
0.92006
  21
2.31385
  31
0
  0
LINE
  8
0
  10
0.92006
  20
2.31385
  30
0
  11
0.92002
  21
2.32609
  31
0
  0
LINE
  8
0
  10
0.92002
  20
2.32609
  30
0
  11
0.92045
  21
2.33845
  31
0
  0
LINE
  8
0
  10
0.92045
  20
2.33845
  30
0
  11
0.92132
  21
2.35091
  31
0
  0
LINE
  8
0
  10
0.92132
  20
2.35091
  30
0
  11
0.92259
  21
2.36347
  31
0
  0
LINE
  8
0
  10
0.92259
  20
2.36347
  30
0
  11
0.92424
  21
2.37611
  31
0
  0
LINE
  8
0
  10
0.92424
  20
2.37611
  30
0
  11
0.92627
  21
2.38882
  31
0
  0
LINE
  8
0
  10
0.92627
  20
2.38882
  30
0
  11
0.92865
  21
2.4016
  31
0
  0
LINE
  8
0
  10
0.92865
  20
2.4016
  30
0
  11
0.93138
  21
2.41445
  31
0
  0
LINE
  8
0
  10
0.93138
  20
2.41445
  30
0
  11
0.98444
  21
2.42631
  31
0
  0
LINE
  8
0
  10
0.98444
  20
2.42631
  30
0
  11
0.99237
  21
2.41585
  31
0
  0
LINE
  8
0
  10
0.99237
  20
2.41585
  30
0
  11
0.99997
  21
2.4053
  31
0
  0
LINE
  8
0
  10
0.99997
  20
2.4053
  30
0
  11
1.00722
  21
2.39466
  31
0
  0
LINE
  8
0
  10
1.00722
  20
2.39466
  30
0
  11
1.0141
  21
2.38392
  31
0
  0
LINE
  8
0
  10
1.0141
  20
2.38392
  30
0
  11
1.02059
  21
2.3731
  31
0
  0
LINE
  8
0
  10
1.02059
  20
2.3731
  30
0
  11
1.02668
  21
2.3622
  31
0
  0
LINE
  8
0
  10
1.02668
  20
2.3622
  30
0
  11
1.03234
  21
2.3512
  31
0
  0
LINE
  8
0
  10
1.03234
  20
2.3512
  30
0
  11
1.03752
  21
2.34011
  31
0
  0
LINE
  8
0
  10
1.03752
  20
2.34011
  30
0
  11
1.03991
  21
2.33453
  31
0
  0
LINE
  8
0
  10
1.03991
  20
2.33453
  30
0
  11
1.04215
  21
2.32892
  31
0
  0
LINE
  8
0
  10
1.04215
  20
2.32892
  30
0
  11
1.04321
  21
2.3261
  31
0
  0
LINE
  8
0
  10
1.04321
  20
2.3261
  30
0
  11
1.04423
  21
2.32328
  31
0
  0
LINE
  8
0
  10
1.04423
  20
2.32328
  30
0
  11
1.04521
  21
2.32045
  31
0
  0
LINE
  8
0
  10
1.04521
  20
2.32045
  30
0
  11
1.04613
  21
2.31761
  31
0
  0
LINE
  8
0
  10
1.04613
  20
2.31761
  30
0
  11
1.11134
  21
2.32631
  31
0
  0
LINE
  8
0
  10
1.11134
  20
2.32631
  30
0
  11
1.11148
  21
2.3293
  31
0
  0
LINE
  8
0
  10
1.11148
  20
2.3293
  30
0
  11
1.11168
  21
2.33228
  31
0
  0
LINE
  8
0
  10
1.11168
  20
2.33228
  30
0
  11
1.11193
  21
2.33527
  31
0
  0
LINE
  8
0
  10
1.11193
  20
2.33527
  30
0
  11
1.11221
  21
2.33827
  31
0
  0
LINE
  8
0
  10
1.11221
  20
2.33827
  30
0
  11
1.11291
  21
2.34427
  31
0
  0
LINE
  8
0
  10
1.11291
  20
2.34427
  30
0
  11
1.11375
  21
2.35028
  31
0
  0
LINE
  8
0
  10
1.11375
  20
2.35028
  30
0
  11
1.11584
  21
2.36234
  31
0
  0
LINE
  8
0
  10
1.11584
  20
2.36234
  30
0
  11
1.11841
  21
2.37443
  31
0
  0
LINE
  8
0
  10
1.11841
  20
2.37443
  30
0
  11
1.12143
  21
2.38656
  31
0
  0
LINE
  8
0
  10
1.12143
  20
2.38656
  30
0
  11
1.12486
  21
2.3987
  31
0
  0
LINE
  8
0
  10
1.12486
  20
2.3987
  30
0
  11
1.12869
  21
2.41086
  31
0
  0
LINE
  8
0
  10
1.12869
  20
2.41086
  30
0
  11
1.13289
  21
2.42303
  31
0
  0
LINE
  8
0
  10
1.13289
  20
2.42303
  30
0
  11
1.13746
  21
2.43521
  31
0
  0
LINE
  8
0
  10
1.13746
  20
2.43521
  30
0
  11
1.14237
  21
2.44738
  31
0
  0
LINE
  8
0
  10
1.14237
  20
2.44738
  30
0
  11
1.19668
  21
2.44985
  31
0
  0
LINE
  8
0
  10
1.19668
  20
2.44985
  30
0
  11
1.20268
  21
2.43817
  31
0
  0
LINE
  8
0
  10
1.20268
  20
2.43817
  30
0
  11
1.20833
  21
2.42646
  31
0
  0
LINE
  8
0
  10
1.20833
  20
2.42646
  30
0
  11
1.21362
  21
2.41472
  31
0
  0
LINE
  8
0
  10
1.21362
  20
2.41472
  30
0
  11
1.21853
  21
2.40296
  31
0
  0
LINE
  8
0
  10
1.21853
  20
2.40296
  30
0
  11
1.22305
  21
2.39117
  31
0
  0
LINE
  8
0
  10
1.22305
  20
2.39117
  30
0
  11
1.22716
  21
2.37937
  31
0
  0
LINE
  8
0
  10
1.22716
  20
2.37937
  30
0
  11
1.23081
  21
2.36756
  31
0
  0
LINE
  8
0
  10
1.23081
  20
2.36756
  30
0
  11
1.23399
  21
2.35574
  31
0
  0
LINE
  8
0
  10
1.23399
  20
2.35574
  30
0
  11
1.23537
  21
2.34983
  31
0
  0
LINE
  8
0
  10
1.23537
  20
2.34983
  30
0
  11
1.23661
  21
2.34391
  31
0
  0
LINE
  8
0
  10
1.23661
  20
2.34391
  30
0
  11
1.23717
  21
2.34096
  31
0
  0
LINE
  8
0
  10
1.23717
  20
2.34096
  30
0
  11
1.23768
  21
2.338
  31
0
  0
LINE
  8
0
  10
1.23768
  20
2.338
  30
0
  11
1.23815
  21
2.33505
  31
0
  0
LINE
  8
0
  10
1.23815
  20
2.33505
  30
0
  11
1.23856
  21
2.33209
  31
0
  0
LINE
  8
0
  10
1.23856
  20
2.33209
  30
0
  11
1.30429
  21
2.32934
  31
0
  0
LINE
  8
0
  10
1.30429
  20
2.32934
  30
0
  11
1.30495
  21
2.33225
  31
0
  0
LINE
  8
0
  10
1.30495
  20
2.33225
  30
0
  11
1.30567
  21
2.33515
  31
0
  0
LINE
  8
0
  10
1.30567
  20
2.33515
  30
0
  11
1.30643
  21
2.33806
  31
0
  0
LINE
  8
0
  10
1.30643
  20
2.33806
  30
0
  11
1.30723
  21
2.34095
  31
0
  0
LINE
  8
0
  10
1.30723
  20
2.34095
  30
0
  11
1.30896
  21
2.34674
  31
0
  0
LINE
  8
0
  10
1.30896
  20
2.34674
  30
0
  11
1.31083
  21
2.35252
  31
0
  0
LINE
  8
0
  10
1.31083
  20
2.35252
  30
0
  11
1.31498
  21
2.36403
  31
0
  0
LINE
  8
0
  10
1.31498
  20
2.36403
  30
0
  11
1.31961
  21
2.3755
  31
0
  0
LINE
  8
0
  10
1.31961
  20
2.3755
  30
0
  11
1.32469
  21
2.38691
  31
0
  0
LINE
  8
0
  10
1.32469
  20
2.38691
  30
0
  11
1.33018
  21
2.39828
  31
0
  0
LINE
  8
0
  10
1.33018
  20
2.39828
  30
0
  11
1.33606
  21
2.40959
  31
0
  0
LINE
  8
0
  10
1.33606
  20
2.40959
  30
0
  11
1.34231
  21
2.42084
  31
0
  0
LINE
  8
0
  10
1.34231
  20
2.42084
  30
0
  11
1.34892
  21
2.43204
  31
0
  0
LINE
  8
0
  10
1.34892
  20
2.43204
  30
0
  11
1.35588
  21
2.44317
  31
0
  0
LINE
  8
0
  10
1.35588
  20
2.44317
  30
0
  11
1.40979
  21
2.43617
  31
0
  0
LINE
  8
0
  10
1.40979
  20
2.43617
  30
0
  11
1.41367
  21
2.42363
  31
0
  0
LINE
  8
0
  10
1.41367
  20
2.42363
  30
0
  11
1.4172
  21
2.41112
  31
0
  0
LINE
  8
0
  10
1.4172
  20
2.41112
  30
0
  11
1.42037
  21
2.39864
  31
0
  0
LINE
  8
0
  10
1.42037
  20
2.39864
  30
0
  11
1.42317
  21
2.3862
  31
0
  0
LINE
  8
0
  10
1.42317
  20
2.3862
  30
0
  11
1.42557
  21
2.37381
  31
0
  0
LINE
  8
0
  10
1.42557
  20
2.37381
  30
0
  11
1.42756
  21
2.36148
  31
0
  0
LINE
  8
0
  10
1.42756
  20
2.36148
  30
0
  11
1.42912
  21
2.34921
  31
0
  0
LINE
  8
0
  10
1.42912
  20
2.34921
  30
0
  11
1.43019
  21
2.33702
  31
0
  0
LINE
  8
0
  10
1.43019
  20
2.33702
  30
0
  11
1.43052
  21
2.33095
  31
0
  0
LINE
  8
0
  10
1.43052
  20
2.33095
  30
0
  11
1.43071
  21
2.32492
  31
0
  0
LINE
  8
0
  10
1.43071
  20
2.32492
  30
0
  11
1.43075
  21
2.32191
  31
0
  0
LINE
  8
0
  10
1.43075
  20
2.32191
  30
0
  11
1.43074
  21
2.31891
  31
0
  0
LINE
  8
0
  10
1.43074
  20
2.31891
  30
0
  11
1.43069
  21
2.31592
  31
0
  0
LINE
  8
0
  10
1.43069
  20
2.31592
  30
0
  11
1.43059
  21
2.31293
  31
0
  0
LINE
  8
0
  10
1.43059
  20
2.31293
  30
0
  11
1.49484
  21
2.29881
  31
0
  0
LINE
  8
0
  10
1.49484
  20
2.29881
  30
0
  11
1.496
  21
2.30156
  31
0
  0
LINE
  8
0
  10
1.496
  20
2.30156
  30
0
  11
1.4972
  21
2.3043
  31
0
  0
LINE
  8
0
  10
1.4972
  20
2.3043
  30
0
  11
1.49846
  21
2.30702
  31
0
  0
LINE
  8
0
  10
1.49846
  20
2.30702
  30
0
  11
1.49975
  21
2.30974
  31
0
  0
LINE
  8
0
  10
1.49975
  20
2.30974
  30
0
  11
1.50246
  21
2.31514
  31
0
  0
LINE
  8
0
  10
1.50246
  20
2.31514
  30
0
  11
1.5053
  21
2.3205
  31
0
  0
LINE
  8
0
  10
1.5053
  20
2.3205
  30
0
  11
1.51139
  21
2.33112
  31
0
  0
LINE
  8
0
  10
1.51139
  20
2.33112
  30
0
  11
1.51795
  21
2.34161
  31
0
  0
LINE
  8
0
  10
1.51795
  20
2.34161
  30
0
  11
1.52493
  21
2.35197
  31
0
  0
LINE
  8
0
  10
1.52493
  20
2.35197
  30
0
  11
1.53231
  21
2.3622
  31
0
  0
LINE
  8
0
  10
1.53231
  20
2.3622
  30
0
  11
1.54006
  21
2.37232
  31
0
  0
LINE
  8
0
  10
1.54006
  20
2.37232
  30
0
  11
1.54817
  21
2.38232
  31
0
  0
LINE
  8
0
  10
1.54817
  20
2.38232
  30
0
  11
1.55663
  21
2.3922
  31
0
  0
LINE
  8
0
  10
1.55663
  20
2.3922
  30
0
  11
1.56541
  21
2.40196
  31
0
  0
LINE
  8
0
  10
1.56541
  20
2.40196
  30
0
  11
1.61729
  21
2.3857
  31
0
  0
LINE
  8
0
  10
1.61729
  20
2.3857
  30
0
  11
1.61893
  21
2.37267
  31
0
  0
LINE
  8
0
  10
1.61893
  20
2.37267
  30
0
  11
1.62024
  21
2.35974
  31
0
  0
LINE
  8
0
  10
1.62024
  20
2.35974
  30
0
  11
1.62119
  21
2.3469
  31
0
  0
LINE
  8
0
  10
1.62119
  20
2.3469
  30
0
  11
1.62178
  21
2.33416
  31
0
  0
LINE
  8
0
  10
1.62178
  20
2.33416
  30
0
  11
1.622
  21
2.32155
  31
0
  0
LINE
  8
0
  10
1.622
  20
2.32155
  30
0
  11
1.62182
  21
2.30905
  31
0
  0
LINE
  8
0
  10
1.62182
  20
2.30905
  30
0
  11
1.62122
  21
2.2967
  31
0
  0
LINE
  8
0
  10
1.62122
  20
2.2967
  30
0
  11
1.62015
  21
2.28451
  31
0
  0
LINE
  8
0
  10
1.62015
  20
2.28451
  30
0
  11
1.61943
  21
2.27848
  31
0
  0
LINE
  8
0
  10
1.61943
  20
2.27848
  30
0
  11
1.61857
  21
2.2725
  31
0
  0
LINE
  8
0
  10
1.61857
  20
2.2725
  30
0
  11
1.61809
  21
2.26953
  31
0
  0
LINE
  8
0
  10
1.61809
  20
2.26953
  30
0
  11
1.61756
  21
2.26658
  31
0
  0
LINE
  8
0
  10
1.61756
  20
2.26658
  30
0
  11
1.61699
  21
2.26364
  31
0
  0
LINE
  8
0
  10
1.61699
  20
2.26364
  30
0
  11
1.61637
  21
2.26072
  31
0
  0
LINE
  8
0
  10
1.61637
  20
2.26072
  30
0
  11
1.67719
  21
2.23565
  31
0
  0
LINE
  8
0
  10
1.67719
  20
2.23565
  30
0
  11
1.67881
  21
2.23816
  31
0
  0
LINE
  8
0
  10
1.67881
  20
2.23816
  30
0
  11
1.68047
  21
2.24065
  31
0
  0
LINE
  8
0
  10
1.68047
  20
2.24065
  30
0
  11
1.68218
  21
2.24312
  31
0
  0
LINE
  8
0
  10
1.68218
  20
2.24312
  30
0
  11
1.68392
  21
2.24557
  31
0
  0
LINE
  8
0
  10
1.68392
  20
2.24557
  30
0
  11
1.68753
  21
2.25041
  31
0
  0
LINE
  8
0
  10
1.68753
  20
2.25041
  30
0
  11
1.69126
  21
2.2552
  31
0
  0
LINE
  8
0
  10
1.69126
  20
2.2552
  30
0
  11
1.6991
  21
2.2646
  31
0
  0
LINE
  8
0
  10
1.6991
  20
2.2646
  30
0
  11
1.70738
  21
2.27379
  31
0
  0
LINE
  8
0
  10
1.70738
  20
2.27379
  30
0
  11
1.71605
  21
2.28278
  31
0
  0
LINE
  8
0
  10
1.71605
  20
2.28278
  30
0
  11
1.7251
  21
2.29158
  31
0
  0
LINE
  8
0
  10
1.7251
  20
2.29158
  30
0
  11
1.73449
  21
2.3002
  31
0
  0
LINE
  8
0
  10
1.73449
  20
2.3002
  30
0
  11
1.74421
  21
2.30864
  31
0
  0
LINE
  8
0
  10
1.74421
  20
2.30864
  30
0
  11
1.75426
  21
2.3169
  31
0
  0
LINE
  8
0
  10
1.75426
  20
2.3169
  30
0
  11
1.7646
  21
2.32498
  31
0
  0
LINE
  8
0
  10
1.7646
  20
2.32498
  30
0
  11
1.81287
  21
2.29996
  31
0
  0
LINE
  8
0
  10
1.81287
  20
2.29996
  30
0
  11
1.81222
  21
2.28685
  31
0
  0
LINE
  8
0
  10
1.81222
  20
2.28685
  30
0
  11
1.81126
  21
2.27388
  31
0
  0
LINE
  8
0
  10
1.81126
  20
2.27388
  30
0
  11
1.80997
  21
2.26107
  31
0
  0
LINE
  8
0
  10
1.80997
  20
2.26107
  30
0
  11
1.80835
  21
2.24843
  31
0
  0
LINE
  8
0
  10
1.80835
  20
2.24843
  30
0
  11
1.80637
  21
2.23596
  31
0
  0
LINE
  8
0
  10
1.80637
  20
2.23596
  30
0
  11
1.80402
  21
2.22369
  31
0
  0
LINE
  8
0
  10
1.80402
  20
2.22369
  30
0
  11
1.80128
  21
2.21163
  31
0
  0
LINE
  8
0
  10
1.80128
  20
2.21163
  30
0
  11
1.79812
  21
2.19981
  31
0
  0
LINE
  8
0
  10
1.79812
  20
2.19981
  30
0
  11
1.79636
  21
2.194
  31
0
  0
LINE
  8
0
  10
1.79636
  20
2.194
  30
0
  11
1.79448
  21
2.18826
  31
0
  0
LINE
  8
0
  10
1.79448
  20
2.18826
  30
0
  11
1.79348
  21
2.18542
  31
0
  0
LINE
  8
0
  10
1.79348
  20
2.18542
  30
0
  11
1.79245
  21
2.1826
  31
0
  0
LINE
  8
0
  10
1.79245
  20
2.1826
  30
0
  11
1.79138
  21
2.17981
  31
0
  0
LINE
  8
0
  10
1.79138
  20
2.17981
  30
0
  11
1.79026
  21
2.17704
  31
0
  0
LINE
  8
0
  10
1.79026
  20
2.17704
  30
0
  11
1.8458
  21
2.14179
  31
0
  0
LINE
  8
0
  10
1.8458
  20
2.14179
  30
0
  11
1.84783
  21
2.14398
  31
0
  0
LINE
  8
0
  10
1.84783
  20
2.14398
  30
0
  11
1.8499
  21
2.14614
  31
0
  0
LINE
  8
0
  10
1.8499
  20
2.14614
  30
0
  11
1.85201
  21
2.14828
  31
0
  0
LINE
  8
0
  10
1.85201
  20
2.14828
  30
0
  11
1.85416
  21
2.15039
  31
0
  0
LINE
  8
0
  10
1.85416
  20
2.15039
  30
0
  11
1.85855
  21
2.15454
  31
0
  0
LINE
  8
0
  10
1.85855
  20
2.15454
  30
0
  11
1.86306
  21
2.1586
  31
0
  0
LINE
  8
0
  10
1.86306
  20
2.1586
  30
0
  11
1.87241
  21
2.1665
  31
0
  0
LINE
  8
0
  10
1.87241
  20
2.1665
  30
0
  11
1.88216
  21
2.17411
  31
0
  0
LINE
  8
0
  10
1.88216
  20
2.17411
  30
0
  11
1.89226
  21
2.18146
  31
0
  0
LINE
  8
0
  10
1.89226
  20
2.18146
  30
0
  11
1.9027
  21
2.18855
  31
0
  0
LINE
  8
0
  10
1.9027
  20
2.18855
  30
0
  11
1.91344
  21
2.19541
  31
0
  0
LINE
  8
0
  10
1.91344
  20
2.19541
  30
0
  11
1.92448
  21
2.20203
  31
0
  0
LINE
  8
0
  10
1.92448
  20
2.20203
  30
0
  11
1.93581
  21
2.20842
  31
0
  0
LINE
  8
0
  10
1.93581
  20
2.20842
  30
0
  11
1.9474
  21
2.21459
  31
0
  0
LINE
  8
0
  10
1.9474
  20
2.21459
  30
0
  11
1.99059
  21
2.18157
  31
0
  0
LINE
  8
0
  10
1.99059
  20
2.18157
  30
0
  11
1.98768
  21
2.16876
  31
0
  0
LINE
  8
0
  10
1.98768
  20
2.16876
  30
0
  11
1.98448
  21
2.15616
  31
0
  0
LINE
  8
0
  10
1.98448
  20
2.15616
  30
0
  11
1.98098
  21
2.14377
  31
0
  0
LINE
  8
0
  10
1.98098
  20
2.14377
  30
0
  11
1.97719
  21
2.1316
  31
0
  0
LINE
  8
0
  10
1.97719
  20
2.1316
  30
0
  11
1.97307
  21
2.11967
  31
0
  0
LINE
  8
0
  10
1.97307
  20
2.11967
  30
0
  11
1.96863
  21
2.10799
  31
0
  0
LINE
  8
0
  10
1.96863
  20
2.10799
  30
0
  11
1.96384
  21
2.09659
  31
0
  0
LINE
  8
0
  10
1.96384
  20
2.09659
  30
0
  11
1.95867
  21
2.0855
  31
0
  0
LINE
  8
0
  10
1.95867
  20
2.0855
  30
0
  11
1.95593
  21
2.08008
  31
0
  0
LINE
  8
0
  10
1.95593
  20
2.08008
  30
0
  11
1.95308
  21
2.07475
  31
0
  0
LINE
  8
0
  10
1.95308
  20
2.07475
  30
0
  11
1.95161
  21
2.07213
  31
0
  0
LINE
  8
0
  10
1.95161
  20
2.07213
  30
0
  11
1.9501
  21
2.06954
  31
0
  0
LINE
  8
0
  10
1.9501
  20
2.06954
  30
0
  11
1.94856
  21
2.06697
  31
0
  0
LINE
  8
0
  10
1.94856
  20
2.06697
  30
0
  11
1.94698
  21
2.06444
  31
0
  0
LINE
  8
0
  10
1.94698
  20
2.06444
  30
0
  11
1.99556
  21
2.02008
  31
0
  0
LINE
  8
0
  10
1.99556
  20
2.02008
  30
0
  11
1.99794
  21
2.02188
  31
0
  0
LINE
  8
0
  10
1.99794
  20
2.02188
  30
0
  11
2.00035
  21
2.02365
  31
0
  0
LINE
  8
0
  10
2.00035
  20
2.02365
  30
0
  11
2.0028
  21
2.02539
  31
0
  0
LINE
  8
0
  10
2.0028
  20
2.02539
  30
0
  11
2.00528
  21
2.02709
  31
0
  0
LINE
  8
0
  10
2.00528
  20
2.02709
  30
0
  11
2.01032
  21
2.03042
  31
0
  0
LINE
  8
0
  10
2.01032
  20
2.03042
  30
0
  11
2.01547
  21
2.03363
  31
0
  0
LINE
  8
0
  10
2.01547
  20
2.03363
  30
0
  11
2.02605
  21
2.03979
  31
0
  0
LINE
  8
0
  10
2.02605
  20
2.03979
  30
0
  11
2.03697
  21
2.04559
  31
0
  0
LINE
  8
0
  10
2.03697
  20
2.04559
  30
0
  11
2.0482
  21
2.05107
  31
0
  0
LINE
  8
0
  10
2.0482
  20
2.05107
  30
0
  11
2.0597
  21
2.05625
  31
0
  0
LINE
  8
0
  10
2.0597
  20
2.05625
  30
0
  11
2.07148
  21
2.06114
  31
0
  0
LINE
  8
0
  10
2.07148
  20
2.06114
  30
0
  11
2.0835
  21
2.06574
  31
0
  0
LINE
  8
0
  10
2.0835
  20
2.06574
  30
0
  11
2.09576
  21
2.07007
  31
0
  0
LINE
  8
0
  10
2.09576
  20
2.07007
  30
0
  11
2.10825
  21
2.07413
  31
0
  0
LINE
  8
0
  10
2.10825
  20
2.07413
  30
0
  11
2.14505
  21
2.03411
  31
0
  0
LINE
  8
0
  10
2.14505
  20
2.03411
  30
0
  11
2.13996
  21
2.022
  31
0
  0
LINE
  8
0
  10
2.13996
  20
2.022
  30
0
  11
2.13462
  21
2.01015
  31
0
  0
LINE
  8
0
  10
2.13462
  20
2.01015
  30
0
  11
2.12903
  21
1.99855
  31
0
  0
LINE
  8
0
  10
2.12903
  20
1.99855
  30
0
  11
2.12317
  21
1.98723
  31
0
  0
LINE
  8
0
  10
2.12317
  20
1.98723
  30
0
  11
2.11705
  21
1.97619
  31
0
  0
LINE
  8
0
  10
2.11705
  20
1.97619
  30
0
  11
2.11065
  21
1.96546
  31
0
  0
LINE
  8
0
  10
2.11065
  20
1.96546
  30
0
  11
2.10395
  21
1.95507
  31
0
  0
LINE
  8
0
  10
2.10395
  20
1.95507
  30
0
  11
2.09694
  21
1.94504
  31
0
  0
LINE
  8
0
  10
2.09694
  20
1.94504
  30
0
  11
2.0933
  21
1.94018
  31
0
  0
LINE
  8
0
  10
2.0933
  20
1.94018
  30
0
  11
2.08956
  21
1.93543
  31
0
  0
LINE
  8
0
  10
2.08956
  20
1.93543
  30
0
  11
2.08766
  21
1.9331
  31
0
  0
LINE
  8
0
  10
2.08766
  20
1.9331
  30
0
  11
2.08572
  21
1.93081
  31
0
  0
LINE
  8
0
  10
2.08572
  20
1.93081
  30
0
  11
2.08376
  21
1.92855
  31
0
  0
LINE
  8
0
  10
2.08376
  20
1.92855
  30
0
  11
2.08176
  21
1.92633
  31
0
  0
LINE
  8
0
  10
2.08176
  20
1.92633
  30
0
  11
2.1219
  21
1.87421
  31
0
  0
LINE
  8
0
  10
2.1219
  20
1.87421
  30
0
  11
2.12456
  21
1.87558
  31
0
  0
LINE
  8
0
  10
2.12456
  20
1.87558
  30
0
  11
2.12724
  21
1.8769
  31
0
  0
LINE
  8
0
  10
2.12724
  20
1.8769
  30
0
  11
2.12995
  21
1.87818
  31
0
  0
LINE
  8
0
  10
2.12995
  20
1.87818
  30
0
  11
2.13269
  21
1.87943
  31
0
  0
LINE
  8
0
  10
2.13269
  20
1.87943
  30
0
  11
2.13824
  21
1.88183
  31
0
  0
LINE
  8
0
  10
2.13824
  20
1.88183
  30
0
  11
2.14386
  21
1.8841
  31
0
  0
LINE
  8
0
  10
2.14386
  20
1.8841
  30
0
  11
2.15535
  21
1.88833
  31
0
  0
LINE
  8
0
  10
2.15535
  20
1.88833
  30
0
  11
2.16711
  21
1.89214
  31
0
  0
LINE
  8
0
  10
2.16711
  20
1.89214
  30
0
  11
2.17912
  21
1.89559
  31
0
  0
LINE
  8
0
  10
2.17912
  20
1.89559
  30
0
  11
2.19136
  21
1.89869
  31
0
  0
LINE
  8
0
  10
2.19136
  20
1.89869
  30
0
  11
2.2038
  21
1.90146
  31
0
  0
LINE
  8
0
  10
2.2038
  20
1.90146
  30
0
  11
2.21644
  21
1.90391
  31
0
  0
LINE
  8
0
  10
2.21644
  20
1.90391
  30
0
  11
2.22926
  21
1.90604
  31
0
  0
LINE
  8
0
  10
2.22926
  20
1.90604
  30
0
  11
2.24227
  21
1.90787
  31
0
  0
LINE
  8
0
  10
2.24227
  20
1.90787
  30
0
  11
2.27156
  21
1.86207
  31
0
  0
LINE
  8
0
  10
2.27156
  20
1.86207
  30
0
  11
2.26444
  21
1.85103
  31
0
  0
LINE
  8
0
  10
2.26444
  20
1.85103
  30
0
  11
2.25713
  21
1.84028
  31
0
  0
LINE
  8
0
  10
2.25713
  20
1.84028
  30
0
  11
2.24961
  21
1.82983
  31
0
  0
LINE
  8
0
  10
2.24961
  20
1.82983
  30
0
  11
2.24187
  21
1.8197
  31
0
  0
LINE
  8
0
  10
2.24187
  20
1.8197
  30
0
  11
2.23393
  21
1.80989
  31
0
  0
LINE
  8
0
  10
2.23393
  20
1.80989
  30
0
  11
2.22576
  21
1.80044
  31
0
  0
LINE
  8
0
  10
2.22576
  20
1.80044
  30
0
  11
2.21736
  21
1.79136
  31
0
  0
LINE
  8
0
  10
2.21736
  20
1.79136
  30
0
  11
2.20871
  21
1.78271
  31
0
  0
LINE
  8
0
  10
2.20871
  20
1.78271
  30
0
  11
2.20428
  21
1.77855
  31
0
  0
LINE
  8
0
  10
2.20428
  20
1.77855
  30
0
  11
2.19978
  21
1.77452
  31
0
  0
LINE
  8
0
  10
2.19978
  20
1.77452
  30
0
  11
2.1975
  21
1.77256
  31
0
  0
LINE
  8
0
  10
2.1975
  20
1.77256
  30
0
  11
2.1952
  21
1.77064
  31
0
  0
LINE
  8
0
  10
2.1952
  20
1.77064
  30
0
  11
2.19287
  21
1.76876
  31
0
  0
LINE
  8
0
  10
2.19287
  20
1.76876
  30
0
  11
2.19052
  21
1.76692
  31
0
  0
LINE
  8
0
  10
2.19052
  20
1.76692
  30
0
  11
2.221
  21
1.70862
  31
0
  0
LINE
  8
0
  10
2.221
  20
1.70862
  30
0
  11
2.22385
  21
1.7095
  31
0
  0
LINE
  8
0
  10
2.22385
  20
1.7095
  30
0
  11
2.22672
  21
1.71034
  31
0
  0
LINE
  8
0
  10
2.22672
  20
1.71034
  30
0
  11
2.22962
  21
1.71113
  31
0
  0
LINE
  8
0
  10
2.22962
  20
1.71113
  30
0
  11
2.23253
  21
1.71188
  31
0
  0
LINE
  8
0
  10
2.23253
  20
1.71188
  30
0
  11
2.2384
  21
1.71328
  31
0
  0
LINE
  8
0
  10
2.2384
  20
1.71328
  30
0
  11
2.24434
  21
1.71455
  31
0
  0
LINE
  8
0
  10
2.24434
  20
1.71455
  30
0
  11
2.25639
  21
1.71671
  31
0
  0
LINE
  8
0
  10
2.25639
  20
1.71671
  30
0
  11
2.26864
  21
1.71843
  31
0
  0
LINE
  8
0
  10
2.26864
  20
1.71843
  30
0
  11
2.28106
  21
1.71974
  31
0
  0
LINE
  8
0
  10
2.28106
  20
1.71974
  30
0
  11
2.29365
  21
1.72067
  31
0
  0
LINE
  8
0
  10
2.29365
  20
1.72067
  30
0
  11
2.30638
  21
1.72123
  31
0
  0
LINE
  8
0
  10
2.30638
  20
1.72123
  30
0
  11
2.31925
  21
1.72145
  31
0
  0
LINE
  8
0
  10
2.31925
  20
1.72145
  30
0
  11
2.33226
  21
1.72132
  31
0
  0
LINE
  8
0
  10
2.33226
  20
1.72132
  30
0
  11
2.34538
  21
1.72086
  31
0
  0
LINE
  8
0
  10
2.34538
  20
1.72086
  30
0
  11
2.36627
  21
1.67067
  31
0
  0
LINE
  8
0
  10
2.36627
  20
1.67067
  30
0
  11
2.35735
  21
1.66104
  31
0
  0
LINE
  8
0
  10
2.35735
  20
1.66104
  30
0
  11
2.34828
  21
1.65172
  31
0
  0
LINE
  8
0
  10
2.34828
  20
1.65172
  30
0
  11
2.33905
  21
1.64274
  31
0
  0
LINE
  8
0
  10
2.33905
  20
1.64274
  30
0
  11
2.32968
  21
1.6341
  31
0
  0
LINE
  8
0
  10
2.32968
  20
1.6341
  30
0
  11
2.32015
  21
1.62582
  31
0
  0
LINE
  8
0
  10
2.32015
  20
1.62582
  30
0
  11
2.31047
  21
1.61793
  31
0
  0
LINE
  8
0
  10
2.31047
  20
1.61793
  30
0
  11
2.30062
  21
1.61045
  31
0
  0
LINE
  8
0
  10
2.30062
  20
1.61045
  30
0
  11
2.2906
  21
1.60343
  31
0
  0
LINE
  8
0
  10
2.2906
  20
1.60343
  30
0
  11
2.28551
  21
1.60011
  31
0
  0
LINE
  8
0
  10
2.28551
  20
1.60011
  30
0
  11
2.28038
  21
1.59692
  31
0
  0
LINE
  8
0
  10
2.28038
  20
1.59692
  30
0
  11
2.27779
  21
1.59539
  31
0
  0
LINE
  8
0
  10
2.27779
  20
1.59539
  30
0
  11
2.27519
  21
1.59389
  31
0
  0
LINE
  8
0
  10
2.27519
  20
1.59389
  30
0
  11
2.27258
  21
1.59244
  31
0
  0
LINE
  8
0
  10
2.27258
  20
1.59244
  30
0
  11
2.26994
  21
1.59104
  31
0
  0
LINE
  8
0
  10
2.26994
  20
1.59104
  30
0
  11
2.28983
  21
1.52834
  31
0
  0
LINE
  8
0
  10
2.28983
  20
1.52834
  30
0
  11
2.29279
  21
1.52871
  31
0
  0
LINE
  8
0
  10
2.29279
  20
1.52871
  30
0
  11
2.29577
  21
1.52903
  31
0
  0
LINE
  8
0
  10
2.29577
  20
1.52903
  30
0
  11
2.29875
  21
1.52931
  31
0
  0
LINE
  8
0
  10
2.29875
  20
1.52931
  30
0
  11
2.30175
  21
1.52955
  31
0
  0
LINE
  8
0
  10
2.30175
  20
1.52955
  30
0
  11
2.30778
  21
1.52991
  31
0
  0
LINE
  8
0
  10
2.30778
  20
1.52991
  30
0
  11
2.31385
  21
1.53012
  31
0
  0
LINE
  8
0
  10
2.31385
  20
1.53012
  30
0
  11
2.32609
  21
1.53016
  31
0
  0
LINE
  8
0
  10
2.32609
  20
1.53016
  30
0
  11
2.33845
  21
1.52972
  31
0
  0
LINE
  8
0
  10
2.33845
  20
1.52972
  30
0
  11
2.35091
  21
1.52886
  31
0
  0
LINE
  8
0
  10
2.35091
  20
1.52886
  30
0
  11
2.36347
  21
1.52759
  31
0
  0
LINE
  8
0
  10
2.36347
  20
1.52759
  30
0
  11
2.37611
  21
1.52593
  31
0
  0
LINE
  8
0
  10
2.37611
  20
1.52593
  30
0
  11
2.38882
  21
1.52391
  31
0
  0
LINE
  8
0
  10
2.38882
  20
1.52391
  30
0
  11
2.4016
  21
1.52152
  31
0
  0
LINE
  8
0
  10
2.4016
  20
1.52152
  30
0
  11
2.41445
  21
1.51879
  31
0
  0
LINE
  8
0
  10
2.41445
  20
1.51879
  30
0
  11
2.42631
  21
1.46574
  31
0
  0
LINE
  8
0
  10
2.42631
  20
1.46574
  30
0
  11
2.41585
  21
1.4578
  31
0
  0
LINE
  8
0
  10
2.41585
  20
1.4578
  30
0
  11
2.4053
  21
1.4502
  31
0
  0
LINE
  8
0
  10
2.4053
  20
1.4502
  30
0
  11
2.39466
  21
1.44296
  31
0
  0
LINE
  8
0
  10
2.39466
  20
1.44296
  30
0
  11
2.38392
  21
1.43608
  31
0
  0
LINE
  8
0
  10
2.38392
  20
1.43608
  30
0
  11
2.3731
  21
1.42958
  31
0
  0
LINE
  8
0
  10
2.3731
  20
1.42958
  30
0
  11
2.3622
  21
1.42349
  31
0
  0
LINE
  8
0
  10
2.3622
  20
1.42349
  30
0
  11
2.3512
  21
1.41784
  31
0
  0
LINE
  8
0
  10
2.3512
  20
1.41784
  30
0
  11
2.34011
  21
1.41266
  31
0
  0
LINE
  8
0
  10
2.34011
  20
1.41266
  30
0
  11
2.33453
  21
1.41027
  31
0
  0
LINE
  8
0
  10
2.33453
  20
1.41027
  30
0
  11
2.32892
  21
1.40803
  31
0
  0
LINE
  8
0
  10
2.32892
  20
1.40803
  30
0
  11
2.3261
  21
1.40696
  31
0
  0
LINE
  8
0
  10
2.3261
  20
1.40696
  30
0
  11
2.32328
  21
1.40594
  31
0
  0
LINE
  8
0
  10
2.32328
  20
1.40594
  30
0
  11
2.32045
  21
1.40497
  31
0
  0
LINE
  8
0
  10
2.32045
  20
1.40497
  30
0
  11
2.31761
  21
1.40405
  31
0
  0
LINE
  8
0
  10
2.31761
  20
1.40405
  30
0
  11
2.32631
  21
1.33884
  31
0
  0
LINE
  8
0
  10
2.32631
  20
1.33884
  30
0
  11
2.3293
  21
1.33869
  31
0
  0
LINE
  8
0
  10
2.3293
  20
1.33869
  30
0
  11
2.33228
  21
1.33849
  31
0
  0
LINE
  8
0
  10
2.33228
  20
1.33849
  30
0
  11
2.33527
  21
1.33825
  31
0
  0
LINE
  8
0
  10
2.33527
  20
1.33825
  30
0
  11
2.33827
  21
1.33796
  31
0
  0
LINE
  8
0
  10
2.33827
  20
1.33796
  30
0
  11
2.34427
  21
1.33727
  31
0
  0
LINE
  8
0
  10
2.34427
  20
1.33727
  30
0
  11
2.35028
  21
1.33642
  31
0
  0
LINE
  8
0
  10
2.35028
  20
1.33642
  30
0
  11
2.36234
  21
1.33434
  31
0
  0
LINE
  8
0
  10
2.36234
  20
1.33434
  30
0
  11
2.37443
  21
1.33176
  31
0
  0
LINE
  8
0
  10
2.37443
  20
1.33176
  30
0
  11
2.38656
  21
1.32875
  31
0
  0
LINE
  8
0
  10
2.38656
  20
1.32875
  30
0
  11
2.3987
  21
1.32531
  31
0
  0
LINE
  8
0
  10
2.3987
  20
1.32531
  30
0
  11
2.41086
  21
1.32149
  31
0
  0
LINE
  8
0
  10
2.41086
  20
1.32149
  30
0
  11
2.42303
  21
1.31729
  31
0
  0
LINE
  8
0
  10
2.42303
  20
1.31729
  30
0
  11
2.43521
  21
1.31272
  31
0
  0
LINE
  8
0
  10
2.43521
  20
1.31272
  30
0
  11
2.44738
  21
1.3078
  31
0
  0
LINE
  8
0
  10
2.44738
  20
1.3078
  30
0
  11
2.44985
  21
1.25349
  31
0
  0
LINE
  8
0
  10
2.44985
  20
1.25349
  30
0
  11
2.43817
  21
1.24749
  31
0
  0
LINE
  8
0
  10
2.43817
  20
1.24749
  30
0
  11
2.42646
  21
1.24184
  31
0
  0
LINE
  8
0
  10
2.42646
  20
1.24184
  30
0
  11
2.41472
  21
1.23655
  31
0
  0
LINE
  8
0
  10
2.41472
  20
1.23655
  30
0
  11
2.40296
  21
1.23164
  31
0
  0
LINE
  8
0
  10
2.40296
  20
1.23164
  30
0
  11
2.39117
  21
1.22712
  31
0
  0
LINE
  8
0
  10
2.39117
  20
1.22712
  30
0
  11
2.37937
  21
1.22302
  31
0
  0
LINE
  8
0
  10
2.37937
  20
1.22302
  30
0
  11
2.36756
  21
1.21936
  31
0
  0
LINE
  8
0
  10
2.36756
  20
1.21936
  30
0
  11
2.35574
  21
1.21619
  31
0
  0
LINE
  8
0
  10
2.35574
  20
1.21619
  30
0
  11
2.34983
  21
1.2148
  31
0
  0
LINE
  8
0
  10
2.34983
  20
1.2148
  30
0
  11
2.34391
  21
1.21357
  31
0
  0
LINE
  8
0
  10
2.34391
  20
1.21357
  30
0
  11
2.34096
  21
1.21301
  31
0
  0
LINE
  8
0
  10
2.34096
  20
1.21301
  30
0
  11
2.338
  21
1.2125
  31
0
  0
LINE
  8
0
  10
2.338
  20
1.2125
  30
0
  11
2.33505
  21
1.21203
  31
0
  0
LINE
  8
0
  10
2.33505
  20
1.21203
  30
0
  11
2.33209
  21
1.21161
  31
0
  0
LINE
  8
0
  10
2.33209
  20
1.21161
  30
0
  11
2.32934
  21
1.14589
  31
0
  0
LINE
  8
0
  10
1.37509
  20
1.22509
  30
0
  11
1.37509
  21
1.22509
  31
0
  0
LINE
  8
0
  10
1.37509
  20
1.22509
  30
0
  11
1.36998
  21
1.26391
  31
0
  0
LINE
  8
0
  10
1.36998
  20
1.26391
  30
0
  11
1.35499
  21
1.30009
  31
0
  0
LINE
  8
0
  10
1.35499
  20
1.30009
  30
0
  11
1.33115
  21
1.33115
  31
0
  0
LINE
  8
0
  10
1.33115
  20
1.33115
  30
0
  11
1.30009
  21
1.35499
  31
0
  0
LINE
  8
0
  10
1.30009
  20
1.35499
  30
0
  11
1.26391
  21
1.36998
  31
0
  0
LINE
  8
0
  10
1.26391
  20
1.36998
  30
0
  11
1.22509
  21
1.37509
  31
0
  0
LINE
  8
0
  10
1.22509
  20
1.37509
  30
0
  11
1.18626
  21
1.36998
  31
0
  0
LINE
  8
0
  10
1.18626
  20
1.36998
  30
0
  11
1.15009
  21
1.35499
  31
0
  0
LINE
  8
0
  10
1.15009
  20
1.35499
  30
0
  11
1.11902
  21
1.33115
  31
0
  0
LINE
  8
0
  10
1.11902
  20
1.33115
  30
0
  11
1.09518
  21
1.30009
  31
0
  0
LINE
  8
0
  10
1.09518
  20
1.30009
  30
0
  11
1.0802
  21
1.26391
  31
0
  0
LINE
  8
0
  10
1.0802
  20
1.26391
  30
0
  11
1.07509
  21
1.22509
  31
0
  0
LINE
  8
0
  10
1.07509
  20
1.22509
  30
0
  11
1.0802
  21
1.18626
  31
0
  0
LINE
  8
0
  10
1.0802
  20
1.18626
  30
0
  11
1.09518
  21
1.15009
  31
0
  0
LINE
  8
0
  10
1.09518
  20
1.15009
  30
0
  11
1.11902
  21
1.11902
  31
0
  0
LINE
  8
0
  10
1.11902
  20
1.11902
  30
0
  11
1.15009
  21
1.09518
  31
0
  0
LINE
  8
0
  10
1.15009
  20
1.09518
  30
0
  11
1.18626
  21
1.0802
  31
0
  0
LINE
  8
0
  10
1.18626
  20
1.0802
  30
0
  11
1.22509
  21
1.07509
  31
0
  0
LINE
  8
0
  10
1.22509
  20
1.07509
  30
0
  11
1.26391
  21
1.0802
  31
0
  0
LINE
  8
0
  10
1.26391
  20
1.0802
  30
0
  11
1.30009
  21
1.09518
  31
0
  0
LINE
  8
0
  10
1.30009
  20
1.09518
  30
0
  11
1.33115
  21
1.11902
  31
0
  0
LINE
  8
0
  10
1.33115
  20
1.11902
  30
0
  11
1.35499
  21
1.15009
  31
0
  0
LINE
  8
0
  10
1.35499
  20
1.15009
  30
0
  11
1.36998
  21
1.18626
  31
0
  0
LINE
  8
0
  10
1.36998
  20
1.18626
  30
0
  11
1.37509
  21
1.22509
  31
0
  0
LINE
  8
0
  10
1.37509
  20
1.22509
  30
0
  11
1.37509
  21
1.22509
  31
0
  0
ENDSEC
  0
EOF
