  999
file created by gear template generator
  0
SECTION
  2
HEADER
  9
$ACADVER
  1
AC1006
  9
$INSBASE
  10
0.0
  20
0.0
  30
0.0
  9
$EXTMIN
  10
0.0
  20
0.0
  9
$EXTMAX
  10
10000.0
  20
10000.0
  0
ENDSEC
  0
SECTION
  2
ENTITIES
  0
LINE
  8
0
  10
0.12686
  20
0.31496
  30
0
  11
0.12686
  21
0.31496
  31
0
  0
LINE
  8
0
  10
0.12686
  20
0.31496
  30
0
  11
0.1234
  21
0.32065
  31
0
  0
LINE
  8
0
  10
0.1234
  20
0.32065
  30
0
  11
0.12093
  21
0.32258
  31
0
  0
LINE
  8
0
  10
0.12093
  20
0.32258
  30
0
  11
0.11862
  21
0.32384
  31
0
  0
LINE
  8
0
  10
0.11862
  20
0.32384
  30
0
  11
0.11641
  21
0.32475
  31
0
  0
LINE
  8
0
  10
0.11641
  20
0.32475
  30
0
  11
0.11425
  21
0.32542
  31
0
  0
LINE
  8
0
  10
0.11425
  20
0.32542
  30
0
  11
0.11214
  21
0.3259
  31
0
  0
LINE
  8
0
  10
0.11214
  20
0.3259
  30
0
  11
0.108
  21
0.32647
  31
0
  0
LINE
  8
0
  10
0.108
  20
0.32647
  30
0
  11
0.10396
  21
0.32662
  31
0
  0
LINE
  8
0
  10
0.10396
  20
0.32662
  30
0
  11
0.09998
  21
0.32645
  31
0
  0
LINE
  8
0
  10
0.09998
  20
0.32645
  30
0
  11
0.09218
  21
0.32535
  31
0
  0
LINE
  8
0
  10
0.09218
  20
0.32535
  30
0
  11
0.08454
  21
0.32341
  31
0
  0
LINE
  8
0
  10
0.08454
  20
0.32341
  30
0
  11
0.07662
  21
0.32294
  31
0
  0
LINE
  8
0
  10
0.07662
  20
0.32294
  30
0
  11
0.06848
  21
0.32361
  31
0
  0
LINE
  8
0
  10
0.06848
  20
0.32361
  30
0
  11
0.06022
  21
0.32499
  31
0
  0
LINE
  8
0
  10
0.06022
  20
0.32499
  30
0
  11
0.05189
  21
0.327
  31
0
  0
LINE
  8
0
  10
0.05189
  20
0.327
  30
0
  11
0.0435
  21
0.32958
  31
0
  0
LINE
  8
0
  10
0.0435
  20
0.32958
  30
0
  11
0.03507
  21
0.33269
  31
0
  0
LINE
  8
0
  10
0.03507
  20
0.33269
  30
0
  11
0.02664
  21
0.33631
  31
0
  0
LINE
  8
0
  10
0.02664
  20
0.33631
  30
0
  11
0.0182
  21
0.34043
  31
0
  0
LINE
  8
0
  10
0.0182
  20
0.34043
  30
0
  11
0.00978
  21
0.34503
  31
0
  0
LINE
  8
0
  10
0.00978
  20
0.34503
  30
0
  11
0.00141
  21
0.35011
  31
0
  0
LINE
  8
0
  10
0.00141
  20
0.35011
  30
0
  11
0.00024
  21
0.39651
  31
0
  0
LINE
  8
0
  10
0.00024
  20
0.39651
  30
0
  11
0.00835
  21
0.402
  31
0
  0
LINE
  8
0
  10
0.00835
  20
0.402
  30
0
  11
0.01653
  21
0.40702
  31
0
  0
LINE
  8
0
  10
0.01653
  20
0.40702
  30
0
  11
0.02474
  21
0.41155
  31
0
  0
LINE
  8
0
  10
0.02474
  20
0.41155
  30
0
  11
0.03299
  21
0.4156
  31
0
  0
LINE
  8
0
  10
0.03299
  20
0.4156
  30
0
  11
0.04125
  21
0.41913
  31
0
  0
LINE
  8
0
  10
0.04125
  20
0.41913
  30
0
  11
0.0495
  21
0.42212
  31
0
  0
LINE
  8
0
  10
0.0495
  20
0.42212
  30
0
  11
0.05772
  21
0.42455
  31
0
  0
LINE
  8
0
  10
0.05772
  20
0.42455
  30
0
  11
0.0659
  21
0.42635
  31
0
  0
LINE
  8
0
  10
0.0659
  20
0.42635
  30
0
  11
0.07399
  21
0.42742
  31
0
  0
LINE
  8
0
  10
0.07399
  20
0.42742
  30
0
  11
0.08193
  21
0.42735
  31
0
  0
LINE
  8
0
  10
0.08193
  20
0.42735
  30
0
  11
0.08965
  21
0.4258
  31
0
  0
LINE
  8
0
  10
0.08965
  20
0.4258
  30
0
  11
0.0975
  21
0.42509
  31
0
  0
LINE
  8
0
  10
0.0975
  20
0.42509
  30
0
  11
0.10148
  21
0.42512
  31
0
  0
LINE
  8
0
  10
0.10148
  20
0.42512
  30
0
  11
0.10551
  21
0.42547
  31
0
  0
LINE
  8
0
  10
0.10551
  20
0.42547
  30
0
  11
0.10962
  21
0.42625
  31
0
  0
LINE
  8
0
  10
0.10962
  20
0.42625
  30
0
  11
0.1117
  21
0.42684
  31
0
  0
LINE
  8
0
  10
0.1117
  20
0.42684
  30
0
  11
0.11382
  21
0.42761
  31
0
  0
LINE
  8
0
  10
0.11382
  20
0.42761
  30
0
  11
0.11599
  21
0.42863
  31
0
  0
LINE
  8
0
  10
0.11599
  20
0.42863
  30
0
  11
0.11823
  21
0.43001
  31
0
  0
LINE
  8
0
  10
0.11823
  20
0.43001
  30
0
  11
0.1206
  21
0.43206
  31
0
  0
LINE
  8
0
  10
0.1206
  20
0.43206
  30
0
  11
0.12377
  21
0.43791
  31
0
  0
LINE
  8
0
  10
0.12377
  20
0.43791
  30
0
  11
0.12899
  21
0.45842
  31
0
  0
LINE
  8
0
  10
0.12899
  20
0.45842
  30
0
  11
0.13582
  21
0.47844
  31
0
  0
LINE
  8
0
  10
0.13582
  20
0.47844
  30
0
  11
0.13636
  21
0.48508
  31
0
  0
LINE
  8
0
  10
0.13636
  20
0.48508
  30
0
  11
0.1355
  21
0.48809
  31
0
  0
LINE
  8
0
  10
0.1355
  20
0.48809
  30
0
  11
0.13438
  21
0.49047
  31
0
  0
LINE
  8
0
  10
0.13438
  20
0.49047
  30
0
  11
0.13312
  21
0.49251
  31
0
  0
LINE
  8
0
  10
0.13312
  20
0.49251
  30
0
  11
0.13177
  21
0.49431
  31
0
  0
LINE
  8
0
  10
0.13177
  20
0.49431
  30
0
  11
0.13034
  21
0.49595
  31
0
  0
LINE
  8
0
  10
0.13034
  20
0.49595
  30
0
  11
0.12733
  21
0.49884
  31
0
  0
LINE
  8
0
  10
0.12733
  20
0.49884
  30
0
  11
0.12415
  21
0.50134
  31
0
  0
LINE
  8
0
  10
0.12415
  20
0.50134
  30
0
  11
0.12083
  21
0.50354
  31
0
  0
LINE
  8
0
  10
0.12083
  20
0.50354
  30
0
  11
0.11387
  21
0.50723
  31
0
  0
LINE
  8
0
  10
0.11387
  20
0.50723
  30
0
  11
0.10655
  21
0.51015
  31
0
  0
LINE
  8
0
  10
0.10655
  20
0.51015
  30
0
  11
0.09986
  21
0.51443
  31
0
  0
LINE
  8
0
  10
0.09986
  20
0.51443
  30
0
  11
0.09367
  21
0.51975
  31
0
  0
LINE
  8
0
  10
0.09367
  20
0.51975
  30
0
  11
0.08781
  21
0.52573
  31
0
  0
LINE
  8
0
  10
0.08781
  20
0.52573
  30
0
  11
0.08225
  21
0.53225
  31
0
  0
LINE
  8
0
  10
0.08225
  20
0.53225
  30
0
  11
0.07697
  21
0.53927
  31
0
  0
LINE
  8
0
  10
0.07697
  20
0.53927
  30
0
  11
0.07198
  21
0.54674
  31
0
  0
LINE
  8
0
  10
0.07198
  20
0.54674
  30
0
  11
0.06729
  21
0.55463
  31
0
  0
LINE
  8
0
  10
0.06729
  20
0.55463
  30
0
  11
0.06288
  21
0.56292
  31
0
  0
LINE
  8
0
  10
0.06288
  20
0.56292
  30
0
  11
0.05878
  21
0.57159
  31
0
  0
LINE
  8
0
  10
0.05878
  20
0.57159
  30
0
  11
0.05499
  21
0.58062
  31
0
  0
LINE
  8
0
  10
0.05499
  20
0.58062
  30
0
  11
0.08132
  21
0.61884
  31
0
  0
LINE
  8
0
  10
0.08132
  20
0.61884
  30
0
  11
0.09111
  21
0.61852
  31
0
  0
LINE
  8
0
  10
0.09111
  20
0.61852
  30
0
  11
0.10067
  21
0.61777
  31
0
  0
LINE
  8
0
  10
0.10067
  20
0.61777
  30
0
  11
0.10998
  21
0.61661
  31
0
  0
LINE
  8
0
  10
0.10998
  20
0.61661
  30
0
  11
0.11903
  21
0.61504
  31
0
  0
LINE
  8
0
  10
0.11903
  20
0.61504
  30
0
  11
0.12779
  21
0.61304
  31
0
  0
LINE
  8
0
  10
0.12779
  20
0.61304
  30
0
  11
0.13622
  21
0.61061
  31
0
  0
LINE
  8
0
  10
0.13622
  20
0.61061
  30
0
  11
0.1443
  21
0.60774
  31
0
  0
LINE
  8
0
  10
0.1443
  20
0.60774
  30
0
  11
0.15197
  21
0.60439
  31
0
  0
LINE
  8
0
  10
0.15197
  20
0.60439
  30
0
  11
0.15915
  21
0.6005
  31
0
  0
LINE
  8
0
  10
0.15915
  20
0.6005
  30
0
  11
0.16553
  21
0.59578
  31
0
  0
LINE
  8
0
  10
0.16553
  20
0.59578
  30
0
  11
0.17087
  21
0.58998
  31
0
  0
LINE
  8
0
  10
0.17087
  20
0.58998
  30
0
  11
0.1768
  21
0.5848
  31
0
  0
LINE
  8
0
  10
0.1768
  20
0.5848
  30
0
  11
0.18004
  21
0.58248
  31
0
  0
LINE
  8
0
  10
0.18004
  20
0.58248
  30
0
  11
0.18351
  21
0.5804
  31
0
  0
LINE
  8
0
  10
0.18351
  20
0.5804
  30
0
  11
0.18728
  21
0.57861
  31
0
  0
LINE
  8
0
  10
0.18728
  20
0.57861
  30
0
  11
0.18932
  21
0.57786
  31
0
  0
LINE
  8
0
  10
0.18932
  20
0.57786
  30
0
  11
0.19149
  21
0.57724
  31
0
  0
LINE
  8
0
  10
0.19149
  20
0.57724
  30
0
  11
0.19384
  21
0.57679
  31
0
  0
LINE
  8
0
  10
0.19384
  20
0.57679
  30
0
  11
0.19646
  21
0.5766
  31
0
  0
LINE
  8
0
  10
0.19646
  20
0.5766
  30
0
  11
0.19959
  21
0.57686
  31
0
  0
LINE
  8
0
  10
0.19959
  20
0.57686
  30
0
  11
0.20559
  21
0.57973
  31
0
  0
LINE
  8
0
  10
0.20559
  20
0.57973
  30
0
  11
0.22187
  21
0.59325
  31
0
  0
LINE
  8
0
  10
0.22187
  20
0.59325
  30
0
  11
0.23916
  21
0.60543
  31
0
  0
LINE
  8
0
  10
0.23916
  20
0.60543
  30
0
  11
0.2435
  21
0.61048
  31
0
  0
LINE
  8
0
  10
0.2435
  20
0.61048
  30
0
  11
0.24457
  21
0.61343
  31
0
  0
LINE
  8
0
  10
0.24457
  20
0.61343
  30
0
  11
0.24506
  21
0.61602
  31
0
  0
LINE
  8
0
  10
0.24506
  20
0.61602
  30
0
  11
0.24524
  21
0.6184
  31
0
  0
LINE
  8
0
  10
0.24524
  20
0.6184
  30
0
  11
0.24521
  21
0.62066
  31
0
  0
LINE
  8
0
  10
0.24521
  20
0.62066
  30
0
  11
0.24502
  21
0.62282
  31
0
  0
LINE
  8
0
  10
0.24502
  20
0.62282
  30
0
  11
0.24428
  21
0.62693
  31
0
  0
LINE
  8
0
  10
0.24428
  20
0.62693
  30
0
  11
0.24318
  21
0.63082
  31
0
  0
LINE
  8
0
  10
0.24318
  20
0.63082
  30
0
  11
0.24178
  21
0.63455
  31
0
  0
LINE
  8
0
  10
0.24178
  20
0.63455
  30
0
  11
0.23832
  21
0.64163
  31
0
  0
LINE
  8
0
  10
0.23832
  20
0.64163
  30
0
  11
0.23412
  21
0.64829
  31
0
  0
LINE
  8
0
  10
0.23412
  20
0.64829
  30
0
  11
0.23123
  21
0.65569
  31
0
  0
LINE
  8
0
  10
0.23123
  20
0.65569
  30
0
  11
0.22934
  21
0.66363
  31
0
  0
LINE
  8
0
  10
0.22934
  20
0.66363
  30
0
  11
0.22811
  21
0.67191
  31
0
  0
LINE
  8
0
  10
0.22811
  20
0.67191
  30
0
  11
0.22745
  21
0.68046
  31
0
  0
LINE
  8
0
  10
0.22745
  20
0.68046
  30
0
  11
0.2273
  21
0.68924
  31
0
  0
LINE
  8
0
  10
0.2273
  20
0.68924
  30
0
  11
0.22766
  21
0.69821
  31
0
  0
LINE
  8
0
  10
0.22766
  20
0.69821
  30
0
  11
0.2285
  21
0.70735
  31
0
  0
LINE
  8
0
  10
0.2285
  20
0.70735
  30
0
  11
0.22981
  21
0.71665
  31
0
  0
LINE
  8
0
  10
0.22981
  20
0.71665
  30
0
  11
0.23158
  21
0.72607
  31
0
  0
LINE
  8
0
  10
0.23158
  20
0.72607
  30
0
  11
0.23382
  21
0.73561
  31
0
  0
LINE
  8
0
  10
0.23382
  20
0.73561
  30
0
  11
0.27759
  21
0.75106
  31
0
  0
LINE
  8
0
  10
0.27759
  20
0.75106
  30
0
  11
0.28532
  21
0.74504
  31
0
  0
LINE
  8
0
  10
0.28532
  20
0.74504
  30
0
  11
0.29262
  21
0.73882
  31
0
  0
LINE
  8
0
  10
0.29262
  20
0.73882
  30
0
  11
0.29947
  21
0.7324
  31
0
  0
LINE
  8
0
  10
0.29947
  20
0.7324
  30
0
  11
0.30587
  21
0.72581
  31
0
  0
LINE
  8
0
  10
0.30587
  20
0.72581
  30
0
  11
0.31177
  21
0.71905
  31
0
  0
LINE
  8
0
  10
0.31177
  20
0.71905
  30
0
  11
0.31717
  21
0.71213
  31
0
  0
LINE
  8
0
  10
0.31717
  20
0.71213
  30
0
  11
0.32202
  21
0.70506
  31
0
  0
LINE
  8
0
  10
0.32202
  20
0.70506
  30
0
  11
0.32626
  21
0.69784
  31
0
  0
LINE
  8
0
  10
0.32626
  20
0.69784
  30
0
  11
0.32978
  21
0.69047
  31
0
  0
LINE
  8
0
  10
0.32978
  20
0.69047
  30
0
  11
0.33217
  21
0.6829
  31
0
  0
LINE
  8
0
  10
0.33217
  20
0.6829
  30
0
  11
0.33308
  21
0.67507
  31
0
  0
LINE
  8
0
  10
0.33308
  20
0.67507
  30
0
  11
0.33483
  21
0.66739
  31
0
  0
LINE
  8
0
  10
0.33483
  20
0.66739
  30
0
  11
0.33609
  21
0.66361
  31
0
  0
LINE
  8
0
  10
0.33609
  20
0.66361
  30
0
  11
0.33767
  21
0.65989
  31
0
  0
LINE
  8
0
  10
0.33767
  20
0.65989
  30
0
  11
0.33967
  21
0.65623
  31
0
  0
LINE
  8
0
  10
0.33967
  20
0.65623
  30
0
  11
0.34088
  21
0.65442
  31
0
  0
LINE
  8
0
  10
0.34088
  20
0.65442
  30
0
  11
0.34227
  21
0.65265
  31
0
  0
LINE
  8
0
  10
0.34227
  20
0.65265
  30
0
  11
0.34391
  21
0.6509
  31
0
  0
LINE
  8
0
  10
0.34391
  20
0.6509
  30
0
  11
0.34591
  21
0.6492
  31
0
  0
LINE
  8
0
  10
0.34591
  20
0.6492
  30
0
  11
0.3486
  21
0.64758
  31
0
  0
LINE
  8
0
  10
0.3486
  20
0.64758
  30
0
  11
0.35514
  21
0.64637
  31
0
  0
LINE
  8
0
  10
0.35514
  20
0.64637
  30
0
  11
0.37626
  21
0.64774
  31
0
  0
LINE
  8
0
  10
0.37626
  20
0.64774
  30
0
  11
0.39741
  21
0.64743
  31
0
  0
LINE
  8
0
  10
0.39741
  20
0.64743
  30
0
  11
0.40389
  21
0.64897
  31
0
  0
LINE
  8
0
  10
0.40389
  20
0.64897
  30
0
  11
0.40649
  21
0.65072
  31
0
  0
LINE
  8
0
  10
0.40649
  20
0.65072
  30
0
  11
0.40841
  21
0.65252
  31
0
  0
LINE
  8
0
  10
0.40841
  20
0.65252
  30
0
  11
0.40995
  21
0.65435
  31
0
  0
LINE
  8
0
  10
0.40995
  20
0.65435
  30
0
  11
0.41125
  21
0.65619
  31
0
  0
LINE
  8
0
  10
0.41125
  20
0.65619
  30
0
  11
0.41237
  21
0.65805
  31
0
  0
LINE
  8
0
  10
0.41237
  20
0.65805
  30
0
  11
0.41418
  21
0.66181
  31
0
  0
LINE
  8
0
  10
0.41418
  20
0.66181
  30
0
  11
0.41558
  21
0.66561
  31
0
  0
LINE
  8
0
  10
0.41558
  20
0.66561
  30
0
  11
0.41665
  21
0.66945
  31
0
  0
LINE
  8
0
  10
0.41665
  20
0.66945
  30
0
  11
0.41801
  21
0.67721
  31
0
  0
LINE
  8
0
  10
0.41801
  20
0.67721
  30
0
  11
0.41852
  21
0.68507
  31
0
  0
LINE
  8
0
  10
0.41852
  20
0.68507
  30
0
  11
0.42053
  21
0.69275
  31
0
  0
LINE
  8
0
  10
0.42053
  20
0.69275
  30
0
  11
0.42368
  21
0.70029
  31
0
  0
LINE
  8
0
  10
0.42368
  20
0.70029
  30
0
  11
0.42755
  21
0.70771
  31
0
  0
LINE
  8
0
  10
0.42755
  20
0.70771
  30
0
  11
0.43203
  21
0.71501
  31
0
  0
LINE
  8
0
  10
0.43203
  20
0.71501
  30
0
  11
0.43707
  21
0.7222
  31
0
  0
LINE
  8
0
  10
0.43707
  20
0.7222
  30
0
  11
0.44264
  21
0.72925
  31
0
  0
LINE
  8
0
  10
0.44264
  20
0.72925
  30
0
  11
0.44869
  21
0.73616
  31
0
  0
LINE
  8
0
  10
0.44869
  20
0.73616
  30
0
  11
0.45521
  21
0.74291
  31
0
  0
LINE
  8
0
  10
0.45521
  20
0.74291
  30
0
  11
0.46219
  21
0.74949
  31
0
  0
LINE
  8
0
  10
0.46219
  20
0.74949
  30
0
  11
0.4696
  21
0.75588
  31
0
  0
LINE
  8
0
  10
0.4696
  20
0.75588
  30
0
  11
0.5141
  21
0.74266
  31
0
  0
LINE
  8
0
  10
0.5141
  20
0.74266
  30
0
  11
0.51681
  21
0.73324
  31
0
  0
LINE
  8
0
  10
0.51681
  20
0.73324
  30
0
  11
0.51906
  21
0.72392
  31
0
  0
LINE
  8
0
  10
0.51906
  20
0.72392
  30
0
  11
0.52083
  21
0.7147
  31
0
  0
LINE
  8
0
  10
0.52083
  20
0.7147
  30
0
  11
0.52213
  21
0.70561
  31
0
  0
LINE
  8
0
  10
0.52213
  20
0.70561
  30
0
  11
0.52294
  21
0.69667
  31
0
  0
LINE
  8
0
  10
0.52294
  20
0.69667
  30
0
  11
0.52323
  21
0.68789
  31
0
  0
LINE
  8
0
  10
0.52323
  20
0.68789
  30
0
  11
0.523
  21
0.67932
  31
0
  0
LINE
  8
0
  10
0.523
  20
0.67932
  30
0
  11
0.52218
  21
0.67099
  31
0
  0
LINE
  8
0
  10
0.52218
  20
0.67099
  30
0
  11
0.5207
  21
0.66297
  31
0
  0
LINE
  8
0
  10
0.5207
  20
0.66297
  30
0
  11
0.51818
  21
0.65543
  31
0
  0
LINE
  8
0
  10
0.51818
  20
0.65543
  30
0
  11
0.51432
  21
0.64857
  31
0
  0
LINE
  8
0
  10
0.51432
  20
0.64857
  30
0
  11
0.51122
  21
0.64133
  31
0
  0
LINE
  8
0
  10
0.51122
  20
0.64133
  30
0
  11
0.51002
  21
0.63753
  31
0
  0
LINE
  8
0
  10
0.51002
  20
0.63753
  30
0
  11
0.50911
  21
0.63359
  31
0
  0
LINE
  8
0
  10
0.50911
  20
0.63359
  30
0
  11
0.50858
  21
0.62945
  31
0
  0
LINE
  8
0
  10
0.50858
  20
0.62945
  30
0
  11
0.5085
  21
0.62728
  31
0
  0
LINE
  8
0
  10
0.5085
  20
0.62728
  30
0
  11
0.50858
  21
0.62502
  31
0
  0
LINE
  8
0
  10
0.50858
  20
0.62502
  30
0
  11
0.50888
  21
0.62265
  31
0
  0
LINE
  8
0
  10
0.50888
  20
0.62265
  30
0
  11
0.5095
  21
0.62009
  31
0
  0
LINE
  8
0
  10
0.5095
  20
0.62009
  30
0
  11
0.51072
  21
0.6172
  31
0
  0
LINE
  8
0
  10
0.51072
  20
0.6172
  30
0
  11
0.5153
  21
0.61237
  31
0
  0
LINE
  8
0
  10
0.5153
  20
0.61237
  30
0
  11
0.53319
  21
0.60108
  31
0
  0
LINE
  8
0
  10
0.53319
  20
0.60108
  30
0
  11
0.55012
  21
0.58839
  31
0
  0
LINE
  8
0
  10
0.55012
  20
0.58839
  30
0
  11
0.55626
  21
0.58583
  31
0
  0
LINE
  8
0
  10
0.55626
  20
0.58583
  30
0
  11
0.5594
  21
0.58572
  31
0
  0
LINE
  8
0
  10
0.5594
  20
0.58572
  30
0
  11
0.56201
  21
0.58605
  31
0
  0
LINE
  8
0
  10
0.56201
  20
0.58605
  30
0
  11
0.56434
  21
0.58662
  31
0
  0
LINE
  8
0
  10
0.56434
  20
0.58662
  30
0
  11
0.56647
  21
0.58734
  31
0
  0
LINE
  8
0
  10
0.56647
  20
0.58734
  30
0
  11
0.56847
  21
0.58819
  31
0
  0
LINE
  8
0
  10
0.56847
  20
0.58819
  30
0
  11
0.57214
  21
0.59017
  31
0
  0
LINE
  8
0
  10
0.57214
  20
0.59017
  30
0
  11
0.57551
  21
0.59242
  31
0
  0
LINE
  8
0
  10
0.57551
  20
0.59242
  30
0
  11
0.57862
  21
0.5949
  31
0
  0
LINE
  8
0
  10
0.57862
  20
0.5949
  30
0
  11
0.58429
  21
0.60038
  31
0
  0
LINE
  8
0
  10
0.58429
  20
0.60038
  30
0
  11
0.58933
  21
0.60643
  31
0
  0
LINE
  8
0
  10
0.58933
  20
0.60643
  30
0
  11
0.59546
  21
0.61147
  31
0
  0
LINE
  8
0
  10
0.59546
  20
0.61147
  30
0
  11
0.60244
  21
0.61571
  31
0
  0
LINE
  8
0
  10
0.60244
  20
0.61571
  30
0
  11
0.60993
  21
0.61944
  31
0
  0
LINE
  8
0
  10
0.60993
  20
0.61944
  30
0
  11
0.61785
  21
0.62272
  31
0
  0
LINE
  8
0
  10
0.61785
  20
0.62272
  30
0
  11
0.62616
  21
0.62557
  31
0
  0
LINE
  8
0
  10
0.62616
  20
0.62557
  30
0
  11
0.6348
  21
0.628
  31
0
  0
LINE
  8
0
  10
0.6348
  20
0.628
  30
0
  11
0.64376
  21
0.63003
  31
0
  0
LINE
  8
0
  10
0.64376
  20
0.63003
  30
0
  11
0.653
  21
0.63166
  31
0
  0
LINE
  8
0
  10
0.653
  20
0.63166
  30
0
  11
0.66252
  21
0.63288
  31
0
  0
LINE
  8
0
  10
0.66252
  20
0.63288
  30
0
  11
0.67228
  21
0.6337
  31
0
  0
LINE
  8
0
  10
0.67228
  20
0.6337
  30
0
  11
0.70049
  21
0.59684
  31
0
  0
LINE
  8
0
  10
0.70049
  20
0.59684
  30
0
  11
0.69716
  21
0.58763
  31
0
  0
LINE
  8
0
  10
0.69716
  20
0.58763
  30
0
  11
0.6935
  21
0.57877
  31
0
  0
LINE
  8
0
  10
0.6935
  20
0.57877
  30
0
  11
0.68951
  21
0.57027
  31
0
  0
LINE
  8
0
  10
0.68951
  20
0.57027
  30
0
  11
0.68522
  21
0.56215
  31
0
  0
LINE
  8
0
  10
0.68522
  20
0.56215
  30
0
  11
0.68061
  21
0.55444
  31
0
  0
LINE
  8
0
  10
0.68061
  20
0.55444
  30
0
  11
0.6757
  21
0.54717
  31
0
  0
LINE
  8
0
  10
0.6757
  20
0.54717
  30
0
  11
0.67047
  21
0.54038
  31
0
  0
LINE
  8
0
  10
0.67047
  20
0.54038
  30
0
  11
0.66492
  21
0.53411
  31
0
  0
LINE
  8
0
  10
0.66492
  20
0.53411
  30
0
  11
0.659
  21
0.52849
  31
0
  0
LINE
  8
0
  10
0.659
  20
0.52849
  30
0
  11
0.65253
  21
0.52388
  31
0
  0
LINE
  8
0
  10
0.65253
  20
0.52388
  30
0
  11
0.64537
  21
0.52059
  31
0
  0
LINE
  8
0
  10
0.64537
  20
0.52059
  30
0
  11
0.63861
  21
0.51656
  31
0
  0
LINE
  8
0
  10
0.63861
  20
0.51656
  30
0
  11
0.6354
  21
0.51419
  31
0
  0
LINE
  8
0
  10
0.6354
  20
0.51419
  30
0
  11
0.63235
  21
0.51153
  31
0
  0
LINE
  8
0
  10
0.63235
  20
0.51153
  30
0
  11
0.62949
  21
0.5085
  31
0
  0
LINE
  8
0
  10
0.62949
  20
0.5085
  30
0
  11
0.62815
  21
0.50679
  31
0
  0
LINE
  8
0
  10
0.62815
  20
0.50679
  30
0
  11
0.62689
  21
0.50492
  31
0
  0
LINE
  8
0
  10
0.62689
  20
0.50492
  30
0
  11
0.62573
  21
0.50282
  31
0
  0
LINE
  8
0
  10
0.62573
  20
0.50282
  30
0
  11
0.62473
  21
0.50039
  31
0
  0
LINE
  8
0
  10
0.62473
  20
0.50039
  30
0
  11
0.62402
  21
0.49734
  31
0
  0
LINE
  8
0
  10
0.62402
  20
0.49734
  30
0
  11
0.62489
  21
0.49074
  31
0
  0
LINE
  8
0
  10
0.62489
  20
0.49074
  30
0
  11
0.63272
  21
0.47108
  31
0
  0
LINE
  8
0
  10
0.63272
  20
0.47108
  30
0
  11
0.63896
  21
0.45087
  31
0
  0
LINE
  8
0
  10
0.63896
  20
0.45087
  30
0
  11
0.64243
  21
0.44518
  31
0
  0
LINE
  8
0
  10
0.64243
  20
0.44518
  30
0
  11
0.6449
  21
0.44325
  31
0
  0
LINE
  8
0
  10
0.6449
  20
0.44325
  30
0
  11
0.64721
  21
0.44198
  31
0
  0
LINE
  8
0
  10
0.64721
  20
0.44198
  30
0
  11
0.64942
  21
0.44108
  31
0
  0
LINE
  8
0
  10
0.64942
  20
0.44108
  30
0
  11
0.65158
  21
0.44041
  31
0
  0
LINE
  8
0
  10
0.65158
  20
0.44041
  30
0
  11
0.65369
  21
0.43992
  31
0
  0
LINE
  8
0
  10
0.65369
  20
0.43992
  30
0
  11
0.65782
  21
0.43936
  31
0
  0
LINE
  8
0
  10
0.65782
  20
0.43936
  30
0
  11
0.66187
  21
0.43921
  31
0
  0
LINE
  8
0
  10
0.66187
  20
0.43921
  30
0
  11
0.66585
  21
0.43938
  31
0
  0
LINE
  8
0
  10
0.66585
  20
0.43938
  30
0
  11
0.67365
  21
0.44048
  31
0
  0
LINE
  8
0
  10
0.67365
  20
0.44048
  30
0
  11
0.68128
  21
0.44242
  31
0
  0
LINE
  8
0
  10
0.68128
  20
0.44242
  30
0
  11
0.68921
  21
0.44288
  31
0
  0
LINE
  8
0
  10
0.68921
  20
0.44288
  30
0
  11
0.69735
  21
0.44222
  31
0
  0
LINE
  8
0
  10
0.69735
  20
0.44222
  30
0
  11
0.7056
  21
0.44083
  31
0
  0
LINE
  8
0
  10
0.7056
  20
0.44083
  30
0
  11
0.71394
  21
0.43882
  31
0
  0
LINE
  8
0
  10
0.71394
  20
0.43882
  30
0
  11
0.72233
  21
0.43625
  31
0
  0
LINE
  8
0
  10
0.72233
  20
0.43625
  30
0
  11
0.73075
  21
0.43314
  31
0
  0
LINE
  8
0
  10
0.73075
  20
0.43314
  30
0
  11
0.73919
  21
0.42951
  31
0
  0
LINE
  8
0
  10
0.73919
  20
0.42951
  30
0
  11
0.74763
  21
0.4254
  31
0
  0
LINE
  8
0
  10
0.74763
  20
0.4254
  30
0
  11
0.75604
  21
0.42079
  31
0
  0
LINE
  8
0
  10
0.75604
  20
0.42079
  30
0
  11
0.76442
  21
0.41572
  31
0
  0
LINE
  8
0
  10
0.76442
  20
0.41572
  30
0
  11
0.76559
  21
0.36932
  31
0
  0
LINE
  8
0
  10
0.76559
  20
0.36932
  30
0
  11
0.75747
  21
0.36383
  31
0
  0
LINE
  8
0
  10
0.75747
  20
0.36383
  30
0
  11
0.7493
  21
0.35881
  31
0
  0
LINE
  8
0
  10
0.7493
  20
0.35881
  30
0
  11
0.74108
  21
0.35427
  31
0
  0
LINE
  8
0
  10
0.74108
  20
0.35427
  30
0
  11
0.73284
  21
0.35023
  31
0
  0
LINE
  8
0
  10
0.73284
  20
0.35023
  30
0
  11
0.72458
  21
0.3467
  31
0
  0
LINE
  8
0
  10
0.72458
  20
0.3467
  30
0
  11
0.71633
  21
0.34371
  31
0
  0
LINE
  8
0
  10
0.71633
  20
0.34371
  30
0
  11
0.70811
  21
0.34128
  31
0
  0
LINE
  8
0
  10
0.70811
  20
0.34128
  30
0
  11
0.69993
  21
0.33948
  31
0
  0
LINE
  8
0
  10
0.69993
  20
0.33948
  30
0
  11
0.69184
  21
0.33841
  31
0
  0
LINE
  8
0
  10
0.69184
  20
0.33841
  30
0
  11
0.6839
  21
0.33848
  31
0
  0
LINE
  8
0
  10
0.6839
  20
0.33848
  30
0
  11
0.67617
  21
0.34003
  31
0
  0
LINE
  8
0
  10
0.67617
  20
0.34003
  30
0
  11
0.66833
  21
0.34074
  31
0
  0
LINE
  8
0
  10
0.66833
  20
0.34074
  30
0
  11
0.66435
  21
0.34071
  31
0
  0
LINE
  8
0
  10
0.66435
  20
0.34071
  30
0
  11
0.66031
  21
0.34035
  31
0
  0
LINE
  8
0
  10
0.66031
  20
0.34035
  30
0
  11
0.65621
  21
0.33958
  31
0
  0
LINE
  8
0
  10
0.65621
  20
0.33958
  30
0
  11
0.65413
  21
0.33899
  31
0
  0
LINE
  8
0
  10
0.65413
  20
0.33899
  30
0
  11
0.65201
  21
0.33822
  31
0
  0
LINE
  8
0
  10
0.65201
  20
0.33822
  30
0
  11
0.64984
  21
0.3372
  31
0
  0
LINE
  8
0
  10
0.64984
  20
0.3372
  30
0
  11
0.6476
  21
0.33582
  31
0
  0
LINE
  8
0
  10
0.6476
  20
0.33582
  30
0
  11
0.64523
  21
0.33376
  31
0
  0
LINE
  8
0
  10
0.64523
  20
0.33376
  30
0
  11
0.64205
  21
0.32791
  31
0
  0
LINE
  8
0
  10
0.64205
  20
0.32791
  30
0
  11
0.63684
  21
0.30741
  31
0
  0
LINE
  8
0
  10
0.63684
  20
0.30741
  30
0
  11
0.63
  21
0.28739
  31
0
  0
LINE
  8
0
  10
0.63
  20
0.28739
  30
0
  11
0.62946
  21
0.28075
  31
0
  0
LINE
  8
0
  10
0.62946
  20
0.28075
  30
0
  11
0.63033
  21
0.27774
  31
0
  0
LINE
  8
0
  10
0.63033
  20
0.27774
  30
0
  11
0.63145
  21
0.27536
  31
0
  0
LINE
  8
0
  10
0.63145
  20
0.27536
  30
0
  11
0.63271
  21
0.27332
  31
0
  0
LINE
  8
0
  10
0.63271
  20
0.27332
  30
0
  11
0.63406
  21
0.27151
  31
0
  0
LINE
  8
0
  10
0.63406
  20
0.27151
  30
0
  11
0.63549
  21
0.26988
  31
0
  0
LINE
  8
0
  10
0.63549
  20
0.26988
  30
0
  11
0.6385
  21
0.26699
  31
0
  0
LINE
  8
0
  10
0.6385
  20
0.26699
  30
0
  11
0.64168
  21
0.26449
  31
0
  0
LINE
  8
0
  10
0.64168
  20
0.26449
  30
0
  11
0.645
  21
0.26229
  31
0
  0
LINE
  8
0
  10
0.645
  20
0.26229
  30
0
  11
0.65196
  21
0.2586
  31
0
  0
LINE
  8
0
  10
0.65196
  20
0.2586
  30
0
  11
0.65928
  21
0.25567
  31
0
  0
LINE
  8
0
  10
0.65928
  20
0.25567
  30
0
  11
0.66596
  21
0.25139
  31
0
  0
LINE
  8
0
  10
0.66596
  20
0.25139
  30
0
  11
0.67216
  21
0.24607
  31
0
  0
LINE
  8
0
  10
0.67216
  20
0.24607
  30
0
  11
0.67802
  21
0.2401
  31
0
  0
LINE
  8
0
  10
0.67802
  20
0.2401
  30
0
  11
0.68358
  21
0.23358
  31
0
  0
LINE
  8
0
  10
0.68358
  20
0.23358
  30
0
  11
0.68886
  21
0.22656
  31
0
  0
LINE
  8
0
  10
0.68886
  20
0.22656
  30
0
  11
0.69384
  21
0.21909
  31
0
  0
LINE
  8
0
  10
0.69384
  20
0.21909
  30
0
  11
0.69854
  21
0.2112
  31
0
  0
LINE
  8
0
  10
0.69854
  20
0.2112
  30
0
  11
0.70294
  21
0.20291
  31
0
  0
LINE
  8
0
  10
0.70294
  20
0.20291
  30
0
  11
0.70705
  21
0.19424
  31
0
  0
LINE
  8
0
  10
0.70705
  20
0.19424
  30
0
  11
0.71084
  21
0.18521
  31
0
  0
LINE
  8
0
  10
0.71084
  20
0.18521
  30
0
  11
0.68451
  21
0.14698
  31
0
  0
LINE
  8
0
  10
0.68451
  20
0.14698
  30
0
  11
0.67472
  21
0.14731
  31
0
  0
LINE
  8
0
  10
0.67472
  20
0.14731
  30
0
  11
0.66516
  21
0.14806
  31
0
  0
LINE
  8
0
  10
0.66516
  20
0.14806
  30
0
  11
0.65584
  21
0.14922
  31
0
  0
LINE
  8
0
  10
0.65584
  20
0.14922
  30
0
  11
0.6468
  21
0.15079
  31
0
  0
LINE
  8
0
  10
0.6468
  20
0.15079
  30
0
  11
0.63804
  21
0.15279
  31
0
  0
LINE
  8
0
  10
0.63804
  20
0.15279
  30
0
  11
0.62961
  21
0.15522
  31
0
  0
LINE
  8
0
  10
0.62961
  20
0.15522
  30
0
  11
0.62153
  21
0.15809
  31
0
  0
LINE
  8
0
  10
0.62153
  20
0.15809
  30
0
  11
0.61386
  21
0.16144
  31
0
  0
LINE
  8
0
  10
0.61386
  20
0.16144
  30
0
  11
0.60668
  21
0.16533
  31
0
  0
LINE
  8
0
  10
0.60668
  20
0.16533
  30
0
  11
0.6003
  21
0.17005
  31
0
  0
LINE
  8
0
  10
0.6003
  20
0.17005
  30
0
  11
0.59496
  21
0.17584
  31
0
  0
LINE
  8
0
  10
0.59496
  20
0.17584
  30
0
  11
0.58903
  21
0.18103
  31
0
  0
LINE
  8
0
  10
0.58903
  20
0.18103
  30
0
  11
0.58579
  21
0.18335
  31
0
  0
LINE
  8
0
  10
0.58579
  20
0.18335
  30
0
  11
0.58232
  21
0.18543
  31
0
  0
LINE
  8
0
  10
0.58232
  20
0.18543
  30
0
  11
0.57855
  21
0.18722
  31
0
  0
LINE
  8
0
  10
0.57855
  20
0.18722
  30
0
  11
0.57651
  21
0.18796
  31
0
  0
LINE
  8
0
  10
0.57651
  20
0.18796
  30
0
  11
0.57434
  21
0.18858
  31
0
  0
LINE
  8
0
  10
0.57434
  20
0.18858
  30
0
  11
0.57199
  21
0.18903
  31
0
  0
LINE
  8
0
  10
0.57199
  20
0.18903
  30
0
  11
0.56937
  21
0.18923
  31
0
  0
LINE
  8
0
  10
0.56937
  20
0.18923
  30
0
  11
0.56624
  21
0.18897
  31
0
  0
LINE
  8
0
  10
0.56624
  20
0.18897
  30
0
  11
0.56023
  21
0.1861
  31
0
  0
LINE
  8
0
  10
0.56023
  20
0.1861
  30
0
  11
0.54396
  21
0.17258
  31
0
  0
LINE
  8
0
  10
0.54396
  20
0.17258
  30
0
  11
0.52666
  21
0.16039
  31
0
  0
LINE
  8
0
  10
0.52666
  20
0.16039
  30
0
  11
0.52233
  21
0.15534
  31
0
  0
LINE
  8
0
  10
0.52233
  20
0.15534
  30
0
  11
0.52126
  21
0.15239
  31
0
  0
LINE
  8
0
  10
0.52126
  20
0.15239
  30
0
  11
0.52076
  21
0.14981
  31
0
  0
LINE
  8
0
  10
0.52076
  20
0.14981
  30
0
  11
0.52058
  21
0.14742
  31
0
  0
LINE
  8
0
  10
0.52058
  20
0.14742
  30
0
  11
0.52062
  21
0.14517
  31
0
  0
LINE
  8
0
  10
0.52062
  20
0.14517
  30
0
  11
0.52081
  21
0.14301
  31
0
  0
LINE
  8
0
  10
0.52081
  20
0.14301
  30
0
  11
0.52155
  21
0.1389
  31
0
  0
LINE
  8
0
  10
0.52155
  20
0.1389
  30
0
  11
0.52265
  21
0.13501
  31
0
  0
LINE
  8
0
  10
0.52265
  20
0.13501
  30
0
  11
0.52404
  21
0.13127
  31
0
  0
LINE
  8
0
  10
0.52404
  20
0.13127
  30
0
  11
0.52751
  21
0.1242
  31
0
  0
LINE
  8
0
  10
0.52751
  20
0.1242
  30
0
  11
0.53171
  21
0.11753
  31
0
  0
LINE
  8
0
  10
0.53171
  20
0.11753
  30
0
  11
0.5346
  21
0.11014
  31
0
  0
LINE
  8
0
  10
0.5346
  20
0.11014
  30
0
  11
0.53648
  21
0.10219
  31
0
  0
LINE
  8
0
  10
0.53648
  20
0.10219
  30
0
  11
0.53771
  21
0.09392
  31
0
  0
LINE
  8
0
  10
0.53771
  20
0.09392
  30
0
  11
0.53838
  21
0.08537
  31
0
  0
LINE
  8
0
  10
0.53838
  20
0.08537
  30
0
  11
0.53852
  21
0.07659
  31
0
  0
LINE
  8
0
  10
0.53852
  20
0.07659
  30
0
  11
0.53817
  21
0.06762
  31
0
  0
LINE
  8
0
  10
0.53817
  20
0.06762
  30
0
  11
0.53733
  21
0.05847
  31
0
  0
LINE
  8
0
  10
0.53733
  20
0.05847
  30
0
  11
0.53602
  21
0.04918
  31
0
  0
LINE
  8
0
  10
0.53602
  20
0.04918
  30
0
  11
0.53424
  21
0.03975
  31
0
  0
LINE
  8
0
  10
0.53424
  20
0.03975
  30
0
  11
0.53201
  21
0.03022
  31
0
  0
LINE
  8
0
  10
0.53201
  20
0.03022
  30
0
  11
0.48824
  21
0.01477
  31
0
  0
LINE
  8
0
  10
0.48824
  20
0.01477
  30
0
  11
0.48051
  21
0.02079
  31
0
  0
LINE
  8
0
  10
0.48051
  20
0.02079
  30
0
  11
0.47321
  21
0.02701
  31
0
  0
LINE
  8
0
  10
0.47321
  20
0.02701
  30
0
  11
0.46635
  21
0.03342
  31
0
  0
LINE
  8
0
  10
0.46635
  20
0.03342
  30
0
  11
0.45996
  21
0.04002
  31
0
  0
LINE
  8
0
  10
0.45996
  20
0.04002
  30
0
  11
0.45405
  21
0.04678
  31
0
  0
LINE
  8
0
  10
0.45405
  20
0.04678
  30
0
  11
0.44866
  21
0.0537
  31
0
  0
LINE
  8
0
  10
0.44866
  20
0.0537
  30
0
  11
0.44381
  21
0.06077
  31
0
  0
LINE
  8
0
  10
0.44381
  20
0.06077
  30
0
  11
0.43957
  21
0.06799
  31
0
  0
LINE
  8
0
  10
0.43957
  20
0.06799
  30
0
  11
0.43605
  21
0.07536
  31
0
  0
LINE
  8
0
  10
0.43605
  20
0.07536
  30
0
  11
0.43366
  21
0.08293
  31
0
  0
LINE
  8
0
  10
0.43366
  20
0.08293
  30
0
  11
0.43275
  21
0.09075
  31
0
  0
LINE
  8
0
  10
0.43275
  20
0.09075
  30
0
  11
0.431
  21
0.09844
  31
0
  0
LINE
  8
0
  10
0.431
  20
0.09844
  30
0
  11
0.42974
  21
0.10221
  31
0
  0
LINE
  8
0
  10
0.42974
  20
0.10221
  30
0
  11
0.42816
  21
0.10594
  31
0
  0
LINE
  8
0
  10
0.42816
  20
0.10594
  30
0
  11
0.42616
  21
0.1096
  31
0
  0
LINE
  8
0
  10
0.42616
  20
0.1096
  30
0
  11
0.42495
  21
0.1114
  31
0
  0
LINE
  8
0
  10
0.42495
  20
0.1114
  30
0
  11
0.42356
  21
0.11318
  31
0
  0
LINE
  8
0
  10
0.42356
  20
0.11318
  30
0
  11
0.42192
  21
0.11492
  31
0
  0
LINE
  8
0
  10
0.42192
  20
0.11492
  30
0
  11
0.41991
  21
0.11663
  31
0
  0
LINE
  8
0
  10
0.41991
  20
0.11663
  30
0
  11
0.41723
  21
0.11825
  31
0
  0
LINE
  8
0
  10
0.41723
  20
0.11825
  30
0
  11
0.41068
  21
0.11946
  31
0
  0
LINE
  8
0
  10
0.41068
  20
0.11946
  30
0
  11
0.38957
  21
0.11808
  31
0
  0
LINE
  8
0
  10
0.38957
  20
0.11808
  30
0
  11
0.36842
  21
0.1184
  31
0
  0
LINE
  8
0
  10
0.36842
  20
0.1184
  30
0
  11
0.36194
  21
0.11686
  31
0
  0
LINE
  8
0
  10
0.36194
  20
0.11686
  30
0
  11
0.35934
  21
0.1151
  31
0
  0
LINE
  8
0
  10
0.35934
  20
0.1151
  30
0
  11
0.35742
  21
0.1133
  31
0
  0
LINE
  8
0
  10
0.35742
  20
0.1133
  30
0
  11
0.35587
  21
0.11148
  31
0
  0
LINE
  8
0
  10
0.35587
  20
0.11148
  30
0
  11
0.35457
  21
0.10963
  31
0
  0
LINE
  8
0
  10
0.35457
  20
0.10963
  30
0
  11
0.35346
  21
0.10777
  31
0
  0
LINE
  8
0
  10
0.35346
  20
0.10777
  30
0
  11
0.35164
  21
0.10402
  31
0
  0
LINE
  8
0
  10
0.35164
  20
0.10402
  30
0
  11
0.35025
  21
0.10022
  31
0
  0
LINE
  8
0
  10
0.35025
  20
0.10022
  30
0
  11
0.34918
  21
0.09638
  31
0
  0
LINE
  8
0
  10
0.34918
  20
0.09638
  30
0
  11
0.34782
  21
0.08862
  31
0
  0
LINE
  8
0
  10
0.34782
  20
0.08862
  30
0
  11
0.3473
  21
0.08076
  31
0
  0
LINE
  8
0
  10
0.3473
  20
0.08076
  30
0
  11
0.3453
  21
0.07308
  31
0
  0
LINE
  8
0
  10
0.3453
  20
0.07308
  30
0
  11
0.34215
  21
0.06554
  31
0
  0
LINE
  8
0
  10
0.34215
  20
0.06554
  30
0
  11
0.33828
  21
0.05812
  31
0
  0
LINE
  8
0
  10
0.33828
  20
0.05812
  30
0
  11
0.3338
  21
0.05081
  31
0
  0
LINE
  8
0
  10
0.3338
  20
0.05081
  30
0
  11
0.32875
  21
0.04363
  31
0
  0
LINE
  8
0
  10
0.32875
  20
0.04363
  30
0
  11
0.32319
  21
0.03658
  31
0
  0
LINE
  8
0
  10
0.32319
  20
0.03658
  30
0
  11
0.31714
  21
0.02967
  31
0
  0
LINE
  8
0
  10
0.31714
  20
0.02967
  30
0
  11
0.31061
  21
0.02292
  31
0
  0
LINE
  8
0
  10
0.31061
  20
0.02292
  30
0
  11
0.30364
  21
0.01634
  31
0
  0
LINE
  8
0
  10
0.30364
  20
0.01634
  30
0
  11
0.29622
  21
0.00994
  31
0
  0
LINE
  8
0
  10
0.29622
  20
0.00994
  30
0
  11
0.25173
  21
0.02317
  31
0
  0
LINE
  8
0
  10
0.25173
  20
0.02317
  30
0
  11
0.24902
  21
0.03258
  31
0
  0
LINE
  8
0
  10
0.24902
  20
0.03258
  30
0
  11
0.24677
  21
0.04191
  31
0
  0
LINE
  8
0
  10
0.24677
  20
0.04191
  30
0
  11
0.24499
  21
0.05112
  31
0
  0
LINE
  8
0
  10
0.24499
  20
0.05112
  30
0
  11
0.2437
  21
0.06022
  31
0
  0
LINE
  8
0
  10
0.2437
  20
0.06022
  30
0
  11
0.24289
  21
0.06916
  31
0
  0
LINE
  8
0
  10
0.24289
  20
0.06916
  30
0
  11
0.24259
  21
0.07793
  31
0
  0
LINE
  8
0
  10
0.24259
  20
0.07793
  30
0
  11
0.24283
  21
0.0865
  31
0
  0
LINE
  8
0
  10
0.24283
  20
0.0865
  30
0
  11
0.24364
  21
0.09483
  31
0
  0
LINE
  8
0
  10
0.24364
  20
0.09483
  30
0
  11
0.24513
  21
0.10286
  31
0
  0
LINE
  8
0
  10
0.24513
  20
0.10286
  30
0
  11
0.24764
  21
0.11039
  31
0
  0
LINE
  8
0
  10
0.24764
  20
0.11039
  30
0
  11
0.2515
  21
0.11726
  31
0
  0
LINE
  8
0
  10
0.2515
  20
0.11726
  30
0
  11
0.25461
  21
0.1245
  31
0
  0
LINE
  8
0
  10
0.25461
  20
0.1245
  30
0
  11
0.25581
  21
0.1283
  31
0
  0
LINE
  8
0
  10
0.25581
  20
0.1283
  30
0
  11
0.25672
  21
0.13224
  31
0
  0
LINE
  8
0
  10
0.25672
  20
0.13224
  30
0
  11
0.25725
  21
0.13638
  31
0
  0
LINE
  8
0
  10
0.25725
  20
0.13638
  30
0
  11
0.25733
  21
0.13855
  31
0
  0
LINE
  8
0
  10
0.25733
  20
0.13855
  30
0
  11
0.25725
  21
0.1408
  31
0
  0
LINE
  8
0
  10
0.25725
  20
0.1408
  30
0
  11
0.25695
  21
0.14318
  31
0
  0
LINE
  8
0
  10
0.25695
  20
0.14318
  30
0
  11
0.25633
  21
0.14573
  31
0
  0
LINE
  8
0
  10
0.25633
  20
0.14573
  30
0
  11
0.25511
  21
0.14863
  31
0
  0
LINE
  8
0
  10
0.25511
  20
0.14863
  30
0
  11
0.25053
  21
0.15345
  31
0
  0
LINE
  8
0
  10
0.25053
  20
0.15345
  30
0
  11
0.23264
  21
0.16475
  31
0
  0
LINE
  8
0
  10
0.23264
  20
0.16475
  30
0
  11
0.21571
  21
0.17744
  31
0
  0
LINE
  8
0
  10
0.21571
  20
0.17744
  30
0
  11
0.20956
  21
0.18
  31
0
  0
LINE
  8
0
  10
0.20956
  20
0.18
  30
0
  11
0.20643
  21
0.18011
  31
0
  0
LINE
  8
0
  10
0.20643
  20
0.18011
  30
0
  11
0.20382
  21
0.17978
  31
0
  0
LINE
  8
0
  10
0.20382
  20
0.17978
  30
0
  11
0.20149
  21
0.17921
  31
0
  0
LINE
  8
0
  10
0.20149
  20
0.17921
  30
0
  11
0.19936
  21
0.17848
  31
0
  0
LINE
  8
0
  10
0.19936
  20
0.17848
  30
0
  11
0.19736
  21
0.17763
  31
0
  0
LINE
  8
0
  10
0.19736
  20
0.17763
  30
0
  11
0.19368
  21
0.17566
  31
0
  0
LINE
  8
0
  10
0.19368
  20
0.17566
  30
0
  11
0.19032
  21
0.17341
  31
0
  0
LINE
  8
0
  10
0.19032
  20
0.17341
  30
0
  11
0.1872
  21
0.17093
  31
0
  0
LINE
  8
0
  10
0.1872
  20
0.17093
  30
0
  11
0.18154
  21
0.16545
  31
0
  0
LINE
  8
0
  10
0.18154
  20
0.16545
  30
0
  11
0.1765
  21
0.1594
  31
0
  0
LINE
  8
0
  10
0.1765
  20
0.1594
  30
0
  11
0.17036
  21
0.15436
  31
0
  0
LINE
  8
0
  10
0.17036
  20
0.15436
  30
0
  11
0.16339
  21
0.15011
  31
0
  0
LINE
  8
0
  10
0.16339
  20
0.15011
  30
0
  11
0.1559
  21
0.14638
  31
0
  0
LINE
  8
0
  10
0.1559
  20
0.14638
  30
0
  11
0.14797
  21
0.14311
  31
0
  0
LINE
  8
0
  10
0.14797
  20
0.14311
  30
0
  11
0.13967
  21
0.14026
  31
0
  0
LINE
  8
0
  10
0.13967
  20
0.14026
  30
0
  11
0.13103
  21
0.13783
  31
0
  0
LINE
  8
0
  10
0.13103
  20
0.13783
  30
0
  11
0.12207
  21
0.1358
  31
0
  0
LINE
  8
0
  10
0.12207
  20
0.1358
  30
0
  11
0.11282
  21
0.13417
  31
0
  0
LINE
  8
0
  10
0.11282
  20
0.13417
  30
0
  11
0.10331
  21
0.13295
  31
0
  0
LINE
  8
0
  10
0.10331
  20
0.13295
  30
0
  11
0.09355
  21
0.13213
  31
0
  0
LINE
  8
0
  10
0.09355
  20
0.13213
  30
0
  11
0.06533
  21
0.16898
  31
0
  0
LINE
  8
0
  10
0.06533
  20
0.16898
  30
0
  11
0.06867
  21
0.17819
  31
0
  0
LINE
  8
0
  10
0.06867
  20
0.17819
  30
0
  11
0.07233
  21
0.18706
  31
0
  0
LINE
  8
0
  10
0.07233
  20
0.18706
  30
0
  11
0.07631
  21
0.19556
  31
0
  0
LINE
  8
0
  10
0.07631
  20
0.19556
  30
0
  11
0.08061
  21
0.20368
  31
0
  0
LINE
  8
0
  10
0.08061
  20
0.20368
  30
0
  11
0.08521
  21
0.21138
  31
0
  0
LINE
  8
0
  10
0.08521
  20
0.21138
  30
0
  11
0.09013
  21
0.21866
  31
0
  0
LINE
  8
0
  10
0.09013
  20
0.21866
  30
0
  11
0.09536
  21
0.22545
  31
0
  0
LINE
  8
0
  10
0.09536
  20
0.22545
  30
0
  11
0.10091
  21
0.23171
  31
0
  0
LINE
  8
0
  10
0.10091
  20
0.23171
  30
0
  11
0.10683
  21
0.23734
  31
0
  0
LINE
  8
0
  10
0.10683
  20
0.23734
  30
0
  11
0.11329
  21
0.24195
  31
0
  0
LINE
  8
0
  10
0.11329
  20
0.24195
  30
0
  11
0.12045
  21
0.24524
  31
0
  0
LINE
  8
0
  10
0.12045
  20
0.24524
  30
0
  11
0.12722
  21
0.24927
  31
0
  0
LINE
  8
0
  10
0.12722
  20
0.24927
  30
0
  11
0.13042
  21
0.25164
  31
0
  0
LINE
  8
0
  10
0.13042
  20
0.25164
  30
0
  11
0.13348
  21
0.25429
  31
0
  0
LINE
  8
0
  10
0.13348
  20
0.25429
  30
0
  11
0.13634
  21
0.25733
  31
0
  0
LINE
  8
0
  10
0.13634
  20
0.25733
  30
0
  11
0.13768
  21
0.25903
  31
0
  0
LINE
  8
0
  10
0.13768
  20
0.25903
  30
0
  11
0.13894
  21
0.26091
  31
0
  0
LINE
  8
0
  10
0.13894
  20
0.26091
  30
0
  11
0.14009
  21
0.263
  31
0
  0
LINE
  8
0
  10
0.14009
  20
0.263
  30
0
  11
0.14109
  21
0.26544
  31
0
  0
LINE
  8
0
  10
0.14109
  20
0.26544
  30
0
  11
0.14181
  21
0.26849
  31
0
  0
LINE
  8
0
  10
0.14181
  20
0.26849
  30
0
  11
0.14094
  21
0.27509
  31
0
  0
LINE
  8
0
  10
0.14094
  20
0.27509
  30
0
  11
0.1331
  21
0.29475
  31
0
  0
LINE
  8
0
  10
0.1331
  20
0.29475
  30
0
  11
0.12686
  21
0.31496
  31
0
  0
LINE
  8
0
  10
0.44791
  20
0.38291
  30
0
  11
0.44791
  21
0.38291
  31
0
  0
LINE
  8
0
  10
0.44791
  20
0.38291
  30
0
  11
0.4457
  21
0.39974
  31
0
  0
LINE
  8
0
  10
0.4457
  20
0.39974
  30
0
  11
0.43921
  21
0.41541
  31
0
  0
LINE
  8
0
  10
0.43921
  20
0.41541
  30
0
  11
0.42888
  21
0.42888
  31
0
  0
LINE
  8
0
  10
0.42888
  20
0.42888
  30
0
  11
0.41541
  21
0.43921
  31
0
  0
LINE
  8
0
  10
0.41541
  20
0.43921
  30
0
  11
0.39974
  21
0.4457
  31
0
  0
LINE
  8
0
  10
0.39974
  20
0.4457
  30
0
  11
0.38291
  21
0.44791
  31
0
  0
LINE
  8
0
  10
0.38291
  20
0.44791
  30
0
  11
0.36609
  21
0.4457
  31
0
  0
LINE
  8
0
  10
0.36609
  20
0.4457
  30
0
  11
0.35041
  21
0.43921
  31
0
  0
LINE
  8
0
  10
0.35041
  20
0.43921
  30
0
  11
0.33695
  21
0.42888
  31
0
  0
LINE
  8
0
  10
0.33695
  20
0.42888
  30
0
  11
0.32662
  21
0.41541
  31
0
  0
LINE
  8
0
  10
0.32662
  20
0.41541
  30
0
  11
0.32013
  21
0.39974
  31
0
  0
LINE
  8
0
  10
0.32013
  20
0.39974
  30
0
  11
0.31791
  21
0.38291
  31
0
  0
LINE
  8
0
  10
0.31791
  20
0.38291
  30
0
  11
0.32013
  21
0.36609
  31
0
  0
LINE
  8
0
  10
0.32013
  20
0.36609
  30
0
  11
0.32662
  21
0.35041
  31
0
  0
LINE
  8
0
  10
0.32662
  20
0.35041
  30
0
  11
0.33695
  21
0.33695
  31
0
  0
LINE
  8
0
  10
0.33695
  20
0.33695
  30
0
  11
0.35041
  21
0.32662
  31
0
  0
LINE
  8
0
  10
0.35041
  20
0.32662
  30
0
  11
0.36609
  21
0.32013
  31
0
  0
LINE
  8
0
  10
0.36609
  20
0.32013
  30
0
  11
0.38291
  21
0.31791
  31
0
  0
LINE
  8
0
  10
0.38291
  20
0.31791
  30
0
  11
0.39974
  21
0.32013
  31
0
  0
LINE
  8
0
  10
0.39974
  20
0.32013
  30
0
  11
0.41541
  21
0.32662
  31
0
  0
LINE
  8
0
  10
0.41541
  20
0.32662
  30
0
  11
0.42888
  21
0.33695
  31
0
  0
LINE
  8
0
  10
0.42888
  20
0.33695
  30
0
  11
0.43921
  21
0.35041
  31
0
  0
LINE
  8
0
  10
0.43921
  20
0.35041
  30
0
  11
0.4457
  21
0.36609
  31
0
  0
LINE
  8
0
  10
0.4457
  20
0.36609
  30
0
  11
0.44791
  21
0.38291
  31
0
  0
LINE
  8
0
  10
0.44791
  20
0.38291
  30
0
  11
0.44791
  21
0.38291
  31
0
  0
ENDSEC
  0
EOF
