  999
file created by gear template generator
  0
SECTION
  2
HEADER
  9
$ACADVER
  1
AC1006
  9
$INSBASE
  10
0.0
  20
0.0
  30
0.0
  9
$EXTMIN
  10
0.0
  20
0.0
  9
$EXTMAX
  10
10000.0
  20
10000.0
  0
ENDSEC
  0
SECTION
  2
ENTITIES
  0
LINE
  8
0
  10
2.37696
  20
1.17241
  30
0
  11
2.37696
  21
1.17241
  31
0
  0
LINE
  8
0
  10
2.37696
  20
1.17241
  30
0
  11
2.37743
  21
1.13862
  31
0
  0
LINE
  8
0
  10
2.37743
  20
1.13862
  30
0
  11
2.38125
  21
1.13781
  31
0
  0
LINE
  8
0
  10
2.38125
  20
1.13781
  30
0
  11
2.38505
  21
1.13687
  31
0
  0
LINE
  8
0
  10
2.38505
  20
1.13687
  30
0
  11
2.38883
  21
1.13583
  31
0
  0
LINE
  8
0
  10
2.38883
  20
1.13583
  30
0
  11
2.39637
  21
1.1335
  31
0
  0
LINE
  8
0
  10
2.39637
  20
1.1335
  30
0
  11
2.40388
  21
1.13089
  31
0
  0
LINE
  8
0
  10
2.40388
  20
1.13089
  30
0
  11
2.4188
  21
1.12495
  31
0
  0
LINE
  8
0
  10
2.4188
  20
1.12495
  30
0
  11
2.43359
  21
1.11817
  31
0
  0
LINE
  8
0
  10
2.43359
  20
1.11817
  30
0
  11
2.44826
  21
1.11065
  31
0
  0
LINE
  8
0
  10
2.44826
  20
1.11065
  30
0
  11
2.46282
  21
1.10245
  31
0
  0
LINE
  8
0
  10
2.46282
  20
1.10245
  30
0
  11
2.47725
  21
1.09362
  31
0
  0
LINE
  8
0
  10
2.47725
  20
1.09362
  30
0
  11
2.49156
  21
1.08417
  31
0
  0
LINE
  8
0
  10
2.49156
  20
1.08417
  30
0
  11
2.50573
  21
1.07415
  31
0
  0
LINE
  8
0
  10
2.50573
  20
1.07415
  30
0
  11
2.51976
  21
1.06358
  31
0
  0
LINE
  8
0
  10
2.51976
  20
1.06358
  30
0
  11
2.5136
  21
1.02892
  31
0
  0
LINE
  8
0
  10
2.5136
  20
1.02892
  30
0
  11
2.49678
  21
1.02382
  31
0
  0
LINE
  8
0
  10
2.49678
  20
1.02382
  30
0
  11
2.48002
  21
1.0193
  31
0
  0
LINE
  8
0
  10
2.48002
  20
1.0193
  30
0
  11
2.46334
  21
1.01537
  31
0
  0
LINE
  8
0
  10
2.46334
  20
1.01537
  30
0
  11
2.44675
  21
1.01205
  31
0
  0
LINE
  8
0
  10
2.44675
  20
1.01205
  30
0
  11
2.43026
  21
1.00936
  31
0
  0
LINE
  8
0
  10
2.43026
  20
1.00936
  30
0
  11
2.41389
  21
1.00736
  31
0
  0
LINE
  8
0
  10
2.41389
  20
1.00736
  30
0
  11
2.39767
  21
1.0061
  31
0
  0
LINE
  8
0
  10
2.39767
  20
1.0061
  30
0
  11
2.38162
  21
1.00566
  31
0
  0
LINE
  8
0
  10
2.38162
  20
1.00566
  30
0
  11
2.37367
  21
1.0058
  31
0
  0
LINE
  8
0
  10
2.37367
  20
1.0058
  30
0
  11
2.36579
  21
1.00621
  31
0
  0
LINE
  8
0
  10
2.36579
  20
1.00621
  30
0
  11
2.36188
  21
1.00654
  31
0
  0
LINE
  8
0
  10
2.36188
  20
1.00654
  30
0
  11
2.35799
  21
1.00697
  31
0
  0
LINE
  8
0
  10
2.35799
  20
1.00697
  30
0
  11
2.35413
  21
1.00752
  31
0
  0
LINE
  8
0
  10
2.35413
  20
1.00752
  30
0
  11
2.34204
  21
0.97597
  31
0
  0
LINE
  8
0
  10
2.34204
  20
0.97597
  30
0
  11
2.34204
  21
0.97597
  31
0
  0
LINE
  8
0
  10
2.34204
  20
0.97597
  30
0
  11
2.33647
  21
0.94264
  31
0
  0
LINE
  8
0
  10
2.33647
  20
0.94264
  30
0
  11
2.34008
  21
0.94116
  31
0
  0
LINE
  8
0
  10
2.34008
  20
0.94116
  30
0
  11
2.34365
  21
0.93956
  31
0
  0
LINE
  8
0
  10
2.34365
  20
0.93956
  30
0
  11
2.34719
  21
0.93786
  31
0
  0
LINE
  8
0
  10
2.34719
  20
0.93786
  30
0
  11
2.3542
  21
0.93422
  31
0
  0
LINE
  8
0
  10
2.3542
  20
0.93422
  30
0
  11
2.36111
  21
0.93031
  31
0
  0
LINE
  8
0
  10
2.36111
  20
0.93031
  30
0
  11
2.37473
  21
0.9218
  31
0
  0
LINE
  8
0
  10
2.37473
  20
0.9218
  30
0
  11
2.38808
  21
0.91249
  31
0
  0
LINE
  8
0
  10
2.38808
  20
0.91249
  30
0
  11
2.40117
  21
0.90247
  31
0
  0
LINE
  8
0
  10
2.40117
  20
0.90247
  30
0
  11
2.41403
  21
0.89181
  31
0
  0
LINE
  8
0
  10
2.41403
  20
0.89181
  30
0
  11
2.42665
  21
0.88053
  31
0
  0
LINE
  8
0
  10
2.42665
  20
0.88053
  30
0
  11
2.43904
  21
0.86869
  31
0
  0
LINE
  8
0
  10
2.43904
  20
0.86869
  30
0
  11
2.45119
  21
0.8563
  31
0
  0
LINE
  8
0
  10
2.45119
  20
0.8563
  30
0
  11
2.46311
  21
0.84339
  31
0
  0
LINE
  8
0
  10
2.46311
  20
0.84339
  30
0
  11
2.45086
  21
0.81039
  31
0
  0
LINE
  8
0
  10
2.45086
  20
0.81039
  30
0
  11
2.4334
  21
0.80838
  31
0
  0
LINE
  8
0
  10
2.4334
  20
0.80838
  30
0
  11
2.41611
  21
0.80692
  31
0
  0
LINE
  8
0
  10
2.41611
  20
0.80692
  30
0
  11
2.39899
  21
0.80603
  31
0
  0
LINE
  8
0
  10
2.39899
  20
0.80603
  30
0
  11
2.38207
  21
0.80572
  31
0
  0
LINE
  8
0
  10
2.38207
  20
0.80572
  30
0
  11
2.36537
  21
0.80603
  31
0
  0
LINE
  8
0
  10
2.36537
  20
0.80603
  30
0
  11
2.34891
  21
0.80698
  31
0
  0
LINE
  8
0
  10
2.34891
  20
0.80698
  30
0
  11
2.33272
  21
0.80863
  31
0
  0
LINE
  8
0
  10
2.33272
  20
0.80863
  30
0
  11
2.31685
  21
0.81107
  31
0
  0
LINE
  8
0
  10
2.31685
  20
0.81107
  30
0
  11
2.30906
  21
0.81262
  31
0
  0
LINE
  8
0
  10
2.30906
  20
0.81262
  30
0
  11
2.30137
  21
0.81444
  31
0
  0
LINE
  8
0
  10
2.30137
  20
0.81444
  30
0
  11
2.29758
  21
0.81546
  31
0
  0
LINE
  8
0
  10
2.29758
  20
0.81546
  30
0
  11
2.29383
  21
0.81658
  31
0
  0
LINE
  8
0
  10
2.29383
  20
0.81658
  30
0
  11
2.29013
  21
0.81781
  31
0
  0
LINE
  8
0
  10
2.29013
  20
0.81781
  30
0
  11
2.27261
  21
0.78892
  31
0
  0
LINE
  8
0
  10
2.27261
  20
0.78892
  30
0
  11
2.27261
  21
0.78892
  31
0
  0
LINE
  8
0
  10
2.27261
  20
0.78892
  30
0
  11
2.26118
  21
0.75712
  31
0
  0
LINE
  8
0
  10
2.26118
  20
0.75712
  30
0
  11
2.26446
  21
0.75502
  31
0
  0
LINE
  8
0
  10
2.26446
  20
0.75502
  30
0
  11
2.26769
  21
0.75281
  31
0
  0
LINE
  8
0
  10
2.26769
  20
0.75281
  30
0
  11
2.27087
  21
0.7505
  31
0
  0
LINE
  8
0
  10
2.27087
  20
0.7505
  30
0
  11
2.27711
  21
0.74567
  31
0
  0
LINE
  8
0
  10
2.27711
  20
0.74567
  30
0
  11
2.28322
  21
0.74059
  31
0
  0
LINE
  8
0
  10
2.28322
  20
0.74059
  30
0
  11
2.2951
  21
0.72979
  31
0
  0
LINE
  8
0
  10
2.2951
  20
0.72979
  30
0
  11
2.30657
  21
0.71824
  31
0
  0
LINE
  8
0
  10
2.30657
  20
0.71824
  30
0
  11
2.31766
  21
0.70605
  31
0
  0
LINE
  8
0
  10
2.31766
  20
0.70605
  30
0
  11
2.32841
  21
0.69326
  31
0
  0
LINE
  8
0
  10
2.32841
  20
0.69326
  30
0
  11
2.33882
  21
0.67991
  31
0
  0
LINE
  8
0
  10
2.33882
  20
0.67991
  30
0
  11
2.34889
  21
0.66605
  31
0
  0
LINE
  8
0
  10
2.34889
  20
0.66605
  30
0
  11
2.35864
  21
0.65169
  31
0
  0
LINE
  8
0
  10
2.35864
  20
0.65169
  30
0
  11
2.36806
  21
0.63685
  31
0
  0
LINE
  8
0
  10
2.36806
  20
0.63685
  30
0
  11
2.35011
  21
0.60657
  31
0
  0
LINE
  8
0
  10
2.35011
  20
0.60657
  30
0
  11
2.33258
  21
0.60771
  31
0
  0
LINE
  8
0
  10
2.33258
  20
0.60771
  30
0
  11
2.3153
  21
0.60936
  31
0
  0
LINE
  8
0
  10
2.3153
  20
0.60936
  30
0
  11
2.2983
  21
0.61154
  31
0
  0
LINE
  8
0
  10
2.2983
  20
0.61154
  30
0
  11
2.2816
  21
0.61426
  31
0
  0
LINE
  8
0
  10
2.2816
  20
0.61426
  30
0
  11
2.26522
  21
0.61754
  31
0
  0
LINE
  8
0
  10
2.26522
  20
0.61754
  30
0
  11
2.24919
  21
0.62142
  31
0
  0
LINE
  8
0
  10
2.24919
  20
0.62142
  30
0
  11
2.23356
  21
0.62594
  31
0
  0
LINE
  8
0
  10
2.23356
  20
0.62594
  30
0
  11
2.21838
  21
0.63117
  31
0
  0
LINE
  8
0
  10
2.21838
  20
0.63117
  30
0
  11
2.21098
  21
0.63409
  31
0
  0
LINE
  8
0
  10
2.21098
  20
0.63409
  30
0
  11
2.20375
  21
0.63725
  31
0
  0
LINE
  8
0
  10
2.20375
  20
0.63725
  30
0
  11
2.2002
  21
0.63893
  31
0
  0
LINE
  8
0
  10
2.2002
  20
0.63893
  30
0
  11
2.19671
  21
0.6407
  31
0
  0
LINE
  8
0
  10
2.19671
  20
0.6407
  30
0
  11
2.19329
  21
0.64257
  31
0
  0
LINE
  8
0
  10
2.19329
  20
0.64257
  30
0
  11
2.17089
  21
0.61727
  31
0
  0
LINE
  8
0
  10
2.17089
  20
0.61727
  30
0
  11
2.17089
  21
0.61727
  31
0
  0
LINE
  8
0
  10
2.17089
  20
0.61727
  30
0
  11
2.15396
  21
0.58803
  31
0
  0
LINE
  8
0
  10
2.15396
  20
0.58803
  30
0
  11
2.15682
  21
0.58537
  31
0
  0
LINE
  8
0
  10
2.15682
  20
0.58537
  30
0
  11
2.1596
  21
0.58262
  31
0
  0
LINE
  8
0
  10
2.1596
  20
0.58262
  30
0
  11
2.16232
  21
0.57979
  31
0
  0
LINE
  8
0
  10
2.16232
  20
0.57979
  30
0
  11
2.1676
  21
0.57392
  31
0
  0
LINE
  8
0
  10
2.1676
  20
0.57392
  30
0
  11
2.1727
  21
0.56783
  31
0
  0
LINE
  8
0
  10
2.1727
  20
0.56783
  30
0
  11
2.18246
  21
0.55508
  31
0
  0
LINE
  8
0
  10
2.18246
  20
0.55508
  30
0
  11
2.19168
  21
0.54167
  31
0
  0
LINE
  8
0
  10
2.19168
  20
0.54167
  30
0
  11
2.20042
  21
0.52769
  31
0
  0
LINE
  8
0
  10
2.20042
  20
0.52769
  30
0
  11
2.20871
  21
0.51319
  31
0
  0
LINE
  8
0
  10
2.20871
  20
0.51319
  30
0
  11
2.21657
  21
0.4982
  31
0
  0
LINE
  8
0
  10
2.21657
  20
0.4982
  30
0
  11
2.22401
  21
0.48276
  31
0
  0
LINE
  8
0
  10
2.22401
  20
0.48276
  30
0
  11
2.23103
  21
0.46689
  31
0
  0
LINE
  8
0
  10
2.23103
  20
0.46689
  30
0
  11
2.23765
  21
0.45061
  31
0
  0
LINE
  8
0
  10
2.23765
  20
0.45061
  30
0
  11
2.21459
  21
0.42402
  31
0
  0
LINE
  8
0
  10
2.21459
  20
0.42402
  30
0
  11
2.19754
  21
0.42827
  31
0
  0
LINE
  8
0
  10
2.19754
  20
0.42827
  30
0
  11
2.18083
  21
0.43298
  31
0
  0
LINE
  8
0
  10
2.18083
  20
0.43298
  30
0
  11
2.1645
  21
0.43816
  31
0
  0
LINE
  8
0
  10
2.1645
  20
0.43816
  30
0
  11
2.14855
  21
0.44382
  31
0
  0
LINE
  8
0
  10
2.14855
  20
0.44382
  30
0
  11
2.13302
  21
0.44997
  31
0
  0
LINE
  8
0
  10
2.13302
  20
0.44997
  30
0
  11
2.11794
  21
0.45665
  31
0
  0
LINE
  8
0
  10
2.11794
  20
0.45665
  30
0
  11
2.10336
  21
0.46389
  31
0
  0
LINE
  8
0
  10
2.10336
  20
0.46389
  30
0
  11
2.08936
  21
0.47174
  31
0
  0
LINE
  8
0
  10
2.08936
  20
0.47174
  30
0
  11
2.08261
  21
0.47594
  31
0
  0
LINE
  8
0
  10
2.08261
  20
0.47594
  30
0
  11
2.07606
  21
0.48034
  31
0
  0
LINE
  8
0
  10
2.07606
  20
0.48034
  30
0
  11
2.07287
  21
0.48263
  31
0
  0
LINE
  8
0
  10
2.07287
  20
0.48263
  30
0
  11
2.06975
  21
0.48499
  31
0
  0
LINE
  8
0
  10
2.06975
  20
0.48499
  30
0
  11
2.06672
  21
0.48744
  31
0
  0
LINE
  8
0
  10
2.06672
  20
0.48744
  30
0
  11
2.04016
  21
0.46655
  31
0
  0
LINE
  8
0
  10
2.04016
  20
0.46655
  30
0
  11
2.04016
  21
0.46655
  31
0
  0
LINE
  8
0
  10
2.04016
  20
0.46655
  30
0
  11
2.01828
  21
0.4408
  31
0
  0
LINE
  8
0
  10
2.01828
  20
0.4408
  30
0
  11
2.02062
  21
0.43768
  31
0
  0
LINE
  8
0
  10
2.02062
  20
0.43768
  30
0
  11
2.02286
  21
0.43447
  31
0
  0
LINE
  8
0
  10
2.02286
  20
0.43447
  30
0
  11
2.02503
  21
0.4312
  31
0
  0
LINE
  8
0
  10
2.02503
  20
0.4312
  30
0
  11
2.02918
  21
0.42448
  31
0
  0
LINE
  8
0
  10
2.02918
  20
0.42448
  30
0
  11
2.03311
  21
0.41758
  31
0
  0
LINE
  8
0
  10
2.03311
  20
0.41758
  30
0
  11
2.04044
  21
0.40329
  31
0
  0
LINE
  8
0
  10
2.04044
  20
0.40329
  30
0
  11
2.04712
  21
0.38845
  31
0
  0
LINE
  8
0
  10
2.04712
  20
0.38845
  30
0
  11
2.05322
  21
0.37313
  31
0
  0
LINE
  8
0
  10
2.05322
  20
0.37313
  30
0
  11
2.05879
  21
0.35738
  31
0
  0
LINE
  8
0
  10
2.05879
  20
0.35738
  30
0
  11
2.06384
  21
0.34123
  31
0
  0
LINE
  8
0
  10
2.06384
  20
0.34123
  30
0
  11
2.0684
  21
0.32471
  31
0
  0
LINE
  8
0
  10
2.0684
  20
0.32471
  30
0
  11
2.07248
  21
0.30784
  31
0
  0
LINE
  8
0
  10
2.07248
  20
0.30784
  30
0
  11
2.07609
  21
0.29064
  31
0
  0
LINE
  8
0
  10
2.07609
  20
0.29064
  30
0
  11
2.04865
  21
0.2686
  31
0
  0
LINE
  8
0
  10
2.04865
  20
0.2686
  30
0
  11
2.03263
  21
0.27582
  31
0
  0
LINE
  8
0
  10
2.03263
  20
0.27582
  30
0
  11
2.01703
  21
0.28344
  31
0
  0
LINE
  8
0
  10
2.01703
  20
0.28344
  30
0
  11
2.00188
  21
0.29146
  31
0
  0
LINE
  8
0
  10
2.00188
  20
0.29146
  30
0
  11
1.9872
  21
0.29987
  31
0
  0
LINE
  8
0
  10
1.9872
  20
0.29987
  30
0
  11
1.97302
  21
0.3087
  31
0
  0
LINE
  8
0
  10
1.97302
  20
0.3087
  30
0
  11
1.95938
  21
0.31796
  31
0
  0
LINE
  8
0
  10
1.95938
  20
0.31796
  30
0
  11
1.94633
  21
0.32769
  31
0
  0
LINE
  8
0
  10
1.94633
  20
0.32769
  30
0
  11
1.93395
  21
0.33792
  31
0
  0
LINE
  8
0
  10
1.93395
  20
0.33792
  30
0
  11
1.92806
  21
0.34325
  31
0
  0
LINE
  8
0
  10
1.92806
  20
0.34325
  30
0
  11
1.9224
  21
0.34875
  31
0
  0
LINE
  8
0
  10
1.9224
  20
0.34875
  30
0
  11
1.91967
  21
0.35157
  31
0
  0
LINE
  8
0
  10
1.91967
  20
0.35157
  30
0
  11
1.91702
  21
0.35445
  31
0
  0
LINE
  8
0
  10
1.91702
  20
0.35445
  30
0
  11
1.91448
  21
0.3574
  31
0
  0
LINE
  8
0
  10
1.91448
  20
0.3574
  30
0
  11
1.88461
  21
0.34159
  31
0
  0
LINE
  8
0
  10
1.88461
  20
0.34159
  30
0
  11
1.88461
  21
0.34159
  31
0
  0
LINE
  8
0
  10
1.88461
  20
0.34159
  30
0
  11
1.85849
  21
0.32016
  31
0
  0
LINE
  8
0
  10
1.85849
  20
0.32016
  30
0
  11
1.86023
  21
0.31667
  31
0
  0
LINE
  8
0
  10
1.86023
  20
0.31667
  30
0
  11
1.86187
  21
0.31312
  31
0
  0
LINE
  8
0
  10
1.86187
  20
0.31312
  30
0
  11
1.86342
  21
0.30951
  31
0
  0
LINE
  8
0
  10
1.86342
  20
0.30951
  30
0
  11
1.8663
  21
0.30216
  31
0
  0
LINE
  8
0
  10
1.8663
  20
0.30216
  30
0
  11
1.86894
  21
0.29466
  31
0
  0
LINE
  8
0
  10
1.86894
  20
0.29466
  30
0
  11
1.87359
  21
0.2793
  31
0
  0
LINE
  8
0
  10
1.87359
  20
0.2793
  30
0
  11
1.87752
  21
0.26351
  31
0
  0
LINE
  8
0
  10
1.87752
  20
0.26351
  30
0
  11
1.88079
  21
0.24734
  31
0
  0
LINE
  8
0
  10
1.88079
  20
0.24734
  30
0
  11
1.88345
  21
0.23085
  31
0
  0
LINE
  8
0
  10
1.88345
  20
0.23085
  30
0
  11
1.88554
  21
0.21406
  31
0
  0
LINE
  8
0
  10
1.88554
  20
0.21406
  30
0
  11
1.88708
  21
0.19699
  31
0
  0
LINE
  8
0
  10
1.88708
  20
0.19699
  30
0
  11
1.88808
  21
0.17966
  31
0
  0
LINE
  8
0
  10
1.88808
  20
0.17966
  30
0
  11
1.88856
  21
0.1621
  31
0
  0
LINE
  8
0
  10
1.88856
  20
0.1621
  30
0
  11
1.85762
  21
0.1453
  31
0
  0
LINE
  8
0
  10
1.85762
  20
0.1453
  30
0
  11
1.84315
  21
0.15528
  31
0
  0
LINE
  8
0
  10
1.84315
  20
0.15528
  30
0
  11
1.82917
  21
0.16556
  31
0
  0
LINE
  8
0
  10
1.82917
  20
0.16556
  30
0
  11
1.81569
  21
0.17615
  31
0
  0
LINE
  8
0
  10
1.81569
  20
0.17615
  30
0
  11
1.80275
  21
0.18705
  31
0
  0
LINE
  8
0
  10
1.80275
  20
0.18705
  30
0
  11
1.79037
  21
0.19827
  31
0
  0
LINE
  8
0
  10
1.79037
  20
0.19827
  30
0
  11
1.7786
  21
0.20982
  31
0
  0
LINE
  8
0
  10
1.7786
  20
0.20982
  30
0
  11
1.7675
  21
0.22171
  31
0
  0
LINE
  8
0
  10
1.7675
  20
0.22171
  30
0
  11
1.75715
  21
0.23399
  31
0
  0
LINE
  8
0
  10
1.75715
  20
0.23399
  30
0
  11
1.7523
  21
0.24029
  31
0
  0
LINE
  8
0
  10
1.7523
  20
0.24029
  30
0
  11
1.74771
  21
0.24671
  31
0
  0
LINE
  8
0
  10
1.74771
  20
0.24671
  30
0
  11
1.74553
  21
0.24997
  31
0
  0
LINE
  8
0
  10
1.74553
  20
0.24997
  30
0
  11
1.74344
  21
0.25328
  31
0
  0
LINE
  8
0
  10
1.74344
  20
0.25328
  30
0
  11
1.74146
  21
0.25664
  31
0
  0
LINE
  8
0
  10
1.74146
  20
0.25664
  30
0
  11
1.70926
  21
0.24642
  31
0
  0
LINE
  8
0
  10
1.70926
  20
0.24642
  30
0
  11
1.70926
  21
0.24642
  31
0
  0
LINE
  8
0
  10
1.70926
  20
0.24642
  30
0
  11
1.67973
  21
0.22999
  31
0
  0
LINE
  8
0
  10
1.67973
  20
0.22999
  30
0
  11
1.68082
  21
0.22625
  31
0
  0
LINE
  8
0
  10
1.68082
  20
0.22625
  30
0
  11
1.68179
  21
0.22246
  31
0
  0
LINE
  8
0
  10
1.68179
  20
0.22246
  30
0
  11
1.68267
  21
0.21863
  31
0
  0
LINE
  8
0
  10
1.68267
  20
0.21863
  30
0
  11
1.6842
  21
0.21089
  31
0
  0
LINE
  8
0
  10
1.6842
  20
0.21089
  30
0
  11
1.68546
  21
0.20304
  31
0
  0
LINE
  8
0
  10
1.68546
  20
0.20304
  30
0
  11
1.68729
  21
0.18709
  31
0
  0
LINE
  8
0
  10
1.68729
  20
0.18709
  30
0
  11
1.68833
  21
0.17085
  31
0
  0
LINE
  8
0
  10
1.68833
  20
0.17085
  30
0
  11
1.68867
  21
0.15436
  31
0
  0
LINE
  8
0
  10
1.68867
  20
0.15436
  30
0
  11
1.68834
  21
0.13766
  31
0
  0
LINE
  8
0
  10
1.68834
  20
0.13766
  30
0
  11
1.6874
  21
0.12077
  31
0
  0
LINE
  8
0
  10
1.6874
  20
0.12077
  30
0
  11
1.68586
  21
0.1037
  31
0
  0
LINE
  8
0
  10
1.68586
  20
0.1037
  30
0
  11
1.68375
  21
0.08647
  31
0
  0
LINE
  8
0
  10
1.68375
  20
0.08647
  30
0
  11
1.68109
  21
0.0691
  31
0
  0
LINE
  8
0
  10
1.68109
  20
0.0691
  30
0
  11
1.64765
  21
0.0581
  31
0
  0
LINE
  8
0
  10
1.64765
  20
0.0581
  30
0
  11
1.63519
  21
0.0705
  31
0
  0
LINE
  8
0
  10
1.63519
  20
0.0705
  30
0
  11
1.62327
  21
0.08311
  31
0
  0
LINE
  8
0
  10
1.62327
  20
0.08311
  30
0
  11
1.6119
  21
0.09594
  31
0
  0
LINE
  8
0
  10
1.6119
  20
0.09594
  30
0
  11
1.60111
  21
0.10897
  31
0
  0
LINE
  8
0
  10
1.60111
  20
0.10897
  30
0
  11
1.59094
  21
0.12222
  31
0
  0
LINE
  8
0
  10
1.59094
  20
0.12222
  30
0
  11
1.58142
  21
0.13569
  31
0
  0
LINE
  8
0
  10
1.58142
  20
0.13569
  30
0
  11
1.57262
  21
0.14938
  31
0
  0
LINE
  8
0
  10
1.57262
  20
0.14938
  30
0
  11
1.56463
  21
0.1633
  31
0
  0
LINE
  8
0
  10
1.56463
  20
0.1633
  30
0
  11
1.56098
  21
0.17036
  31
0
  0
LINE
  8
0
  10
1.56098
  20
0.17036
  30
0
  11
1.55761
  21
0.1775
  31
0
  0
LINE
  8
0
  10
1.55761
  20
0.1775
  30
0
  11
1.55605
  21
0.1811
  31
0
  0
LINE
  8
0
  10
1.55605
  20
0.1811
  30
0
  11
1.55458
  21
0.18473
  31
0
  0
LINE
  8
0
  10
1.55458
  20
0.18473
  30
0
  11
1.55324
  21
0.18839
  31
0
  0
LINE
  8
0
  10
1.55324
  20
0.18839
  30
0
  11
1.51973
  21
0.18408
  31
0
  0
LINE
  8
0
  10
1.51973
  20
0.18408
  30
0
  11
1.51973
  21
0.18408
  31
0
  0
LINE
  8
0
  10
1.51973
  20
0.18408
  30
0
  11
1.48774
  21
0.17319
  31
0
  0
LINE
  8
0
  10
1.48774
  20
0.17319
  30
0
  11
1.48814
  21
0.16931
  31
0
  0
LINE
  8
0
  10
1.48814
  20
0.16931
  30
0
  11
1.48842
  21
0.16541
  31
0
  0
LINE
  8
0
  10
1.48842
  20
0.16541
  30
0
  11
1.48861
  21
0.16149
  31
0
  0
LINE
  8
0
  10
1.48861
  20
0.16149
  30
0
  11
1.48872
  21
0.1536
  31
0
  0
LINE
  8
0
  10
1.48872
  20
0.1536
  30
0
  11
1.48856
  21
0.14565
  31
0
  0
LINE
  8
0
  10
1.48856
  20
0.14565
  30
0
  11
1.48752
  21
0.12963
  31
0
  0
LINE
  8
0
  10
1.48752
  20
0.12963
  30
0
  11
1.48564
  21
0.11347
  31
0
  0
LINE
  8
0
  10
1.48564
  20
0.11347
  30
0
  11
1.48303
  21
0.09719
  31
0
  0
LINE
  8
0
  10
1.48303
  20
0.09719
  30
0
  11
1.47973
  21
0.08081
  31
0
  0
LINE
  8
0
  10
1.47973
  20
0.08081
  30
0
  11
1.47578
  21
0.06435
  31
0
  0
LINE
  8
0
  10
1.47578
  20
0.06435
  30
0
  11
1.47122
  21
0.04783
  31
0
  0
LINE
  8
0
  10
1.47122
  20
0.04783
  30
0
  11
1.46607
  21
0.03126
  31
0
  0
LINE
  8
0
  10
1.46607
  20
0.03126
  30
0
  11
1.46035
  21
0.01464
  31
0
  0
LINE
  8
0
  10
1.46035
  20
0.01464
  30
0
  11
1.42548
  21
0.00979
  31
0
  0
LINE
  8
0
  10
1.42548
  20
0.00979
  30
0
  11
1.41544
  21
0.02421
  31
0
  0
LINE
  8
0
  10
1.41544
  20
0.02421
  30
0
  11
1.40596
  21
0.03875
  31
0
  0
LINE
  8
0
  10
1.40596
  20
0.03875
  30
0
  11
1.39706
  21
0.0534
  31
0
  0
LINE
  8
0
  10
1.39706
  20
0.0534
  30
0
  11
1.38878
  21
0.06816
  31
0
  0
LINE
  8
0
  10
1.38878
  20
0.06816
  30
0
  11
1.38113
  21
0.08301
  31
0
  0
LINE
  8
0
  10
1.38113
  20
0.08301
  30
0
  11
1.37417
  21
0.09796
  31
0
  0
LINE
  8
0
  10
1.37417
  20
0.09796
  30
0
  11
1.36796
  21
0.113
  31
0
  0
LINE
  8
0
  10
1.36796
  20
0.113
  30
0
  11
1.36258
  21
0.12813
  31
0
  0
LINE
  8
0
  10
1.36258
  20
0.12813
  30
0
  11
1.36025
  21
0.13572
  31
0
  0
LINE
  8
0
  10
1.36025
  20
0.13572
  30
0
  11
1.35821
  21
0.14335
  31
0
  0
LINE
  8
0
  10
1.35821
  20
0.14335
  30
0
  11
1.35732
  21
0.14717
  31
0
  0
LINE
  8
0
  10
1.35732
  20
0.14717
  30
0
  11
1.35652
  21
0.151
  31
0
  0
LINE
  8
0
  10
1.35652
  20
0.151
  30
0
  11
1.35585
  21
0.15484
  31
0
  0
LINE
  8
0
  10
1.35585
  20
0.15484
  30
0
  11
1.32211
  21
0.15659
  31
0
  0
LINE
  8
0
  10
1.32211
  20
0.15659
  30
0
  11
1.32211
  21
0.15659
  31
0
  0
LINE
  8
0
  10
1.32211
  20
0.15659
  30
0
  11
1.28869
  21
0.15159
  31
0
  0
LINE
  8
0
  10
1.28869
  20
0.15159
  30
0
  11
1.2884
  21
0.1477
  31
0
  0
LINE
  8
0
  10
1.2884
  20
0.1477
  30
0
  11
1.28798
  21
0.14381
  31
0
  0
LINE
  8
0
  10
1.28798
  20
0.14381
  30
0
  11
1.28745
  21
0.13992
  31
0
  0
LINE
  8
0
  10
1.28745
  20
0.13992
  30
0
  11
1.28616
  21
0.13213
  31
0
  0
LINE
  8
0
  10
1.28616
  20
0.13213
  30
0
  11
1.28458
  21
0.12434
  31
0
  0
LINE
  8
0
  10
1.28458
  20
0.12434
  30
0
  11
1.2807
  21
0.10876
  31
0
  0
LINE
  8
0
  10
1.2807
  20
0.10876
  30
0
  11
1.27597
  21
0.09319
  31
0
  0
LINE
  8
0
  10
1.27597
  20
0.09319
  30
0
  11
1.27048
  21
0.07764
  31
0
  0
LINE
  8
0
  10
1.27048
  20
0.07764
  30
0
  11
1.26431
  21
0.06212
  31
0
  0
LINE
  8
0
  10
1.26431
  20
0.06212
  30
0
  11
1.25749
  21
0.04663
  31
0
  0
LINE
  8
0
  10
1.25749
  20
0.04663
  30
0
  11
1.25006
  21
0.03119
  31
0
  0
LINE
  8
0
  10
1.25006
  20
0.03119
  30
0
  11
1.24203
  21
0.0158
  31
0
  0
LINE
  8
0
  10
1.24203
  20
0.0158
  30
0
  11
1.23343
  21
0.00048
  31
0
  0
LINE
  8
0
  10
1.23343
  20
0.00048
  30
0
  11
1.19826
  21
0.00193
  31
0
  0
LINE
  8
0
  10
1.19826
  20
0.00193
  30
0
  11
1.19095
  21
0.01791
  31
0
  0
LINE
  8
0
  10
1.19095
  20
0.01791
  30
0
  11
1.18422
  21
0.03391
  31
0
  0
LINE
  8
0
  10
1.18422
  20
0.03391
  30
0
  11
1.17809
  21
0.04991
  31
0
  0
LINE
  8
0
  10
1.17809
  20
0.04991
  30
0
  11
1.17257
  21
0.06591
  31
0
  0
LINE
  8
0
  10
1.17257
  20
0.06591
  30
0
  11
1.1677
  21
0.08189
  31
0
  0
LINE
  8
0
  10
1.1677
  20
0.08189
  30
0
  11
1.16352
  21
0.09784
  31
0
  0
LINE
  8
0
  10
1.16352
  20
0.09784
  30
0
  11
1.16008
  21
0.11375
  31
0
  0
LINE
  8
0
  10
1.16008
  20
0.11375
  30
0
  11
1.1575
  21
0.12959
  31
0
  0
LINE
  8
0
  10
1.1575
  20
0.12959
  30
0
  11
1.15657
  21
0.13748
  31
0
  0
LINE
  8
0
  10
1.15657
  20
0.13748
  30
0
  11
1.15592
  21
0.14535
  31
0
  0
LINE
  8
0
  10
1.15592
  20
0.14535
  30
0
  11
1.15572
  21
0.14927
  31
0
  0
LINE
  8
0
  10
1.15572
  20
0.14927
  30
0
  11
1.15562
  21
0.15318
  31
0
  0
LINE
  8
0
  10
1.15562
  20
0.15318
  30
0
  11
1.15565
  21
0.15708
  31
0
  0
LINE
  8
0
  10
1.15565
  20
0.15708
  30
0
  11
1.12276
  21
0.16482
  31
0
  0
LINE
  8
0
  10
1.12276
  20
0.16482
  30
0
  11
1.12276
  21
0.16482
  31
0
  0
LINE
  8
0
  10
1.12276
  20
0.16482
  30
0
  11
1.08898
  21
0.16587
  31
0
  0
LINE
  8
0
  10
1.08898
  20
0.16587
  30
0
  11
1.088
  21
0.1621
  31
0
  0
LINE
  8
0
  10
1.088
  20
0.1621
  30
0
  11
1.08689
  21
0.15834
  31
0
  0
LINE
  8
0
  10
1.08689
  20
0.15834
  30
0
  11
1.08568
  21
0.15461
  31
0
  0
LINE
  8
0
  10
1.08568
  20
0.15461
  30
0
  11
1.08302
  21
0.14718
  31
0
  0
LINE
  8
0
  10
1.08302
  20
0.14718
  30
0
  11
1.08008
  21
0.1398
  31
0
  0
LINE
  8
0
  10
1.08008
  20
0.1398
  30
0
  11
1.07347
  21
0.12516
  31
0
  0
LINE
  8
0
  10
1.07347
  20
0.12516
  30
0
  11
1.06604
  21
0.11069
  31
0
  0
LINE
  8
0
  10
1.06604
  20
0.11069
  30
0
  11
1.05787
  21
0.09636
  31
0
  0
LINE
  8
0
  10
1.05787
  20
0.09636
  30
0
  11
1.04902
  21
0.08219
  31
0
  0
LINE
  8
0
  10
1.04902
  20
0.08219
  30
0
  11
1.03955
  21
0.06817
  31
0
  0
LINE
  8
0
  10
1.03955
  20
0.06817
  30
0
  11
1.02947
  21
0.05431
  31
0
  0
LINE
  8
0
  10
1.02947
  20
0.05431
  30
0
  11
1.01883
  21
0.0406
  31
0
  0
LINE
  8
0
  10
1.01883
  20
0.0406
  30
0
  11
1.00763
  21
0.02706
  31
0
  0
LINE
  8
0
  10
1.00763
  20
0.02706
  30
0
  11
0.97328
  21
0.03476
  31
0
  0
LINE
  8
0
  10
0.97328
  20
0.03476
  30
0
  11
0.96895
  21
0.05179
  31
0
  0
LINE
  8
0
  10
0.96895
  20
0.05179
  30
0
  11
0.96518
  21
0.06874
  31
0
  0
LINE
  8
0
  10
0.96518
  20
0.06874
  30
0
  11
0.962
  21
0.08558
  31
0
  0
LINE
  8
0
  10
0.962
  20
0.08558
  30
0
  11
0.95943
  21
0.1023
  31
0
  0
LINE
  8
0
  10
0.95943
  20
0.1023
  30
0
  11
0.95749
  21
0.1189
  31
0
  0
LINE
  8
0
  10
0.95749
  20
0.1189
  30
0
  11
0.95622
  21
0.13534
  31
0
  0
LINE
  8
0
  10
0.95622
  20
0.13534
  30
0
  11
0.95569
  21
0.1516
  31
0
  0
LINE
  8
0
  10
0.95569
  20
0.1516
  30
0
  11
0.95597
  21
0.16765
  31
0
  0
LINE
  8
0
  10
0.95597
  20
0.16765
  30
0
  11
0.95646
  21
0.17559
  31
0
  0
LINE
  8
0
  10
0.95646
  20
0.17559
  30
0
  11
0.95723
  21
0.18344
  31
0
  0
LINE
  8
0
  10
0.95723
  20
0.18344
  30
0
  11
0.95774
  21
0.18734
  31
0
  0
LINE
  8
0
  10
0.95774
  20
0.18734
  30
0
  11
0.95834
  21
0.1912
  31
0
  0
LINE
  8
0
  10
0.95834
  20
0.1912
  30
0
  11
0.95906
  21
0.19503
  31
0
  0
LINE
  8
0
  10
0.95906
  20
0.19503
  30
0
  11
0.92808
  21
0.20852
  31
0
  0
LINE
  8
0
  10
0.92808
  20
0.20852
  30
0
  11
0.92808
  21
0.20852
  31
0
  0
LINE
  8
0
  10
0.92808
  20
0.20852
  30
0
  11
0.89504
  21
0.21558
  31
0
  0
LINE
  8
0
  10
0.89504
  20
0.21558
  30
0
  11
0.8934
  21
0.21205
  31
0
  0
LINE
  8
0
  10
0.8934
  20
0.21205
  30
0
  11
0.89164
  21
0.20855
  31
0
  0
LINE
  8
0
  10
0.89164
  20
0.20855
  30
0
  11
0.88978
  21
0.20509
  31
0
  0
LINE
  8
0
  10
0.88978
  20
0.20509
  30
0
  11
0.88583
  21
0.19826
  31
0
  0
LINE
  8
0
  10
0.88583
  20
0.19826
  30
0
  11
0.88162
  21
0.19152
  31
0
  0
LINE
  8
0
  10
0.88162
  20
0.19152
  30
0
  11
0.87251
  21
0.1783
  31
0
  0
LINE
  8
0
  10
0.87251
  20
0.1783
  30
0
  11
0.86261
  21
0.16538
  31
0
  0
LINE
  8
0
  10
0.86261
  20
0.16538
  30
0
  11
0.85201
  21
0.15275
  31
0
  0
LINE
  8
0
  10
0.85201
  20
0.15275
  30
0
  11
0.84078
  21
0.14039
  31
0
  0
LINE
  8
0
  10
0.84078
  20
0.14039
  30
0
  11
0.82895
  21
0.12828
  31
0
  0
LINE
  8
0
  10
0.82895
  20
0.12828
  30
0
  11
0.81656
  21
0.11644
  31
0
  0
LINE
  8
0
  10
0.81656
  20
0.11644
  30
0
  11
0.80364
  21
0.10485
  31
0
  0
LINE
  8
0
  10
0.80364
  20
0.10485
  30
0
  11
0.7902
  21
0.09352
  31
0
  0
LINE
  8
0
  10
0.7902
  20
0.09352
  30
0
  11
0.75779
  21
0.10724
  31
0
  0
LINE
  8
0
  10
0.75779
  20
0.10724
  30
0
  11
0.75656
  21
0.12477
  31
0
  0
LINE
  8
0
  10
0.75656
  20
0.12477
  30
0
  11
0.75588
  21
0.14212
  31
0
  0
LINE
  8
0
  10
0.75588
  20
0.14212
  30
0
  11
0.75576
  21
0.15925
  31
0
  0
LINE
  8
0
  10
0.75576
  20
0.15925
  30
0
  11
0.75621
  21
0.17617
  31
0
  0
LINE
  8
0
  10
0.75621
  20
0.17617
  30
0
  11
0.75727
  21
0.19284
  31
0
  0
LINE
  8
0
  10
0.75727
  20
0.19284
  30
0
  11
0.75896
  21
0.20925
  31
0
  0
LINE
  8
0
  10
0.75896
  20
0.20925
  30
0
  11
0.76134
  21
0.22534
  31
0
  0
LINE
  8
0
  10
0.76134
  20
0.22534
  30
0
  11
0.76448
  21
0.24109
  31
0
  0
LINE
  8
0
  10
0.76448
  20
0.24109
  30
0
  11
0.76638
  21
0.24881
  31
0
  0
LINE
  8
0
  10
0.76638
  20
0.24881
  30
0
  11
0.76854
  21
0.2564
  31
0
  0
LINE
  8
0
  10
0.76854
  20
0.2564
  30
0
  11
0.76973
  21
0.26014
  31
0
  0
LINE
  8
0
  10
0.76973
  20
0.26014
  30
0
  11
0.77102
  21
0.26383
  31
0
  0
LINE
  8
0
  10
0.77102
  20
0.26383
  30
0
  11
0.77241
  21
0.26748
  31
0
  0
LINE
  8
0
  10
0.77241
  20
0.26748
  30
0
  11
0.74434
  21
0.28628
  31
0
  0
LINE
  8
0
  10
0.74434
  20
0.28628
  30
0
  11
0.74434
  21
0.28628
  31
0
  0
LINE
  8
0
  10
0.74434
  20
0.28628
  30
0
  11
0.71308
  21
0.29913
  31
0
  0
LINE
  8
0
  10
0.71308
  20
0.29913
  30
0
  11
0.71084
  21
0.29594
  31
0
  0
LINE
  8
0
  10
0.71084
  20
0.29594
  30
0
  11
0.70848
  21
0.29282
  31
0
  0
LINE
  8
0
  10
0.70848
  20
0.29282
  30
0
  11
0.70604
  21
0.28974
  31
0
  0
LINE
  8
0
  10
0.70604
  20
0.28974
  30
0
  11
0.70094
  21
0.28372
  31
0
  0
LINE
  8
0
  10
0.70094
  20
0.28372
  30
0
  11
0.69558
  21
0.27785
  31
0
  0
LINE
  8
0
  10
0.69558
  20
0.27785
  30
0
  11
0.68426
  21
0.26647
  31
0
  0
LINE
  8
0
  10
0.68426
  20
0.26647
  30
0
  11
0.67221
  21
0.25553
  31
0
  0
LINE
  8
0
  10
0.67221
  20
0.25553
  30
0
  11
0.65953
  21
0.24499
  31
0
  0
LINE
  8
0
  10
0.65953
  20
0.24499
  30
0
  11
0.64627
  21
0.23483
  31
0
  0
LINE
  8
0
  10
0.64627
  20
0.23483
  30
0
  11
0.63247
  21
0.22503
  31
0
  0
LINE
  8
0
  10
0.63247
  20
0.22503
  30
0
  11
0.61817
  21
0.21559
  31
0
  0
LINE
  8
0
  10
0.61817
  20
0.21559
  30
0
  11
0.60338
  21
0.20649
  31
0
  0
LINE
  8
0
  10
0.60338
  20
0.20649
  30
0
  11
0.58814
  21
0.19775
  31
0
  0
LINE
  8
0
  10
0.58814
  20
0.19775
  30
0
  11
0.55869
  21
0.21704
  31
0
  0
LINE
  8
0
  10
0.55869
  20
0.21704
  30
0
  11
0.56062
  21
0.2345
  31
0
  0
LINE
  8
0
  10
0.56062
  20
0.2345
  30
0
  11
0.56305
  21
0.25169
  31
0
  0
LINE
  8
0
  10
0.56305
  20
0.25169
  30
0
  11
0.56599
  21
0.26857
  31
0
  0
LINE
  8
0
  10
0.56599
  20
0.26857
  30
0
  11
0.56945
  21
0.28514
  31
0
  0
LINE
  8
0
  10
0.56945
  20
0.28514
  30
0
  11
0.57347
  21
0.30135
  31
0
  0
LINE
  8
0
  10
0.57347
  20
0.30135
  30
0
  11
0.57806
  21
0.31719
  31
0
  0
LINE
  8
0
  10
0.57806
  20
0.31719
  30
0
  11
0.58328
  21
0.3326
  31
0
  0
LINE
  8
0
  10
0.58328
  20
0.3326
  30
0
  11
0.58918
  21
0.34753
  31
0
  0
LINE
  8
0
  10
0.58918
  20
0.34753
  30
0
  11
0.59243
  21
0.35479
  31
0
  0
LINE
  8
0
  10
0.59243
  20
0.35479
  30
0
  11
0.59591
  21
0.36187
  31
0
  0
LINE
  8
0
  10
0.59591
  20
0.36187
  30
0
  11
0.59775
  21
0.36534
  31
0
  0
LINE
  8
0
  10
0.59775
  20
0.36534
  30
0
  11
0.59967
  21
0.36875
  31
0
  0
LINE
  8
0
  10
0.59967
  20
0.36875
  30
0
  11
0.6017
  21
0.37208
  31
0
  0
LINE
  8
0
  10
0.6017
  20
0.37208
  30
0
  11
0.57743
  21
0.3956
  31
0
  0
LINE
  8
0
  10
0.57743
  20
0.3956
  30
0
  11
0.57743
  21
0.3956
  31
0
  0
LINE
  8
0
  10
0.57743
  20
0.3956
  30
0
  11
0.54897
  21
0.41382
  31
0
  0
LINE
  8
0
  10
0.54897
  20
0.41382
  30
0
  11
0.54619
  21
0.41108
  31
0
  0
LINE
  8
0
  10
0.54619
  20
0.41108
  30
0
  11
0.54332
  21
0.40843
  31
0
  0
LINE
  8
0
  10
0.54332
  20
0.40843
  30
0
  11
0.54036
  21
0.40584
  31
0
  0
LINE
  8
0
  10
0.54036
  20
0.40584
  30
0
  11
0.53427
  21
0.40083
  31
0
  0
LINE
  8
0
  10
0.53427
  20
0.40083
  30
0
  11
0.52795
  21
0.396
  31
0
  0
LINE
  8
0
  10
0.52795
  20
0.396
  30
0
  11
0.51478
  21
0.38683
  31
0
  0
LINE
  8
0
  10
0.51478
  20
0.38683
  30
0
  11
0.50097
  21
0.37822
  31
0
  0
LINE
  8
0
  10
0.50097
  20
0.37822
  30
0
  11
0.48661
  21
0.37011
  31
0
  0
LINE
  8
0
  10
0.48661
  20
0.37011
  30
0
  11
0.47175
  21
0.36248
  31
0
  0
LINE
  8
0
  10
0.47175
  20
0.36248
  30
0
  11
0.45642
  21
0.3553
  31
0
  0
LINE
  8
0
  10
0.45642
  20
0.3553
  30
0
  11
0.44066
  21
0.34857
  31
0
  0
LINE
  8
0
  10
0.44066
  20
0.34857
  30
0
  11
0.42449
  21
0.34226
  31
0
  0
LINE
  8
0
  10
0.42449
  20
0.34226
  30
0
  11
0.40794
  21
0.33638
  31
0
  0
LINE
  8
0
  10
0.40794
  20
0.33638
  30
0
  11
0.38241
  21
0.36061
  31
0
  0
LINE
  8
0
  10
0.38241
  20
0.36061
  30
0
  11
0.38742
  21
0.37746
  31
0
  0
LINE
  8
0
  10
0.38742
  20
0.37746
  30
0
  11
0.39288
  21
0.39393
  31
0
  0
LINE
  8
0
  10
0.39288
  20
0.39393
  30
0
  11
0.39878
  21
0.41002
  31
0
  0
LINE
  8
0
  10
0.39878
  20
0.41002
  30
0
  11
0.40515
  21
0.4257
  31
0
  0
LINE
  8
0
  10
0.40515
  20
0.4257
  30
0
  11
0.412
  21
0.44094
  31
0
  0
LINE
  8
0
  10
0.412
  20
0.44094
  30
0
  11
0.41934
  21
0.4557
  31
0
  0
LINE
  8
0
  10
0.41934
  20
0.4557
  30
0
  11
0.42723
  21
0.46994
  31
0
  0
LINE
  8
0
  10
0.42723
  20
0.46994
  30
0
  11
0.4357
  21
0.48357
  31
0
  0
LINE
  8
0
  10
0.4357
  20
0.48357
  30
0
  11
0.4402
  21
0.49013
  31
0
  0
LINE
  8
0
  10
0.4402
  20
0.49013
  30
0
  11
0.44488
  21
0.49648
  31
0
  0
LINE
  8
0
  10
0.44488
  20
0.49648
  30
0
  11
0.44731
  21
0.49956
  31
0
  0
LINE
  8
0
  10
0.44731
  20
0.49956
  30
0
  11
0.44981
  21
0.50257
  31
0
  0
LINE
  8
0
  10
0.44981
  20
0.50257
  30
0
  11
0.4524
  21
0.50549
  31
0
  0
LINE
  8
0
  10
0.4524
  20
0.50549
  30
0
  11
0.43272
  21
0.53296
  31
0
  0
LINE
  8
0
  10
0.43272
  20
0.53296
  30
0
  11
0.43272
  21
0.53296
  31
0
  0
LINE
  8
0
  10
0.43272
  20
0.53296
  30
0
  11
0.40798
  21
0.55597
  31
0
  0
LINE
  8
0
  10
0.40798
  20
0.55597
  30
0
  11
0.40475
  21
0.55377
  31
0
  0
LINE
  8
0
  10
0.40475
  20
0.55377
  30
0
  11
0.40145
  21
0.55168
  31
0
  0
LINE
  8
0
  10
0.40145
  20
0.55168
  30
0
  11
0.39808
  21
0.54966
  31
0
  0
LINE
  8
0
  10
0.39808
  20
0.54966
  30
0
  11
0.39119
  21
0.54581
  31
0
  0
LINE
  8
0
  10
0.39119
  20
0.54581
  30
0
  11
0.38412
  21
0.54219
  31
0
  0
LINE
  8
0
  10
0.38412
  20
0.54219
  30
0
  11
0.36951
  21
0.53552
  31
0
  0
LINE
  8
0
  10
0.36951
  20
0.53552
  30
0
  11
0.35439
  21
0.52951
  31
0
  0
LINE
  8
0
  10
0.35439
  20
0.52951
  30
0
  11
0.33881
  21
0.5241
  31
0
  0
LINE
  8
0
  10
0.33881
  20
0.5241
  30
0
  11
0.32283
  21
0.51924
  31
0
  0
LINE
  8
0
  10
0.32283
  20
0.51924
  30
0
  11
0.30647
  21
0.51492
  31
0
  0
LINE
  8
0
  10
0.30647
  20
0.51492
  30
0
  11
0.28976
  21
0.51111
  31
0
  0
LINE
  8
0
  10
0.28976
  20
0.51111
  30
0
  11
0.27272
  21
0.50779
  31
0
  0
LINE
  8
0
  10
0.27272
  20
0.50779
  30
0
  11
0.25538
  21
0.50496
  31
0
  0
LINE
  8
0
  10
0.25538
  20
0.50496
  30
0
  11
0.23459
  21
0.53336
  31
0
  0
LINE
  8
0
  10
0.23459
  20
0.53336
  30
0
  11
0.24253
  21
0.54904
  31
0
  0
LINE
  8
0
  10
0.24253
  20
0.54904
  30
0
  11
0.25084
  21
0.56427
  31
0
  0
LINE
  8
0
  10
0.25084
  20
0.56427
  30
0
  11
0.25952
  21
0.57905
  31
0
  0
LINE
  8
0
  10
0.25952
  20
0.57905
  30
0
  11
0.26859
  21
0.59334
  31
0
  0
LINE
  8
0
  10
0.26859
  20
0.59334
  30
0
  11
0.27805
  21
0.60711
  31
0
  0
LINE
  8
0
  10
0.27805
  20
0.60711
  30
0
  11
0.28791
  21
0.62032
  31
0
  0
LINE
  8
0
  10
0.28791
  20
0.62032
  30
0
  11
0.29821
  21
0.63292
  31
0
  0
LINE
  8
0
  10
0.29821
  20
0.63292
  30
0
  11
0.30898
  21
0.64483
  31
0
  0
LINE
  8
0
  10
0.30898
  20
0.64483
  30
0
  11
0.31457
  21
0.65047
  31
0
  0
LINE
  8
0
  10
0.31457
  20
0.65047
  30
0
  11
0.32032
  21
0.65588
  31
0
  0
LINE
  8
0
  10
0.32032
  20
0.65588
  30
0
  11
0.32326
  21
0.65848
  31
0
  0
LINE
  8
0
  10
0.32326
  20
0.65848
  30
0
  11
0.32626
  21
0.661
  31
0
  0
LINE
  8
0
  10
0.32626
  20
0.661
  30
0
  11
0.32933
  21
0.66341
  31
0
  0
LINE
  8
0
  10
0.32933
  20
0.66341
  30
0
  11
0.31487
  21
0.69395
  31
0
  0
LINE
  8
0
  10
0.31487
  20
0.69395
  30
0
  11
0.31487
  21
0.69395
  31
0
  0
LINE
  8
0
  10
0.31487
  20
0.69395
  30
0
  11
0.29463
  21
0.72101
  31
0
  0
LINE
  8
0
  10
0.29463
  20
0.72101
  30
0
  11
0.29107
  21
0.71943
  31
0
  0
LINE
  8
0
  10
0.29107
  20
0.71943
  30
0
  11
0.28744
  21
0.71795
  31
0
  0
LINE
  8
0
  10
0.28744
  20
0.71795
  30
0
  11
0.28377
  21
0.71657
  31
0
  0
LINE
  8
0
  10
0.28377
  20
0.71657
  30
0
  11
0.2763
  21
0.71402
  31
0
  0
LINE
  8
0
  10
0.2763
  20
0.71402
  30
0
  11
0.26869
  21
0.71172
  31
0
  0
LINE
  8
0
  10
0.26869
  20
0.71172
  30
0
  11
0.25313
  21
0.70776
  31
0
  0
LINE
  8
0
  10
0.25313
  20
0.70776
  30
0
  11
0.23718
  21
0.70454
  31
0
  0
LINE
  8
0
  10
0.23718
  20
0.70454
  30
0
  11
0.22089
  21
0.702
  31
0
  0
LINE
  8
0
  10
0.22089
  20
0.702
  30
0
  11
0.20429
  21
0.70008
  31
0
  0
LINE
  8
0
  10
0.20429
  20
0.70008
  30
0
  11
0.18742
  21
0.69875
  31
0
  0
LINE
  8
0
  10
0.18742
  20
0.69875
  30
0
  11
0.1703
  21
0.69798
  31
0
  0
LINE
  8
0
  10
0.1703
  20
0.69798
  30
0
  11
0.15295
  21
0.69776
  31
0
  0
LINE
  8
0
  10
0.15295
  20
0.69776
  30
0
  11
0.13538
  21
0.69807
  31
0
  0
LINE
  8
0
  10
0.13538
  20
0.69807
  30
0
  11
0.11999
  21
0.72973
  31
0
  0
LINE
  8
0
  10
0.11999
  20
0.72973
  30
0
  11
0.1306
  21
0.74373
  31
0
  0
LINE
  8
0
  10
0.1306
  20
0.74373
  30
0
  11
0.1415
  21
0.75724
  31
0
  0
LINE
  8
0
  10
0.1415
  20
0.75724
  30
0
  11
0.15268
  21
0.77023
  31
0
  0
LINE
  8
0
  10
0.15268
  20
0.77023
  30
0
  11
0.16415
  21
0.78267
  31
0
  0
LINE
  8
0
  10
0.16415
  20
0.78267
  30
0
  11
0.17592
  21
0.79453
  31
0
  0
LINE
  8
0
  10
0.17592
  20
0.79453
  30
0
  11
0.18798
  21
0.80577
  31
0
  0
LINE
  8
0
  10
0.18798
  20
0.80577
  30
0
  11
0.20037
  21
0.81633
  31
0
  0
LINE
  8
0
  10
0.20037
  20
0.81633
  30
0
  11
0.21309
  21
0.82612
  31
0
  0
LINE
  8
0
  10
0.21309
  20
0.82612
  30
0
  11
0.2196
  21
0.83068
  31
0
  0
LINE
  8
0
  10
0.2196
  20
0.83068
  30
0
  11
0.22622
  21
0.83497
  31
0
  0
LINE
  8
0
  10
0.22622
  20
0.83497
  30
0
  11
0.22958
  21
0.83701
  31
0
  0
LINE
  8
0
  10
0.22958
  20
0.83701
  30
0
  11
0.23298
  21
0.83895
  31
0
  0
LINE
  8
0
  10
0.23298
  20
0.83895
  30
0
  11
0.23643
  21
0.84077
  31
0
  0
LINE
  8
0
  10
0.23643
  20
0.84077
  30
0
  11
0.22766
  21
0.8734
  31
0
  0
LINE
  8
0
  10
0.22766
  20
0.8734
  30
0
  11
0.22766
  21
0.8734
  31
0
  0
LINE
  8
0
  10
0.22766
  20
0.8734
  30
0
  11
0.21257
  21
0.90364
  31
0
  0
LINE
  8
0
  10
0.21257
  20
0.90364
  30
0
  11
0.20878
  21
0.90272
  31
0
  0
LINE
  8
0
  10
0.20878
  20
0.90272
  30
0
  11
0.20495
  21
0.90191
  31
0
  0
LINE
  8
0
  10
0.20495
  20
0.90191
  30
0
  11
0.20109
  21
0.90121
  31
0
  0
LINE
  8
0
  10
0.20109
  20
0.90121
  30
0
  11
0.19329
  21
0.90003
  31
0
  0
LINE
  8
0
  10
0.19329
  20
0.90003
  30
0
  11
0.18539
  21
0.89913
  31
0
  0
LINE
  8
0
  10
0.18539
  20
0.89913
  30
0
  11
0.16938
  21
0.89801
  31
0
  0
LINE
  8
0
  10
0.16938
  20
0.89801
  30
0
  11
0.15311
  21
0.8977
  31
0
  0
LINE
  8
0
  10
0.15311
  20
0.8977
  30
0
  11
0.13662
  21
0.8981
  31
0
  0
LINE
  8
0
  10
0.13662
  20
0.8981
  30
0
  11
0.11995
  21
0.89918
  31
0
  0
LINE
  8
0
  10
0.11995
  20
0.89918
  30
0
  11
0.10311
  21
0.90088
  31
0
  0
LINE
  8
0
  10
0.10311
  20
0.90088
  30
0
  11
0.08613
  21
0.90318
  31
0
  0
LINE
  8
0
  10
0.08613
  20
0.90318
  30
0
  11
0.06901
  21
0.90606
  31
0
  0
LINE
  8
0
  10
0.06901
  20
0.90606
  30
0
  11
0.05178
  21
0.9095
  31
0
  0
LINE
  8
0
  10
0.05178
  20
0.9095
  30
0
  11
0.0423
  21
0.9434
  31
0
  0
LINE
  8
0
  10
0.0423
  20
0.9434
  30
0
  11
0.05524
  21
0.95528
  31
0
  0
LINE
  8
0
  10
0.05524
  20
0.95528
  30
0
  11
0.06837
  21
0.96663
  31
0
  0
LINE
  8
0
  10
0.06837
  20
0.96663
  30
0
  11
0.0817
  21
0.97741
  31
0
  0
LINE
  8
0
  10
0.0817
  20
0.97741
  30
0
  11
0.0952
  21
0.9876
  31
0
  0
LINE
  8
0
  10
0.0952
  20
0.9876
  30
0
  11
0.1089
  21
0.99717
  31
0
  0
LINE
  8
0
  10
0.1089
  20
0.99717
  30
0
  11
0.12278
  21
1.00608
  31
0
  0
LINE
  8
0
  10
0.12278
  20
1.00608
  30
0
  11
0.13684
  21
1.01426
  31
0
  0
LINE
  8
0
  10
0.13684
  20
1.01426
  30
0
  11
0.15111
  21
1.02161
  31
0
  0
LINE
  8
0
  10
0.15111
  20
1.02161
  30
0
  11
0.15833
  21
1.02494
  31
0
  0
LINE
  8
0
  10
0.15833
  20
1.02494
  30
0
  11
0.16561
  21
1.02798
  31
0
  0
LINE
  8
0
  10
0.16561
  20
1.02798
  30
0
  11
0.16928
  21
1.02938
  31
0
  0
LINE
  8
0
  10
0.16928
  20
1.02938
  30
0
  11
0.17297
  21
1.03069
  31
0
  0
LINE
  8
0
  10
0.17297
  20
1.03069
  30
0
  11
0.17669
  21
1.03187
  31
0
  0
LINE
  8
0
  10
0.17669
  20
1.03187
  30
0
  11
0.17389
  21
1.06554
  31
0
  0
LINE
  8
0
  10
0.17389
  20
1.06554
  30
0
  11
0.17389
  21
1.06554
  31
0
  0
LINE
  8
0
  10
0.17389
  20
1.06554
  30
0
  11
0.16444
  21
1.09798
  31
0
  0
LINE
  8
0
  10
0.16444
  20
1.09798
  30
0
  11
0.16055
  21
1.09775
  31
0
  0
LINE
  8
0
  10
0.16055
  20
1.09775
  30
0
  11
0.15664
  21
1.09765
  31
0
  0
LINE
  8
0
  10
0.15664
  20
1.09765
  30
0
  11
0.15271
  21
1.09764
  31
0
  0
LINE
  8
0
  10
0.15271
  20
1.09764
  30
0
  11
0.14483
  21
1.09788
  31
0
  0
LINE
  8
0
  10
0.14483
  20
1.09788
  30
0
  11
0.13689
  21
1.0984
  31
0
  0
LINE
  8
0
  10
0.13689
  20
1.0984
  30
0
  11
0.12094
  21
1.10016
  31
0
  0
LINE
  8
0
  10
0.12094
  20
1.10016
  30
0
  11
0.10487
  21
1.10276
  31
0
  0
LINE
  8
0
  10
0.10487
  20
1.10276
  30
0
  11
0.08873
  21
1.1061
  31
0
  0
LINE
  8
0
  10
0.08873
  20
1.1061
  30
0
  11
0.07251
  21
1.11013
  31
0
  0
LINE
  8
0
  10
0.07251
  20
1.11013
  30
0
  11
0.05625
  21
1.11481
  31
0
  0
LINE
  8
0
  10
0.05625
  20
1.11481
  30
0
  11
0.03995
  21
1.12011
  31
0
  0
LINE
  8
0
  10
0.03995
  20
1.12011
  30
0
  11
0.02362
  21
1.126
  31
0
  0
LINE
  8
0
  10
0.02362
  20
1.126
  30
0
  11
0.00728
  21
1.13246
  31
0
  0
LINE
  8
0
  10
0.00728
  20
1.13246
  30
0
  11
0.004
  21
1.16751
  31
0
  0
LINE
  8
0
  10
0.004
  20
1.16751
  30
0
  11
0.01886
  21
1.17689
  31
0
  0
LINE
  8
0
  10
0.01886
  20
1.17689
  30
0
  11
0.03381
  21
1.18571
  31
0
  0
LINE
  8
0
  10
0.03381
  20
1.18571
  30
0
  11
0.04884
  21
1.19394
  31
0
  0
LINE
  8
0
  10
0.04884
  20
1.19394
  30
0
  11
0.06395
  21
1.20156
  31
0
  0
LINE
  8
0
  10
0.06395
  20
1.20156
  30
0
  11
0.07914
  21
1.20853
  31
0
  0
LINE
  8
0
  10
0.07914
  20
1.20853
  30
0
  11
0.09438
  21
1.21481
  31
0
  0
LINE
  8
0
  10
0.09438
  20
1.21481
  30
0
  11
0.10968
  21
1.22035
  31
0
  0
LINE
  8
0
  10
0.10968
  20
1.22035
  30
0
  11
0.12504
  21
1.22504
  31
0
  0
LINE
  8
0
  10
0.12504
  20
1.22504
  30
0
  11
0.13273
  21
1.22702
  31
0
  0
LINE
  8
0
  10
0.13273
  20
1.22702
  30
0
  11
0.14044
  21
1.22872
  31
0
  0
LINE
  8
0
  10
0.14044
  20
1.22872
  30
0
  11
0.1443
  21
1.22944
  31
0
  0
LINE
  8
0
  10
0.1443
  20
1.22944
  30
0
  11
0.14817
  21
1.23006
  31
0
  0
LINE
  8
0
  10
0.14817
  20
1.23006
  30
0
  11
0.15203
  21
1.23056
  31
0
  0
LINE
  8
0
  10
0.15203
  20
1.23056
  30
0
  11
0.15529
  21
1.26419
  31
0
  0
LINE
  8
0
  10
0.15529
  20
1.26419
  30
0
  11
0.15529
  21
1.26419
  31
0
  0
LINE
  8
0
  10
0.15529
  20
1.26419
  30
0
  11
0.15179
  21
1.2978
  31
0
  0
LINE
  8
0
  10
0.15179
  20
1.2978
  30
0
  11
0.14792
  21
1.29827
  31
0
  0
LINE
  8
0
  10
0.14792
  20
1.29827
  30
0
  11
0.14405
  21
1.29886
  31
0
  0
LINE
  8
0
  10
0.14405
  20
1.29886
  30
0
  11
0.14019
  21
1.29956
  31
0
  0
LINE
  8
0
  10
0.14019
  20
1.29956
  30
0
  11
0.13247
  21
1.3012
  31
0
  0
LINE
  8
0
  10
0.13247
  20
1.3012
  30
0
  11
0.12476
  21
1.30313
  31
0
  0
LINE
  8
0
  10
0.12476
  20
1.30313
  30
0
  11
0.10937
  21
1.30771
  31
0
  0
LINE
  8
0
  10
0.10937
  20
1.30771
  30
0
  11
0.09403
  21
1.31313
  31
0
  0
LINE
  8
0
  10
0.09403
  20
1.31313
  30
0
  11
0.07874
  21
1.31931
  31
0
  0
LINE
  8
0
  10
0.07874
  20
1.31931
  30
0
  11
0.06351
  21
1.32617
  31
0
  0
LINE
  8
0
  10
0.06351
  20
1.32617
  30
0
  11
0.04834
  21
1.33368
  31
0
  0
LINE
  8
0
  10
0.04834
  20
1.33368
  30
0
  11
0.03325
  21
1.3418
  31
0
  0
LINE
  8
0
  10
0.03325
  20
1.3418
  30
0
  11
0.01824
  21
1.35051
  31
0
  0
LINE
  8
0
  10
0.01824
  20
1.35051
  30
0
  11
0.00331
  21
1.35978
  31
0
  0
LINE
  8
0
  10
0.00331
  20
1.35978
  30
0
  11
0.00634
  21
1.39486
  31
0
  0
LINE
  8
0
  10
0.00634
  20
1.39486
  30
0
  11
0.02264
  21
1.40144
  31
0
  0
LINE
  8
0
  10
0.02264
  20
1.40144
  30
0
  11
0.03892
  21
1.40744
  31
0
  0
LINE
  8
0
  10
0.03892
  20
1.40744
  30
0
  11
0.05518
  21
1.41286
  31
0
  0
LINE
  8
0
  10
0.05518
  20
1.41286
  30
0
  11
0.07141
  21
1.41765
  31
0
  0
LINE
  8
0
  10
0.07141
  20
1.41765
  30
0
  11
0.08759
  21
1.4218
  31
0
  0
LINE
  8
0
  10
0.08759
  20
1.4218
  30
0
  11
0.10371
  21
1.42526
  31
0
  0
LINE
  8
0
  10
0.10371
  20
1.42526
  30
0
  11
0.11976
  21
1.42797
  31
0
  0
LINE
  8
0
  10
0.11976
  20
1.42797
  30
0
  11
0.1357
  21
1.42985
  31
0
  0
LINE
  8
0
  10
0.1357
  20
1.42985
  30
0
  11
0.14363
  21
1.43042
  31
0
  0
LINE
  8
0
  10
0.14363
  20
1.43042
  30
0
  11
0.15152
  21
1.43072
  31
0
  0
LINE
  8
0
  10
0.15152
  20
1.43072
  30
0
  11
0.15545
  21
1.43074
  31
0
  0
LINE
  8
0
  10
0.15545
  20
1.43074
  30
0
  11
0.15936
  21
1.43066
  31
0
  0
LINE
  8
0
  10
0.15936
  20
1.43066
  30
0
  11
0.16325
  21
1.43046
  31
0
  0
LINE
  8
0
  10
0.16325
  20
1.43046
  30
0
  11
0.17246
  21
1.46297
  31
0
  0
LINE
  8
0
  10
0.17246
  20
1.46297
  30
0
  11
0.17246
  21
1.46297
  31
0
  0
LINE
  8
0
  10
0.17246
  20
1.46297
  30
0
  11
0.17502
  21
1.49666
  31
0
  0
LINE
  8
0
  10
0.17502
  20
1.49666
  30
0
  11
0.17129
  21
1.49782
  31
0
  0
LINE
  8
0
  10
0.17129
  20
1.49782
  30
0
  11
0.1676
  21
1.49909
  31
0
  0
LINE
  8
0
  10
0.1676
  20
1.49909
  30
0
  11
0.16392
  21
1.50047
  31
0
  0
LINE
  8
0
  10
0.16392
  20
1.50047
  30
0
  11
0.15661
  21
1.50346
  31
0
  0
LINE
  8
0
  10
0.15661
  20
1.50346
  30
0
  11
0.14937
  21
1.50673
  31
0
  0
LINE
  8
0
  10
0.14937
  20
1.50673
  30
0
  11
0.13505
  21
1.51399
  31
0
  0
LINE
  8
0
  10
0.13505
  20
1.51399
  30
0
  11
0.12092
  21
1.52206
  31
0
  0
LINE
  8
0
  10
0.12092
  20
1.52206
  30
0
  11
0.10698
  21
1.53087
  31
0
  0
LINE
  8
0
  10
0.10698
  20
1.53087
  30
0
  11
0.09322
  21
1.54034
  31
0
  0
LINE
  8
0
  10
0.09322
  20
1.54034
  30
0
  11
0.07964
  21
1.55044
  31
0
  0
LINE
  8
0
  10
0.07964
  20
1.55044
  30
0
  11
0.06624
  21
1.56112
  31
0
  0
LINE
  8
0
  10
0.06624
  20
1.56112
  30
0
  11
0.05302
  21
1.57237
  31
0
  0
LINE
  8
0
  10
0.05302
  20
1.57237
  30
0
  11
0.03999
  21
1.58416
  31
0
  0
LINE
  8
0
  10
0.03999
  20
1.58416
  30
0
  11
0.04924
  21
1.61813
  31
0
  0
LINE
  8
0
  10
0.04924
  20
1.61813
  30
0
  11
0.06644
  21
1.6217
  31
0
  0
LINE
  8
0
  10
0.06644
  20
1.6217
  30
0
  11
0.08354
  21
1.6247
  31
0
  0
LINE
  8
0
  10
0.08354
  20
1.6247
  30
0
  11
0.10051
  21
1.62712
  31
0
  0
LINE
  8
0
  10
0.10051
  20
1.62712
  30
0
  11
0.11733
  21
1.62894
  31
0
  0
LINE
  8
0
  10
0.11733
  20
1.62894
  30
0
  11
0.13399
  21
1.63014
  31
0
  0
LINE
  8
0
  10
0.13399
  20
1.63014
  30
0
  11
0.15047
  21
1.63066
  31
0
  0
LINE
  8
0
  10
0.15047
  20
1.63066
  30
0
  11
0.16675
  21
1.63047
  31
0
  0
LINE
  8
0
  10
0.16675
  20
1.63047
  30
0
  11
0.18277
  21
1.62946
  31
0
  0
LINE
  8
0
  10
0.18277
  20
1.62946
  30
0
  11
0.19067
  21
1.62861
  31
0
  0
LINE
  8
0
  10
0.19067
  20
1.62861
  30
0
  11
0.19848
  21
1.62749
  31
0
  0
LINE
  8
0
  10
0.19848
  20
1.62749
  30
0
  11
0.20235
  21
1.62681
  31
0
  0
LINE
  8
0
  10
0.20235
  20
1.62681
  30
0
  11
0.20619
  21
1.62604
  31
0
  0
LINE
  8
0
  10
0.20619
  20
1.62604
  30
0
  11
0.20998
  21
1.62515
  31
0
  0
LINE
  8
0
  10
0.20998
  20
1.62515
  30
0
  11
0.22485
  21
1.65549
  31
0
  0
LINE
  8
0
  10
0.22485
  20
1.65549
  30
0
  11
0.22485
  21
1.65549
  31
0
  0
LINE
  8
0
  10
0.22485
  20
1.65549
  30
0
  11
0.23338
  21
1.68818
  31
0
  0
LINE
  8
0
  10
0.23338
  20
1.68818
  30
0
  11
0.22992
  21
1.68998
  31
0
  0
LINE
  8
0
  10
0.22992
  20
1.68998
  30
0
  11
0.22651
  21
1.6919
  31
0
  0
LINE
  8
0
  10
0.22651
  20
1.6919
  30
0
  11
0.22314
  21
1.69391
  31
0
  0
LINE
  8
0
  10
0.22314
  20
1.69391
  30
0
  11
0.21649
  21
1.69816
  31
0
  0
LINE
  8
0
  10
0.21649
  20
1.69816
  30
0
  11
0.20995
  21
1.70267
  31
0
  0
LINE
  8
0
  10
0.20995
  20
1.70267
  30
0
  11
0.19715
  21
1.71237
  31
0
  0
LINE
  8
0
  10
0.19715
  20
1.71237
  30
0
  11
0.18469
  21
1.72284
  31
0
  0
LINE
  8
0
  10
0.18469
  20
1.72284
  30
0
  11
0.17255
  21
1.73399
  31
0
  0
LINE
  8
0
  10
0.17255
  20
1.73399
  30
0
  11
0.1607
  21
1.74576
  31
0
  0
LINE
  8
0
  10
0.1607
  20
1.74576
  30
0
  11
0.14914
  21
1.75812
  31
0
  0
LINE
  8
0
  10
0.14914
  20
1.75812
  30
0
  11
0.13786
  21
1.77103
  31
0
  0
LINE
  8
0
  10
0.13786
  20
1.77103
  30
0
  11
0.12686
  21
1.78446
  31
0
  0
LINE
  8
0
  10
0.12686
  20
1.78446
  30
0
  11
0.11615
  21
1.79839
  31
0
  0
LINE
  8
0
  10
0.11615
  20
1.79839
  30
0
  11
0.13131
  21
1.83016
  31
0
  0
LINE
  8
0
  10
0.13131
  20
1.83016
  30
0
  11
0.14888
  21
1.8306
  31
0
  0
LINE
  8
0
  10
0.14888
  20
1.8306
  30
0
  11
0.16623
  21
1.8305
  31
0
  0
LINE
  8
0
  10
0.16623
  20
1.8305
  30
0
  11
0.18336
  21
1.82985
  31
0
  0
LINE
  8
0
  10
0.18336
  20
1.82985
  30
0
  11
0.20024
  21
1.82864
  31
0
  0
LINE
  8
0
  10
0.20024
  20
1.82864
  30
0
  11
0.21685
  21
1.82684
  31
0
  0
LINE
  8
0
  10
0.21685
  20
1.82684
  30
0
  11
0.23316
  21
1.82441
  31
0
  0
LINE
  8
0
  10
0.23316
  20
1.82441
  30
0
  11
0.24913
  21
1.82131
  31
0
  0
LINE
  8
0
  10
0.24913
  20
1.82131
  30
0
  11
0.26472
  21
1.81747
  31
0
  0
LINE
  8
0
  10
0.26472
  20
1.81747
  30
0
  11
0.27234
  21
1.81522
  31
0
  0
LINE
  8
0
  10
0.27234
  20
1.81522
  30
0
  11
0.27983
  21
1.81272
  31
0
  0
LINE
  8
0
  10
0.27983
  20
1.81272
  30
0
  11
0.28352
  21
1.81136
  31
0
  0
LINE
  8
0
  10
0.28352
  20
1.81136
  30
0
  11
0.28715
  21
1.80992
  31
0
  0
LINE
  8
0
  10
0.28715
  20
1.80992
  30
0
  11
0.29073
  21
1.80836
  31
0
  0
LINE
  8
0
  10
0.29073
  20
1.80836
  30
0
  11
0.31077
  21
1.83556
  31
0
  0
LINE
  8
0
  10
0.31077
  20
1.83556
  30
0
  11
0.31077
  21
1.83556
  31
0
  0
LINE
  8
0
  10
0.31077
  20
1.83556
  30
0
  11
0.32501
  21
1.86621
  31
0
  0
LINE
  8
0
  10
0.32501
  20
1.86621
  30
0
  11
0.32192
  21
1.86859
  31
0
  0
LINE
  8
0
  10
0.32192
  20
1.86859
  30
0
  11
0.31891
  21
1.87109
  31
0
  0
LINE
  8
0
  10
0.31891
  20
1.87109
  30
0
  11
0.31595
  21
1.87367
  31
0
  0
LINE
  8
0
  10
0.31595
  20
1.87367
  30
0
  11
0.31016
  21
1.87904
  31
0
  0
LINE
  8
0
  10
0.31016
  20
1.87904
  30
0
  11
0.30453
  21
1.88464
  31
0
  0
LINE
  8
0
  10
0.30453
  20
1.88464
  30
0
  11
0.29367
  21
1.89647
  31
0
  0
LINE
  8
0
  10
0.29367
  20
1.89647
  30
0
  11
0.28328
  21
1.90899
  31
0
  0
LINE
  8
0
  10
0.28328
  20
1.90899
  30
0
  11
0.27332
  21
1.92214
  31
0
  0
LINE
  8
0
  10
0.27332
  20
1.92214
  30
0
  11
0.26377
  21
1.93584
  31
0
  0
LINE
  8
0
  10
0.26377
  20
1.93584
  30
0
  11
0.2546
  21
1.95006
  31
0
  0
LINE
  8
0
  10
0.2546
  20
1.95006
  30
0
  11
0.24581
  21
1.96478
  31
0
  0
LINE
  8
0
  10
0.24581
  20
1.96478
  30
0
  11
0.23739
  21
1.97995
  31
0
  0
LINE
  8
0
  10
0.23739
  20
1.97995
  30
0
  11
0.22934
  21
1.99557
  31
0
  0
LINE
  8
0
  10
0.22934
  20
1.99557
  30
0
  11
0.24993
  21
2.02412
  31
0
  0
LINE
  8
0
  10
0.24993
  20
2.02412
  30
0
  11
0.26729
  21
2.02142
  31
0
  0
LINE
  8
0
  10
0.26729
  20
2.02142
  30
0
  11
0.28435
  21
2.01822
  31
0
  0
LINE
  8
0
  10
0.28435
  20
2.01822
  30
0
  11
0.30108
  21
2.01453
  31
0
  0
LINE
  8
0
  10
0.30108
  20
2.01453
  30
0
  11
0.31748
  21
2.01032
  31
0
  0
LINE
  8
0
  10
0.31748
  20
2.01032
  30
0
  11
0.3335
  21
2.00558
  31
0
  0
LINE
  8
0
  10
0.3335
  20
2.00558
  30
0
  11
0.34911
  21
2.00028
  31
0
  0
LINE
  8
0
  10
0.34911
  20
2.00028
  30
0
  11
0.36428
  21
1.99438
  31
0
  0
LINE
  8
0
  10
0.36428
  20
1.99438
  30
0
  11
0.37893
  21
1.98781
  31
0
  0
LINE
  8
0
  10
0.37893
  20
1.98781
  30
0
  11
0.38603
  21
1.98424
  31
0
  0
LINE
  8
0
  10
0.38603
  20
1.98424
  30
0
  11
0.39295
  21
1.98045
  31
0
  0
LINE
  8
0
  10
0.39295
  20
1.98045
  30
0
  11
0.39633
  21
1.97845
  31
0
  0
LINE
  8
0
  10
0.39633
  20
1.97845
  30
0
  11
0.39965
  21
1.97638
  31
0
  0
LINE
  8
0
  10
0.39965
  20
1.97638
  30
0
  11
0.40289
  21
1.97421
  31
0
  0
LINE
  8
0
  10
0.40289
  20
1.97421
  30
0
  11
0.42747
  21
1.9974
  31
0
  0
LINE
  8
0
  10
0.42747
  20
1.9974
  30
0
  11
0.42747
  21
1.9974
  31
0
  0
LINE
  8
0
  10
0.42747
  20
1.9974
  30
0
  11
0.44694
  21
2.02501
  31
0
  0
LINE
  8
0
  10
0.44694
  20
2.02501
  30
0
  11
0.44434
  21
2.02791
  31
0
  0
LINE
  8
0
  10
0.44434
  20
2.02791
  30
0
  11
0.44182
  21
2.0309
  31
0
  0
LINE
  8
0
  10
0.44182
  20
2.0309
  30
0
  11
0.43936
  21
2.03397
  31
0
  0
LINE
  8
0
  10
0.43936
  20
2.03397
  30
0
  11
0.43463
  21
2.04028
  31
0
  0
LINE
  8
0
  10
0.43463
  20
2.04028
  30
0
  11
0.43009
  21
2.0468
  31
0
  0
LINE
  8
0
  10
0.43009
  20
2.0468
  30
0
  11
0.42152
  21
2.06038
  31
0
  0
LINE
  8
0
  10
0.42152
  20
2.06038
  30
0
  11
0.41353
  21
2.07456
  31
0
  0
LINE
  8
0
  10
0.41353
  20
2.07456
  30
0
  11
0.40608
  21
2.08927
  31
0
  0
LINE
  8
0
  10
0.40608
  20
2.08927
  30
0
  11
0.39912
  21
2.10446
  31
0
  0
LINE
  8
0
  10
0.39912
  20
2.10446
  30
0
  11
0.39264
  21
2.12009
  31
0
  0
LINE
  8
0
  10
0.39264
  20
2.12009
  30
0
  11
0.38662
  21
2.13614
  31
0
  0
LINE
  8
0
  10
0.38662
  20
2.13614
  30
0
  11
0.38105
  21
2.15257
  31
0
  0
LINE
  8
0
  10
0.38105
  20
2.15257
  30
0
  11
0.37591
  21
2.16938
  31
0
  0
LINE
  8
0
  10
0.37591
  20
2.16938
  30
0
  11
0.40127
  21
2.19379
  31
0
  0
LINE
  8
0
  10
0.40127
  20
2.19379
  30
0
  11
0.41787
  21
2.18803
  31
0
  0
LINE
  8
0
  10
0.41787
  20
2.18803
  30
0
  11
0.43408
  21
2.18184
  31
0
  0
LINE
  8
0
  10
0.43408
  20
2.18184
  30
0
  11
0.44989
  21
2.17522
  31
0
  0
LINE
  8
0
  10
0.44989
  20
2.17522
  30
0
  11
0.46527
  21
2.16815
  31
0
  0
LINE
  8
0
  10
0.46527
  20
2.16815
  30
0
  11
0.48018
  21
2.16063
  31
0
  0
LINE
  8
0
  10
0.48018
  20
2.16063
  30
0
  11
0.4946
  21
2.15263
  31
0
  0
LINE
  8
0
  10
0.4946
  20
2.15263
  30
0
  11
0.50847
  21
2.14411
  31
0
  0
LINE
  8
0
  10
0.50847
  20
2.14411
  30
0
  11
0.52171
  21
2.13503
  31
0
  0
LINE
  8
0
  10
0.52171
  20
2.13503
  30
0
  11
0.52806
  21
2.13025
  31
0
  0
LINE
  8
0
  10
0.52806
  20
2.13025
  30
0
  11
0.53419
  21
2.12528
  31
0
  0
LINE
  8
0
  10
0.53419
  20
2.12528
  30
0
  11
0.53716
  21
2.12272
  31
0
  0
LINE
  8
0
  10
0.53716
  20
2.12272
  30
0
  11
0.54006
  21
2.12008
  31
0
  0
LINE
  8
0
  10
0.54006
  20
2.12008
  30
0
  11
0.54286
  21
2.11737
  31
0
  0
LINE
  8
0
  10
0.54286
  20
2.11737
  30
0
  11
0.57118
  21
2.1358
  31
0
  0
LINE
  8
0
  10
0.57118
  20
2.1358
  30
0
  11
0.57118
  21
2.1358
  31
0
  0
LINE
  8
0
  10
0.57118
  20
2.1358
  30
0
  11
0.59528
  21
2.15948
  31
0
  0
LINE
  8
0
  10
0.59528
  20
2.15948
  30
0
  11
0.59323
  21
2.1628
  31
0
  0
LINE
  8
0
  10
0.59323
  20
2.1628
  30
0
  11
0.59128
  21
2.1662
  31
0
  0
LINE
  8
0
  10
0.59128
  20
2.1662
  30
0
  11
0.58942
  21
2.16965
  31
0
  0
LINE
  8
0
  10
0.58942
  20
2.16965
  30
0
  11
0.58589
  21
2.17671
  31
0
  0
LINE
  8
0
  10
0.58589
  20
2.17671
  30
0
  11
0.58259
  21
2.18394
  31
0
  0
LINE
  8
0
  10
0.58259
  20
2.18394
  30
0
  11
0.57657
  21
2.19883
  31
0
  0
LINE
  8
0
  10
0.57657
  20
2.19883
  30
0
  11
0.57125
  21
2.2142
  31
0
  0
LINE
  8
0
  10
0.57125
  20
2.2142
  30
0
  11
0.56654
  21
2.23001
  31
0
  0
LINE
  8
0
  10
0.56654
  20
2.23001
  30
0
  11
0.56241
  21
2.24619
  31
0
  0
LINE
  8
0
  10
0.56241
  20
2.24619
  30
0
  11
0.55883
  21
2.26273
  31
0
  0
LINE
  8
0
  10
0.55883
  20
2.26273
  30
0
  11
0.55577
  21
2.2796
  31
0
  0
LINE
  8
0
  10
0.55577
  20
2.2796
  30
0
  11
0.55322
  21
2.29676
  31
0
  0
LINE
  8
0
  10
0.55322
  20
2.29676
  30
0
  11
0.55116
  21
2.31422
  31
0
  0
LINE
  8
0
  10
0.55116
  20
2.31422
  30
0
  11
0.58047
  21
2.33371
  31
0
  0
LINE
  8
0
  10
0.58047
  20
2.33371
  30
0
  11
0.59578
  21
2.32508
  31
0
  0
LINE
  8
0
  10
0.59578
  20
2.32508
  30
0
  11
0.61063
  21
2.31609
  31
0
  0
LINE
  8
0
  10
0.61063
  20
2.31609
  30
0
  11
0.625
  21
2.30675
  31
0
  0
LINE
  8
0
  10
0.625
  20
2.30675
  30
0
  11
0.63886
  21
2.29706
  31
0
  0
LINE
  8
0
  10
0.63886
  20
2.29706
  30
0
  11
0.6522
  21
2.28699
  31
0
  0
LINE
  8
0
  10
0.6522
  20
2.28699
  30
0
  11
0.66496
  21
2.27654
  31
0
  0
LINE
  8
0
  10
0.66496
  20
2.27654
  30
0
  11
0.67708
  21
2.26569
  31
0
  0
LINE
  8
0
  10
0.67708
  20
2.26569
  30
0
  11
0.68849
  21
2.25439
  31
0
  0
LINE
  8
0
  10
0.68849
  20
2.25439
  30
0
  11
0.69388
  21
2.24855
  31
0
  0
LINE
  8
0
  10
0.69388
  20
2.24855
  30
0
  11
0.69903
  21
2.24257
  31
0
  0
LINE
  8
0
  10
0.69903
  20
2.24257
  30
0
  11
0.70149
  21
2.23951
  31
0
  0
LINE
  8
0
  10
0.70149
  20
2.23951
  30
0
  11
0.70387
  21
2.23641
  31
0
  0
LINE
  8
0
  10
0.70387
  20
2.23641
  30
0
  11
0.70614
  21
2.23324
  31
0
  0
LINE
  8
0
  10
0.70614
  20
2.23324
  30
0
  11
0.7373
  21
2.24631
  31
0
  0
LINE
  8
0
  10
0.7373
  20
2.24631
  30
0
  11
0.7373
  21
2.24631
  31
0
  0
LINE
  8
0
  10
0.7373
  20
2.24631
  30
0
  11
0.76524
  21
2.26531
  31
0
  0
LINE
  8
0
  10
0.76524
  20
2.26531
  30
0
  11
0.76382
  21
2.26894
  31
0
  0
LINE
  8
0
  10
0.76382
  20
2.26894
  30
0
  11
0.76251
  21
2.27263
  31
0
  0
LINE
  8
0
  10
0.76251
  20
2.27263
  30
0
  11
0.76129
  21
2.27636
  31
0
  0
LINE
  8
0
  10
0.76129
  20
2.27636
  30
0
  11
0.75908
  21
2.28394
  31
0
  0
LINE
  8
0
  10
0.75908
  20
2.28394
  30
0
  11
0.75712
  21
2.29164
  31
0
  0
LINE
  8
0
  10
0.75712
  20
2.29164
  30
0
  11
0.75386
  21
2.30736
  31
0
  0
LINE
  8
0
  10
0.75386
  20
2.30736
  30
0
  11
0.75137
  21
2.32344
  31
0
  0
LINE
  8
0
  10
0.75137
  20
2.32344
  30
0
  11
0.74956
  21
2.33983
  31
0
  0
LINE
  8
0
  10
0.74956
  20
2.33983
  30
0
  11
0.74838
  21
2.3565
  31
0
  0
LINE
  8
0
  10
0.74838
  20
2.3565
  30
0
  11
0.74781
  21
2.37341
  31
0
  0
LINE
  8
0
  10
0.74781
  20
2.37341
  30
0
  11
0.74781
  21
2.39055
  31
0
  0
LINE
  8
0
  10
0.74781
  20
2.39055
  30
0
  11
0.74837
  21
2.4079
  31
0
  0
LINE
  8
0
  10
0.74837
  20
2.4079
  30
0
  11
0.74946
  21
2.42544
  31
0
  0
LINE
  8
0
  10
0.74946
  20
2.42544
  30
0
  11
0.78178
  21
2.43939
  31
0
  0
LINE
  8
0
  10
0.78178
  20
2.43939
  30
0
  11
0.7953
  21
2.42816
  31
0
  0
LINE
  8
0
  10
0.7953
  20
2.42816
  30
0
  11
0.8083
  21
2.41666
  31
0
  0
LINE
  8
0
  10
0.8083
  20
2.41666
  30
0
  11
0.82078
  21
2.40491
  31
0
  0
LINE
  8
0
  10
0.82078
  20
2.40491
  30
0
  11
0.83269
  21
2.39289
  31
0
  0
LINE
  8
0
  10
0.83269
  20
2.39289
  30
0
  11
0.84401
  21
2.38061
  31
0
  0
LINE
  8
0
  10
0.84401
  20
2.38061
  30
0
  11
0.8547
  21
2.36805
  31
0
  0
LINE
  8
0
  10
0.8547
  20
2.36805
  30
0
  11
0.86469
  21
2.35521
  31
0
  0
LINE
  8
0
  10
0.86469
  20
2.35521
  30
0
  11
0.8739
  21
2.34205
  31
0
  0
LINE
  8
0
  10
0.8739
  20
2.34205
  30
0
  11
0.87816
  21
2.33535
  31
0
  0
LINE
  8
0
  10
0.87816
  20
2.33535
  30
0
  11
0.88216
  21
2.32854
  31
0
  0
LINE
  8
0
  10
0.88216
  20
2.32854
  30
0
  11
0.88404
  21
2.32509
  31
0
  0
LINE
  8
0
  10
0.88404
  20
2.32509
  30
0
  11
0.88582
  21
2.32161
  31
0
  0
LINE
  8
0
  10
0.88582
  20
2.32161
  30
0
  11
0.88749
  21
2.31808
  31
0
  0
LINE
  8
0
  10
0.88749
  20
2.31808
  30
0
  11
0.92048
  21
2.32538
  31
0
  0
LINE
  8
0
  10
0.92048
  20
2.32538
  30
0
  11
0.92048
  21
2.32538
  31
0
  0
LINE
  8
0
  10
0.92048
  20
2.32538
  30
0
  11
0.95137
  21
2.33909
  31
0
  0
LINE
  8
0
  10
0.95137
  20
2.33909
  30
0
  11
0.95061
  21
2.34292
  31
0
  0
LINE
  8
0
  10
0.95061
  20
2.34292
  30
0
  11
0.94999
  21
2.34678
  31
0
  0
LINE
  8
0
  10
0.94999
  20
2.34678
  30
0
  11
0.94945
  21
2.35067
  31
0
  0
LINE
  8
0
  10
0.94945
  20
2.35067
  30
0
  11
0.94863
  21
2.35852
  31
0
  0
LINE
  8
0
  10
0.94863
  20
2.35852
  30
0
  11
0.94808
  21
2.36645
  31
0
  0
LINE
  8
0
  10
0.94808
  20
2.36645
  30
0
  11
0.94768
  21
2.3825
  31
0
  0
LINE
  8
0
  10
0.94768
  20
2.3825
  30
0
  11
0.9481
  21
2.39877
  31
0
  0
LINE
  8
0
  10
0.9481
  20
2.39877
  30
0
  11
0.94924
  21
2.41522
  31
0
  0
LINE
  8
0
  10
0.94924
  20
2.41522
  30
0
  11
0.95106
  21
2.43182
  31
0
  0
LINE
  8
0
  10
0.95106
  20
2.43182
  30
0
  11
0.95352
  21
2.44857
  31
0
  0
LINE
  8
0
  10
0.95352
  20
2.44857
  30
0
  11
0.95658
  21
2.46543
  31
0
  0
LINE
  8
0
  10
0.95658
  20
2.46543
  30
0
  11
0.96022
  21
2.4824
  31
0
  0
LINE
  8
0
  10
0.96022
  20
2.4824
  30
0
  11
0.96443
  21
2.49946
  31
0
  0
LINE
  8
0
  10
0.96443
  20
2.49946
  30
0
  11
0.99872
  21
2.50742
  31
0
  0
LINE
  8
0
  10
0.99872
  20
2.50742
  30
0
  11
1.01002
  21
2.49395
  31
0
  0
LINE
  8
0
  10
1.01002
  20
2.49395
  30
0
  11
1.02076
  21
2.48032
  31
0
  0
LINE
  8
0
  10
1.02076
  20
2.48032
  30
0
  11
1.03094
  21
2.46653
  31
0
  0
LINE
  8
0
  10
1.03094
  20
2.46653
  30
0
  11
1.04051
  21
2.45258
  31
0
  0
LINE
  8
0
  10
1.04051
  20
2.45258
  30
0
  11
1.04946
  21
2.43847
  31
0
  0
LINE
  8
0
  10
1.04946
  20
2.43847
  30
0
  11
1.05773
  21
2.4242
  31
0
  0
LINE
  8
0
  10
1.05773
  20
2.4242
  30
0
  11
1.06527
  21
2.40978
  31
0
  0
LINE
  8
0
  10
1.06527
  20
2.40978
  30
0
  11
1.07198
  21
2.3952
  31
0
  0
LINE
  8
0
  10
1.07198
  20
2.3952
  30
0
  11
1.07498
  21
2.38784
  31
0
  0
LINE
  8
0
  10
1.07498
  20
2.38784
  30
0
  11
1.07769
  21
2.38043
  31
0
  0
LINE
  8
0
  10
1.07769
  20
2.38043
  30
0
  11
1.07893
  21
2.3767
  31
0
  0
LINE
  8
0
  10
1.07893
  20
2.3767
  30
0
  11
1.08006
  21
2.37295
  31
0
  0
LINE
  8
0
  10
1.08006
  20
2.37295
  30
0
  11
1.08107
  21
2.36919
  31
0
  0
LINE
  8
0
  10
1.08107
  20
2.36919
  30
0
  11
1.11484
  21
2.37048
  31
0
  0
LINE
  8
0
  10
1.11484
  20
2.37048
  30
0
  11
1.11484
  21
2.37048
  31
0
  0
LINE
  8
0
  10
1.11484
  20
2.37048
  30
0
  11
1.14767
  21
2.37845
  31
0
  0
LINE
  8
0
  10
1.14767
  20
2.37845
  30
0
  11
1.14762
  21
2.38235
  31
0
  0
LINE
  8
0
  10
1.14762
  20
2.38235
  30
0
  11
1.14769
  21
2.38626
  31
0
  0
LINE
  8
0
  10
1.14769
  20
2.38626
  30
0
  11
1.14786
  21
2.39019
  31
0
  0
LINE
  8
0
  10
1.14786
  20
2.39019
  30
0
  11
1.14845
  21
2.39806
  31
0
  0
LINE
  8
0
  10
1.14845
  20
2.39806
  30
0
  11
1.14932
  21
2.40596
  31
0
  0
LINE
  8
0
  10
1.14932
  20
2.40596
  30
0
  11
1.1518
  21
2.42182
  31
0
  0
LINE
  8
0
  10
1.1518
  20
2.42182
  30
0
  11
1.15511
  21
2.43775
  31
0
  0
LINE
  8
0
  10
1.15511
  20
2.43775
  30
0
  11
1.15918
  21
2.45373
  31
0
  0
LINE
  8
0
  10
1.15918
  20
2.45373
  30
0
  11
1.16393
  21
2.46975
  31
0
  0
LINE
  8
0
  10
1.16393
  20
2.46975
  30
0
  11
1.16934
  21
2.48578
  31
0
  0
LINE
  8
0
  10
1.16934
  20
2.48578
  30
0
  11
1.17536
  21
2.50183
  31
0
  0
LINE
  8
0
  10
1.17536
  20
2.50183
  30
0
  11
1.18198
  21
2.51788
  31
0
  0
LINE
  8
0
  10
1.18198
  20
2.51788
  30
0
  11
1.18917
  21
2.53391
  31
0
  0
LINE
  8
0
  10
1.18917
  20
2.53391
  30
0
  11
1.22433
  21
2.53562
  31
0
  0
LINE
  8
0
  10
1.22433
  20
2.53562
  30
0
  11
1.23304
  21
2.52035
  31
0
  0
LINE
  8
0
  10
1.23304
  20
2.52035
  30
0
  11
1.24117
  21
2.50502
  31
0
  0
LINE
  8
0
  10
1.24117
  20
2.50502
  30
0
  11
1.24872
  21
2.48963
  31
0
  0
LINE
  8
0
  10
1.24872
  20
2.48963
  30
0
  11
1.25565
  21
2.4742
  31
0
  0
LINE
  8
0
  10
1.25565
  20
2.4742
  30
0
  11
1.26194
  21
2.45872
  31
0
  0
LINE
  8
0
  10
1.26194
  20
2.45872
  30
0
  11
1.26753
  21
2.44321
  31
0
  0
LINE
  8
0
  10
1.26753
  20
2.44321
  30
0
  11
1.27237
  21
2.42767
  31
0
  0
LINE
  8
0
  10
1.27237
  20
2.42767
  30
0
  11
1.27637
  21
2.41212
  31
0
  0
LINE
  8
0
  10
1.27637
  20
2.41212
  30
0
  11
1.278
  21
2.40434
  31
0
  0
LINE
  8
0
  10
1.278
  20
2.40434
  30
0
  11
1.27935
  21
2.39657
  31
0
  0
LINE
  8
0
  10
1.27935
  20
2.39657
  30
0
  11
1.2799
  21
2.39268
  31
0
  0
LINE
  8
0
  10
1.2799
  20
2.39268
  30
0
  11
1.28035
  21
2.38879
  31
0
  0
LINE
  8
0
  10
1.28035
  20
2.38879
  30
0
  11
1.28067
  21
2.38491
  31
0
  0
LINE
  8
0
  10
1.28067
  20
2.38491
  30
0
  11
1.31413
  21
2.38014
  31
0
  0
LINE
  8
0
  10
1.31413
  20
2.38014
  30
0
  11
1.31413
  21
2.38014
  31
0
  0
LINE
  8
0
  10
1.31413
  20
2.38014
  30
0
  11
1.34786
  21
2.38213
  31
0
  0
LINE
  8
0
  10
1.34786
  20
2.38213
  30
0
  11
1.3485
  21
2.38598
  31
0
  0
LINE
  8
0
  10
1.3485
  20
2.38598
  30
0
  11
1.34927
  21
2.38981
  31
0
  0
LINE
  8
0
  10
1.34927
  20
2.38981
  30
0
  11
1.35013
  21
2.39364
  31
0
  0
LINE
  8
0
  10
1.35013
  20
2.39364
  30
0
  11
1.35212
  21
2.40128
  31
0
  0
LINE
  8
0
  10
1.35212
  20
2.40128
  30
0
  11
1.35439
  21
2.4089
  31
0
  0
LINE
  8
0
  10
1.35439
  20
2.4089
  30
0
  11
1.35966
  21
2.42406
  31
0
  0
LINE
  8
0
  10
1.35966
  20
2.42406
  30
0
  11
1.36576
  21
2.43915
  31
0
  0
LINE
  8
0
  10
1.36576
  20
2.43915
  30
0
  11
1.37262
  21
2.45414
  31
0
  0
LINE
  8
0
  10
1.37262
  20
2.45414
  30
0
  11
1.38016
  21
2.46905
  31
0
  0
LINE
  8
0
  10
1.38016
  20
2.46905
  30
0
  11
1.38834
  21
2.48387
  31
0
  0
LINE
  8
0
  10
1.38834
  20
2.48387
  30
0
  11
1.39713
  21
2.49858
  31
0
  0
LINE
  8
0
  10
1.39713
  20
2.49858
  30
0
  11
1.4065
  21
2.51319
  31
0
  0
LINE
  8
0
  10
1.4065
  20
2.51319
  30
0
  11
1.41644
  21
2.52768
  31
0
  0
LINE
  8
0
  10
1.41644
  20
2.52768
  30
0
  11
1.45134
  21
2.52308
  31
0
  0
LINE
  8
0
  10
1.45134
  20
2.52308
  30
0
  11
1.45718
  21
2.50651
  31
0
  0
LINE
  8
0
  10
1.45718
  20
2.50651
  30
0
  11
1.46245
  21
2.48997
  31
0
  0
LINE
  8
0
  10
1.46245
  20
2.48997
  30
0
  11
1.46713
  21
2.47348
  31
0
  0
LINE
  8
0
  10
1.46713
  20
2.47348
  30
0
  11
1.47119
  21
2.45705
  31
0
  0
LINE
  8
0
  10
1.47119
  20
2.45705
  30
0
  11
1.47461
  21
2.4407
  31
0
  0
LINE
  8
0
  10
1.47461
  20
2.4407
  30
0
  11
1.47735
  21
2.42444
  31
0
  0
LINE
  8
0
  10
1.47735
  20
2.42444
  30
0
  11
1.47934
  21
2.40829
  31
0
  0
LINE
  8
0
  10
1.47934
  20
2.40829
  30
0
  11
1.48049
  21
2.39228
  31
0
  0
LINE
  8
0
  10
1.48049
  20
2.39228
  30
0
  11
1.48071
  21
2.38433
  31
0
  0
LINE
  8
0
  10
1.48071
  20
2.38433
  30
0
  11
1.48065
  21
2.37644
  31
0
  0
LINE
  8
0
  10
1.48065
  20
2.37644
  30
0
  11
1.4805
  21
2.37252
  31
0
  0
LINE
  8
0
  10
1.4805
  20
2.37252
  30
0
  11
1.48025
  21
2.36861
  31
0
  0
LINE
  8
0
  10
1.48025
  20
2.36861
  30
0
  11
1.47987
  21
2.36473
  31
0
  0
LINE
  8
0
  10
1.47987
  20
2.36473
  30
0
  11
1.51193
  21
2.35407
  31
0
  0
LINE
  8
0
  10
1.51193
  20
2.35407
  30
0
  11
1.51193
  21
2.35407
  31
0
  0
LINE
  8
0
  10
1.51193
  20
2.35407
  30
0
  11
1.54548
  21
2.35
  31
0
  0
LINE
  8
0
  10
1.54548
  20
2.35
  30
0
  11
1.5468
  21
2.35367
  31
0
  0
LINE
  8
0
  10
1.5468
  20
2.35367
  30
0
  11
1.54824
  21
2.35731
  31
0
  0
LINE
  8
0
  10
1.54824
  20
2.35731
  30
0
  11
1.54977
  21
2.36092
  31
0
  0
LINE
  8
0
  10
1.54977
  20
2.36092
  30
0
  11
1.55309
  21
2.36808
  31
0
  0
LINE
  8
0
  10
1.55309
  20
2.36808
  30
0
  11
1.55669
  21
2.37517
  31
0
  0
LINE
  8
0
  10
1.55669
  20
2.37517
  30
0
  11
1.56458
  21
2.38916
  31
0
  0
LINE
  8
0
  10
1.56458
  20
2.38916
  30
0
  11
1.57328
  21
2.40291
  31
0
  0
LINE
  8
0
  10
1.57328
  20
2.40291
  30
0
  11
1.5827
  21
2.41644
  31
0
  0
LINE
  8
0
  10
1.5827
  20
2.41644
  30
0
  11
1.59278
  21
2.42976
  31
0
  0
LINE
  8
0
  10
1.59278
  20
2.42976
  30
0
  11
1.60348
  21
2.44288
  31
0
  0
LINE
  8
0
  10
1.60348
  20
2.44288
  30
0
  11
1.61475
  21
2.45578
  31
0
  0
LINE
  8
0
  10
1.61475
  20
2.45578
  30
0
  11
1.62658
  21
2.46848
  31
0
  0
LINE
  8
0
  10
1.62658
  20
2.46848
  30
0
  11
1.63895
  21
2.48097
  31
0
  0
LINE
  8
0
  10
1.63895
  20
2.48097
  30
0
  11
1.67247
  21
2.47021
  31
0
  0
LINE
  8
0
  10
1.67247
  20
2.47021
  30
0
  11
1.67526
  21
2.45286
  31
0
  0
LINE
  8
0
  10
1.67526
  20
2.45286
  30
0
  11
1.67749
  21
2.43565
  31
0
  0
LINE
  8
0
  10
1.67749
  20
2.43565
  30
0
  11
1.67915
  21
2.41859
  31
0
  0
LINE
  8
0
  10
1.67915
  20
2.41859
  30
0
  11
1.68021
  21
2.4017
  31
0
  0
LINE
  8
0
  10
1.68021
  20
2.4017
  30
0
  11
1.68066
  21
2.385
  31
0
  0
LINE
  8
0
  10
1.68066
  20
2.385
  30
0
  11
1.68044
  21
2.36851
  31
0
  0
LINE
  8
0
  10
1.68044
  20
2.36851
  30
0
  11
1.67952
  21
2.35227
  31
0
  0
LINE
  8
0
  10
1.67952
  20
2.35227
  30
0
  11
1.6778
  21
2.3363
  31
0
  0
LINE
  8
0
  10
1.6778
  20
2.3363
  30
0
  11
1.67659
  21
2.32845
  31
0
  0
LINE
  8
0
  10
1.67659
  20
2.32845
  30
0
  11
1.67512
  21
2.32069
  31
0
  0
LINE
  8
0
  10
1.67512
  20
2.32069
  30
0
  11
1.67427
  21
2.31686
  31
0
  0
LINE
  8
0
  10
1.67427
  20
2.31686
  30
0
  11
1.67333
  21
2.31306
  31
0
  0
LINE
  8
0
  10
1.67333
  20
2.31306
  30
0
  11
1.67226
  21
2.30931
  31
0
  0
LINE
  8
0
  10
1.67226
  20
2.30931
  30
0
  11
1.70191
  21
2.2931
  31
0
  0
LINE
  8
0
  10
1.70191
  20
2.2931
  30
0
  11
1.70191
  21
2.2931
  31
0
  0
LINE
  8
0
  10
1.70191
  20
2.2931
  30
0
  11
1.73419
  21
2.2831
  31
0
  0
LINE
  8
0
  10
1.73419
  20
2.2831
  30
0
  11
1.73614
  21
2.28648
  31
0
  0
LINE
  8
0
  10
1.73614
  20
2.28648
  30
0
  11
1.73821
  21
2.2898
  31
0
  0
LINE
  8
0
  10
1.73821
  20
2.2898
  30
0
  11
1.74037
  21
2.29308
  31
0
  0
LINE
  8
0
  10
1.74037
  20
2.29308
  30
0
  11
1.74491
  21
2.29954
  31
0
  0
LINE
  8
0
  10
1.74491
  20
2.29954
  30
0
  11
1.74971
  21
2.30587
  31
0
  0
LINE
  8
0
  10
1.74971
  20
2.30587
  30
0
  11
1.75997
  21
2.31822
  31
0
  0
LINE
  8
0
  10
1.75997
  20
2.31822
  30
0
  11
1.77099
  21
2.33019
  31
0
  0
LINE
  8
0
  10
1.77099
  20
2.33019
  30
0
  11
1.78267
  21
2.34183
  31
0
  0
LINE
  8
0
  10
1.78267
  20
2.34183
  30
0
  11
1.79497
  21
2.35314
  31
0
  0
LINE
  8
0
  10
1.79497
  20
2.35314
  30
0
  11
1.80784
  21
2.36413
  31
0
  0
LINE
  8
0
  10
1.80784
  20
2.36413
  30
0
  11
1.82124
  21
2.37482
  31
0
  0
LINE
  8
0
  10
1.82124
  20
2.37482
  30
0
  11
1.83514
  21
2.3852
  31
0
  0
LINE
  8
0
  10
1.83514
  20
2.3852
  30
0
  11
1.84954
  21
2.39527
  31
0
  0
LINE
  8
0
  10
1.84954
  20
2.39527
  30
0
  11
1.8806
  21
2.3787
  31
0
  0
LINE
  8
0
  10
1.8806
  20
2.3787
  30
0
  11
1.88025
  21
2.36114
  31
0
  0
LINE
  8
0
  10
1.88025
  20
2.36114
  30
0
  11
1.87937
  21
2.3438
  31
0
  0
LINE
  8
0
  10
1.87937
  20
2.3438
  30
0
  11
1.87796
  21
2.32672
  31
0
  0
LINE
  8
0
  10
1.87796
  20
2.32672
  30
0
  11
1.87599
  21
2.30991
  31
0
  0
LINE
  8
0
  10
1.87599
  20
2.30991
  30
0
  11
1.87344
  21
2.2934
  31
0
  0
LINE
  8
0
  10
1.87344
  20
2.2934
  30
0
  11
1.87029
  21
2.27722
  31
0
  0
LINE
  8
0
  10
1.87029
  20
2.27722
  30
0
  11
1.86648
  21
2.2614
  31
0
  0
LINE
  8
0
  10
1.86648
  20
2.2614
  30
0
  11
1.86193
  21
2.246
  31
0
  0
LINE
  8
0
  10
1.86193
  20
2.246
  30
0
  11
1.85935
  21
2.23848
  31
0
  0
LINE
  8
0
  10
1.85935
  20
2.23848
  30
0
  11
1.85652
  21
2.23112
  31
0
  0
LINE
  8
0
  10
1.85652
  20
2.23112
  30
0
  11
1.85499
  21
2.2275
  31
0
  0
LINE
  8
0
  10
1.85499
  20
2.2275
  30
0
  11
1.85339
  21
2.22393
  31
0
  0
LINE
  8
0
  10
1.85339
  20
2.22393
  30
0
  11
1.85167
  21
2.22043
  31
0
  0
LINE
  8
0
  10
1.85167
  20
2.22043
  30
0
  11
1.87794
  21
2.19918
  31
0
  0
LINE
  8
0
  10
1.87794
  20
2.19918
  30
0
  11
1.87794
  21
2.19918
  31
0
  0
LINE
  8
0
  10
1.87794
  20
2.19918
  30
0
  11
1.90792
  21
2.18359
  31
0
  0
LINE
  8
0
  10
1.90792
  20
2.18359
  30
0
  11
1.91044
  21
2.18656
  31
0
  0
LINE
  8
0
  10
1.91044
  20
2.18656
  30
0
  11
1.91307
  21
2.18946
  31
0
  0
LINE
  8
0
  10
1.91307
  20
2.18946
  30
0
  11
1.91578
  21
2.1923
  31
0
  0
LINE
  8
0
  10
1.91578
  20
2.1923
  30
0
  11
1.9214
  21
2.19784
  31
0
  0
LINE
  8
0
  10
1.9214
  20
2.19784
  30
0
  11
1.92726
  21
2.20321
  31
0
  0
LINE
  8
0
  10
1.92726
  20
2.20321
  30
0
  11
1.93956
  21
2.21353
  31
0
  0
LINE
  8
0
  10
1.93956
  20
2.21353
  30
0
  11
1.95254
  21
2.22335
  31
0
  0
LINE
  8
0
  10
1.95254
  20
2.22335
  30
0
  11
1.96611
  21
2.23271
  31
0
  0
LINE
  8
0
  10
1.96611
  20
2.23271
  30
0
  11
1.98023
  21
2.24164
  31
0
  0
LINE
  8
0
  10
1.98023
  20
2.24164
  30
0
  11
1.99485
  21
2.25016
  31
0
  0
LINE
  8
0
  10
1.99485
  20
2.25016
  30
0
  11
2.00994
  21
2.25828
  31
0
  0
LINE
  8
0
  10
2.00994
  20
2.25828
  30
0
  11
2.02548
  21
2.26601
  31
0
  0
LINE
  8
0
  10
2.02548
  20
2.26601
  30
0
  11
2.04145
  21
2.27336
  31
0
  0
LINE
  8
0
  10
2.04145
  20
2.27336
  30
0
  11
2.06905
  21
2.25151
  31
0
  0
LINE
  8
0
  10
2.06905
  20
2.25151
  30
0
  11
2.06556
  21
2.23428
  31
0
  0
LINE
  8
0
  10
2.06556
  20
2.23428
  30
0
  11
2.06161
  21
2.21739
  31
0
  0
LINE
  8
0
  10
2.06161
  20
2.21739
  30
0
  11
2.05717
  21
2.20083
  31
0
  0
LINE
  8
0
  10
2.05717
  20
2.20083
  30
0
  11
2.05223
  21
2.18465
  31
0
  0
LINE
  8
0
  10
2.05223
  20
2.18465
  30
0
  11
2.04677
  21
2.16885
  31
0
  0
LINE
  8
0
  10
2.04677
  20
2.16885
  30
0
  11
2.04078
  21
2.15349
  31
0
  0
LINE
  8
0
  10
2.04078
  20
2.15349
  30
0
  11
2.03421
  21
2.13861
  31
0
  0
LINE
  8
0
  10
2.03421
  20
2.13861
  30
0
  11
2.02699
  21
2.12427
  31
0
  0
LINE
  8
0
  10
2.02699
  20
2.12427
  30
0
  11
2.0231
  21
2.11733
  31
0
  0
LINE
  8
0
  10
2.0231
  20
2.11733
  30
0
  11
2.019
  21
2.11059
  31
0
  0
LINE
  8
0
  10
2.019
  20
2.11059
  30
0
  11
2.01686
  21
2.1073
  31
0
  0
LINE
  8
0
  10
2.01686
  20
2.1073
  30
0
  11
2.01464
  21
2.10408
  31
0
  0
LINE
  8
0
  10
2.01464
  20
2.10408
  30
0
  11
2.01232
  21
2.10094
  31
0
  0
LINE
  8
0
  10
2.01232
  20
2.10094
  30
0
  11
2.03438
  21
2.07535
  31
0
  0
LINE
  8
0
  10
2.03438
  20
2.07535
  30
0
  11
2.03438
  21
2.07535
  31
0
  0
LINE
  8
0
  10
2.03438
  20
2.07535
  30
0
  11
2.06109
  21
2.05465
  31
0
  0
LINE
  8
0
  10
2.06109
  20
2.05465
  30
0
  11
2.0641
  21
2.05712
  31
0
  0
LINE
  8
0
  10
2.0641
  20
2.05712
  30
0
  11
2.06721
  21
2.05951
  31
0
  0
LINE
  8
0
  10
2.06721
  20
2.05951
  30
0
  11
2.07038
  21
2.06182
  31
0
  0
LINE
  8
0
  10
2.07038
  20
2.06182
  30
0
  11
2.0769
  21
2.06627
  31
0
  0
LINE
  8
0
  10
2.0769
  20
2.06627
  30
0
  11
2.08362
  21
2.07051
  31
0
  0
LINE
  8
0
  10
2.08362
  20
2.07051
  30
0
  11
2.09757
  21
2.07846
  31
0
  0
LINE
  8
0
  10
2.09757
  20
2.07846
  30
0
  11
2.11209
  21
2.0858
  31
0
  0
LINE
  8
0
  10
2.11209
  20
2.0858
  30
0
  11
2.12712
  21
2.09259
  31
0
  0
LINE
  8
0
  10
2.12712
  20
2.09259
  30
0
  11
2.1426
  21
2.09886
  31
0
  0
LINE
  8
0
  10
2.1426
  20
2.09886
  30
0
  11
2.15851
  21
2.10463
  31
0
  0
LINE
  8
0
  10
2.15851
  20
2.10463
  30
0
  11
2.17481
  21
2.10992
  31
0
  0
LINE
  8
0
  10
2.17481
  20
2.10992
  30
0
  11
2.19148
  21
2.11476
  31
0
  0
LINE
  8
0
  10
2.19148
  20
2.11476
  30
0
  11
2.2085
  21
2.11913
  31
0
  0
LINE
  8
0
  10
2.2085
  20
2.11913
  30
0
  11
2.23176
  21
2.09271
  31
0
  0
LINE
  8
0
  10
2.23176
  20
2.09271
  30
0
  11
2.22525
  21
2.07638
  31
0
  0
LINE
  8
0
  10
2.22525
  20
2.07638
  30
0
  11
2.21834
  21
2.06046
  31
0
  0
LINE
  8
0
  10
2.21834
  20
2.06046
  30
0
  11
2.21102
  21
2.04497
  31
0
  0
LINE
  8
0
  10
2.21102
  20
2.04497
  30
0
  11
2.20327
  21
2.02992
  31
0
  0
LINE
  8
0
  10
2.20327
  20
2.02992
  30
0
  11
2.19508
  21
2.01536
  31
0
  0
LINE
  8
0
  10
2.19508
  20
2.01536
  30
0
  11
2.18644
  21
2.00131
  31
0
  0
LINE
  8
0
  10
2.18644
  20
2.00131
  30
0
  11
2.17732
  21
1.98784
  31
0
  0
LINE
  8
0
  10
2.17732
  20
1.98784
  30
0
  11
2.16765
  21
1.97502
  31
0
  0
LINE
  8
0
  10
2.16765
  20
1.97502
  30
0
  11
2.16259
  21
1.96889
  31
0
  0
LINE
  8
0
  10
2.16259
  20
1.96889
  30
0
  11
2.15735
  21
1.96299
  31
0
  0
LINE
  8
0
  10
2.15735
  20
1.96299
  30
0
  11
2.15465
  21
1.96014
  31
0
  0
LINE
  8
0
  10
2.15465
  20
1.96014
  30
0
  11
2.15189
  21
1.95736
  31
0
  0
LINE
  8
0
  10
2.15189
  20
1.95736
  30
0
  11
2.14906
  21
1.95469
  31
0
  0
LINE
  8
0
  10
2.14906
  20
1.95469
  30
0
  11
2.16619
  21
1.92557
  31
0
  0
LINE
  8
0
  10
2.16619
  20
1.92557
  30
0
  11
2.16619
  21
1.92557
  31
0
  0
LINE
  8
0
  10
2.16619
  20
1.92557
  30
0
  11
2.18878
  21
1.90043
  31
0
  0
LINE
  8
0
  10
2.18878
  20
1.90043
  30
0
  11
2.19218
  21
1.90233
  31
0
  0
LINE
  8
0
  10
2.19218
  20
1.90233
  30
0
  11
2.19566
  21
1.90412
  31
0
  0
LINE
  8
0
  10
2.19566
  20
1.90412
  30
0
  11
2.1992
  21
1.90583
  31
0
  0
LINE
  8
0
  10
2.1992
  20
1.90583
  30
0
  11
2.20641
  21
1.90904
  31
0
  0
LINE
  8
0
  10
2.20641
  20
1.90904
  30
0
  11
2.21378
  21
1.91201
  31
0
  0
LINE
  8
0
  10
2.21378
  20
1.91201
  30
0
  11
2.22892
  21
1.91735
  31
0
  0
LINE
  8
0
  10
2.22892
  20
1.91735
  30
0
  11
2.24452
  21
1.92198
  31
0
  0
LINE
  8
0
  10
2.24452
  20
1.92198
  30
0
  11
2.26052
  21
1.92597
  31
0
  0
LINE
  8
0
  10
2.26052
  20
1.92597
  30
0
  11
2.27687
  21
1.92937
  31
0
  0
LINE
  8
0
  10
2.27687
  20
1.92937
  30
0
  11
2.29356
  21
1.93221
  31
0
  0
LINE
  8
0
  10
2.29356
  20
1.93221
  30
0
  11
2.31054
  21
1.93451
  31
0
  0
LINE
  8
0
  10
2.31054
  20
1.93451
  30
0
  11
2.32781
  21
1.93629
  31
0
  0
LINE
  8
0
  10
2.32781
  20
1.93629
  30
0
  11
2.34533
  21
1.93756
  31
0
  0
LINE
  8
0
  10
2.34533
  20
1.93756
  30
0
  11
2.36349
  21
1.9074
  31
0
  0
LINE
  8
0
  10
2.36349
  20
1.9074
  30
0
  11
2.35418
  21
1.8925
  31
0
  0
LINE
  8
0
  10
2.35418
  20
1.8925
  30
0
  11
2.34454
  21
1.87807
  31
0
  0
LINE
  8
0
  10
2.34454
  20
1.87807
  30
0
  11
2.33456
  21
1.86413
  31
0
  0
LINE
  8
0
  10
2.33456
  20
1.86413
  30
0
  11
2.32425
  21
1.85072
  31
0
  0
LINE
  8
0
  10
2.32425
  20
1.85072
  30
0
  11
2.3136
  21
1.83785
  31
0
  0
LINE
  8
0
  10
2.3136
  20
1.83785
  30
0
  11
2.30259
  21
1.82557
  31
0
  0
LINE
  8
0
  10
2.30259
  20
1.82557
  30
0
  11
2.2912
  21
1.81395
  31
0
  0
LINE
  8
0
  10
2.2912
  20
1.81395
  30
0
  11
2.27941
  21
1.80306
  31
0
  0
LINE
  8
0
  10
2.27941
  20
1.80306
  30
0
  11
2.27333
  21
1.79793
  31
0
  0
LINE
  8
0
  10
2.27333
  20
1.79793
  30
0
  11
2.26712
  21
1.79306
  31
0
  0
LINE
  8
0
  10
2.26712
  20
1.79306
  30
0
  11
2.26396
  21
1.79073
  31
0
  0
LINE
  8
0
  10
2.26396
  20
1.79073
  30
0
  11
2.26075
  21
1.7885
  31
0
  0
LINE
  8
0
  10
2.26075
  20
1.7885
  30
0
  11
2.25748
  21
1.78637
  31
0
  0
LINE
  8
0
  10
2.25748
  20
1.78637
  30
0
  11
2.26914
  21
1.75466
  31
0
  0
LINE
  8
0
  10
2.26914
  20
1.75466
  30
0
  11
2.26914
  21
1.75466
  31
0
  0
LINE
  8
0
  10
2.26914
  20
1.75466
  30
0
  11
2.28687
  21
1.72589
  31
0
  0
LINE
  8
0
  10
2.28687
  20
1.72589
  30
0
  11
2.29056
  21
1.72715
  31
0
  0
LINE
  8
0
  10
2.29056
  20
1.72715
  30
0
  11
2.29431
  21
1.72829
  31
0
  0
LINE
  8
0
  10
2.29431
  20
1.72829
  30
0
  11
2.29809
  21
1.72934
  31
0
  0
LINE
  8
0
  10
2.29809
  20
1.72934
  30
0
  11
2.30576
  21
1.73121
  31
0
  0
LINE
  8
0
  10
2.30576
  20
1.73121
  30
0
  11
2.31354
  21
1.73282
  31
0
  0
LINE
  8
0
  10
2.31354
  20
1.73282
  30
0
  11
2.32939
  21
1.73537
  31
0
  0
LINE
  8
0
  10
2.32939
  20
1.73537
  30
0
  11
2.34557
  21
1.73714
  31
0
  0
LINE
  8
0
  10
2.34557
  20
1.73714
  30
0
  11
2.36202
  21
1.73821
  31
0
  0
LINE
  8
0
  10
2.36202
  20
1.73821
  30
0
  11
2.37872
  21
1.73864
  31
0
  0
LINE
  8
0
  10
2.37872
  20
1.73864
  30
0
  11
2.39564
  21
1.73845
  31
0
  0
LINE
  8
0
  10
2.39564
  20
1.73845
  30
0
  11
2.41277
  21
1.73769
  31
0
  0
LINE
  8
0
  10
2.41277
  20
1.73769
  30
0
  11
2.43007
  21
1.73635
  31
0
  0
LINE
  8
0
  10
2.43007
  20
1.73635
  30
0
  11
2.44754
  21
1.73447
  31
0
  0
LINE
  8
0
  10
2.44754
  20
1.73447
  30
0
  11
2.46003
  21
1.70156
  31
0
  0
LINE
  8
0
  10
2.46003
  20
1.70156
  30
0
  11
2.4482
  21
1.68856
  31
0
  0
LINE
  8
0
  10
2.4482
  20
1.68856
  30
0
  11
2.43614
  21
1.67608
  31
0
  0
LINE
  8
0
  10
2.43614
  20
1.67608
  30
0
  11
2.42384
  21
1.66415
  31
0
  0
LINE
  8
0
  10
2.42384
  20
1.66415
  30
0
  11
2.4113
  21
1.65279
  31
0
  0
LINE
  8
0
  10
2.4113
  20
1.65279
  30
0
  11
2.39852
  21
1.64203
  31
0
  0
LINE
  8
0
  10
2.39852
  20
1.64203
  30
0
  11
2.38549
  21
1.63191
  31
0
  0
LINE
  8
0
  10
2.38549
  20
1.63191
  30
0
  11
2.37221
  21
1.62251
  31
0
  0
LINE
  8
0
  10
2.37221
  20
1.62251
  30
0
  11
2.35866
  21
1.6139
  31
0
  0
LINE
  8
0
  10
2.35866
  20
1.6139
  30
0
  11
2.35177
  21
1.60994
  31
0
  0
LINE
  8
0
  10
2.35177
  20
1.60994
  30
0
  11
2.34479
  21
1.60626
  31
0
  0
LINE
  8
0
  10
2.34479
  20
1.60626
  30
0
  11
2.34126
  21
1.60453
  31
0
  0
LINE
  8
0
  10
2.34126
  20
1.60453
  30
0
  11
2.3377
  21
1.60291
  31
0
  0
LINE
  8
0
  10
2.3377
  20
1.60291
  30
0
  11
2.33411
  21
1.6014
  31
0
  0
LINE
  8
0
  10
2.33411
  20
1.6014
  30
0
  11
2.33992
  21
1.56811
  31
0
  0
LINE
  8
0
  10
2.33992
  20
1.56811
  30
0
  11
2.33992
  21
1.56811
  31
0
  0
LINE
  8
0
  10
2.33992
  20
1.56811
  30
0
  11
2.35223
  21
1.53664
  31
0
  0
LINE
  8
0
  10
2.35223
  20
1.53664
  30
0
  11
2.35608
  21
1.53722
  31
0
  0
LINE
  8
0
  10
2.35608
  20
1.53722
  30
0
  11
2.35997
  21
1.53768
  31
0
  0
LINE
  8
0
  10
2.35997
  20
1.53768
  30
0
  11
2.36388
  21
1.53804
  31
0
  0
LINE
  8
0
  10
2.36388
  20
1.53804
  30
0
  11
2.37176
  21
1.53851
  31
0
  0
LINE
  8
0
  10
2.37176
  20
1.53851
  30
0
  11
2.3797
  21
1.5387
  31
0
  0
LINE
  8
0
  10
2.3797
  20
1.5387
  30
0
  11
2.39576
  21
1.53838
  31
0
  0
LINE
  8
0
  10
2.39576
  20
1.53838
  30
0
  11
2.41199
  21
1.53723
  31
0
  0
LINE
  8
0
  10
2.41199
  20
1.53723
  30
0
  11
2.42837
  21
1.53535
  31
0
  0
LINE
  8
0
  10
2.42837
  20
1.53535
  30
0
  11
2.44488
  21
1.53278
  31
0
  0
LINE
  8
0
  10
2.44488
  20
1.53278
  30
0
  11
2.4615
  21
1.52958
  31
0
  0
LINE
  8
0
  10
2.4615
  20
1.52958
  30
0
  11
2.47821
  21
1.52577
  31
0
  0
LINE
  8
0
  10
2.47821
  20
1.52577
  30
0
  11
2.49499
  21
1.52137
  31
0
  0
LINE
  8
0
  10
2.49499
  20
1.52137
  30
0
  11
2.51185
  21
1.51639
  31
0
  0
LINE
  8
0
  10
2.51185
  20
1.51639
  30
0
  11
2.51826
  21
1.48178
  31
0
  0
LINE
  8
0
  10
2.51826
  20
1.48178
  30
0
  11
2.5043
  21
1.4711
  31
0
  0
LINE
  8
0
  10
2.5043
  20
1.4711
  30
0
  11
2.4902
  21
1.46098
  31
0
  0
LINE
  8
0
  10
2.4902
  20
1.46098
  30
0
  11
2.47597
  21
1.45144
  31
0
  0
LINE
  8
0
  10
2.47597
  20
1.45144
  30
0
  11
2.4616
  21
1.4425
  31
0
  0
LINE
  8
0
  10
2.4616
  20
1.4425
  30
0
  11
2.4471
  21
1.43419
  31
0
  0
LINE
  8
0
  10
2.4471
  20
1.43419
  30
0
  11
2.43248
  21
1.42657
  31
0
  0
LINE
  8
0
  10
2.43248
  20
1.42657
  30
0
  11
2.41774
  21
1.41968
  31
0
  0
LINE
  8
0
  10
2.41774
  20
1.41968
  30
0
  11
2.40287
  21
1.41363
  31
0
  0
LINE
  8
0
  10
2.40287
  20
1.41363
  30
0
  11
2.39538
  21
1.41097
  31
0
  0
LINE
  8
0
  10
2.39538
  20
1.41097
  30
0
  11
2.38785
  21
1.40859
  31
0
  0
LINE
  8
0
  10
2.38785
  20
1.40859
  30
0
  11
2.38407
  21
1.40752
  31
0
  0
LINE
  8
0
  10
2.38407
  20
1.40752
  30
0
  11
2.38028
  21
1.40656
  31
0
  0
LINE
  8
0
  10
2.38028
  20
1.40656
  30
0
  11
2.37647
  21
1.40572
  31
0
  0
LINE
  8
0
  10
2.37647
  20
1.40572
  30
0
  11
2.37625
  21
1.37193
  31
0
  0
LINE
  8
0
  10
2.37625
  20
1.37193
  30
0
  11
2.37625
  21
1.37193
  31
0
  0
LINE
  8
0
  10
2.37625
  20
1.37193
  30
0
  11
2.38274
  21
1.33877
  31
0
  0
LINE
  8
0
  10
2.38274
  20
1.33877
  30
0
  11
2.38664
  21
1.33865
  31
0
  0
LINE
  8
0
  10
2.38664
  20
1.33865
  30
0
  11
2.39055
  21
1.3384
  31
0
  0
LINE
  8
0
  10
2.39055
  20
1.3384
  30
0
  11
2.39446
  21
1.33806
  31
0
  0
LINE
  8
0
  10
2.39446
  20
1.33806
  30
0
  11
2.40229
  21
1.33711
  31
0
  0
LINE
  8
0
  10
2.40229
  20
1.33711
  30
0
  11
2.41014
  21
1.33588
  31
0
  0
LINE
  8
0
  10
2.41014
  20
1.33588
  30
0
  11
2.42588
  21
1.3327
  31
0
  0
LINE
  8
0
  10
2.42588
  20
1.3327
  30
0
  11
2.44165
  21
1.32867
  31
0
  0
LINE
  8
0
  10
2.44165
  20
1.32867
  30
0
  11
2.45743
  21
1.3239
  31
0
  0
LINE
  8
0
  10
2.45743
  20
1.3239
  30
0
  11
2.47321
  21
1.31843
  31
0
  0
LINE
  8
0
  10
2.47321
  20
1.31843
  30
0
  11
2.48899
  21
1.31231
  31
0
  0
LINE
  8
0
  10
2.48899
  20
1.31231
  30
0
  11
2.50475
  21
1.30557
  31
0
  0
LINE
  8
0
  10
2.50475
  20
1.30557
  30
0
  11
2.52049
  21
1.29824
  31
0
  0
LINE
  8
0
  10
2.52049
  20
1.29824
  30
0
  11
2.53618
  21
1.29034
  31
0
  0
LINE
  8
0
  10
2.53618
  20
1.29034
  30
0
  11
2.53631
  21
1.25514
  31
0
  0
LINE
  8
0
  10
2.53631
  20
1.25514
  30
0
  11
2.52067
  21
1.24712
  31
0
  0
LINE
  8
0
  10
2.52067
  20
1.24712
  30
0
  11
2.50499
  21
1.23968
  31
0
  0
LINE
  8
0
  10
2.50499
  20
1.23968
  30
0
  11
2.48928
  21
1.23283
  31
0
  0
LINE
  8
0
  10
2.48928
  20
1.23283
  30
0
  11
2.47354
  21
1.2266
  31
0
  0
LINE
  8
0
  10
2.47354
  20
1.2266
  30
0
  11
2.4578
  21
1.22102
  31
0
  0
LINE
  8
0
  10
2.4578
  20
1.22102
  30
0
  11
2.44205
  21
1.21613
  31
0
  0
LINE
  8
0
  10
2.44205
  20
1.21613
  30
0
  11
2.42631
  21
1.21199
  31
0
  0
LINE
  8
0
  10
2.42631
  20
1.21199
  30
0
  11
2.4106
  21
1.20869
  31
0
  0
LINE
  8
0
  10
2.4106
  20
1.20869
  30
0
  11
2.40276
  21
1.20741
  31
0
  0
LINE
  8
0
  10
2.40276
  20
1.20741
  30
0
  11
2.39493
  21
1.20641
  31
0
  0
LINE
  8
0
  10
2.39493
  20
1.20641
  30
0
  11
2.39102
  21
1.20603
  31
0
  0
LINE
  8
0
  10
2.39102
  20
1.20603
  30
0
  11
2.38712
  21
1.20576
  31
0
  0
LINE
  8
0
  10
2.38712
  20
1.20576
  30
0
  11
2.38322
  21
1.20561
  31
0
  0
LINE
  8
0
  10
2.38322
  20
1.20561
  30
0
  11
2.37696
  21
1.17241
  31
0
  0
LINE
  8
0
  10
2.37696
  20
1.17241
  30
0
  11
2.37696
  21
1.17241
  31
0
  0
LINE
  8
0
  10
1.41819
  20
1.26819
  30
0
  11
1.41819
  21
1.26819
  31
0
  0
LINE
  8
0
  10
1.41819
  20
1.26819
  30
0
  11
1.41308
  21
1.30701
  31
0
  0
LINE
  8
0
  10
1.41308
  20
1.30701
  30
0
  11
1.39809
  21
1.34319
  31
0
  0
LINE
  8
0
  10
1.39809
  20
1.34319
  30
0
  11
1.37425
  21
1.37425
  31
0
  0
LINE
  8
0
  10
1.37425
  20
1.37425
  30
0
  11
1.34319
  21
1.39809
  31
0
  0
LINE
  8
0
  10
1.34319
  20
1.39809
  30
0
  11
1.30701
  21
1.41308
  31
0
  0
LINE
  8
0
  10
1.30701
  20
1.41308
  30
0
  11
1.26819
  21
1.41819
  31
0
  0
LINE
  8
0
  10
1.26819
  20
1.41819
  30
0
  11
1.22936
  21
1.41308
  31
0
  0
LINE
  8
0
  10
1.22936
  20
1.41308
  30
0
  11
1.19319
  21
1.39809
  31
0
  0
LINE
  8
0
  10
1.19319
  20
1.39809
  30
0
  11
1.16212
  21
1.37425
  31
0
  0
LINE
  8
0
  10
1.16212
  20
1.37425
  30
0
  11
1.13828
  21
1.34319
  31
0
  0
LINE
  8
0
  10
1.13828
  20
1.34319
  30
0
  11
1.1233
  21
1.30701
  31
0
  0
LINE
  8
0
  10
1.1233
  20
1.30701
  30
0
  11
1.11819
  21
1.26819
  31
0
  0
LINE
  8
0
  10
1.11819
  20
1.26819
  30
0
  11
1.1233
  21
1.22936
  31
0
  0
LINE
  8
0
  10
1.1233
  20
1.22936
  30
0
  11
1.13828
  21
1.19319
  31
0
  0
LINE
  8
0
  10
1.13828
  20
1.19319
  30
0
  11
1.16212
  21
1.16212
  31
0
  0
LINE
  8
0
  10
1.16212
  20
1.16212
  30
0
  11
1.19319
  21
1.13828
  31
0
  0
LINE
  8
0
  10
1.19319
  20
1.13828
  30
0
  11
1.22936
  21
1.1233
  31
0
  0
LINE
  8
0
  10
1.22936
  20
1.1233
  30
0
  11
1.26819
  21
1.11819
  31
0
  0
LINE
  8
0
  10
1.26819
  20
1.11819
  30
0
  11
1.30701
  21
1.1233
  31
0
  0
LINE
  8
0
  10
1.30701
  20
1.1233
  30
0
  11
1.34319
  21
1.13828
  31
0
  0
LINE
  8
0
  10
1.34319
  20
1.13828
  30
0
  11
1.37425
  21
1.16212
  31
0
  0
LINE
  8
0
  10
1.37425
  20
1.16212
  30
0
  11
1.39809
  21
1.19319
  31
0
  0
LINE
  8
0
  10
1.39809
  20
1.19319
  30
0
  11
1.41308
  21
1.22936
  31
0
  0
LINE
  8
0
  10
1.41308
  20
1.22936
  30
0
  11
1.41819
  21
1.26819
  31
0
  0
LINE
  8
0
  10
1.41819
  20
1.26819
  30
0
  11
1.41819
  21
1.26819
  31
0
  0
ENDSEC
  0
EOF
