  999
file created by gear template generator
  0
SECTION
  2
HEADER
  9
$ACADVER
  1
AC1006
  9
$INSBASE
  10
0.0
  20
0.0
  30
0.0
  9
$EXTMIN
  10
0.0
  20
0.0
  9
$EXTMAX
  10
10000.0
  20
10000.0
  0
ENDSEC
  0
SECTION
  2
ENTITIES
  0
LINE
  8
0
  10
0.2052
  20
0.2369
  30
0
  11
0.2052
  21
0.2369
  31
0
  0
LINE
  8
0
  10
0.2052
  20
0.2369
  30
0
  11
0.19015
  21
0.25296
  31
0
  0
LINE
  8
0
  10
0.19015
  20
0.25296
  30
0
  11
0.18592
  21
0.25471
  31
0
  0
LINE
  8
0
  10
0.18592
  20
0.25471
  30
0
  11
0.18228
  21
0.25562
  31
0
  0
LINE
  8
0
  10
0.18228
  20
0.25562
  30
0
  11
0.17897
  21
0.25607
  31
0
  0
LINE
  8
0
  10
0.17897
  20
0.25607
  30
0
  11
0.17586
  21
0.25621
  31
0
  0
LINE
  8
0
  10
0.17586
  20
0.25621
  30
0
  11
0.1729
  21
0.25612
  31
0
  0
LINE
  8
0
  10
0.1729
  20
0.25612
  30
0
  11
0.16732
  21
0.2554
  31
0
  0
LINE
  8
0
  10
0.16732
  20
0.2554
  30
0
  11
0.16207
  21
0.25415
  31
0
  0
LINE
  8
0
  10
0.16207
  20
0.25415
  30
0
  11
0.15707
  21
0.25247
  31
0
  0
LINE
  8
0
  10
0.15707
  20
0.25247
  30
0
  11
0.14766
  21
0.24808
  31
0
  0
LINE
  8
0
  10
0.14766
  20
0.24808
  30
0
  11
0.13889
  21
0.24256
  31
0
  0
LINE
  8
0
  10
0.13889
  20
0.24256
  30
0
  11
0.13066
  21
0.23609
  31
0
  0
LINE
  8
0
  10
0.13066
  20
0.23609
  30
0
  11
0.12176
  21
0.2308
  31
0
  0
LINE
  8
0
  10
0.12176
  20
0.2308
  30
0
  11
0.1112
  21
0.22843
  31
0
  0
LINE
  8
0
  10
0.1112
  20
0.22843
  30
0
  11
0.10008
  21
0.22717
  31
0
  0
LINE
  8
0
  10
0.10008
  20
0.22717
  30
0
  11
0.08851
  21
0.22688
  31
0
  0
LINE
  8
0
  10
0.08851
  20
0.22688
  30
0
  11
0.07658
  21
0.2275
  31
0
  0
LINE
  8
0
  10
0.07658
  20
0.2275
  30
0
  11
0.06436
  21
0.22898
  31
0
  0
LINE
  8
0
  10
0.06436
  20
0.22898
  30
0
  11
0.05188
  21
0.23132
  31
0
  0
LINE
  8
0
  10
0.05188
  20
0.23132
  30
0
  11
0.03921
  21
0.23451
  31
0
  0
LINE
  8
0
  10
0.03921
  20
0.23451
  30
0
  11
0.02638
  21
0.23853
  31
0
  0
LINE
  8
0
  10
0.02638
  20
0.23853
  30
0
  11
0.01617
  21
0.26784
  31
0
  0
LINE
  8
0
  10
0.01617
  20
0.26784
  30
0
  11
0.02373
  21
0.27896
  31
0
  0
LINE
  8
0
  10
0.02373
  20
0.27896
  30
0
  11
0.03168
  21
0.28933
  31
0
  0
LINE
  8
0
  10
0.03168
  20
0.28933
  30
0
  11
0.04
  21
0.29891
  31
0
  0
LINE
  8
0
  10
0.04
  20
0.29891
  30
0
  11
0.04867
  21
0.30767
  31
0
  0
LINE
  8
0
  10
0.04867
  20
0.30767
  30
0
  11
0.05763
  21
0.31556
  31
0
  0
LINE
  8
0
  10
0.05763
  20
0.31556
  30
0
  11
0.06688
  21
0.32252
  31
0
  0
LINE
  8
0
  10
0.06688
  20
0.32252
  30
0
  11
0.07637
  21
0.32844
  31
0
  0
LINE
  8
0
  10
0.07637
  20
0.32844
  30
0
  11
0.08612
  21
0.33314
  31
0
  0
LINE
  8
0
  10
0.08612
  20
0.33314
  30
0
  11
0.09638
  21
0.33453
  31
0
  0
LINE
  8
0
  10
0.09638
  20
0.33453
  30
0
  11
0.10685
  21
0.33456
  31
0
  0
LINE
  8
0
  10
0.10685
  20
0.33456
  30
0
  11
0.11715
  21
0.33569
  31
0
  0
LINE
  8
0
  10
0.11715
  20
0.33569
  30
0
  11
0.12725
  21
0.3381
  31
0
  0
LINE
  8
0
  10
0.12725
  20
0.3381
  30
0
  11
0.13221
  21
0.33988
  31
0
  0
LINE
  8
0
  10
0.13221
  20
0.33988
  30
0
  11
0.13711
  21
0.34216
  31
0
  0
LINE
  8
0
  10
0.13711
  20
0.34216
  30
0
  11
0.14192
  21
0.34507
  31
0
  0
LINE
  8
0
  10
0.14192
  20
0.34507
  30
0
  11
0.1443
  21
0.34683
  31
0
  0
LINE
  8
0
  10
0.1443
  20
0.34683
  30
0
  11
0.14665
  21
0.34887
  31
0
  0
LINE
  8
0
  10
0.14665
  20
0.34887
  30
0
  11
0.14897
  21
0.35128
  31
0
  0
LINE
  8
0
  10
0.14897
  20
0.35128
  30
0
  11
0.15126
  21
0.35425
  31
0
  0
LINE
  8
0
  10
0.15126
  20
0.35425
  30
0
  11
0.15348
  21
0.35826
  31
0
  0
LINE
  8
0
  10
0.15348
  20
0.35826
  30
0
  11
0.1553
  21
0.38019
  31
0
  0
LINE
  8
0
  10
0.1553
  20
0.38019
  30
0
  11
0.1553
  21
0.38019
  31
0
  0
LINE
  8
0
  10
0.1553
  20
0.38019
  30
0
  11
0.1553
  21
0.38019
  31
0
  0
LINE
  8
0
  10
0.1553
  20
0.38019
  30
0
  11
0.1541
  21
0.40216
  31
0
  0
LINE
  8
0
  10
0.1541
  20
0.40216
  30
0
  11
0.15198
  21
0.40623
  31
0
  0
LINE
  8
0
  10
0.15198
  20
0.40623
  30
0
  11
0.14978
  21
0.40926
  31
0
  0
LINE
  8
0
  10
0.14978
  20
0.40926
  30
0
  11
0.14753
  21
0.41174
  31
0
  0
LINE
  8
0
  10
0.14753
  20
0.41174
  30
0
  11
0.14524
  21
0.41384
  31
0
  0
LINE
  8
0
  10
0.14524
  20
0.41384
  30
0
  11
0.14291
  21
0.41567
  31
0
  0
LINE
  8
0
  10
0.14291
  20
0.41567
  30
0
  11
0.13817
  21
0.41871
  31
0
  0
LINE
  8
0
  10
0.13817
  20
0.41871
  30
0
  11
0.13335
  21
0.42113
  31
0
  0
LINE
  8
0
  10
0.13335
  20
0.42113
  30
0
  11
0.12844
  21
0.42305
  31
0
  0
LINE
  8
0
  10
0.12844
  20
0.42305
  30
0
  11
0.11841
  21
0.42574
  31
0
  0
LINE
  8
0
  10
0.11841
  20
0.42574
  30
0
  11
0.10814
  21
0.42715
  31
0
  0
LINE
  8
0
  10
0.10814
  20
0.42715
  30
0
  11
0.09768
  21
0.42748
  31
0
  0
LINE
  8
0
  10
0.09768
  20
0.42748
  30
0
  11
0.08746
  21
0.42915
  31
0
  0
LINE
  8
0
  10
0.08746
  20
0.42915
  30
0
  11
0.07785
  21
0.43412
  31
0
  0
LINE
  8
0
  10
0.07785
  20
0.43412
  30
0
  11
0.06852
  21
0.44031
  31
0
  0
LINE
  8
0
  10
0.06852
  20
0.44031
  30
0
  11
0.05948
  21
0.44752
  31
0
  0
LINE
  8
0
  10
0.05948
  20
0.44752
  30
0
  11
0.05073
  21
0.45566
  31
0
  0
LINE
  8
0
  10
0.05073
  20
0.45566
  30
0
  11
0.04232
  21
0.46466
  31
0
  0
LINE
  8
0
  10
0.04232
  20
0.46466
  30
0
  11
0.03427
  21
0.47447
  31
0
  0
LINE
  8
0
  10
0.03427
  20
0.47447
  30
0
  11
0.0266
  21
0.48506
  31
0
  0
LINE
  8
0
  10
0.0266
  20
0.48506
  30
0
  11
0.01936
  21
0.49638
  31
0
  0
LINE
  8
0
  10
0.01936
  20
0.49638
  30
0
  11
0.03039
  21
0.5254
  31
0
  0
LINE
  8
0
  10
0.03039
  20
0.5254
  30
0
  11
0.04332
  21
0.52906
  31
0
  0
LINE
  8
0
  10
0.04332
  20
0.52906
  30
0
  11
0.05608
  21
0.53189
  31
0
  0
LINE
  8
0
  10
0.05608
  20
0.53189
  30
0
  11
0.06861
  21
0.53388
  31
0
  0
LINE
  8
0
  10
0.06861
  20
0.53388
  30
0
  11
0.08088
  21
0.53502
  31
0
  0
LINE
  8
0
  10
0.08088
  20
0.53502
  30
0
  11
0.09282
  21
0.5353
  31
0
  0
LINE
  8
0
  10
0.09282
  20
0.5353
  30
0
  11
0.10437
  21
0.53469
  31
0
  0
LINE
  8
0
  10
0.10437
  20
0.53469
  30
0
  11
0.11546
  21
0.53312
  31
0
  0
LINE
  8
0
  10
0.11546
  20
0.53312
  30
0
  11
0.12594
  21
0.53046
  31
0
  0
LINE
  8
0
  10
0.12594
  20
0.53046
  30
0
  11
0.13469
  21
0.52493
  31
0
  0
LINE
  8
0
  10
0.13469
  20
0.52493
  30
0
  11
0.14274
  21
0.51823
  31
0
  0
LINE
  8
0
  10
0.14274
  20
0.51823
  30
0
  11
0.15135
  21
0.51247
  31
0
  0
LINE
  8
0
  10
0.15135
  20
0.51247
  30
0
  11
0.16063
  21
0.50782
  31
0
  0
LINE
  8
0
  10
0.16063
  20
0.50782
  30
0
  11
0.16558
  21
0.506
  31
0
  0
LINE
  8
0
  10
0.16558
  20
0.506
  30
0
  11
0.1708
  21
0.5046
  31
0
  0
LINE
  8
0
  10
0.1708
  20
0.5046
  30
0
  11
0.17636
  21
0.50373
  31
0
  0
LINE
  8
0
  10
0.17636
  20
0.50373
  30
0
  11
0.17931
  21
0.50355
  31
0
  0
LINE
  8
0
  10
0.17931
  20
0.50355
  30
0
  11
0.18242
  21
0.5036
  31
0
  0
LINE
  8
0
  10
0.18242
  20
0.5036
  30
0
  11
0.18575
  21
0.50396
  31
0
  0
LINE
  8
0
  10
0.18575
  20
0.50396
  30
0
  11
0.18941
  21
0.50476
  31
0
  0
LINE
  8
0
  10
0.18941
  20
0.50476
  30
0
  11
0.19369
  21
0.5064
  31
0
  0
LINE
  8
0
  10
0.19369
  20
0.5064
  30
0
  11
0.20918
  21
0.52203
  31
0
  0
LINE
  8
0
  10
0.20918
  20
0.52203
  30
0
  11
0.20918
  21
0.52203
  31
0
  0
LINE
  8
0
  10
0.20918
  20
0.52203
  30
0
  11
0.20918
  21
0.52203
  31
0
  0
LINE
  8
0
  10
0.20918
  20
0.52203
  30
0
  11
0.22238
  21
0.53964
  31
0
  0
LINE
  8
0
  10
0.22238
  20
0.53964
  30
0
  11
0.22338
  21
0.54411
  31
0
  0
LINE
  8
0
  10
0.22338
  20
0.54411
  30
0
  11
0.22364
  21
0.54785
  31
0
  0
LINE
  8
0
  10
0.22364
  20
0.54785
  30
0
  11
0.22351
  21
0.5512
  31
0
  0
LINE
  8
0
  10
0.22351
  20
0.5512
  30
0
  11
0.2231
  21
0.55428
  31
0
  0
LINE
  8
0
  10
0.2231
  20
0.55428
  30
0
  11
0.2225
  21
0.55718
  31
0
  0
LINE
  8
0
  10
0.2225
  20
0.55718
  30
0
  11
0.22082
  21
0.56255
  31
0
  0
LINE
  8
0
  10
0.22082
  20
0.56255
  30
0
  11
0.21868
  21
0.5675
  31
0
  0
LINE
  8
0
  10
0.21868
  20
0.5675
  30
0
  11
0.21615
  21
0.57213
  31
0
  0
LINE
  8
0
  10
0.21615
  20
0.57213
  30
0
  11
0.2102
  21
0.58064
  31
0
  0
LINE
  8
0
  10
0.2102
  20
0.58064
  30
0
  11
0.20324
  21
0.58832
  31
0
  0
LINE
  8
0
  10
0.20324
  20
0.58832
  30
0
  11
0.19544
  21
0.5953
  31
0
  0
LINE
  8
0
  10
0.19544
  20
0.5953
  30
0
  11
0.18868
  21
0.60315
  31
0
  0
LINE
  8
0
  10
0.18868
  20
0.60315
  30
0
  11
0.18452
  21
0.61313
  31
0
  0
LINE
  8
0
  10
0.18452
  20
0.61313
  30
0
  11
0.18135
  21
0.62387
  31
0
  0
LINE
  8
0
  10
0.18135
  20
0.62387
  30
0
  11
0.17906
  21
0.63521
  31
0
  0
LINE
  8
0
  10
0.17906
  20
0.63521
  30
0
  11
0.17759
  21
0.64706
  31
0
  0
LINE
  8
0
  10
0.17759
  20
0.64706
  30
0
  11
0.17693
  21
0.65936
  31
0
  0
LINE
  8
0
  10
0.17693
  20
0.65936
  30
0
  11
0.17706
  21
0.67205
  31
0
  0
LINE
  8
0
  10
0.17706
  20
0.67205
  30
0
  11
0.178
  21
0.68509
  31
0
  0
LINE
  8
0
  10
0.178
  20
0.68509
  30
0
  11
0.17973
  21
0.69842
  31
0
  0
LINE
  8
0
  10
0.17973
  20
0.69842
  30
0
  11
0.20683
  21
0.71356
  31
0
  0
LINE
  8
0
  10
0.20683
  20
0.71356
  30
0
  11
0.21909
  21
0.70805
  31
0
  0
LINE
  8
0
  10
0.21909
  20
0.70805
  30
0
  11
0.23068
  21
0.70202
  31
0
  0
LINE
  8
0
  10
0.23068
  20
0.70202
  30
0
  11
0.24156
  21
0.69549
  31
0
  0
LINE
  8
0
  10
0.24156
  20
0.69549
  30
0
  11
0.25169
  21
0.68848
  31
0
  0
LINE
  8
0
  10
0.25169
  20
0.68848
  30
0
  11
0.26102
  21
0.68102
  31
0
  0
LINE
  8
0
  10
0.26102
  20
0.68102
  30
0
  11
0.26948
  21
0.67312
  31
0
  0
LINE
  8
0
  10
0.26948
  20
0.67312
  30
0
  11
0.27696
  21
0.6648
  31
0
  0
LINE
  8
0
  10
0.27696
  20
0.6648
  30
0
  11
0.28328
  21
0.65602
  31
0
  0
LINE
  8
0
  10
0.28328
  20
0.65602
  30
0
  11
0.28643
  21
0.64615
  31
0
  0
LINE
  8
0
  10
0.28643
  20
0.64615
  30
0
  11
0.28828
  21
0.63585
  31
0
  0
LINE
  8
0
  10
0.28828
  20
0.63585
  30
0
  11
0.29118
  21
0.6259
  31
0
  0
LINE
  8
0
  10
0.29118
  20
0.6259
  30
0
  11
0.2953
  21
0.61637
  31
0
  0
LINE
  8
0
  10
0.2953
  20
0.61637
  30
0
  11
0.29793
  21
0.61179
  31
0
  0
LINE
  8
0
  10
0.29793
  20
0.61179
  30
0
  11
0.30102
  21
0.60737
  31
0
  0
LINE
  8
0
  10
0.30102
  20
0.60737
  30
0
  11
0.30472
  21
0.60313
  31
0
  0
LINE
  8
0
  10
0.30472
  20
0.60313
  30
0
  11
0.30687
  21
0.6011
  31
0
  0
LINE
  8
0
  10
0.30687
  20
0.6011
  30
0
  11
0.30928
  21
0.59914
  31
0
  0
LINE
  8
0
  10
0.30928
  20
0.59914
  30
0
  11
0.31206
  21
0.59727
  31
0
  0
LINE
  8
0
  10
0.31206
  20
0.59727
  30
0
  11
0.31539
  21
0.59553
  31
0
  0
LINE
  8
0
  10
0.31539
  20
0.59553
  30
0
  11
0.31972
  21
0.59404
  31
0
  0
LINE
  8
0
  10
0.31972
  20
0.59404
  30
0
  11
0.34163
  21
0.59605
  31
0
  0
LINE
  8
0
  10
0.34163
  20
0.59605
  30
0
  11
0.34163
  21
0.59605
  31
0
  0
LINE
  8
0
  10
0.34163
  20
0.59605
  30
0
  11
0.34163
  21
0.59605
  31
0
  0
LINE
  8
0
  10
0.34163
  20
0.59605
  30
0
  11
0.36306
  21
0.60106
  31
0
  0
LINE
  8
0
  10
0.36306
  20
0.60106
  30
0
  11
0.3667
  21
0.60384
  31
0
  0
LINE
  8
0
  10
0.3667
  20
0.60384
  30
0
  11
0.3693
  21
0.60654
  31
0
  0
LINE
  8
0
  10
0.3693
  20
0.60654
  30
0
  11
0.37135
  21
0.60919
  31
0
  0
LINE
  8
0
  10
0.37135
  20
0.60919
  30
0
  11
0.37302
  21
0.61181
  31
0
  0
LINE
  8
0
  10
0.37302
  20
0.61181
  30
0
  11
0.37442
  21
0.61442
  31
0
  0
LINE
  8
0
  10
0.37442
  20
0.61442
  30
0
  11
0.37659
  21
0.61961
  31
0
  0
LINE
  8
0
  10
0.37659
  20
0.61961
  30
0
  11
0.37813
  21
0.62478
  31
0
  0
LINE
  8
0
  10
0.37813
  20
0.62478
  30
0
  11
0.37918
  21
0.62995
  31
0
  0
LINE
  8
0
  10
0.37918
  20
0.62995
  30
0
  11
0.38008
  21
0.6403
  31
0
  0
LINE
  8
0
  10
0.38008
  20
0.6403
  30
0
  11
0.37969
  21
0.65065
  31
0
  0
LINE
  8
0
  10
0.37969
  20
0.65065
  30
0
  11
0.3782
  21
0.66102
  31
0
  0
LINE
  8
0
  10
0.3782
  20
0.66102
  30
0
  11
0.37807
  21
0.67137
  31
0
  0
LINE
  8
0
  10
0.37807
  20
0.67137
  30
0
  11
0.3813
  21
0.68169
  31
0
  0
LINE
  8
0
  10
0.3813
  20
0.68169
  30
0
  11
0.38577
  21
0.69196
  31
0
  0
LINE
  8
0
  10
0.38577
  20
0.69196
  30
0
  11
0.3913
  21
0.70212
  31
0
  0
LINE
  8
0
  10
0.3913
  20
0.70212
  30
0
  11
0.3978
  21
0.71214
  31
0
  0
LINE
  8
0
  10
0.3978
  20
0.71214
  30
0
  11
0.4052
  21
0.72199
  31
0
  0
LINE
  8
0
  10
0.4052
  20
0.72199
  30
0
  11
0.41346
  21
0.73162
  31
0
  0
LINE
  8
0
  10
0.41346
  20
0.73162
  30
0
  11
0.42255
  21
0.74101
  31
0
  0
LINE
  8
0
  10
0.42255
  20
0.74101
  30
0
  11
0.43245
  21
0.7501
  31
0
  0
LINE
  8
0
  10
0.43245
  20
0.7501
  30
0
  11
0.46294
  21
0.74429
  31
0
  0
LINE
  8
0
  10
0.46294
  20
0.74429
  30
0
  11
0.46879
  21
0.73219
  31
0
  0
LINE
  8
0
  10
0.46879
  20
0.73219
  30
0
  11
0.47379
  21
0.72011
  31
0
  0
LINE
  8
0
  10
0.47379
  20
0.72011
  30
0
  11
0.47793
  21
0.70811
  31
0
  0
LINE
  8
0
  10
0.47793
  20
0.70811
  30
0
  11
0.48118
  21
0.69623
  31
0
  0
LINE
  8
0
  10
0.48118
  20
0.69623
  30
0
  11
0.48353
  21
0.68452
  31
0
  0
LINE
  8
0
  10
0.48353
  20
0.68452
  30
0
  11
0.48494
  21
0.67304
  31
0
  0
LINE
  8
0
  10
0.48494
  20
0.67304
  30
0
  11
0.48532
  21
0.66185
  31
0
  0
LINE
  8
0
  10
0.48532
  20
0.66185
  30
0
  11
0.48452
  21
0.65106
  31
0
  0
LINE
  8
0
  10
0.48452
  20
0.65106
  30
0
  11
0.48059
  21
0.64148
  31
0
  0
LINE
  8
0
  10
0.48059
  20
0.64148
  30
0
  11
0.47539
  21
0.6324
  31
0
  0
LINE
  8
0
  10
0.47539
  20
0.6324
  30
0
  11
0.47121
  21
0.62291
  31
0
  0
LINE
  8
0
  10
0.47121
  20
0.62291
  30
0
  11
0.46824
  21
0.61296
  31
0
  0
LINE
  8
0
  10
0.46824
  20
0.61296
  30
0
  11
0.46731
  21
0.60777
  31
0
  0
LINE
  8
0
  10
0.46731
  20
0.60777
  30
0
  11
0.46684
  21
0.6024
  31
0
  0
LINE
  8
0
  10
0.46684
  20
0.6024
  30
0
  11
0.46694
  21
0.59677
  31
0
  0
LINE
  8
0
  10
0.46694
  20
0.59677
  30
0
  11
0.46728
  21
0.59383
  31
0
  0
LINE
  8
0
  10
0.46728
  20
0.59383
  30
0
  11
0.46787
  21
0.59077
  31
0
  0
LINE
  8
0
  10
0.46787
  20
0.59077
  30
0
  11
0.4688
  21
0.58756
  31
0
  0
LINE
  8
0
  10
0.4688
  20
0.58756
  30
0
  11
0.47023
  21
0.58409
  31
0
  0
LINE
  8
0
  10
0.47023
  20
0.58409
  30
0
  11
0.47259
  21
0.58016
  31
0
  0
LINE
  8
0
  10
0.47259
  20
0.58016
  30
0
  11
0.49067
  21
0.56762
  31
0
  0
LINE
  8
0
  10
0.49067
  20
0.56762
  30
0
  11
0.49067
  21
0.56762
  31
0
  0
LINE
  8
0
  10
0.49067
  20
0.56762
  30
0
  11
0.49067
  21
0.56762
  31
0
  0
LINE
  8
0
  10
0.49067
  20
0.56762
  30
0
  11
0.5103
  21
0.55768
  31
0
  0
LINE
  8
0
  10
0.5103
  20
0.55768
  30
0
  11
0.51488
  21
0.55748
  31
0
  0
LINE
  8
0
  10
0.51488
  20
0.55748
  30
0
  11
0.51861
  21
0.55787
  31
0
  0
LINE
  8
0
  10
0.51861
  20
0.55787
  30
0
  11
0.52188
  21
0.55858
  31
0
  0
LINE
  8
0
  10
0.52188
  20
0.55858
  30
0
  11
0.52485
  21
0.55951
  31
0
  0
LINE
  8
0
  10
0.52485
  20
0.55951
  30
0
  11
0.5276
  21
0.56061
  31
0
  0
LINE
  8
0
  10
0.5276
  20
0.56061
  30
0
  11
0.5326
  21
0.56319
  31
0
  0
LINE
  8
0
  10
0.5326
  20
0.56319
  30
0
  11
0.5371
  21
0.56617
  31
0
  0
LINE
  8
0
  10
0.5371
  20
0.56617
  30
0
  11
0.54122
  21
0.56946
  31
0
  0
LINE
  8
0
  10
0.54122
  20
0.56946
  30
0
  11
0.54857
  21
0.5768
  31
0
  0
LINE
  8
0
  10
0.54857
  20
0.5768
  30
0
  11
0.55492
  21
0.58499
  31
0
  0
LINE
  8
0
  10
0.55492
  20
0.58499
  30
0
  11
0.56044
  21
0.59388
  31
0
  0
LINE
  8
0
  10
0.56044
  20
0.59388
  30
0
  11
0.567
  21
0.6019
  31
0
  0
LINE
  8
0
  10
0.567
  20
0.6019
  30
0
  11
0.57611
  21
0.60773
  31
0
  0
LINE
  8
0
  10
0.57611
  20
0.60773
  30
0
  11
0.58613
  21
0.61272
  31
0
  0
LINE
  8
0
  10
0.58613
  20
0.61272
  30
0
  11
0.5969
  21
0.61694
  31
0
  0
LINE
  8
0
  10
0.5969
  20
0.61694
  30
0
  11
0.60832
  21
0.62045
  31
0
  0
LINE
  8
0
  10
0.60832
  20
0.62045
  30
0
  11
0.62032
  21
0.62323
  31
0
  0
LINE
  8
0
  10
0.62032
  20
0.62323
  30
0
  11
0.63284
  21
0.6253
  31
0
  0
LINE
  8
0
  10
0.63284
  20
0.6253
  30
0
  11
0.64584
  21
0.62665
  31
0
  0
LINE
  8
0
  10
0.64584
  20
0.62665
  30
0
  11
0.65926
  21
0.62725
  31
0
  0
LINE
  8
0
  10
0.65926
  20
0.62725
  30
0
  11
0.67888
  21
0.6032
  31
0
  0
LINE
  8
0
  10
0.67888
  20
0.6032
  30
0
  11
0.67559
  21
0.59017
  31
0
  0
LINE
  8
0
  10
0.67559
  20
0.59017
  30
0
  11
0.67166
  21
0.57771
  31
0
  0
LINE
  8
0
  10
0.67166
  20
0.57771
  30
0
  11
0.66711
  21
0.56585
  31
0
  0
LINE
  8
0
  10
0.66711
  20
0.56585
  30
0
  11
0.66197
  21
0.55466
  31
0
  0
LINE
  8
0
  10
0.66197
  20
0.55466
  30
0
  11
0.65624
  21
0.54418
  31
0
  0
LINE
  8
0
  10
0.65624
  20
0.54418
  30
0
  11
0.64994
  21
0.53448
  31
0
  0
LINE
  8
0
  10
0.64994
  20
0.53448
  30
0
  11
0.64304
  21
0.52566
  31
0
  0
LINE
  8
0
  10
0.64304
  20
0.52566
  30
0
  11
0.63549
  21
0.51792
  31
0
  0
LINE
  8
0
  10
0.63549
  20
0.51792
  30
0
  11
0.62632
  21
0.5131
  31
0
  0
LINE
  8
0
  10
0.62632
  20
0.5131
  30
0
  11
0.6165
  21
0.50949
  31
0
  0
LINE
  8
0
  10
0.6165
  20
0.50949
  30
0
  11
0.6072
  21
0.50491
  31
0
  0
LINE
  8
0
  10
0.6072
  20
0.50491
  30
0
  11
0.59853
  21
0.49919
  31
0
  0
LINE
  8
0
  10
0.59853
  20
0.49919
  30
0
  11
0.59448
  21
0.49581
  31
0
  0
LINE
  8
0
  10
0.59448
  20
0.49581
  30
0
  11
0.59066
  21
0.492
  31
0
  0
LINE
  8
0
  10
0.59066
  20
0.492
  30
0
  11
0.58713
  21
0.48762
  31
0
  0
LINE
  8
0
  10
0.58713
  20
0.48762
  30
0
  11
0.5855
  21
0.48515
  31
0
  0
LINE
  8
0
  10
0.5855
  20
0.48515
  30
0
  11
0.58399
  21
0.48243
  31
0
  0
LINE
  8
0
  10
0.58399
  20
0.48243
  30
0
  11
0.58263
  21
0.47937
  31
0
  0
LINE
  8
0
  10
0.58263
  20
0.47937
  30
0
  11
0.5815
  21
0.4758
  31
0
  0
LINE
  8
0
  10
0.5815
  20
0.4758
  30
0
  11
0.58078
  21
0.47127
  31
0
  0
LINE
  8
0
  10
0.58078
  20
0.47127
  30
0
  11
0.58657
  21
0.45004
  31
0
  0
LINE
  8
0
  10
0.58657
  20
0.45004
  30
0
  11
0.58657
  21
0.45004
  31
0
  0
LINE
  8
0
  10
0.58657
  20
0.45004
  30
0
  11
0.58657
  21
0.45004
  31
0
  0
LINE
  8
0
  10
0.58657
  20
0.45004
  30
0
  11
0.59522
  21
0.4298
  31
0
  0
LINE
  8
0
  10
0.59522
  20
0.4298
  30
0
  11
0.59859
  21
0.42671
  31
0
  0
LINE
  8
0
  10
0.59859
  20
0.42671
  30
0
  11
0.6017
  21
0.42461
  31
0
  0
LINE
  8
0
  10
0.6017
  20
0.42461
  30
0
  11
0.60466
  21
0.42305
  31
0
  0
LINE
  8
0
  10
0.60466
  20
0.42305
  30
0
  11
0.60754
  21
0.42186
  31
0
  0
LINE
  8
0
  10
0.60754
  20
0.42186
  30
0
  11
0.61035
  21
0.42094
  31
0
  0
LINE
  8
0
  10
0.61035
  20
0.42094
  30
0
  11
0.61584
  21
0.4197
  31
0
  0
LINE
  8
0
  10
0.61584
  20
0.4197
  30
0
  11
0.6212
  21
0.41908
  31
0
  0
LINE
  8
0
  10
0.6212
  20
0.41908
  30
0
  11
0.62647
  21
0.41895
  31
0
  0
LINE
  8
0
  10
0.62647
  20
0.41895
  30
0
  11
0.63682
  21
0.41986
  31
0
  0
LINE
  8
0
  10
0.63682
  20
0.41986
  30
0
  11
0.64695
  21
0.42204
  31
0
  0
LINE
  8
0
  10
0.64695
  20
0.42204
  30
0
  11
0.6569
  21
0.42531
  31
0
  0
LINE
  8
0
  10
0.6569
  20
0.42531
  30
0
  11
0.66707
  21
0.42723
  31
0
  0
LINE
  8
0
  10
0.66707
  20
0.42723
  30
0
  11
0.6778
  21
0.42585
  31
0
  0
LINE
  8
0
  10
0.6778
  20
0.42585
  30
0
  11
0.68868
  21
0.42323
  31
0
  0
LINE
  8
0
  10
0.68868
  20
0.42323
  30
0
  11
0.69965
  21
0.41954
  31
0
  0
LINE
  8
0
  10
0.69965
  20
0.41954
  30
0
  11
0.71065
  21
0.41489
  31
0
  0
LINE
  8
0
  10
0.71065
  20
0.41489
  30
0
  11
0.72163
  21
0.40931
  31
0
  0
LINE
  8
0
  10
0.72163
  20
0.40931
  30
0
  11
0.73255
  21
0.40284
  31
0
  0
LINE
  8
0
  10
0.73255
  20
0.40284
  30
0
  11
0.74337
  21
0.39552
  31
0
  0
LINE
  8
0
  10
0.74337
  20
0.39552
  30
0
  11
0.75405
  21
0.38735
  31
0
  0
LINE
  8
0
  10
0.75405
  20
0.38735
  30
0
  11
0.75361
  21
0.35632
  31
0
  0
LINE
  8
0
  10
0.75361
  20
0.35632
  30
0
  11
0.74272
  21
0.34845
  31
0
  0
LINE
  8
0
  10
0.74272
  20
0.34845
  30
0
  11
0.73169
  21
0.34143
  31
0
  0
LINE
  8
0
  10
0.73169
  20
0.34143
  30
0
  11
0.72059
  21
0.33527
  31
0
  0
LINE
  8
0
  10
0.72059
  20
0.33527
  30
0
  11
0.70946
  21
0.33
  31
0
  0
LINE
  8
0
  10
0.70946
  20
0.33
  30
0
  11
0.69834
  21
0.32565
  31
0
  0
LINE
  8
0
  10
0.69834
  20
0.32565
  30
0
  11
0.68727
  21
0.32228
  31
0
  0
LINE
  8
0
  10
0.68727
  20
0.32228
  30
0
  11
0.67632
  21
0.31996
  31
0
  0
LINE
  8
0
  10
0.67632
  20
0.31996
  30
0
  11
0.66556
  21
0.31888
  31
0
  0
LINE
  8
0
  10
0.66556
  20
0.31888
  30
0
  11
0.65544
  21
0.32108
  31
0
  0
LINE
  8
0
  10
0.65544
  20
0.32108
  30
0
  11
0.64559
  21
0.32463
  31
0
  0
LINE
  8
0
  10
0.64559
  20
0.32463
  30
0
  11
0.63552
  21
0.32709
  31
0
  0
LINE
  8
0
  10
0.63552
  20
0.32709
  30
0
  11
0.62521
  21
0.32829
  31
0
  0
LINE
  8
0
  10
0.62521
  20
0.32829
  30
0
  11
0.61993
  21
0.3283
  31
0
  0
LINE
  8
0
  10
0.61993
  20
0.3283
  30
0
  11
0.61456
  21
0.32784
  31
0
  0
LINE
  8
0
  10
0.61456
  20
0.32784
  30
0
  11
0.60904
  21
0.32675
  31
0
  0
LINE
  8
0
  10
0.60904
  20
0.32675
  30
0
  11
0.6062
  21
0.32591
  31
0
  0
LINE
  8
0
  10
0.6062
  20
0.32591
  30
0
  11
0.60329
  21
0.3248
  31
0
  0
LINE
  8
0
  10
0.60329
  20
0.3248
  30
0
  11
0.60029
  21
0.32333
  31
0
  0
LINE
  8
0
  10
0.60029
  20
0.32333
  30
0
  11
0.59712
  21
0.32131
  31
0
  0
LINE
  8
0
  10
0.59712
  20
0.32131
  30
0
  11
0.59366
  21
0.31831
  31
0
  0
LINE
  8
0
  10
0.59366
  20
0.31831
  30
0
  11
0.58445
  21
0.29833
  31
0
  0
LINE
  8
0
  10
0.58445
  20
0.29833
  30
0
  11
0.58445
  21
0.29833
  31
0
  0
LINE
  8
0
  10
0.58445
  20
0.29833
  30
0
  11
0.58445
  21
0.29833
  31
0
  0
LINE
  8
0
  10
0.58445
  20
0.29833
  30
0
  11
0.57807
  21
0.27727
  31
0
  0
LINE
  8
0
  10
0.57807
  20
0.27727
  30
0
  11
0.57866
  21
0.27272
  31
0
  0
LINE
  8
0
  10
0.57866
  20
0.27272
  30
0
  11
0.57969
  21
0.26912
  31
0
  0
LINE
  8
0
  10
0.57969
  20
0.26912
  30
0
  11
0.58097
  21
0.26602
  31
0
  0
LINE
  8
0
  10
0.58097
  20
0.26602
  30
0
  11
0.5824
  21
0.26326
  31
0
  0
LINE
  8
0
  10
0.5824
  20
0.26326
  30
0
  11
0.58396
  21
0.26075
  31
0
  0
LINE
  8
0
  10
0.58396
  20
0.26075
  30
0
  11
0.58737
  21
0.25627
  31
0
  0
LINE
  8
0
  10
0.58737
  20
0.25627
  30
0
  11
0.59108
  21
0.25235
  31
0
  0
LINE
  8
0
  10
0.59108
  20
0.25235
  30
0
  11
0.59504
  21
0.24886
  31
0
  0
LINE
  8
0
  10
0.59504
  20
0.24886
  30
0
  11
0.60354
  21
0.24291
  31
0
  0
LINE
  8
0
  10
0.60354
  20
0.24291
  30
0
  11
0.61271
  21
0.23807
  31
0
  0
LINE
  8
0
  10
0.61271
  20
0.23807
  30
0
  11
0.62243
  21
0.23418
  31
0
  0
LINE
  8
0
  10
0.62243
  20
0.23418
  30
0
  11
0.63146
  21
0.22911
  31
0
  0
LINE
  8
0
  10
0.63146
  20
0.22911
  30
0
  11
0.63878
  21
0.22116
  31
0
  0
LINE
  8
0
  10
0.63878
  20
0.22116
  30
0
  11
0.64544
  21
0.21215
  31
0
  0
LINE
  8
0
  10
0.64544
  20
0.21215
  30
0
  11
0.65147
  21
0.20228
  31
0
  0
LINE
  8
0
  10
0.65147
  20
0.20228
  30
0
  11
0.6569
  21
0.19164
  31
0
  0
LINE
  8
0
  10
0.6569
  20
0.19164
  30
0
  11
0.66173
  21
0.18031
  31
0
  0
LINE
  8
0
  10
0.66173
  20
0.18031
  30
0
  11
0.66594
  21
0.16834
  31
0
  0
LINE
  8
0
  10
0.66594
  20
0.16834
  30
0
  11
0.66952
  21
0.15577
  31
0
  0
LINE
  8
0
  10
0.66952
  20
0.15577
  30
0
  11
0.67245
  21
0.14265
  31
0
  0
LINE
  8
0
  10
0.67245
  20
0.14265
  30
0
  11
0.65217
  21
0.11915
  31
0
  0
LINE
  8
0
  10
0.65217
  20
0.11915
  30
0
  11
0.63876
  21
0.12013
  31
0
  0
LINE
  8
0
  10
0.63876
  20
0.12013
  30
0
  11
0.62581
  21
0.12184
  31
0
  0
LINE
  8
0
  10
0.62581
  20
0.12184
  30
0
  11
0.61335
  21
0.12426
  31
0
  0
LINE
  8
0
  10
0.61335
  20
0.12426
  30
0
  11
0.60143
  21
0.12738
  31
0
  0
LINE
  8
0
  10
0.60143
  20
0.12738
  30
0
  11
0.59011
  21
0.1312
  31
0
  0
LINE
  8
0
  10
0.59011
  20
0.1312
  30
0
  11
0.57947
  21
0.13573
  31
0
  0
LINE
  8
0
  10
0.57947
  20
0.13573
  30
0
  11
0.56959
  21
0.14099
  31
0
  0
LINE
  8
0
  10
0.56959
  20
0.14099
  30
0
  11
0.56065
  21
0.14708
  31
0
  0
LINE
  8
0
  10
0.56065
  20
0.14708
  30
0
  11
0.55432
  21
0.15527
  31
0
  0
LINE
  8
0
  10
0.55432
  20
0.15527
  30
0
  11
0.54905
  21
0.16432
  31
0
  0
LINE
  8
0
  10
0.54905
  20
0.16432
  30
0
  11
0.54292
  21
0.17268
  31
0
  0
LINE
  8
0
  10
0.54292
  20
0.17268
  30
0
  11
0.53579
  21
0.18022
  31
0
  0
LINE
  8
0
  10
0.53579
  20
0.18022
  30
0
  11
0.53176
  21
0.18362
  31
0
  0
LINE
  8
0
  10
0.53176
  20
0.18362
  30
0
  11
0.52734
  21
0.18672
  31
0
  0
LINE
  8
0
  10
0.52734
  20
0.18672
  30
0
  11
0.52241
  21
0.18944
  31
0
  0
LINE
  8
0
  10
0.52241
  20
0.18944
  30
0
  11
0.5197
  21
0.19062
  31
0
  0
LINE
  8
0
  10
0.5197
  20
0.19062
  30
0
  11
0.51676
  21
0.19164
  31
0
  0
LINE
  8
0
  10
0.51676
  20
0.19164
  30
0
  11
0.51351
  21
0.19244
  31
0
  0
LINE
  8
0
  10
0.51351
  20
0.19244
  30
0
  11
0.50979
  21
0.19293
  31
0
  0
LINE
  8
0
  10
0.50979
  20
0.19293
  30
0
  11
0.50521
  21
0.19286
  31
0
  0
LINE
  8
0
  10
0.50521
  20
0.19286
  30
0
  11
0.48531
  21
0.18347
  31
0
  0
LINE
  8
0
  10
0.48531
  20
0.18347
  30
0
  11
0.48531
  21
0.18347
  31
0
  0
LINE
  8
0
  10
0.48531
  20
0.18347
  30
0
  11
0.48531
  21
0.18347
  31
0
  0
LINE
  8
0
  10
0.48531
  20
0.18347
  30
0
  11
0.46688
  21
0.17144
  31
0
  0
LINE
  8
0
  10
0.46688
  20
0.17144
  30
0
  11
0.46442
  21
0.16757
  31
0
  0
LINE
  8
0
  10
0.46442
  20
0.16757
  30
0
  11
0.46289
  21
0.16415
  31
0
  0
LINE
  8
0
  10
0.46289
  20
0.16415
  30
0
  11
0.46187
  21
0.16096
  31
0
  0
LINE
  8
0
  10
0.46187
  20
0.16096
  30
0
  11
0.4612
  21
0.15792
  31
0
  0
LINE
  8
0
  10
0.4612
  20
0.15792
  30
0
  11
0.46078
  21
0.15499
  31
0
  0
LINE
  8
0
  10
0.46078
  20
0.15499
  30
0
  11
0.46051
  21
0.14937
  31
0
  0
LINE
  8
0
  10
0.46051
  20
0.14937
  30
0
  11
0.46083
  21
0.14399
  31
0
  0
LINE
  8
0
  10
0.46083
  20
0.14399
  30
0
  11
0.46162
  21
0.13877
  31
0
  0
LINE
  8
0
  10
0.46162
  20
0.13877
  30
0
  11
0.46431
  21
0.12874
  31
0
  0
LINE
  8
0
  10
0.46431
  20
0.12874
  30
0
  11
0.46822
  21
0.11914
  31
0
  0
LINE
  8
0
  10
0.46822
  20
0.11914
  30
0
  11
0.47316
  21
0.10992
  31
0
  0
LINE
  8
0
  10
0.47316
  20
0.10992
  30
0
  11
0.47683
  21
0.10023
  31
0
  0
LINE
  8
0
  10
0.47683
  20
0.10023
  30
0
  11
0.47733
  21
0.08943
  31
0
  0
LINE
  8
0
  10
0.47733
  20
0.08943
  30
0
  11
0.47663
  21
0.07825
  31
0
  0
LINE
  8
0
  10
0.47663
  20
0.07825
  30
0
  11
0.47491
  21
0.06681
  31
0
  0
LINE
  8
0
  10
0.47491
  20
0.06681
  30
0
  11
0.47223
  21
0.05517
  31
0
  0
LINE
  8
0
  10
0.47223
  20
0.05517
  30
0
  11
0.46865
  21
0.04339
  31
0
  0
LINE
  8
0
  10
0.46865
  20
0.04339
  30
0
  11
0.46418
  21
0.03151
  31
0
  0
LINE
  8
0
  10
0.46418
  20
0.03151
  30
0
  11
0.45884
  21
0.01958
  31
0
  0
LINE
  8
0
  10
0.45884
  20
0.01958
  30
0
  11
0.45265
  21
0.00765
  31
0
  0
LINE
  8
0
  10
0.45265
  20
0.00765
  30
0
  11
0.42201
  21
0.00269
  31
0
  0
LINE
  8
0
  10
0.42201
  20
0.00269
  30
0
  11
0.41237
  21
0.01205
  31
0
  0
LINE
  8
0
  10
0.41237
  20
0.01205
  30
0
  11
0.40355
  21
0.02169
  31
0
  0
LINE
  8
0
  10
0.40355
  20
0.02169
  30
0
  11
0.39555
  21
0.03155
  31
0
  0
LINE
  8
0
  10
0.39555
  20
0.03155
  30
0
  11
0.38843
  21
0.0416
  31
0
  0
LINE
  8
0
  10
0.38843
  20
0.0416
  30
0
  11
0.38222
  21
0.0518
  31
0
  0
LINE
  8
0
  10
0.38222
  20
0.0518
  30
0
  11
0.37697
  21
0.06211
  31
0
  0
LINE
  8
0
  10
0.37697
  20
0.06211
  30
0
  11
0.37279
  21
0.07249
  31
0
  0
LINE
  8
0
  10
0.37279
  20
0.07249
  30
0
  11
0.36985
  21
0.08291
  31
0
  0
LINE
  8
0
  10
0.36985
  20
0.08291
  30
0
  11
0.37027
  21
0.09325
  31
0
  0
LINE
  8
0
  10
0.37027
  20
0.09325
  30
0
  11
0.37205
  21
0.10357
  31
0
  0
LINE
  8
0
  10
0.37205
  20
0.10357
  30
0
  11
0.37273
  21
0.11391
  31
0
  0
LINE
  8
0
  10
0.37273
  20
0.11391
  30
0
  11
0.37211
  21
0.12427
  31
0
  0
LINE
  8
0
  10
0.37211
  20
0.12427
  30
0
  11
0.37121
  21
0.12947
  31
0
  0
LINE
  8
0
  10
0.37121
  20
0.12947
  30
0
  11
0.36982
  21
0.13469
  31
0
  0
LINE
  8
0
  10
0.36982
  20
0.13469
  30
0
  11
0.3678
  21
0.13993
  31
0
  0
LINE
  8
0
  10
0.3678
  20
0.13993
  30
0
  11
0.36647
  21
0.14258
  31
0
  0
LINE
  8
0
  10
0.36647
  20
0.14258
  30
0
  11
0.36487
  21
0.14525
  31
0
  0
LINE
  8
0
  10
0.36487
  20
0.14525
  30
0
  11
0.3629
  21
0.14796
  31
0
  0
LINE
  8
0
  10
0.3629
  20
0.14796
  30
0
  11
0.36037
  21
0.15072
  31
0
  0
LINE
  8
0
  10
0.36037
  20
0.15072
  30
0
  11
0.35681
  21
0.15361
  31
0
  0
LINE
  8
0
  10
0.35681
  20
0.15361
  30
0
  11
0.33553
  21
0.15921
  31
0
  0
LINE
  8
0
  10
0.33553
  20
0.15921
  30
0
  11
0.33553
  21
0.15921
  31
0
  0
LINE
  8
0
  10
0.33553
  20
0.15921
  30
0
  11
0.33553
  21
0.15921
  31
0
  0
LINE
  8
0
  10
0.33553
  20
0.15921
  30
0
  11
0.31368
  21
0.16184
  31
0
  0
LINE
  8
0
  10
0.31368
  20
0.16184
  30
0
  11
0.30931
  21
0.16046
  31
0
  0
LINE
  8
0
  10
0.30931
  20
0.16046
  30
0
  11
0.30594
  21
0.15882
  31
0
  0
LINE
  8
0
  10
0.30594
  20
0.15882
  30
0
  11
0.30311
  21
0.15703
  31
0
  0
LINE
  8
0
  10
0.30311
  20
0.15703
  30
0
  11
0.30064
  21
0.15514
  31
0
  0
LINE
  8
0
  10
0.30064
  20
0.15514
  30
0
  11
0.29843
  21
0.15317
  31
0
  0
LINE
  8
0
  10
0.29843
  20
0.15317
  30
0
  11
0.29462
  21
0.14903
  31
0
  0
LINE
  8
0
  10
0.29462
  20
0.14903
  30
0
  11
0.2914
  21
0.1447
  31
0
  0
LINE
  8
0
  10
0.2914
  20
0.1447
  30
0
  11
0.28865
  21
0.14019
  31
0
  0
LINE
  8
0
  10
0.28865
  20
0.14019
  30
0
  11
0.28427
  21
0.13078
  31
0
  0
LINE
  8
0
  10
0.28427
  20
0.13078
  30
0
  11
0.28109
  21
0.12092
  31
0
  0
LINE
  8
0
  10
0.28109
  20
0.12092
  30
0
  11
0.27895
  21
0.11067
  31
0
  0
LINE
  8
0
  10
0.27895
  20
0.11067
  30
0
  11
0.27553
  21
0.1009
  31
0
  0
LINE
  8
0
  10
0.27553
  20
0.1009
  30
0
  11
0.26897
  21
0.0923
  31
0
  0
LINE
  8
0
  10
0.26897
  20
0.0923
  30
0
  11
0.26125
  21
0.08419
  31
0
  0
LINE
  8
0
  10
0.26125
  20
0.08419
  30
0
  11
0.25258
  21
0.07653
  31
0
  0
LINE
  8
0
  10
0.25258
  20
0.07653
  30
0
  11
0.24305
  21
0.06933
  31
0
  0
LINE
  8
0
  10
0.24305
  20
0.06933
  30
0
  11
0.23273
  21
0.06261
  31
0
  0
LINE
  8
0
  10
0.23273
  20
0.06261
  30
0
  11
0.22167
  21
0.05638
  31
0
  0
LINE
  8
0
  10
0.22167
  20
0.05638
  30
0
  11
0.20991
  21
0.05068
  31
0
  0
LINE
  8
0
  10
0.20991
  20
0.05068
  30
0
  11
0.1975
  21
0.04551
  31
0
  0
LINE
  8
0
  10
0.1975
  20
0.04551
  30
0
  11
0.17084
  21
0.06141
  31
0
  0
LINE
  8
0
  10
0.17084
  20
0.06141
  30
0
  11
0.16948
  21
0.07478
  31
0
  0
LINE
  8
0
  10
0.16948
  20
0.07478
  30
0
  11
0.16891
  21
0.08783
  31
0
  0
LINE
  8
0
  10
0.16891
  20
0.08783
  30
0
  11
0.16912
  21
0.10052
  31
0
  0
LINE
  8
0
  10
0.16912
  20
0.10052
  30
0
  11
0.17013
  21
0.1128
  31
0
  0
LINE
  8
0
  10
0.17013
  20
0.1128
  30
0
  11
0.17193
  21
0.12461
  31
0
  0
LINE
  8
0
  10
0.17193
  20
0.12461
  30
0
  11
0.17454
  21
0.13588
  31
0
  0
LINE
  8
0
  10
0.17454
  20
0.13588
  30
0
  11
0.178
  21
0.14652
  31
0
  0
LINE
  8
0
  10
0.178
  20
0.14652
  30
0
  11
0.18245
  21
0.15639
  31
0
  0
LINE
  8
0
  10
0.18245
  20
0.15639
  30
0
  11
0.18941
  21
0.16404
  31
0
  0
LINE
  8
0
  10
0.18941
  20
0.16404
  30
0
  11
0.19741
  21
0.1708
  31
0
  0
LINE
  8
0
  10
0.19741
  20
0.1708
  30
0
  11
0.20458
  21
0.17829
  31
0
  0
LINE
  8
0
  10
0.20458
  20
0.17829
  30
0
  11
0.21077
  21
0.18662
  31
0
  0
LINE
  8
0
  10
0.21077
  20
0.18662
  30
0
  11
0.21342
  21
0.19118
  31
0
  0
LINE
  8
0
  10
0.21342
  20
0.19118
  30
0
  11
0.21571
  21
0.19607
  31
0
  0
LINE
  8
0
  10
0.21571
  20
0.19607
  30
0
  11
0.21753
  21
0.2014
  31
0
  0
LINE
  8
0
  10
0.21753
  20
0.2014
  30
0
  11
0.21822
  21
0.20427
  31
0
  0
LINE
  8
0
  10
0.21822
  20
0.20427
  30
0
  11
0.2187
  21
0.20735
  31
0
  0
LINE
  8
0
  10
0.2187
  20
0.20735
  30
0
  11
0.21893
  21
0.21069
  31
0
  0
LINE
  8
0
  10
0.21893
  20
0.21069
  30
0
  11
0.21877
  21
0.21443
  31
0
  0
LINE
  8
0
  10
0.21877
  20
0.21443
  30
0
  11
0.21791
  21
0.21893
  31
0
  0
LINE
  8
0
  10
0.21791
  20
0.21893
  30
0
  11
0.2052
  21
0.2369
  31
0
  0
LINE
  8
0
  10
0.2052
  20
0.2369
  30
0
  11
0.2052
  21
0.2369
  31
0
  0
LINE
  8
0
  10
0.2052
  20
0.2369
  30
0
  11
0.2052
  21
0.2369
  31
0
  0
LINE
  8
0
  10
0.45209
  20
0.37709
  30
0
  11
0.45209
  21
0.37709
  31
0
  0
LINE
  8
0
  10
0.45209
  20
0.37709
  30
0
  11
0.44954
  21
0.39651
  31
0
  0
LINE
  8
0
  10
0.44954
  20
0.39651
  30
0
  11
0.44205
  21
0.41459
  31
0
  0
LINE
  8
0
  10
0.44205
  20
0.41459
  30
0
  11
0.43013
  21
0.43013
  31
0
  0
LINE
  8
0
  10
0.43013
  20
0.43013
  30
0
  11
0.41459
  21
0.44205
  31
0
  0
LINE
  8
0
  10
0.41459
  20
0.44205
  30
0
  11
0.39651
  21
0.44954
  31
0
  0
LINE
  8
0
  10
0.39651
  20
0.44954
  30
0
  11
0.37709
  21
0.45209
  31
0
  0
LINE
  8
0
  10
0.37709
  20
0.45209
  30
0
  11
0.35768
  21
0.44954
  31
0
  0
LINE
  8
0
  10
0.35768
  20
0.44954
  30
0
  11
0.33959
  21
0.44205
  31
0
  0
LINE
  8
0
  10
0.33959
  20
0.44205
  30
0
  11
0.32406
  21
0.43013
  31
0
  0
LINE
  8
0
  10
0.32406
  20
0.43013
  30
0
  11
0.31214
  21
0.41459
  31
0
  0
LINE
  8
0
  10
0.31214
  20
0.41459
  30
0
  11
0.30465
  21
0.39651
  31
0
  0
LINE
  8
0
  10
0.30465
  20
0.39651
  30
0
  11
0.30209
  21
0.37709
  31
0
  0
LINE
  8
0
  10
0.30209
  20
0.37709
  30
0
  11
0.30465
  21
0.35768
  31
0
  0
LINE
  8
0
  10
0.30465
  20
0.35768
  30
0
  11
0.31214
  21
0.33959
  31
0
  0
LINE
  8
0
  10
0.31214
  20
0.33959
  30
0
  11
0.32406
  21
0.32406
  31
0
  0
LINE
  8
0
  10
0.32406
  20
0.32406
  30
0
  11
0.33959
  21
0.31214
  31
0
  0
LINE
  8
0
  10
0.33959
  20
0.31214
  30
0
  11
0.35768
  21
0.30465
  31
0
  0
LINE
  8
0
  10
0.35768
  20
0.30465
  30
0
  11
0.37709
  21
0.30209
  31
0
  0
LINE
  8
0
  10
0.37709
  20
0.30209
  30
0
  11
0.39651
  21
0.30465
  31
0
  0
LINE
  8
0
  10
0.39651
  20
0.30465
  30
0
  11
0.41459
  21
0.31214
  31
0
  0
LINE
  8
0
  10
0.41459
  20
0.31214
  30
0
  11
0.43013
  21
0.32406
  31
0
  0
LINE
  8
0
  10
0.43013
  20
0.32406
  30
0
  11
0.44205
  21
0.33959
  31
0
  0
LINE
  8
0
  10
0.44205
  20
0.33959
  30
0
  11
0.44954
  21
0.35768
  31
0
  0
LINE
  8
0
  10
0.44954
  20
0.35768
  30
0
  11
0.45209
  21
0.37709
  31
0
  0
LINE
  8
0
  10
0.45209
  20
0.37709
  30
0
  11
0.45209
  21
0.37709
  31
0
  0
ENDSEC
  0
EOF
